<?xml version="1.0" encoding="utf-8"?>
<!-- Generator: Adobe Illustrator 21.0.2, SVG Export Plug-In . SVG Version: 6.00 Build 0)  -->
<svg version="1.1" xmlns="http://www.w3.org/2000/svg" xmlns:xlink="http://www.w3.org/1999/xlink" x="0px" y="0px"
	 viewBox="0 0 240 240" style="enable-background:new 0 0 240 240;" xml:space="preserve">
<style type="text/css">
	.st0{fill:#F1F3F5;}
	.st1{fill:none;}
	.st2{fill:none;stroke:#B2BCC5;stroke-width:1.556;stroke-linecap:round;stroke-linejoin:round;stroke-miterlimit:10;}
	.st3{fill:none;stroke:#A1ABB4;stroke-width:2;stroke-linecap:square;stroke-linejoin:round;}
	.st4{fill:#002D5A;}
	.st5{fill:#00A5FF;}
	.st6{fill:none;stroke:#B2BCC5;stroke-width:1.25;stroke-linejoin:round;stroke-miterlimit:10;}
	.st7{fill:#F0AA00;}
	.st8{fill:#BE232D;}
	.st9{fill:none;stroke:#B2BCC5;stroke-width:1.67;stroke-linejoin:round;stroke-miterlimit:10;}
	.st10{fill:none;stroke:#002D5A;stroke-width:5;stroke-miterlimit:10;}
	.st11{fill:none;stroke:#9099A3;stroke-width:1.25;stroke-linecap:square;stroke-linejoin:round;stroke-miterlimit:10;}
	.st12{fill:none;stroke:#9099A3;stroke-width:1.25;stroke-linecap:square;stroke-linejoin:round;}
	.st13{fill:#9099A3;}
	.st14{fill:#CBD2D8;stroke:#E4E8EB;stroke-width:0.5;stroke-miterlimit:10;}
	.st15{fill:#B2BCC5;stroke:#E4E8EB;stroke-width:0.5;stroke-miterlimit:10;}
	.st16{fill:#00A5FF;stroke:#E4E8EB;stroke-width:0.5;stroke-miterlimit:10;}
	.st17{fill:#0064B4;stroke:#E4E8EB;stroke-width:0.5;stroke-miterlimit:10;}
	.st18{fill:#002D5A;stroke:#E4E8EB;stroke-width:0.5;stroke-miterlimit:10;}
	.st19{fill:#0096FA;stroke:#E4E8EB;stroke-width:0.5;stroke-miterlimit:10;}
	.st20{fill:none;stroke:#00A5FF;stroke-width:5;stroke-miterlimit:10;}
	.st21{fill:none;stroke:#9099A3;stroke-width:5;stroke-miterlimit:10;}
	.st22{fill:none;stroke:#5C666E;stroke-width:2;stroke-linejoin:round;}
	.st23{fill:#B2BCC5;}
	.st24{fill:none;stroke:#00A5FF;stroke-width:2;stroke-linecap:round;stroke-linejoin:round;stroke-miterlimit:10;}
	.st25{fill:none;stroke:#002D5A;stroke-width:2;stroke-linecap:round;stroke-linejoin:round;stroke-miterlimit:10;}
	.st26{fill:none;stroke:#002D5A;stroke-width:6;stroke-linejoin:round;stroke-miterlimit:10;}
	.st27{fill:none;stroke:#00A5FF;stroke-width:6;stroke-linejoin:round;stroke-miterlimit:10;}
	.st28{fill:#E4E8EB;}
	.st29{fill:none;stroke:#002D5A;stroke-width:5;stroke-linejoin:round;stroke-miterlimit:10;}
	
		.st30{fill:none;stroke:#B2BCC5;stroke-width:1.556;stroke-linecap:round;stroke-linejoin:round;stroke-miterlimit:10;stroke-dasharray:4,4;}
	.st31{fill:#CBD2D8;stroke:#F1F3F5;stroke-width:0.5;stroke-linejoin:round;}
	.st32{fill:#00A5FF;stroke:#D8DDE2;stroke-miterlimit:10;}
	.st33{fill:#002D5A;stroke:#D8DDE2;stroke-miterlimit:10;}
	.st34{fill:none;stroke:#D8DDE2;stroke-width:4;stroke-miterlimit:10;}
	.st35{fill:none;stroke:#6D7780;stroke-width:1.25;stroke-miterlimit:10;}
	.st36{fill:none;stroke:#D8DDE2;stroke-width:1.556;stroke-linecap:round;stroke-linejoin:round;stroke-miterlimit:10;}
	.st37{fill:#5C666E;}
	.st38{fill:#D8DDE2;}
	.st39{fill:#9099A3;stroke:#D8DDE2;stroke-miterlimit:10;}
	.st40{fill:#002D5A;stroke:#F1F3F5;stroke-width:2;stroke-miterlimit:10;}
	.st41{fill:#00A5FF;stroke:#F1F3F5;stroke-width:2;stroke-miterlimit:10;}
	.st42{fill:#A1ABB4;stroke:#F1F3F5;stroke-width:2;stroke-miterlimit:10;}
	.st43{fill:#00A5FF;stroke:#F1F3F5;stroke-miterlimit:10;}
	.st44{fill:#002D5A;stroke:#F1F3F5;stroke-miterlimit:10;}
	.st45{fill:#BFC7CE;stroke:#F1F3F5;stroke-miterlimit:10;}
	.st46{fill:#E4E8EB;stroke:#F1F3F5;stroke-miterlimit:10;}
	.st47{fill:#6D7780;stroke:#F1F3F5;stroke-miterlimit:10;}
	.st48{fill:#3B444D;stroke:#F1F3F5;stroke-miterlimit:10;}
	.st49{fill:#BFC7CE;}
	.st50{fill:#A1ABB4;}
	.st51{opacity:0.64;fill:#00A5FF;}
	.st52{opacity:0.64;fill:none;}
	.st53{opacity:0.64;fill:#0064B4;}
	.st54{opacity:0.64;fill:#002D5A;}
	.st55{opacity:0.64;fill:#0096FA;}
	.st56{fill:#1E1E1C;}
	.st57{fill:#B2BCC5;stroke:#F1F3F5;stroke-width:0.5;stroke-linejoin:round;}
	.st58{fill:#00A5FF;stroke:#F1F3F5;stroke-width:0.5;stroke-linejoin:round;}
	.st59{fill:#BFC7CE;stroke:#F1F3F5;stroke-width:0.5;stroke-linejoin:round;}
	.st60{fill:#002D5A;stroke:#F1F3F5;stroke-width:0.5;stroke-linejoin:round;}
	.st61{fill:#0064B4;stroke:#F1F3F5;stroke-width:0.5;stroke-linejoin:round;}
	.st62{fill:#3B444D;}
	.st63{fill:#CBD2D8;}
	.st64{fill:none;stroke:#00A5FF;stroke-width:3;stroke-miterlimit:10;}
	.st65{fill:none;stroke:#00A5FF;stroke-width:2;stroke-miterlimit:10;}
	.st66{fill:none;stroke:#00A5FF;stroke-miterlimit:10;}
	.st67{fill:none;stroke:#565B61;}
	.st68{fill:#80BF1B;}
	.st69{fill:none;stroke:#E4E8EB;stroke-width:1.875;}
	.st70{fill:none;stroke:#BFC7CE;stroke-width:1.875;stroke-linejoin:round;stroke-miterlimit:10;}
	.st71{fill:none;stroke:#002D5A;stroke-width:1.875;stroke-linejoin:round;stroke-miterlimit:10;}
	.st72{fill:none;stroke:#00A5FF;stroke-width:2.5;}
	.st73{opacity:0.85;fill:#00A5FF;}
</style>
<g id="Hintergrund">
	<rect x="0" class="st0" width="240" height="240"/>
</g>
<g id="Diagramme_1_">
	<g id="Diagramme">
	</g>
	<g id="Ebene_1">
	</g>
	<g id="Picto2">
	</g>
	<g id="Landkarten">
		<g>
			<path class="st4" d="M184,132c-55-7-70-39.9-70-77l15,2c0,35.7,21.3,63.3,57.1,63.3L184,132z"/>
		</g>
		<path class="st4" d="M116,58c0,0,7.7,64.8-44.9,98C68,158,84,174,84,174s62.4-53.6,38.8-114.7C120,52,116,58,116,58z"/>
		<path class="st4" d="M129,57c0,0-13,75,37,109c4.4,3-7,5-7,5s-48-40-36-117L129,57z"/>
		<g>
			<path class="st37" d="M55.5,121.2v-2.5c35.7,0,64.8-29.1,64.8-64.8h2.5C122.8,91,92.6,121.2,55.5,121.2z"/>
		</g>
		<g>
			<path class="st5" d="M112,185c1-41-9.7-81-38.5-109.7l1.8-1.8C120,111,129.7,139.7,131,181L112,185z"/>
		</g>
		<g>
			<path class="st5" d="M92.9,83.8c-7.6,0-14.7-2.9-20-8.3l1.8-1.8c4.9,4.9,11.4,7.6,18.3,7.6c14.2,0,25.8-11.6,25.8-25.8h2.5
				C121.3,71.1,108.5,83.8,92.9,83.8z"/>
		</g>
		<g>
			<path class="st50" d="M164.7,168.7C152,156,145,139.1,145,121.1s7-34.9,19.7-47.6L167,77c-12.2,12.2-19,26.7-19,44
				s6.3,33.7,18.5,46L164.7,168.7z"/>
		</g>
		<g>
			<path class="st62" d="M143.2,176.1l2.9,6.9c16.7-6.9,30-20.3,36.9-36.9l-6.9-2.9C170,158.1,158.1,170,143.2,176.1z"/>
			<path class="st49" d="M183.1,93.9l-6.9,2.9c3,7.2,4.6,15,4.6,23.2s-1.7,16.1-4.6,23.2l6.9,2.9c3.3-8.1,5.2-16.9,5.2-26.1
				S186.4,101.9,183.1,93.9z"/>
			<path class="st13" d="M120,180.8c-8.2,0-16.1-1.7-23.2-4.6l-2.9,6.9c8.1,3.3,16.9,5.2,26.1,5.2c9.2,0,18.1-1.9,26.1-5.2l-2.9-6.9
				C136.1,179.1,128.2,180.8,120,180.8z"/>
			<path class="st13" d="M176.1,96.7l6.9-2.9c-6.9-16.7-20.3-30-36.9-36.9l-2.9,6.9C158.1,70,170,81.9,176.1,96.7z"/>
			<path class="st4" d="M120,59.2c8.2,0,16.1,1.7,23.3,4.6l2.9-6.9c-8.1-3.3-16.9-5.2-26.1-5.2c-9.2,0-18.1,1.9-26.1,5.2l2.9,6.9
				C103.9,60.9,111.8,59.2,120,59.2z"/>
			<path class="st63" d="M63.9,143.2l-6.9,2.9c6.9,16.7,20.3,30,36.9,36.9l2.9-6.9C81.9,170,70,158.1,63.9,143.2z"/>
			<path class="st5" d="M96.7,63.9l-2.9-6.9c-16.7,6.9-30,20.3-36.9,36.9l6.9,2.9C70,81.9,81.9,70,96.7,63.9z"/>
			<path class="st37" d="M59.2,120c0-8.2,1.7-16.1,4.6-23.2l-6.9-2.9c-3.3,8.1-5.2,16.9-5.2,26.1c0,9.2,1.9,18.1,5.2,26.1l6.9-2.9
				C60.9,136.1,59.2,128.2,59.2,120z"/>
		</g>
	</g>
	<g id="Layer_1">
	</g>
</g>
</svg>
