<?xml version="1.0" encoding="utf-8"?>
<!-- Generator: Adobe Illustrator 21.0.2, SVG Export Plug-In . SVG Version: 6.00 Build 0)  -->
<svg version="1.1" xmlns="http://www.w3.org/2000/svg" xmlns:xlink="http://www.w3.org/1999/xlink" x="0px" y="0px"
	 viewBox="0 0 240 240" style="enable-background:new 0 0 240 240;" xml:space="preserve">
<style type="text/css">
	.st0{fill:#F1F3F5;}
	.st1{fill:none;}
	.st2{fill:none;stroke:#B2BCC5;stroke-width:1.556;stroke-linecap:round;stroke-linejoin:round;stroke-miterlimit:10;}
	.st3{fill:none;stroke:#A1ABB4;stroke-width:2;stroke-linecap:square;stroke-linejoin:round;}
	.st4{fill:#002D5A;}
	.st5{fill:#00A5FF;}
	.st6{fill:none;stroke:#B2BCC5;stroke-width:1.25;stroke-linejoin:round;stroke-miterlimit:10;}
	.st7{fill:#F0AA00;}
	.st8{fill:#BE232D;}
	.st9{fill:none;stroke:#B2BCC5;stroke-width:1.67;stroke-linejoin:round;stroke-miterlimit:10;}
	.st10{fill:none;stroke:#002D5A;stroke-width:5;stroke-miterlimit:10;}
	.st11{fill:none;stroke:#9099A3;stroke-width:1.25;stroke-linecap:square;stroke-linejoin:round;stroke-miterlimit:10;}
	.st12{fill:none;stroke:#9099A3;stroke-width:1.25;stroke-linecap:square;stroke-linejoin:round;}
	.st13{fill:#9099A3;}
	.st14{fill:#CBD2D8;stroke:#E4E8EB;stroke-width:0.5;stroke-miterlimit:10;}
	.st15{fill:#B2BCC5;stroke:#E4E8EB;stroke-width:0.5;stroke-miterlimit:10;}
	.st16{fill:#00A5FF;stroke:#E4E8EB;stroke-width:0.5;stroke-miterlimit:10;}
	.st17{fill:#0064B4;stroke:#E4E8EB;stroke-width:0.5;stroke-miterlimit:10;}
	.st18{fill:#002D5A;stroke:#E4E8EB;stroke-width:0.5;stroke-miterlimit:10;}
	.st19{fill:#0096FA;stroke:#E4E8EB;stroke-width:0.5;stroke-miterlimit:10;}
	.st20{fill:none;stroke:#00A5FF;stroke-width:5;stroke-miterlimit:10;}
	.st21{fill:none;stroke:#9099A3;stroke-width:5;stroke-miterlimit:10;}
	.st22{fill:none;stroke:#5C666E;stroke-width:2;stroke-linejoin:round;}
	.st23{fill:#B2BCC5;}
	.st24{fill:none;stroke:#00A5FF;stroke-width:2;stroke-linecap:round;stroke-linejoin:round;stroke-miterlimit:10;}
	.st25{fill:none;stroke:#002D5A;stroke-width:2;stroke-linecap:round;stroke-linejoin:round;stroke-miterlimit:10;}
	.st26{fill:none;stroke:#002D5A;stroke-width:6;stroke-linejoin:round;stroke-miterlimit:10;}
	.st27{fill:none;stroke:#00A5FF;stroke-width:6;stroke-linejoin:round;stroke-miterlimit:10;}
	.st28{fill:#E4E8EB;}
	.st29{fill:none;stroke:#002D5A;stroke-width:5;stroke-linejoin:round;stroke-miterlimit:10;}
	
		.st30{fill:none;stroke:#B2BCC5;stroke-width:1.556;stroke-linecap:round;stroke-linejoin:round;stroke-miterlimit:10;stroke-dasharray:4,4;}
	.st31{fill:#CBD2D8;stroke:#F1F3F5;stroke-width:0.5;stroke-linejoin:round;}
	.st32{fill:#00A5FF;stroke:#D8DDE2;stroke-miterlimit:10;}
	.st33{fill:#002D5A;stroke:#D8DDE2;stroke-miterlimit:10;}
	.st34{fill:none;stroke:#D8DDE2;stroke-width:4;stroke-miterlimit:10;}
	.st35{fill:none;stroke:#6D7780;stroke-width:1.25;stroke-miterlimit:10;}
	.st36{fill:none;stroke:#D8DDE2;stroke-width:1.556;stroke-linecap:round;stroke-linejoin:round;stroke-miterlimit:10;}
	.st37{fill:#5C666E;}
	.st38{fill:#D8DDE2;}
	.st39{fill:#9099A3;stroke:#D8DDE2;stroke-miterlimit:10;}
	.st40{fill:#002D5A;stroke:#F1F3F5;stroke-width:2;stroke-miterlimit:10;}
	.st41{fill:#00A5FF;stroke:#F1F3F5;stroke-width:2;stroke-miterlimit:10;}
	.st42{fill:#A1ABB4;stroke:#F1F3F5;stroke-width:2;stroke-miterlimit:10;}
	.st43{fill:#00A5FF;stroke:#F1F3F5;stroke-miterlimit:10;}
	.st44{fill:#002D5A;stroke:#F1F3F5;stroke-miterlimit:10;}
	.st45{fill:#BFC7CE;stroke:#F1F3F5;stroke-miterlimit:10;}
	.st46{fill:#E4E8EB;stroke:#F1F3F5;stroke-miterlimit:10;}
	.st47{fill:#6D7780;stroke:#F1F3F5;stroke-miterlimit:10;}
	.st48{fill:#3B444D;stroke:#F1F3F5;stroke-miterlimit:10;}
	.st49{fill:#BFC7CE;}
	.st50{fill:#A1ABB4;}
	.st51{opacity:0.64;fill:#00A5FF;}
	.st52{opacity:0.64;fill:none;}
	.st53{opacity:0.64;fill:#0064B4;}
	.st54{opacity:0.64;fill:#002D5A;}
	.st55{opacity:0.64;fill:#0096FA;}
	.st56{fill:#1E1E1C;}
	.st57{fill:#B2BCC5;stroke:#F1F3F5;stroke-width:0.5;stroke-linejoin:round;}
	.st58{fill:#00A5FF;stroke:#F1F3F5;stroke-width:0.5;stroke-linejoin:round;}
	.st59{fill:#BFC7CE;stroke:#F1F3F5;stroke-width:0.5;stroke-linejoin:round;}
	.st60{fill:#002D5A;stroke:#F1F3F5;stroke-width:0.5;stroke-linejoin:round;}
	.st61{fill:#0064B4;stroke:#F1F3F5;stroke-width:0.5;stroke-linejoin:round;}
	.st62{fill:none;stroke:#00A5FF;stroke-width:3;stroke-miterlimit:10;}
	.st63{fill:none;stroke:#00A5FF;stroke-width:2;stroke-miterlimit:10;}
	.st64{fill:none;stroke:#00A5FF;stroke-miterlimit:10;}
</style>
<g id="Hintergrund">
	<rect x="0" class="st0" width="240" height="240"/>
</g>
<g id="Diagramme_1_">
	<g id="Diagramme">
		<rect x="129.5" y="200.5" class="st5" width="59.9" height="4.9"/>
		<rect x="129.5" y="193.6" class="st5" width="60.4" height="4.9"/>
		<rect x="129.5" y="186.7" class="st5" width="61.3" height="4.9"/>
		<rect x="129.5" y="179.9" class="st5" width="62.9" height="4.9"/>
		<rect x="129.5" y="173" class="st5" width="66.1" height="4.9"/>
		<rect x="129.5" y="166.1" class="st5" width="71.5" height="4.9"/>
		<rect x="129.5" y="159.3" class="st5" width="55" height="4.9"/>
		<rect x="129.5" y="152.4" class="st5" width="53" height="4.9"/>
		<rect x="129.5" y="145.6" class="st5" width="70.8" height="4.9"/>
		<rect x="129.5" y="138.7" class="st5" width="52.8" height="4.9"/>
		<rect x="129.5" y="131.8" class="st5" width="48.7" height="4.9"/>
		<rect x="129.5" y="125" class="st5" width="43.2" height="4.9"/>
		<rect x="129.5" y="118.1" class="st5" width="38.5" height="4.9"/>
		<rect x="129.5" y="111.2" class="st5" width="39.6" height="4.9"/>
		<rect x="129.5" y="104.4" class="st5" width="38.9" height="4.9"/>
		<rect x="129.5" y="97.5" class="st5" width="37.5" height="4.9"/>
		<rect x="129.5" y="90.6" class="st5" width="35" height="4.9"/>
		<rect x="129.5" y="83.8" class="st5" width="32.7" height="4.9"/>
		<rect x="129.5" y="76.9" class="st5" width="30.5" height="4.9"/>
		<rect x="129.5" y="70" class="st5" width="42.6" height="4.9"/>
		<rect x="129.5" y="63.2" class="st5" width="27.6" height="4.9"/>
		<rect x="129.5" y="56.3" class="st5" width="25.5" height="4.9"/>
		<rect x="129.5" y="49.5" class="st5" width="24.1" height="4.9"/>
		<rect x="129.5" y="42.6" class="st5" width="21.9" height="4.9"/>
		<rect x="129.5" y="35.7" class="st5" width="19.4" height="4.9"/>
		<rect x="129.5" y="28.9" class="st5" width="16.9" height="4.9"/>
		<rect x="48.7" y="200.5" class="st23" width="75.9" height="4.9"/>
		<rect x="48.2" y="193.6" class="st23" width="76.4" height="4.9"/>
		<rect x="46.7" y="186.7" class="st23" width="77.9" height="4.9"/>
		<rect x="45.3" y="179.9" class="st23" width="79.3" height="4.9"/>
		<rect x="41.7" y="173" class="st23" width="82.9" height="4.9"/>
		<rect x="36" y="166.1" class="st23" width="88.6" height="4.9"/>
		<rect x="52.9" y="159.3" class="st23" width="71.7" height="4.9"/>
		<rect x="54.5" y="152.4" class="st23" width="70.1" height="4.9"/>
		<rect x="44" y="145.6" class="st23" width="80.6" height="4.9"/>
		<rect x="54.7" y="138.7" class="st23" width="69.9" height="4.9"/>
		<rect x="58" y="131.8" class="st23" width="66.6" height="4.9"/>
		<rect x="63.3" y="125" class="st23" width="61.3" height="4.9"/>
		<rect x="67.7" y="118.1" class="st23" width="56.9" height="4.9"/>
		<rect x="66.3" y="111.2" class="st23" width="58.3" height="4.9"/>
		<rect x="66.6" y="104.4" class="st23" width="58" height="4.9"/>
		<rect x="67.9" y="97.5" class="st23" width="56.7" height="4.9"/>
		<rect x="69.9" y="90.6" class="st23" width="54.7" height="4.9"/>
		<rect x="71.7" y="83.8" class="st23" width="52.9" height="4.9"/>
		<rect x="73.6" y="76.9" class="st23" width="51" height="4.9"/>
		<rect x="71.8" y="70" class="st23" width="52.8" height="4.9"/>
		<rect x="76.3" y="63.2" class="st23" width="48.3" height="4.9"/>
		<rect x="77.8" y="56.3" class="st23" width="46.8" height="4.9"/>
		<rect x="78.8" y="49.5" class="st23" width="45.8" height="4.9"/>
		<rect x="80.4" y="42.6" class="st23" width="44.2" height="4.9"/>
		<rect x="82.4" y="35.7" class="st23" width="42.2" height="4.9"/>
		<rect x="85.3" y="28.9" class="st23" width="39.3" height="4.9"/>
	</g>
	<g id="Ebene_1">
	</g>
	<g id="Picto2">
	</g>
	<g id="Landkarten">
	</g>
	<g id="Layer_1">
	</g>
</g>
</svg>
