<?xml version="1.0" encoding="utf-8"?>
<!-- Generator: Adobe Illustrator 21.0.2, SVG Export Plug-In . SVG Version: 6.00 Build 0)  -->
<svg version="1.1" xmlns="http://www.w3.org/2000/svg" xmlns:xlink="http://www.w3.org/1999/xlink" x="0px" y="0px"
	 viewBox="0 0 240 240" style="enable-background:new 0 0 240 240;" xml:space="preserve">
<style type="text/css">
	.st0{fill:#F1F3F5;}
	.st1{fill:none;}
	.st2{fill:none;stroke:#B2BCC5;stroke-width:1.556;stroke-linecap:round;stroke-linejoin:round;stroke-miterlimit:10;}
	.st3{fill:none;stroke:#A1ABB4;stroke-width:2;stroke-linecap:square;stroke-linejoin:round;}
	.st4{fill:#002D5A;}
	.st5{fill:#00A5FF;}
	.st6{fill:none;stroke:#B2BCC5;stroke-width:1.25;stroke-linejoin:round;stroke-miterlimit:10;}
	.st7{fill:#F0AA00;}
	.st8{fill:#BE232D;}
	.st9{fill:none;stroke:#B2BCC5;stroke-width:1.67;stroke-linejoin:round;stroke-miterlimit:10;}
	.st10{fill:none;stroke:#002D5A;stroke-width:5;stroke-miterlimit:10;}
	.st11{fill:none;stroke:#9099A3;stroke-width:1.25;stroke-linecap:square;stroke-linejoin:round;stroke-miterlimit:10;}
	.st12{fill:none;stroke:#9099A3;stroke-width:1.25;stroke-linecap:square;stroke-linejoin:round;}
	.st13{fill:#9099A3;}
	.st14{fill:#CBD2D8;stroke:#E4E8EB;stroke-width:0.5;stroke-miterlimit:10;}
	.st15{fill:#B2BCC5;stroke:#E4E8EB;stroke-width:0.5;stroke-miterlimit:10;}
	.st16{fill:#00A5FF;stroke:#E4E8EB;stroke-width:0.5;stroke-miterlimit:10;}
	.st17{fill:#0064B4;stroke:#E4E8EB;stroke-width:0.5;stroke-miterlimit:10;}
	.st18{fill:#002D5A;stroke:#E4E8EB;stroke-width:0.5;stroke-miterlimit:10;}
	.st19{fill:#0096FA;stroke:#E4E8EB;stroke-width:0.5;stroke-miterlimit:10;}
	.st20{fill:none;stroke:#00A5FF;stroke-width:5;stroke-miterlimit:10;}
	.st21{fill:none;stroke:#9099A3;stroke-width:5;stroke-miterlimit:10;}
	.st22{fill:none;stroke:#5C666E;stroke-width:2;stroke-linejoin:round;}
	.st23{fill:#B2BCC5;}
	.st24{fill:none;stroke:#00A5FF;stroke-width:2;stroke-linecap:round;stroke-linejoin:round;stroke-miterlimit:10;}
	.st25{fill:none;stroke:#002D5A;stroke-width:2;stroke-linecap:round;stroke-linejoin:round;stroke-miterlimit:10;}
	.st26{fill:none;stroke:#002D5A;stroke-width:6;stroke-linejoin:round;stroke-miterlimit:10;}
	.st27{fill:none;stroke:#00A5FF;stroke-width:6;stroke-linejoin:round;stroke-miterlimit:10;}
	.st28{fill:#E4E8EB;}
	.st29{fill:none;stroke:#002D5A;stroke-width:5;stroke-linejoin:round;stroke-miterlimit:10;}
	
		.st30{fill:none;stroke:#B2BCC5;stroke-width:1.556;stroke-linecap:round;stroke-linejoin:round;stroke-miterlimit:10;stroke-dasharray:4,4;}
	.st31{fill:#CBD2D8;stroke:#F1F3F5;stroke-width:0.5;stroke-linejoin:round;}
	.st32{fill:#00A5FF;stroke:#D8DDE2;stroke-miterlimit:10;}
	.st33{fill:#002D5A;stroke:#D8DDE2;stroke-miterlimit:10;}
	.st34{fill:none;stroke:#D8DDE2;stroke-width:4;stroke-miterlimit:10;}
	.st35{fill:none;stroke:#6D7780;stroke-width:1.25;stroke-miterlimit:10;}
	.st36{fill:none;stroke:#D8DDE2;stroke-width:1.556;stroke-linecap:round;stroke-linejoin:round;stroke-miterlimit:10;}
	.st37{fill:#5C666E;}
	.st38{fill:#D8DDE2;}
	.st39{fill:#9099A3;stroke:#D8DDE2;stroke-miterlimit:10;}
	.st40{fill:#002D5A;stroke:#F1F3F5;stroke-width:2;stroke-miterlimit:10;}
	.st41{fill:#00A5FF;stroke:#F1F3F5;stroke-width:2;stroke-miterlimit:10;}
	.st42{fill:#A1ABB4;stroke:#F1F3F5;stroke-width:2;stroke-miterlimit:10;}
	.st43{fill:#00A5FF;stroke:#F1F3F5;stroke-miterlimit:10;}
	.st44{fill:#002D5A;stroke:#F1F3F5;stroke-miterlimit:10;}
	.st45{fill:#BFC7CE;stroke:#F1F3F5;stroke-miterlimit:10;}
	.st46{fill:#E4E8EB;stroke:#F1F3F5;stroke-miterlimit:10;}
	.st47{fill:#6D7780;stroke:#F1F3F5;stroke-miterlimit:10;}
	.st48{fill:#3B444D;stroke:#F1F3F5;stroke-miterlimit:10;}
	.st49{fill:#BFC7CE;}
	.st50{fill:#A1ABB4;}
	.st51{opacity:0.64;fill:#00A5FF;}
	.st52{opacity:0.64;fill:none;}
	.st53{opacity:0.64;fill:#0064B4;}
	.st54{opacity:0.64;fill:#002D5A;}
	.st55{opacity:0.64;fill:#0096FA;}
	.st56{fill:#1E1E1C;}
	.st57{fill:#B2BCC5;stroke:#F1F3F5;stroke-width:0.5;stroke-linejoin:round;}
	.st58{fill:#00A5FF;stroke:#F1F3F5;stroke-width:0.5;stroke-linejoin:round;}
	.st59{fill:#BFC7CE;stroke:#F1F3F5;stroke-width:0.5;stroke-linejoin:round;}
	.st60{fill:#002D5A;stroke:#F1F3F5;stroke-width:0.5;stroke-linejoin:round;}
	.st61{fill:#0064B4;stroke:#F1F3F5;stroke-width:0.5;stroke-linejoin:round;}
	.st62{fill:none;stroke:#00A5FF;stroke-width:3;stroke-miterlimit:10;}
	.st63{fill:none;stroke:#00A5FF;stroke-width:2;stroke-miterlimit:10;}
	.st64{fill:none;stroke:#00A5FF;stroke-miterlimit:10;}
</style>
<g id="Hintergrund">
	<rect x="0" class="st0" width="240" height="240"/>
</g>
<g id="Diagramme_1_">
	<g id="Diagramme">
		<line class="st2" x1="41" y1="44.5" x2="41" y2="211.1"/>
		<line class="st2" x1="92.7" y1="44.5" x2="92.7" y2="211.1"/>
		<line class="st2" x1="144.3" y1="44.5" x2="144.3" y2="211.1"/>
		<line class="st2" x1="196" y1="44.5" x2="196" y2="211.1"/>
		<polyline class="st21" points="42,121.5 89.9,121.5 143.5,121.5 196.5,87.5 		"/>
		<polyline class="st21" points="42,79.5 92.5,79.5 143.5,79.5 196.5,158.5 		"/>
		<polyline class="st21" points="42,190.5 92.5,190.5 144.5,190.5 196.5,173.5 		"/>
		<path class="st13" d="M98.3,79.5c0,2.8-2.2,5-5,5c-2.8,0-5-2.2-5-5c0-2.8,2.2-5,5-5C96.1,74.5,98.3,76.7,98.3,79.5"/>
		<path class="st13" d="M148.3,79.5c0,2.8-2.2,5-5,5c-2.8,0-5-2.2-5-5c0-2.8,2.2-5,5-5C146.1,74.5,148.3,76.7,148.3,79.5"/>
		<path class="st5" d="M149.3,138.5c0,2.8-2.2,5-5,5c-2.8,0-5-2.2-5-5c0-2.8,2.2-5,5-5C147.1,133.5,149.3,135.7,149.3,138.5"/>
		<path class="st13" d="M201.3,157.5c0,2.8-2.2,5-5,5c-2.8,0-5-2.2-5-5c0-2.8,2.2-5,5-5C199.1,152.5,201.3,154.7,201.3,157.5"/>
		<path class="st13" d="M201.3,87.5c0,2.8-2.2,5-5,5c-2.8,0-5-2.2-5-5c0-2.8,2.2-5,5-5C199.1,82.5,201.3,84.7,201.3,87.5"/>
		<path class="st5" d="M201.3,53.5c0,2.8-2.2,5-5,5c-2.8,0-5-2.2-5-5c0-2.8,2.2-5,5-5C199.1,48.5,201.3,50.7,201.3,53.5"/>
		<path class="st13" d="M46.3,79.5c0,2.8-2.2,5-5,5c-2.8,0-5-2.2-5-5c0-2.8,2.2-5,5-5C44.1,74.5,46.3,76.7,46.3,79.5"/>
		<path class="st13" d="M98.3,121.5c0,2.8-2.2,5-5,5c-2.8,0-5-2.2-5-5c0-2.8,2.2-5,5-5C96.1,116.5,98.3,118.7,98.3,121.5"/>
		<path class="st5" d="M98.3,139.5c0,2.8-2.2,5-5,5c-2.8,0-5-2.2-5-5c0-2.8,2.2-5,5-5C96.1,134.5,98.3,136.7,98.3,139.5"/>
		<path class="st13" d="M148.3,121.5c0,2.8-2.2,5-5,5c-2.8,0-5-2.2-5-5c0-2.8,2.2-5,5-5C146.1,116.5,148.3,118.7,148.3,121.5"/>
		<path class="st13" d="M46.3,121.5c0,2.8-2.2,5-5,5c-2.8,0-5-2.2-5-5c0-2.8,2.2-5,5-5C44.1,116.5,46.3,118.7,46.3,121.5"/>
		<path class="st13" d="M201.3,173.5c0,2.8-2.2,5-5,5c-2.8,0-5-2.2-5-5c0-2.8,2.2-5,5-5C199.1,168.5,201.3,170.7,201.3,173.5"/>
		<path class="st13" d="M98.3,190.5c0,2.8-2.2,5-5,5c-2.8,0-5-2.2-5-5c0-2.8,2.2-5,5-5C96.1,185.5,98.3,187.7,98.3,190.5"/>
		<path class="st13" d="M148.3,190.5c0,2.8-2.2,5-5,5c-2.8,0-5-2.2-5-5c0-2.8,2.2-5,5-5C146.1,185.5,148.3,187.7,148.3,190.5"/>
		<path class="st13" d="M46.3,190.5c0,2.8-2.2,5-5,5c-2.8,0-5-2.2-5-5c0-2.8,2.2-5,5-5C44.1,185.5,46.3,187.7,46.3,190.5"/>
		<polyline class="st20" points="40.1,182.1 92.5,139.5 144.5,138.5 196.1,53.1 		"/>
		<path class="st5" d="M46.3,181.5c0,2.8-2.2,5-5,5c-2.8,0-5-2.2-5-5c0-2.8,2.2-5,5-5C44.1,176.5,46.3,178.7,46.3,181.5"/>
	</g>
	<g id="Ebene_1">
	</g>
	<g id="Picto2">
	</g>
	<g id="Landkarten">
	</g>
	<g id="Layer_1">
	</g>
</g>
</svg>
