<?xml version="1.0" encoding="utf-8"?>
<!-- Generator: Adobe Illustrator 21.0.2, SVG Export Plug-In . SVG Version: 6.00 Build 0)  -->
<svg version="1.1" xmlns="http://www.w3.org/2000/svg" xmlns:xlink="http://www.w3.org/1999/xlink" x="0px" y="0px"
	 viewBox="0 0 240 240" style="enable-background:new 0 0 240 240;" xml:space="preserve">
<style type="text/css">
	.st0{fill:#F1F3F5;}
	.st1{fill:none;}
	.st2{fill:none;stroke:#B2BCC5;stroke-width:1.556;stroke-linecap:round;stroke-linejoin:round;stroke-miterlimit:10;}
	.st3{fill:none;stroke:#A1ABB4;stroke-width:2;stroke-linecap:square;stroke-linejoin:round;}
	.st4{fill:#002D5A;}
	.st5{fill:#00A5FF;}
	.st6{fill:none;stroke:#B2BCC5;stroke-width:1.25;stroke-linejoin:round;stroke-miterlimit:10;}
	.st7{fill:#F0AA00;}
	.st8{fill:#BE232D;}
	.st9{fill:none;stroke:#B2BCC5;stroke-width:1.67;stroke-linejoin:round;stroke-miterlimit:10;}
	.st10{fill:none;stroke:#002D5A;stroke-width:5;stroke-miterlimit:10;}
	.st11{fill:none;stroke:#9099A3;stroke-width:1.25;stroke-linecap:square;stroke-linejoin:round;stroke-miterlimit:10;}
	.st12{fill:none;stroke:#9099A3;stroke-width:1.25;stroke-linecap:square;stroke-linejoin:round;}
	.st13{fill:#9099A3;}
	.st14{fill:#CBD2D8;stroke:#E4E8EB;stroke-width:0.5;stroke-miterlimit:10;}
	.st15{fill:#B2BCC5;stroke:#E4E8EB;stroke-width:0.5;stroke-miterlimit:10;}
	.st16{fill:#00A5FF;stroke:#E4E8EB;stroke-width:0.5;stroke-miterlimit:10;}
	.st17{fill:#0064B4;stroke:#E4E8EB;stroke-width:0.5;stroke-miterlimit:10;}
	.st18{fill:#002D5A;stroke:#E4E8EB;stroke-width:0.5;stroke-miterlimit:10;}
	.st19{fill:#0096FA;stroke:#E4E8EB;stroke-width:0.5;stroke-miterlimit:10;}
	.st20{fill:none;stroke:#00A5FF;stroke-width:5;stroke-miterlimit:10;}
	.st21{fill:none;stroke:#9099A3;stroke-width:5;stroke-miterlimit:10;}
	.st22{fill:none;stroke:#5C666E;stroke-width:2;stroke-linejoin:round;}
	.st23{fill:#B2BCC5;}
	.st24{fill:none;stroke:#00A5FF;stroke-width:2;stroke-linecap:round;stroke-linejoin:round;stroke-miterlimit:10;}
	.st25{fill:none;stroke:#002D5A;stroke-width:2;stroke-linecap:round;stroke-linejoin:round;stroke-miterlimit:10;}
	.st26{fill:none;stroke:#002D5A;stroke-width:6;stroke-linejoin:round;stroke-miterlimit:10;}
	.st27{fill:none;stroke:#00A5FF;stroke-width:6;stroke-linejoin:round;stroke-miterlimit:10;}
	.st28{fill:#E4E8EB;}
	.st29{fill:none;stroke:#002D5A;stroke-width:5;stroke-linejoin:round;stroke-miterlimit:10;}
	
		.st30{fill:none;stroke:#B2BCC5;stroke-width:1.556;stroke-linecap:round;stroke-linejoin:round;stroke-miterlimit:10;stroke-dasharray:4,4;}
	.st31{fill:#CBD2D8;stroke:#F1F3F5;stroke-width:0.5;stroke-linejoin:round;}
	.st32{fill:#00A5FF;stroke:#D8DDE2;stroke-miterlimit:10;}
	.st33{fill:#002D5A;stroke:#D8DDE2;stroke-miterlimit:10;}
	.st34{fill:none;stroke:#D8DDE2;stroke-width:4;stroke-miterlimit:10;}
	.st35{fill:none;stroke:#6D7780;stroke-width:1.25;stroke-miterlimit:10;}
	.st36{fill:none;stroke:#D8DDE2;stroke-width:1.556;stroke-linecap:round;stroke-linejoin:round;stroke-miterlimit:10;}
	.st37{fill:#5C666E;}
	.st38{fill:#D8DDE2;}
	.st39{fill:#9099A3;stroke:#D8DDE2;stroke-miterlimit:10;}
	.st40{fill:#002D5A;stroke:#F1F3F5;stroke-width:2;stroke-miterlimit:10;}
	.st41{fill:#00A5FF;stroke:#F1F3F5;stroke-width:2;stroke-miterlimit:10;}
	.st42{fill:#A1ABB4;stroke:#F1F3F5;stroke-width:2;stroke-miterlimit:10;}
	.st43{fill:#00A5FF;stroke:#F1F3F5;stroke-miterlimit:10;}
	.st44{fill:#002D5A;stroke:#F1F3F5;stroke-miterlimit:10;}
	.st45{fill:#BFC7CE;stroke:#F1F3F5;stroke-miterlimit:10;}
	.st46{fill:#E4E8EB;stroke:#F1F3F5;stroke-miterlimit:10;}
	.st47{fill:#6D7780;stroke:#F1F3F5;stroke-miterlimit:10;}
	.st48{fill:#3B444D;stroke:#F1F3F5;stroke-miterlimit:10;}
	.st49{fill:#BFC7CE;}
	.st50{fill:#A1ABB4;}
	.st51{opacity:0.64;fill:#00A5FF;}
	.st52{opacity:0.64;fill:none;}
	.st53{opacity:0.64;fill:#0064B4;}
	.st54{opacity:0.64;fill:#002D5A;}
	.st55{opacity:0.64;fill:#0096FA;}
	.st56{fill:#1E1E1C;}
	.st57{fill:#B2BCC5;stroke:#F1F3F5;stroke-width:0.5;stroke-linejoin:round;}
	.st58{fill:#00A5FF;stroke:#F1F3F5;stroke-width:0.5;stroke-linejoin:round;}
	.st59{fill:#BFC7CE;stroke:#F1F3F5;stroke-width:0.5;stroke-linejoin:round;}
	.st60{fill:#002D5A;stroke:#F1F3F5;stroke-width:0.5;stroke-linejoin:round;}
	.st61{fill:#0064B4;stroke:#F1F3F5;stroke-width:0.5;stroke-linejoin:round;}
	.st62{fill:none;stroke:#00A5FF;stroke-width:3;stroke-miterlimit:10;}
	.st63{fill:none;stroke:#00A5FF;stroke-width:2;stroke-miterlimit:10;}
	.st64{fill:none;stroke:#00A5FF;stroke-miterlimit:10;}
</style>
<g id="Hintergrund">
	<rect x="0" class="st0" width="240" height="240"/>
</g>
<g id="Diagramme_1_">
	<g id="Diagramme">
	</g>
	<g id="Ebene_1">
		<polyline class="st3" points="43.6,128.8 90.1,82.3 137.7,130 43.6,128.8 		"/>
		<polyline class="st3" points="162,106.1 138.2,130 190.9,183.5 		"/>
		<polyline class="st3" points="138.2,162.6 138.2,130 202.6,132.5 		"/>
		<line class="st3" x1="90.1" y1="82.3" x2="71.9" y2="60.1"/>
		<path class="st5" d="M145.2,130c0,4.1-3.4,7.5-7.5,7.5c-4.1,0-7.5-3.4-7.5-7.5c0-4.1,3.4-7.5,7.5-7.5
			C141.9,122.5,145.2,125.8,145.2,130"/>
		<path class="st4" d="M145.7,162.6c0,4.1-3.4,7.5-7.5,7.5c-4.1,0-7.5-3.4-7.5-7.5c0-4.1,3.4-7.5,7.5-7.5
			C142.3,155.1,145.7,158.5,145.7,162.6"/>
		<path class="st4" d="M198.4,183.5c0,4.1-3.4,7.5-7.5,7.5c-4.1,0-7.5-3.4-7.5-7.5c0-4.1,3.4-7.5,7.5-7.5
			C195,176,198.4,179.4,198.4,183.5"/>
		<path class="st5" d="M210.1,132.5c0,4.1-3.4,7.5-7.5,7.5c-4.1,0-7.5-3.4-7.5-7.5c0-4.1,3.4-7.5,7.5-7.5
			C206.8,125,210.1,128.4,210.1,132.5"/>
		<path class="st5" d="M169.5,106.1c0,4.1-3.4,7.5-7.5,7.5c-4.1,0-7.5-3.4-7.5-7.5c0-4.1,3.4-7.5,7.5-7.5
			C166.2,98.7,169.5,102,169.5,106.1"/>
		<path class="st4" d="M79.4,60.1c0,4.1-3.4,7.5-7.5,7.5c-4.1,0-7.5-3.4-7.5-7.5c0-4.1,3.4-7.5,7.5-7.5C76,52.6,79.4,56,79.4,60.1"
			/>
		<line class="st3" x1="90.1" y1="82.3" x2="118.3" y2="52.6"/>
		<path class="st4" d="M125.8,52.6c0,4.1-3.4,7.5-7.5,7.5c-4.1,0-7.5-3.4-7.5-7.5c0-4.1,3.4-7.5,7.5-7.5
			C122.4,45.1,125.8,48.5,125.8,52.6"/>
		<line class="st3" x1="43.6" y1="128.8" x2="76" y2="165.1"/>
		<path class="st5" d="M83.5,165.1c0,4.1-3.4,7.5-7.5,7.5c-4.1,0-7.5-3.4-7.5-7.5c0-4.1,3.4-7.5,7.5-7.5
			C80.1,157.6,83.5,160.9,83.5,165.1"/>
		<path class="st4" d="M97.6,82.3c0,4.1-3.4,7.5-7.5,7.5c-4.1,0-7.5-3.4-7.5-7.5c0-4.1,3.4-7.5,7.5-7.5
			C94.2,74.8,97.6,78.2,97.6,82.3"/>
		<path class="st5" d="M51.1,128.8c0,4.1-3.4,7.5-7.5,7.5c-4.1,0-7.5-3.4-7.5-7.5c0-4.1,3.4-7.5,7.5-7.5
			C47.7,121.3,51.1,124.6,51.1,128.8"/>
	</g>
	<g id="Picto2">
	</g>
	<g id="Landkarten">
	</g>
	<g id="Layer_1">
	</g>
</g>
</svg>
