<?xml version="1.0" encoding="utf-8"?>
<!-- Generator: Adobe Illustrator 21.0.2, SVG Export Plug-In . SVG Version: 6.00 Build 0)  -->
<svg version="1.1" xmlns="http://www.w3.org/2000/svg" xmlns:xlink="http://www.w3.org/1999/xlink" x="0px" y="0px"
	 viewBox="0 0 240 240" style="enable-background:new 0 0 240 240;" xml:space="preserve">
<style type="text/css">
	.st0{fill:#F1F3F5;}
	.st1{fill:none;}
	.st2{fill:none;stroke:#B2BCC5;stroke-width:1.556;stroke-linecap:round;stroke-linejoin:round;stroke-miterlimit:10;}
	.st3{fill:none;stroke:#A1ABB4;stroke-width:2;stroke-linecap:square;stroke-linejoin:round;}
	.st4{fill:#002D5A;}
	.st5{fill:#00A5FF;}
	.st6{fill:none;stroke:#B2BCC5;stroke-width:1.25;stroke-linejoin:round;stroke-miterlimit:10;}
	.st7{fill:#F0AA00;}
	.st8{fill:#BE232D;}
	.st9{fill:none;stroke:#B2BCC5;stroke-width:1.67;stroke-linejoin:round;stroke-miterlimit:10;}
	.st10{fill:none;stroke:#002D5A;stroke-width:5;stroke-miterlimit:10;}
	.st11{fill:none;stroke:#9099A3;stroke-width:1.25;stroke-linecap:square;stroke-linejoin:round;stroke-miterlimit:10;}
	.st12{fill:none;stroke:#9099A3;stroke-width:1.25;stroke-linecap:square;stroke-linejoin:round;}
	.st13{fill:#9099A3;}
	.st14{fill:#CBD2D8;stroke:#E4E8EB;stroke-width:0.5;stroke-miterlimit:10;}
	.st15{fill:#B2BCC5;stroke:#E4E8EB;stroke-width:0.5;stroke-miterlimit:10;}
	.st16{fill:#00A5FF;stroke:#E4E8EB;stroke-width:0.5;stroke-miterlimit:10;}
	.st17{fill:#0064B4;stroke:#E4E8EB;stroke-width:0.5;stroke-miterlimit:10;}
	.st18{fill:#002D5A;stroke:#E4E8EB;stroke-width:0.5;stroke-miterlimit:10;}
	.st19{fill:#0096FA;stroke:#E4E8EB;stroke-width:0.5;stroke-miterlimit:10;}
	.st20{fill:none;stroke:#00A5FF;stroke-width:5;stroke-miterlimit:10;}
	.st21{fill:none;stroke:#9099A3;stroke-width:5;stroke-miterlimit:10;}
	.st22{fill:none;stroke:#5C666E;stroke-width:2;stroke-linejoin:round;}
	.st23{fill:#B2BCC5;}
	.st24{fill:none;stroke:#00A5FF;stroke-width:2;stroke-linecap:round;stroke-linejoin:round;stroke-miterlimit:10;}
	.st25{fill:none;stroke:#002D5A;stroke-width:2;stroke-linecap:round;stroke-linejoin:round;stroke-miterlimit:10;}
	.st26{fill:none;stroke:#002D5A;stroke-width:6;stroke-linejoin:round;stroke-miterlimit:10;}
	.st27{fill:none;stroke:#00A5FF;stroke-width:6;stroke-linejoin:round;stroke-miterlimit:10;}
	.st28{fill:#E4E8EB;}
	.st29{fill:none;stroke:#002D5A;stroke-width:5;stroke-linejoin:round;stroke-miterlimit:10;}
	
		.st30{fill:none;stroke:#B2BCC5;stroke-width:1.556;stroke-linecap:round;stroke-linejoin:round;stroke-miterlimit:10;stroke-dasharray:4,4;}
	.st31{fill:#CBD2D8;stroke:#F1F3F5;stroke-width:0.5;stroke-linejoin:round;}
	.st32{fill:#00A5FF;stroke:#D8DDE2;stroke-miterlimit:10;}
	.st33{fill:#002D5A;stroke:#D8DDE2;stroke-miterlimit:10;}
	.st34{fill:none;stroke:#D8DDE2;stroke-width:4;stroke-miterlimit:10;}
	.st35{fill:none;stroke:#6D7780;stroke-width:1.25;stroke-miterlimit:10;}
	.st36{fill:none;stroke:#D8DDE2;stroke-width:1.556;stroke-linecap:round;stroke-linejoin:round;stroke-miterlimit:10;}
	.st37{fill:#5C666E;}
	.st38{fill:#D8DDE2;}
	.st39{fill:#9099A3;stroke:#D8DDE2;stroke-miterlimit:10;}
	.st40{fill:#002D5A;stroke:#F1F3F5;stroke-width:2;stroke-miterlimit:10;}
	.st41{fill:#00A5FF;stroke:#F1F3F5;stroke-width:2;stroke-miterlimit:10;}
	.st42{fill:#A1ABB4;stroke:#F1F3F5;stroke-width:2;stroke-miterlimit:10;}
	.st43{fill:#00A5FF;stroke:#F1F3F5;stroke-miterlimit:10;}
	.st44{fill:#002D5A;stroke:#F1F3F5;stroke-miterlimit:10;}
	.st45{fill:#BFC7CE;stroke:#F1F3F5;stroke-miterlimit:10;}
	.st46{fill:#E4E8EB;stroke:#F1F3F5;stroke-miterlimit:10;}
	.st47{fill:#6D7780;stroke:#F1F3F5;stroke-miterlimit:10;}
	.st48{fill:#3B444D;stroke:#F1F3F5;stroke-miterlimit:10;}
	.st49{fill:#BFC7CE;}
	.st50{fill:#A1ABB4;}
	.st51{opacity:0.64;fill:#00A5FF;}
	.st52{opacity:0.64;fill:none;}
	.st53{opacity:0.64;fill:#0064B4;}
	.st54{opacity:0.64;fill:#002D5A;}
	.st55{opacity:0.64;fill:#0096FA;}
	.st56{fill:#1E1E1C;}
	.st57{fill:#B2BCC5;stroke:#F1F3F5;stroke-width:0.5;stroke-linejoin:round;}
	.st58{fill:#00A5FF;stroke:#F1F3F5;stroke-width:0.5;stroke-linejoin:round;}
	.st59{fill:#BFC7CE;stroke:#F1F3F5;stroke-width:0.5;stroke-linejoin:round;}
	.st60{fill:#002D5A;stroke:#F1F3F5;stroke-width:0.5;stroke-linejoin:round;}
	.st61{fill:#0064B4;stroke:#F1F3F5;stroke-width:0.5;stroke-linejoin:round;}
	.st62{fill:none;stroke:#00A5FF;stroke-width:3;stroke-miterlimit:10;}
	.st63{fill:none;stroke:#00A5FF;stroke-width:2;stroke-miterlimit:10;}
	.st64{fill:none;stroke:#00A5FF;stroke-miterlimit:10;}
</style>
<g id="Hintergrund">
	<rect x="0" class="st0" width="240" height="240"/>
</g>
<g id="Diagramme_1_">
	<g id="Diagramme">
	</g>
	<g id="Ebene_1">
	</g>
	<g id="Picto2">
	</g>
	<g id="Landkarten">
		<g id="g1923_2_">
			<path id="Thüringen_2_" class="st59" d="M121.8,109.1l0.4-0.1l0.8,0.1l0.4,0l0.7,0.2l0.1,0.1l0.4,0.4l0.3-0.1l-0.4,0.5l-0.1,0.4
				l0.3,0.6l0.5,0.7l0.4,0.6l0.2,0.3l0,0.5l0,0.6l0.2,0.1l0.2,0.2l0.2,0l0.2,0l0.3-0.1l0.1-0.1l1.5,0.5l0.1,0l1.4,0l0.3,0l0.2,0
				l0.6,0l0.9,0.4l0.1,0.1l0,0.1l-0.1,0.4l0.1,0.2l0,0.1l0.4,0.1l-0.1,0.1l0,0l0,0l0.1,0.1l0.2,0.1l0.1,0l0.1,0l0.3,0.3l0.1,0.1
				l0,0.1l0,0l-0.1,0.2l-0.2,0.2l-0.3,0.5l-0.2,0.3l-0.1,0.1l-0.1,0l-0.1,0l0,0l-0.2-0.2l0,0l-0.1,0l-0.1,0.1l-0.1,0.2l0,0.2
				l0.3,0.3l0.4,0l0.2-0.1l0.1,0l0.2,0.1l0.4,0.4l0.2,0.6v0.1l-0.1,0.3l-0.1,0.1l-0.3,0.1l0.2,0.8l0.1,0.1l0.2,0.1l0,0.1l0.9,0
				l0.2-0.2l0.1-0.1l0.1-0.2l0,0l1.4,0.2l0.4,0.2l0.1,0.3l0,0.3l0,0.1l1.1,0.3l0.4,0.1l0.6-0.1l0.5-0.1l0.2,0.1l0.8,0.5l0.5,0.4
				l0.1,0.1l0.5,0.7l0,0.1l0,0.1l0,0.2l0.2-0.1l0.1,0l0.7-0.1l0.1,0l0.8,0.3l0.2,0.1l0-0.2l0.1-0.1l0.1-0.1l0.2-0.1l0,0l0.3,0.4
				l0.1,0.2l0.1,0.2l0,0l0.1-0.1l0.1,0l0.2-0.2l0.7-1.5l0-0.1l0-0.2l-0.1-0.1l-0.1-0.1l-0.3-0.2l-0.1-0.4l0.4-0.6l0.7-0.3l0,0
				l1.7,0.5l0.7,0.2l0.1,0.1l0,0.1l0.1,0.2l0,0.1l0,0.3l0.1,0.4l0.6,0.4l0.5,0.2l0.5,0.1l0.1,0.4l0.1,0.5l0,0.1l0.1,0.2l0.1,0.1
				l0.1,0.1l-0.2,0.3l-0.6,0.2l-0.3,0.1l-0.1,0l-0.4,0.1l-0.7,0.2l-0.1,0l-0.3,0.3l0,0.3l-0.2,0.6l0,0l-0.3,0.1l0,0l-0.1-0.2l-0.1,0
				h-0.4l-0.1,0l-0.4,0.3l0,0l0,0.3l-1,0.4l-0.3,0l-0.1-0.2l-0.1,0.2l-0.2,1.2l0,0.2l0,0.1l0,0.1l0.6,1l0.2,0.2l0.7,0.2l-0.1,0.3
				l-0.2,0.3l0,0l-0.5,0.5l-0.4,0.1l0,0l-0.8,0.4l-0.7,0.3l-0.1,0l0,0l-0.1,0.2l0.4,0.1l0.1-0.1l0.2,0l0,0l0.1,0.1l0,0.1l0,0l0,0
				l-0.2,0l-0.1,0l-0.3,0.2l-0.6-0.1l-0.9,0l0.1-0.6l-0.1-0.7l-0.2-0.2l-0.1,0l0,0l-0.3,0.3l0,0.2l-0.5,0.5l0,0l-0.2,0.1l-0.1,0.1
				l-0.7,1l0,0.1l0,0l0.2,0.4l0.1,0.1l0.2,0l0.3,0l0.2,0.2l0.4,0.4l0.1,0.1l0,0.1l-0.1,0.1l-0.4,0.4l-0.4,0.2l-0.1,0.1l-0.1,0.2l0,0
				l0.1,0.1l0.4,0.2l-0.6,0.3l-0.9,0.3l-2.8,0.4h0l-0.1,0l-0.1-0.1l-0.1-0.1l-0.1,0l-0.1,0l-0.3,0.1l0,0l0,0.1l0,0.2l0,0l-0.1,0.1
				l-0.4,0.1l-0.1-0.1l-0.4-0.4l-0.1-0.3l-0.1-0.5l-0.4,0l-0.4-0.3l0,0l0-0.1l0-0.5l0-0.4l0.1-0.1l0.1,0l0,0l0.1-0.2v0l-0.1-0.2
				l-0.1-0.1l-0.1,0l-0.8-0.2l-0.4,0l0,0l-0.2,0.3l0,0.2l-0.5,0.4l-0.3,0.2l0,0l-0.1,0l-0.1,0l0,0.1l0,0.1v0l0,0.5l0.2,0.1l0.1,0
				l0.1,0.2l0.3,1.7v0l-0.5,1.5l-0.7,0.1l-0.2,0.4l0,0l-0.2,0l-0.5-0.5l-0.2-0.2l0,0l0-0.1l0-0.1l0.1-0.1l0.1-0.1l0.1-0.1l0.1,0
				l0-0.1l-0.3-0.5l-0.4-0.3l-0.2,0l-0.2,0l0,0l-0.1,0.3l-0.3,0.1l-0.3,0.1l-0.1,0l-0.8-0.1l-0.3-0.3l-0.3-0.5l-0.1-0.1l0,0h0
				l-1.5,0l-1.7,0.7l0,0.2l0,0.7l0,0.1l0.1,0.1l1.2,0.9l0,0l0.1,0l0.3,0.1l0.1,0.1l0.1,0.1l0,0.3l-0.1,0.1l0,0l-0.2,0.1l-0.2,0
				l-0.1,0l-0.6-0.1l-0.5-0.1l-0.1,0l-0.1,0.1l0,0l0,0.4l0,0l0,0.4l-0.1,0.2l0,0l-0.1,0l-1.2-0.4l-0.4-0.1l0-0.1l-0.1-0.3l-0.2-0.6
				l0.1-0.8l0.1-0.6l-0.7-0.2l-0.9-0.3l-0.5-0.6l-0.1-0.3l-0.1-0.2l-0.2,0.1l-0.2,0.1l-0.4,0l0,0l-0.1-0.2l0-0.1l-0.1-0.5l-0.5-1.2
				l-0.1-0.1l-0.1-0.1l-1.1-0.4l-0.3-0.4l-0.4-0.5l-0.1,0l-1.5,0.2l-0.4,0.5l-0.2,0.2l-0.1,0l-0.1,0l0-2.2l0-0.1l0.1-0.1l0-0.1
				l0.4-0.3l-0.2-0.5l-0.2-0.3l-0.1-0.1l-0.3,0l-0.5,0l-0.1,0l-0.5,0.2l-0.1,0.1l0,0.1l0.3,0.3l-0.1,0.3l-0.2,0l-0.2,0l-0.7-0.1
				l0-0.2l0-0.6l0.1-0.1l0.2-0.2l0.3-0.4l0.3-0.6l0.1-0.3v-0.1l0-0.3l-0.2-0.3l0.3-0.1l0.1,0l0,0l0-0.1l0-0.2l-0.1-0.2l0-0.1
				l0.1-0.4l0-0.1l0.2-0.2l0.1-0.1l0.4,0l0.3,0l0.2-0.3l0.4-0.9l0-0.2l-0.2-1.3l-0.3-1.1l0.1-0.3l0-0.1l0,0l0.1,0l0.2,0l0.3,0
				l0.5,0.1l0.3,0.2l0.1,0.1l0.1,0.1l0.1,0l0.1,0l0.4-0.1l0.1,0l0,0l0.1,0l0.1,0l0.1-0.1l0,0l0.1-0.3l0-0.1l-0.1-0.2l-0.1-0.1l0,0
				l-0.2-0.1l-0.4-0.1l0-1l-0.1-0.3l-0.3-0.6l0-0.1l0.1-0.1l0.6-0.1l0.2,0.2l0.1,0.3l0.1,0.1l0,0l0.1,0.2h0.1l0,0l0-0.2l0-0.4l0,0
				l-0.1-0.1l0-0.1l0.1-0.3l0.1-0.1l0.1,0l0.1-0.1l0.1-0.2l-0.1-0.1l-0.3-0.1l-0.3-0.3l-0.1-0.1l-0.2-0.1l-0.4-0.1l-1-0.5l-0.2-0.7
				l-0.4-0.2l-0.8-0.3l-0.3-0.3l-0.3-0.8l-0.1-0.5l0-0.2l0-0.2l0,0l0,0l0.1,0l0.7-0.5l1.5-0.9l1.2-0.2l1.8-1.2l0.6-0.5l0,0l0.3-0.5
				l0-0.1l0.1-0.2l0,0l-0.1,0l0.2-0.4l0.2-0.3l0.5-0.1l0,0l0.2,0.1l0.3,0.1l0.1,0l0.2,0.1l0.1,0.1l0.3,0.4l0.1,0.1l0.5-0.1l1-0.3
				l0.2-0.4l0.5-1.2l0.1,0L121.8,109.1L121.8,109.1z"/>
			<path id="Schleswig-Holstein_2_" class="st59" d="M124.1,55.6l0.2,0.7l-0.2,0.5l-0.6,0l-1.2,0.8L122,58l0,0.4l0.2,0.6l0,0.1
				l0.1,0.2l0,0.1l0,0.3l-0.1,0.7l0.9,0.8l0.3,0.2l0.1,0l0.3,0l0.1,0l0,0l0,0l0,0l0.3,0.1l0.2,0.1l0.3,0.3l0.2,0.9l-0.3,0.4
				l-0.1,0.5l-1.5,2l-0.5,0.6l-0.2,0.2l-0.1,0.1l-0.9,0.7l-0.3-0.1l-0.1-0.1l-0.1,0l-0.2,0.1l-0.1,0.3l-0.4,1.8l0,0l0,0l-0.1,0.1
				l-0.1,0l-0.1,0l-0.9-0.3l-0.1-0.1l-0.2-0.1l-0.2-0.1l-0.5-0.3l-1.3-0.6l-0.4-0.2l-0.1-0.2l-0.8-0.9l-0.1-0.2l0-0.1l-0.1,0l-0.1,0
				l-0.8-0.5l0,0l-0.2-0.5l0-0.5l0.1-0.3l0.1-0.1l0.5-0.4l0.3-0.6l0,0l0.1-0.1l-0.4-0.5l-0.2-0.2l0-1.1l0.1-0.3l0-0.2l-0.3-0.2l0,0
				l-0.1,0l-1,0.5l-0.3,0.2l0.1,0.1l-0.2,0.4l-1.1,0.8h-0.2l-0.1,0l-0.2,0l-0.1,0l-0.3,0l-0.3,0l0,0.2l0,0.1l-0.1,0.1l-0.1,0.1
				l-0.8,1l-0.2,0.1l-0.1-0.1L109,64l-0.4-0.5l0-0.2l0-0.1l-0.1,0l-0.1,0.1l-0.2,0.5l-0.1,0.2l-0.1,0.3l-0.1,0.5l-0.4,0l-0.4-0.1
				l-1.2-0.8l-0.5-0.4l-0.1-0.1l-0.1-0.2l-0.1-0.3l0-0.4l0-0.1l-0.1-0.2l-0.2-0.4l-0.1-0.1l-0.2-0.2l-0.5-0.4l-0.2-0.2l-0.1-0.2
				l-0.2-0.3l-0.2-0.4l-0.4-0.9l-0.1-0.2l-0.5-0.8l-0.4-0.3l-0.8-0.3l-0.4-0.1l-0.5,0l-0.8,0l-0.7,0l-0.2,0l-0.2,0l-0.1-0.6l0,0
				L98,57l-0.1,0l-0.1,0l-0.1,0l-0.2-0.2l-0.4-0.3l-0.2-0.3l-0.1-0.4l-0.1-0.2l-0.3-0.7L95.9,54l-0.1,0l-0.1,0l0,0l0.3-0.3l0.3-0.1
				l0.2,0l0.6,0.1l0.1,0.1l0.1,0.1l0.1,0l0.2-0.1l0.1,0l0.1,0l0.1-0.1l0-0.1l0-0.1l0-0.2l0-0.1l0-0.1l0-0.1l-0.7-1.5l-0.1-0.1
				l-0.2,0l-0.1,0l-0.2,0l-0.1,0.1l-0.3,0.2l-0.1-0.1L96,51.5l0,0l-0.1-0.2l-0.2-0.6l0-0.1l0,0l0.1-0.1l0.2-0.5l0.1-0.3l0-0.1
				l0.1-0.8l0-0.2v0l-0.1,0l0,0v-0.1l0-0.1l0-0.1L96,47.9L96,47.8l0,0l-0.1,0l-0.9,0l-0.2,0l-0.5,0L94,48.1l-0.1,0.2l0,0l0.1,0l0,0
				l0,0l0,0l0,0l0,0l0,0l-0.1,0l-0.1,0l-1-0.5l-0.1-0.1l-0.1-0.2l0-0.1l0-0.2l0.1-0.3l0.1-0.2l0.1-0.2l0-0.1l0,0l0.2-0.1l0,0.2
				l0.3,0.2l0.1,0l0,0l0.6-0.4l0,0l0,0V46l0,0l0-0.1l0.1-0.5l1.5-0.3l0.3,0l0.3,0.1l0.2-0.1l0.3-0.1l0.2-0.1l1.2-1l0,0l0.1-0.2
				l0-0.2l0-0.1l0-0.2l-0.3-0.6l-1.4-2.1l-0.7-1l-0.3-0.2l-0.4-0.2l-0.3-0.3l-0.1-0.1l-0.5-1.3l-0.2-0.9l-0.2-0.4l0,0l-0.5-0.6
				L93.2,35l0,0l0.1-0.8l0.3-0.8l0.4,0l0.2,0l0.1,0l0.3,0.2l1.2-0.1l0.2,0l0.2,0l0.1,0l0.9,0.1l0.6,0.1l0.1,0l0.1,0l0.7,0.3l0.2,0.1
				l0,0l0.1,0.1l0.2,0.1l0.2,0l0.4,0l0.3-0.1l0.3,0l0.1,0l0.2,0.1l0.7,0.3l0.5,0.2l0.1,0.1l-0.1,0.1l0,0.1l0,0.1l0,0.1l0.2,0.4
				l1.1,0.1l0.2,0l0.3-0.3l0,0l0-0.1l0.6-0.1l0.2,0.1l0.3-0.1l0.3-0.1l0.2-0.1l1.2-1l0.1,0l0.5,0.2l-0.1,0.1l-0.2,0.4l1,0.4l0.7,0.3
				l1.3,1.5l0.2,0.1l0.2,0.1l0.1,0h0l0,0l0.4-0.8l0,0l0-0.1l0-0.1l0,0l0.2,0.1l0.4,0.3l0.2,0.4l0.8,2.4l0,0.5l0,0.7l0,1.2l0,0.1
				l-0.4,0.6l0,0.1l-0.1,0.2l-0.2,0.2l-0.4,0.2l-0.6,0.3l-0.4,0.2l-0.1,0l-0.1,0l0-0.1l-0.1,0l-0.1,0l-0.1,0l0,0l0.2,0.3l0.1,0.1
				l0.1,0.1l0.1,0.1l0.1,0l0.4-0.1l0.2,0l0.1,0l0.4-0.2v0l0.2-0.1l1.1-0.3l0.9-0.2l0.1,0l0.1,0l0.1,0l0.3,0.2l0.2,0.1l0.3,0.3
				l-0.1,0.2l-0.2,0.4l0,0.1l0.2,0.8l-0.3,0.2l-0.1,0.3l0,0.1l0.3,0.4l0.1-0.3l0.5-1.1l0.1-0.1l1-0.5l0.2,0l0.1,0l0.1,0l0.3,0.1
				l0.4,0.1l2.8,1.4l0.2,0.1l0.3,0.2l0.1,0.1l0.1,0.2l0.1,0.1l0,0l0,0.1l0.5,0.5l0.1,0.1l0.1,0l0.1,0l0.1,0l0.6,0l0.1,0l0.1,0
				l0.2-0.1l0.1-0.1l0.4-0.3l0.2-0.2l0.3-0.3l0.4-0.3l0.6-0.4l0.3-0.1l1.8-0.1l-0.1,0.8l-0.1,0.2l0,0.1l0,0.5l0.1,1.5l0.2,1.3l0,0
				l0,0l-0.6,0.5l-0.1,0.1l-0.7,0.5l-0.7,0.6l-0.6,0.7l-0.1,0.1l-0.1,0.1l-0.1,0l-0.5-0.1l-0.1,0l-0.1-0.1l-0.7,0.8l-0.1,0.1l0,0.1
				l0,0.1l0,0.1l0,0.1l0,0.1l0.2,0.4l0.1,0.2l0.1,0.1l0.1,0.1l0.1,0.1l0.1,0.1l0.1,0h0.4l0.1,0l0.2-0.1l0.1,0l0.1,0.1l0.1,0.1
				l0.1,0.1l0,0.1l0,0l0,0.2l0,0.2l0.1,0.1L124.1,55.6L124.1,55.6z M89.5,32.3l-0.3,0.6l-0.2,0.6L89,33.8l-0.1,0.5l0,0.5l-0.1,2.1
				l0,0.2l0.1,0.3l0.1,0.1l0,0l0,0l0-0.1l0.1-1.8l0-0.1l0-0.1v0l0-0.3l0.1-0.3l0.1-0.1l0.5-0.3l0.1,0.1l0,0l0.3,0.2l0.3,0.2l0.1,0h0
				l0.6-0.3l0.4-0.3l0,0l-0.1,0l-0.1,0l-0.5,0l-0.1,0l-0.1,0l-0.4-0.4l0,0l-0.4-0.4l-0.1-1.3l0.3-0.5l0.1-0.1l0.2-0.2l0,0l0.3-0.1
				L91,31l0.4-0.7l0,0l0,0L90.9,30l-0.1,0l-0.1,0l0,0l-0.1,0.1l0,0l-0.1,0.2l-0.4,1l-0.1,0.2L89.5,32.3z M91.4,37.1l-0.1,0l-0.4,0.1
				l-0.1,0l-0.1,0.1l-0.1,0.1l-0.1,0.2l-0.1,0.3l0,0.2l0,0.1l0,0.1l0,0l0.9,0.4l0.2,0.1l0.2,0l0.7,0l0.1,0l0,0l0.4-0.9l-0.1-0.5
				l0-0.1l-0.2-0.1l-0.2-0.1l-0.1,0l-0.1,0L92,37l-0.2,0.1l-0.1,0L91.4,37.1z M88.9,39.1L88.9,39.1l0.1,0.2l0.3,0.4l0.1,0.2l0.2,0.3
				l0,0l0.1,0l0.3,0l0,0l0.3-0.1l0,0l0.1-0.2l0,0l0,0L90,39.8l-0.2-0.4l-0.3-0.8l0-0.2l0-0.1l0.1-0.1l0.2-0.2l0,0l0,0l-0.1,0
				l-0.6,0.5L89,38.6L89,38.8l0,0.2L88.9,39.1z M92.8,39.9l0.8-0.2l0.1-0.1l0.1-0.1l0-0.1l0-0.2l0,0l-1.4,0.6l-0.4,0.2l0,0.1l0,0
				l0.2,0.2L92.8,39.9z M91.8,41.1L91.8,41.1l-0.1,0L91.8,41.1l0,0.2l0,0l0.4,0.3l0.1,0l0.2,0l0.1,0l0,0l0-0.1l-0.2-0.3l0,0l0,0
				l-0.1,0l-0.1,0L91.8,41.1z M93.1,43.1l0.1,0.1l0.1,0l0.2,0l0.2,0l0.2-0.1l0.1,0L94,43l0.2-0.5l0.1-0.3l0-0.3l-0.1,0l-0.1,0
				l-0.1,0l-0.5,0.2l-0.1,0l-0.6,0.2l-0.1,0l0,0.1l0,0.1l0,0.3l0,0.1l0,0.1l0.1,0.1l0,0L93.1,43.1z M96.5,42.5l-0.7,0.5L95.7,43v0.1
				l0,0.6l0.2,0.1l0.1,0.1l0.2,0l0.5,0l0.2,0l0.3-0.2l0.1-0.2l0,0l0.3-0.5l0,0l-0.1-0.3l-0.1-0.1l-0.2,0l-0.5,0L96.5,42.5z
				 M126.3,42.3l-0.1,0l0,0l0,0l0,0l-0.1,0.1l-0.2,0.2l-0.1,0.2l-0.1,0.1l-0.2,0.3l-0.1,0.2l0,0.1l-0.1,0.8l0,0.1l0,0l0.4,0.2l0.1,0
				l0.1,0l0,0l0,0l0,0h0l-0.1,0l-0.2-0.1l0-0.1l0,0l0.5-0.2l0.2,0.1l0.1,0l0.1,0l0,0.1l0.1,0.2l0,0.2l0,0.3l1.1,0.2l1.8,0l0,0l0,0
				l0-0.1l-0.3-0.6L129,44l-0.7-1.1l-0.7-0.4L126.3,42.3z M94,53.5L94,53.5l-0.1-0.1l-0.1-0.1l0-0.1l0-0.1l0-0.1l0-0.1l0,0l0,0
				l0.1,0l0.1,0l0.1,0.1l0,0l0,0.6L94,53.5L94,53.5z M83.3,49.9l0.3,0l0,0.1l-0.2,0.3l-0.2,0l-0.1,0L83,50l0-0.1l0.1-0.1l0.1,0
				L83.3,49.9z"/>
			<path id="Sachsen-Anhalt_2_" class="st59" d="M134,76.7l0.3-0.1l0.1,0l0.1,0l0,0l0.1,0l0,0l0,0.1l0,0l0,0l-0.2,0.3l0,0.1l0,0.1
				l0,0.1l0.1,0.1l0.8,0.6l0,0l0.1,0l0.1,0l0.2-0.1l0.2-0.1l0,0l0.1,0l0.1,0l0.1,0l0.1,0l1.2,0.7l0.1,0.1l0,0.1l0,0.1l0,0.1l0,0.1
				l0,0l-0.1,0.1l-0.1,0.1l0,0.1l0,0l0,0.1l0.1,0.1l0.1,0l0.1,0l0.8,0.3l1.2,0.4l0.1,0l1.9-0.2l0.2-0.2l0,0l-0.1,0.1l0,0.2l0.2,0.4
				l0.4-0.1l0.2-0.1l0.3-0.2l0.3,0.1l0.1,0.1l0,0.1l0.3,1.1l0,0.4l-0.3,0.2l-0.2,0.3l-0.1,0.3l-0.1,1l0,0l0.3,0.5l0.3,0.4l0.1,0.2
				l0,0.1l-0.1,0.8l-0.4,0.3l-0.1,0l-0.1,0l-0.2,0.4l-0.4,1.6l0,0.2l0,0l0.4,0.5l0.2,0.2l0.3,0l0.3-0.1l0.1-0.1l0,0l0-0.2l1.2,0.4
				l0.1,0.7l-0.1,0.2l-0.1,0.2l-0.2,0.5l0,0.4l0.1,0.6l0.1,0.8l-0.3,0.5l-0.1,0l0,0l-0.3,0.6l-0.1,0.4l0,0.1l-0.1,0.6l0.1,0.9
				l-0.4,0.9l0.7,0.8l0.5,0.7l0.6,0.8l0.4,0.4l1,0.6l1.6,0.6l0.9,0.1l0.2,0l0.4-0.3l0-0.3l0.1-0.1l0.2,0l0.4,0.2l0.2,0.1l0.4,0.2
				l0.4,0.2l0.1,0l0.1,0.3l1.1,0.6l0.5,0.1l0.1,0l0.2-0.1l1.1,0.6l0.7,0.7l0.1,0l0,0l0.5,0l0.5-0.2l0.1,0l0-0.1l0.2,0l0.1,0.1
				l0.2,0.2l0,0.1l0,0.1l-0.4,0.1l0,0l0,0.1l0.7,2.6l0.1,0.1l0.1,0.1l0.1,0.2l0,0.1v0l-0.3,0.6l-0.1,0.1l-1.5,1l-0.5,0.1l-1.5,0.1h0
				l-2.1,0l-0.2-0.1l0,0l-0.2-0.1l-0.2-0.1l-0.1,0l-0.1,0h-0.2l-0.1,0l-0.1,0.1l0,0.1l0,0.1l-0.2,0.4l-0.1,0l-0.2,0.1l-0.2,0.1
				l-0.4,0.2l-0.5-0.3l-0.1,0.3l-0.4,0.2l-1.7,0.5l-0.5,0.1l-0.6,0l-0.1,0l-1.2,0.6l-0.8,0.7l0,0.5l-0.5,1.2l0.1,0.3l0.2,0.8l0,0
				l0,0l0.1,0.2l0.2,1.2l0,0.4l-0.3,0.1l-0.4,0.2l0.4,1l0.3,0.4l0.1,0.4l0,0.1l0.1,0.5l0,1.6l0.5,0.1l0.1,0l0.1,0.1l0,0.1l-0.1,0.1
				l0.5,0.5l0.3,0.2l-0.4,0.6l0.1,0.4l0.3,0.2l0.1,0.1l0.1,0.1l0,0.2l0,0.1l-0.7,1.5l-0.2,0.2l-0.1,0l-0.1,0.1l0,0l-0.1-0.2
				l-0.1-0.2l-0.3-0.4l0,0l-0.2,0.1l-0.1,0.1l-0.1,0.1l0,0.2l-0.2-0.1l-0.8-0.3l-0.1,0l-0.7,0.1l-0.1,0l-0.2,0.1l0-0.2l0-0.1l0-0.1
				l-0.5-0.7l-0.1-0.1l-0.5-0.3l-0.8-0.5l-0.2-0.1l-0.5,0.1l-0.6,0.1l-0.4-0.1l-1.1-0.3l0-0.1l0-0.3l-0.1-0.3l-0.4-0.2l-1.4-0.2l0,0
				l-0.1,0.2l-0.1,0.1l-0.2,0.2l-0.9,0l0-0.1l-0.2-0.1l-0.1-0.1l-0.2-0.8l0.3-0.1l0.1-0.1l0.1-0.3v-0.1l-0.2-0.6l-0.4-0.4l-0.2-0.1
				l-0.1,0l-0.2,0.1l-0.4,0l-0.3-0.3l0-0.2l0.1-0.2l0.1-0.1l0.1,0l0,0l0.2,0.2l0,0l0.1,0l0.1,0l0.1-0.1l0.2-0.3l0.3-0.5l0.2-0.2
				l0.1-0.2l0,0l0-0.1l-0.1-0.1l-0.3-0.3l-0.1,0l-0.1,0l-0.2-0.1l-0.1-0.1l0,0l0,0l0.1-0.1l-0.4-0.1l0-0.1l-0.1-0.2l0.1-0.4l0-0.1
				l-0.1-0.1l-0.9-0.4l-0.6,0l-0.2,0l-0.3,0l-1.4,0l-0.1,0l-1.5-0.5l-0.1,0.1l-0.3,0.1l-0.2,0l-0.2,0l-0.2-0.2l-0.2-0.1l0-0.6l0-0.5
				l-0.2-0.3l-0.4-0.6l-0.5-0.7l-0.3-0.6l0.1-0.4l0.4-0.5l-0.3,0.1l-0.4-0.4l-0.1-0.1l-0.7-0.2l-0.4,0l-0.8-0.1l-0.4,0.1l-0.1,0l0,0
				l-0.1-0.1l-0.3-0.5l0-0.1l0-0.3l0-0.2l0-0.1l-0.2-0.5l-0.7-1l-0.2-0.1l-0.2-0.3l-0.1-0.6l0-0.8l0-0.1l0.1-0.1l0.5-0.4l0.1,0
				l0.1,0l0,0l0.2-0.4l0-0.1v-0.2l0-0.1l0-0.1l-0.1-0.1l-0.2-0.1l-0.2-0.1l0-0.4l0,0l0.2-0.2l0.3-0.1l-0.8-0.6l-0.4-0.5l0.9-0.1
				l0.4-0.4l0,0l0-0.1l0-0.1l0-0.2l0.4-0.1l0.2,0l1.1,0h0.1l0.2,0.1l0.4,0l0.3-0.1l0.1,0l0.2-0.2l0.1,0l0.8,0l0.4,0l0,0l0.1-0.7
				l0.1-0.4l0.5-0.3l0.4-0.3l0.3-0.4l0-0.1l0-0.3l0-0.1l0,0l0,0l-0.2,0l-0.1,0l-0.1-0.1l-0.1-0.1l0,0l0-0.1l0-0.1l0-0.2l0.1-0.2
				l0.1-0.1l0.1,0l0.2-0.1l0.2,0l0.2-0.1l0.1-0.2l0,0l0,0l-0.1-0.2l-0.3-0.4l-0.3-0.3l-0.3-0.4l0,0l-0.1-0.9l0.3-0.4l0.1,0l0,0
				l0.3-0.1l0.2-0.1l0,0l0-0.3l0-0.1l-0.1-0.1l-0.2-0.1l-0.1,0l-0.1,0l-0.3-0.2l-1-1.3l-0.2-0.4l0.1-0.3l0.5-0.3l0.4,0l-0.4-0.5
				l-0.3-0.4l-0.2-0.3l-0.1-0.2l-0.1-0.3l0-0.5l0,0l-0.6-1.2l-0.8-1.2l-0.6-0.4l-0.6-1.6l0-0.1l0-0.1l-0.1-0.5l0,0l0.1-0.5l0.5-0.1
				l0.6-0.1l1.4,0l0.6-0.7l0-0.1l0,0l0-0.1l0-0.2l0-0.1l0.1-0.1l0.1,0l0.1,0l2.1,0.1l0.9,0.2l0.2,0.2l0.1,0.1l0,0.1v0.1l0,0l0,0
				l0.1,0l0.7,0.1l0.3-0.1l1.3-0.6l0,0l0.2-0.3l0.4-0.4l0.3-0.1l0.3-0.1l0.2,0l-0.2-0.4l0.1-0.7l0-0.2l0.1-0.2l0.2,0l0,0l0.1,0.1
				l0.1,0.1l0.2,0l0,0L134,76.7L134,76.7L134,76.7z"/>
			<path id="Sachsen_2_" class="st59" d="M155.5,108.1l0.5,0.9l0.1,0.1l0.2-0.1l0.1-0.1l0-0.1l0.6,0.3l0.1,0.2l0.4,0.9l0.3,0.6
				l0,0.2l0,0.2l0,1.2l-0.2,0.8l0.3,0.4l0.1,0.1l0,0.1l0.5,0l0.1,0l0.4-0.1l0-0.2l0,0l0.6-0.5l1-0.5l0.1,0.1l0.5,0.5l0.5,0.4
				l1.1,0.7l0.7,0.2l0.1,0l0.4,0l0.7,0l0.1-0.2l0.1,0.1l0.2,0.1l0.1,0l0.7,0.1l0.2-0.1l0.5-0.2l0.4-0.1l0.6,0l0.1,0l1.7-0.3l0.6-0.8
				l0.3-1.2l0.3-1l0.5-0.7l0.1,0l0.3,0l0.7,0l0.9,0.1l0.7,0.2l1-0.6l0.8-0.1l0.1,0l0-0.1l0-0.1l0-0.1l0.1-0.1l1.6-0.6l0.5,0.2l0,0.1
				l0.1,0.2l0,0l0.1,0l0.1,0l0.7-0.1l0,0l0.1-0.1l0-0.1l0-0.1l0.1-0.5l0.2-0.2l0.2,0.2l-0.2,0.4l0,0l0.3,0.7l0.1,0.1l0.2,0.1
				l0.2,0.1l0.2,0l0.2,0l0.1,0l1.8,0.7l0.1,0l0.4,0.2l0,0l0.1,0.2l0.3,0.5l0,0.1l0,0.9l1.1,2.4l0.1,0.5l0,0.7l-0.3,0.6l-0.1,0.3
				l-0.4,3.2l0,0.4l-0.2,0.3l-0.2,0.6l0.1,0.1l0,0l0,0.2l-0.2,0.7l-0.3,0.8L183,123l-0.3,0.4l-0.3,0.4l-0.3,0.6L182,125l-0.1,0.5
				l0,0.2l-0.1,0l-0.3,0l-0.1,0l-0.5-0.1l-1.2-0.5l-0.5-0.2l0-0.2l0.2-0.5l-0.2-0.8l-0.5-1.4l-0.3-0.3l-1.2-1l-0.1,0.1l0,0.2l0,0.3
				l-1.1,0.2l-0.1,0l0,0l-1-0.4l0,0l0,0l-0.2-0.3l0,0l0,0l-0.2,0l-0.1,0.1l-0.1,0.1l-0.4,1.3l0,0l0.8,0.7l0.1,0l0.1,0l0.8,0.2l0.2,0
				l0.1,0l0.1,0l0.1,0.1l0,0.2l-0.2,0.6l-1.2,0.4L172,126l-0.4,0.2l-0.3,0.3l-0.1,0l-1.9,0.6l-0.2,0l-0.4,0l0.1,0.1l0.1,0.7l0,0.1
				l-0.1,0.2l-0.6,0.4l-0.1,0l-0.3,0l0,0l-0.1,0l-0.1-0.1l-0.1,0l-0.4-0.1l0,0l-1.6,0.2l-0.2,0l-1.6,1l0,0.1l0.1,0.2l0,0l-0.4,0.9
				l-0.2,0.1l-0.4,0.5l-0.9-0.4l-0.5,0l-1.3,1l-0.8,0.8l0,0.2l-0.4,1l-0.3,0.1l-0.7-0.2l-1.2,0.1l-0.1,0.1l0,0l0,0l-0.1,0.5l0,0.5
				l0,0.2l0,0.1l0,0.1l0,0l0,0.1l-0.1,0.1l-0.5,0.6l-0.1,0.1l-0.5,0.3l-0.2-0.1l-0.7-0.4l-0.9-0.6l-0.1-0.1l0,0l-1.2,0.7l-0.8,0.5
				l-0.2,0l-1.1,0.1l-1,0.3l-1.7,2.1l-0.5,0.7l-0.4,0.9l0,0.2l-0.1,0.6l0,0.1l0,0l0.1,0l0,0l0.1,0.2l0,0.4l-0.1,0h-0.2l-0.2,0
				l-0.2,0l0,0l0,0l-0.2-0.3l-0.1-0.1l0-0.1l0.1-0.1l0,0l0-0.2l-0.1-0.4l-1.3-1.9l-0.3-0.3l-0.1,0l-0.4,0l-0.6,0l-0.1,0.1l-0.1-0.1
				l-0.4-0.2l-1-0.3l-0.3,0l-0.1-0.1l0.1-0.4l0.1-0.4l0-0.1l-0.6-0.6l-0.2-0.1l-0.2,0l-0.4-0.2l-0.1-0.1l0,0l0.1-0.2l0.1-0.1
				l0.4-0.2l0.4-0.4l0.1-0.1l0-0.1l-0.1-0.1l-0.4-0.4l-0.2-0.2l-0.3,0l-0.2,0l-0.1-0.1l-0.2-0.4l0,0l0-0.1l0.7-1l0.1-0.1l0.2-0.1
				l0,0l0.5-0.5l0-0.2l0.3-0.3l0,0l0.1,0l0.2,0.2l0.1,0.7l-0.1,0.6l0.9,0l0.6,0.1l0.3-0.2l0.1,0l0.2,0l0,0l0,0l0-0.1l-0.1-0.1l0,0
				l-0.2,0l-0.1,0.1l-0.4-0.1l0.1-0.2l0,0l0.1-0.1l0.7-0.3l0.8-0.4l0,0l0.4-0.1l0.5-0.5l0,0l0.2-0.3l0.1-0.3l-0.7-0.2l-0.2-0.2
				l-0.6-1l0-0.1l0-0.1l0-0.2l0.2-1.2l0.1-0.2l0.1,0.2l0.3,0l1-0.4l0-0.3l0,0l0.4-0.3l0.1,0h0.4l0.1,0l0.1,0.2l0,0l0.3-0.1l0,0
				l0.2-0.6l0-0.3l0.3-0.3l0.1,0l0.7-0.2l0.4-0.1l0.1,0l0.3-0.1l0.6-0.2l0.2-0.3l-0.1-0.1l-0.1-0.1l-0.1-0.2l0-0.1l-0.1-0.5
				l-0.1-0.4l-0.5-0.1l-0.5-0.2l-0.6-0.4l-0.1-0.4l0-0.3l0-0.1l-0.1-0.2l0-0.1l-0.1-0.1l-0.7-0.2l-1.7-0.5l0,0l-0.7,0.3l-0.3-0.2
				l-0.5-0.5l0.2-0.1l0-0.1l-0.1-0.1l-0.1,0l-0.5-0.1l0-1.6l-0.1-0.5l0-0.1l-0.1-0.4l-0.3-0.4l-0.4-1l0.4-0.2l0.3-0.1l0-0.4
				l-0.2-1.2l0-0.2l0,0l0,0l-0.2-0.8l-0.1-0.3l0.5-1.2l0-0.5l0.8-0.7l1.2-0.6l0.1,0l0.6,0l0.5,0l1.7-0.5l0.4-0.2l0.1-0.3l0.5,0.3
				l0.4-0.2l0.2-0.1l0.2-0.1l0.1,0l0.2-0.4l0-0.1l0-0.1l0.1-0.1l0.1,0h0.2l0.1,0l0.1,0l0.2,0.1l0.2,0.1l0,0l0.2,0.1l2.1,0h0l1.5-0.1
				L155.5,108.1z"/>
			<path id="Saarland_2_" class="st59" d="M57.5,156l0.1,0.1l1.6,0.5l0.3,0l1,0.1l1.6-0.3l1-0.3l0.1-0.1l0.3-0.2l0,0l0.1-0.1l0-0.1
				l0.1-0.1l0.1,0l0.2-0.1l0.7-0.3l0.4-0.2h0.1l0,0l0,0l0,0l0.7-0.4l0.1,0l0.4,0.1l0.2,0l0,0.1l0,0.2l0,0l0,0l0.4-0.1l0.1-0.1
				l0.1-0.1l0.6,0.4l0.7,0.7l1.4,0.7l0.2,0l0.2-0.1l0.2-0.1l0.1-0.1l0,0.1l0.1,0.2l0.1,0.2l0,0l0,0.2l0,1l-0.1,1.2l-0.4,0.1
				l-0.1,0.1l0,0l0,0.2l0,0.1l0.6,0.4l0,0.2l-0.1,0.3l0,0.1l1.1,0.6l0.2,0l0.3-0.1l0.1,0.1l-0.1,0.1l-0.2,1l0,0l0.1,0.1l-0.1,0.5
				l-0.1,0.2l-0.1,0.1l-0.1,0.1l-0.3,0.2l-0.6,0.4l-0.2,0.3l0,0l0,0.1l0.2,0.7l0.2,0.3l0.4,0.6l0,0l0.1,0l0.2,0l-0.1,0.2l-1,0.8
				l-0.1,0l-0.2-0.1l-0.2-0.2l-0.3-0.1l-0.9-0.1l-0.1,0l-0.1,0.1l-0.1,0.2l-0.1,0l-0.2-0.1l-0.1-0.1l-0.3-0.3l-0.2-0.4l-0.2,0.6
				l-0.4,0.4l-0.2,0.1l-0.1,0l-0.1-0.1l0-0.1l-0.2-0.8l-0.1-0.3l0-0.1l-0.3-0.4l-0.5-0.4l-0.5-0.2l-0.3-0.1l-0.9-0.1l-0.3,0.2l0,0
				l0.1,0.1l0.1,0.2l0.1,0.4l0,0.1l0,0.1l-0.2,0.3l-0.4,0.1l-1.2-0.2l-0.3-0.3l-0.1-0.3l0.3-0.4l-0.1-0.3l-0.5-0.3l0-0.4l0,0
				l-0.3-0.7l-0.4-0.4l-0.4-0.2l-0.1-0.1l-0.2-0.3l-0.1-0.1l-0.3-0.6l0,0l-0.3-1.3l0-0.1l0-0.1l0.2-0.1l0.1,0l-0.1-0.1l-0.1-0.1
				l-0.1-0.1l-1-0.7l-0.5-0.2l-0.4,0.1l-0.1,0l-0.1,0l-0.3,0l-0.1-0.1l-0.1-1.4l0,0l0.1-0.1L57.5,156z"/>
			<path id="Rheinland-Pfalz_2_" class="st59" d="M84.3,130.8l-0.2,0.2l0,0.1l0,0.1l0,0.2l0.2,1.1l0,0.1l0.1,0l0.3,0.1l0,0.1
				l-0.1,0.3l-0.2,0.4l-0.1,0.1l-0.2,0.4l0,0.1l-0.2,0l-0.2,0l-0.2-0.1l-0.1-0.2l-0.3-0.1l-0.1,0l-0.1,0l-0.1,0l-0.5,0.6l-0.1,0.2
				l-0.1,0.5l0,0.1l0.1,0.3l0.2,0.2l-0.4,1.1l-0.1,0.2l0.1,0l1.2,0.8l0.6,1.1l0,0.1l0,0l0.2,0.5l0,0.1l0,0.4l-0.4,0.3l-0.5-0.2
				l-0.2,0l-0.2,0.1l-0.2,0.3l0.1,0.1l0.4,0.4l0.1,0.1l0,0l-0.4,0.4l-0.1,0l-0.2-0.1l-0.4-0.2l-1,0.4l-0.1,0l-0.1,0.1l-0.3,0.5l0,0
				l0,0.3l0.1,0.1l0.1,0.1l0.2,0.1l0.2,0.2l0,0.1L81,144l-0.1,0.1l-0.5-0.1l-0.1,0l-0.9,0.8l-0.4,0.3l-0.2,0l0.2,0.4l1.2,1.7
				l0.1,0.1l0.1,0l0.1,0l0.8,0l0.4-0.1l0.1,0l1.6-0.6l0.9-0.4l0.6-0.2l0.2,0l0.2,0l0.4,0.1l0.1,0.1l0.3,0.2l0.2,0.2l0.1,0.1l0.2,0.3
				l0.3,0.3l0.2,0.2l0.1,0.1l0.1,0.2l0.1,0.3l0,0.2l0.1,0.4l0,0.1l0,0.1l0,0.1l-0.1,0.1l-0.1,0.1l0,0.1l0,0.1v0.1l0,0.2l0.5,1.3
				l0.1,0.1l0.2,0.3l0.1,0.2l0.6,0.7l0.1,0.5l-0.1,0.2l0,0.1l0,0l-0.1,0.1l-0.1,0.1l-0.1,0.1l-0.1,0l-0.3,0.1l-0.2,0.1l-0.1,0.1
				l-0.1,0.1l-0.1,0.1l0,0l0,0.1l0,0.1l0,0.2l0,0.1l0.4,1.2l0.1,0.2l0.4,0.5l0.1,0.3l0,0.3l-0.1,0.2l0,0.1l0,0.1l0,0.1l0,0.1
				l0.1,0.2l0.2,1l0,0.1l0.1,0.7l-0.1,0l-0.1,0.1l0,0.1l0,0.1l0,0.1l0,0l0.1,0.1l0.1,0l0.1,0l0.1,0l0.2,0l0.1,0l0.1,0l0.1,0.1l0,0.1
				l0,0.1l-0.2,0.5l0,0.5l0,0.2l0,0.1l-0.1,0.2l-0.1,0.2l-0.1,0.2l-0.1,0.1l-0.1,0.1l-0.1,0.1l-0.1,0.1l-0.1,0.1l0,0.1l0,0l0,0.1
				l0,0.1l0,0.1l0,0l0.2,0.1l0.1,0l0.1,0.1l0.1,0.1l0,0.1l0,0.1l0,0.1l-0.3,0.2l-0.4,0.4l-0.1,0.1l-0.3,0.2l-0.1,0.1l-0.1,0.1
				l-0.1,0.1l-0.1,0.1l0,0.1l0,0.2l0,0h0l0,0l0,0.4l-0.5,2.3l0,0.1l-0.1,0.2l-0.2,0.2l0,0l-0.2,0.2l-0.2,0.2l-0.1,0.1l-0.1,0.3
				l0,0.2l0,0.3l0,0.1l0,0.1l-0.1,0.2l-0.1,0.1l-0.1,0.1l-0.1,0.1l-0.2,0.2l-0.4,0.3l-0.1,0.1l-0.1-0.1l0-0.1l0,0l-0.8-0.1l-0.1,0
				l-0.2,0l-0.2,0l-0.7-0.3l-0.4-0.2l0-0.1l-0.1-0.2l-0.2-0.2l-1.1-0.5l-0.7-0.2l-0.3,0l-0.2-0.1l-1.1-0.2l-0.8,0.2l-0.1,0l-0.4,0
				l-0.9,0l-0.7-0.2l-1-0.6l-0.2-0.1l-0.3-0.3l-0.5-0.9l0-0.2l0-0.3l0-0.3l-0.7-0.4l-0.5,0.1l-0.4,0.1l-0.2,0.1l0,0.1l0,0.1l0,0.1
				l-0.2,0l-0.1,0l0,0l-0.4-0.6l-0.2-0.3l-0.2-0.7l0-0.1l0,0l0.2-0.3l0.6-0.4l0.3-0.2l0.1-0.1l0.1-0.1l0.1-0.2l0.1-0.5l-0.1-0.1l0,0
				l0.2-1l0.1-0.1l-0.1-0.1l-0.3,0.1l-0.2,0l-1.1-0.6l0-0.1l0.1-0.3l0-0.2l-0.6-0.4l0-0.1l0-0.2l0,0l0.1-0.1l0.4-0.1l0.1-1.2l0-1
				l0-0.2l0,0l-0.1-0.2l-0.1-0.2l0-0.1l-0.1,0.1l-0.2,0.1l-0.2,0.1l-0.2,0l-1.4-0.7l-0.7-0.7l-0.6-0.4l-0.1,0.1l-0.1,0.1l-0.4,0.1
				l0,0l0,0l0-0.2l0-0.1l-0.2,0l-0.4-0.1l-0.1,0l-0.7,0.4l0,0l0,0l0,0h-0.1l-0.4,0.2l-0.7,0.3l-0.2,0.1l-0.1,0l-0.1,0.1l0,0.1
				l-0.1,0.1l0,0l-0.3,0.2l-0.1,0.1l-1,0.3l-1.6,0.3l-1-0.1l-0.3,0l-1.6-0.5l-0.1-0.1l-0.3-0.5v0l0,0l0.3-0.4l0.1-0.1l0.1,0l0.1,0
				l0.1,0l0.1-0.1l0.3-0.3l1.3-2.1l0.3-1.2l0-0.1l-0.1-0.9l-0.4-0.3l-0.3,0.2l-0.3,0l0,0l-0.4-0.2l-0.1-0.1l-0.7-0.7l-1.3-0.8
				l-0.4-0.5l-0.8-1.3l-0.1-0.2l-0.1-0.2l-0.3-0.7l-0.3-1.4l0.1-0.7l0.5-1.6l0.6-0.5l-0.1-1l0-0.3l0,0l0,0l1.7-1.1l0.1-0.2l0.3-0.6
				l0.1,0l0.2-0.1l0.5,0.3l0.6-0.2l0.3,0l-0.2-0.2l-0.1-0.2l0-0.1l-0.2-0.6l-0.1-0.3l0.4-0.1l0.5,0.4l0,0l0.2,0.2l1.1-0.2l1.1-0.4
				l0.3,0.3l0,0l0.9,0.4l0.7,0.2l0.7-0.2l0.2,0l0.1,0l-0.2-0.3l-0.2-0.4l0-1.3l0.7-0.5l0.1,0.1l0.5,0.4l0.2,0l0.5-0.2l0.4-1.7
				l0.1-0.3l0.5,0.1l0.2,0l0.4-0.2l0,0l0.2-0.3l0.2-0.2l0.6-0.1l1.2-0.3l0.4-0.1l0.2-0.2l0,0l0.1-0.3l0-0.1l0.1-0.1l0.1,0l0.1,0
				l0,0.1v0.1l0,0.4l0,0.1l0.7,0l0.4-0.1l0.2-0.1l0.6-0.2l0.3-0.2l0-0.1l0.1-0.5l0-0.4l0-0.3l0.1-0.2l0.1-0.1l0.4,0l0.5,0.2l0.1-0.1
				l0.2-0.1l2.9-1l0.1-0.1l0.2-0.3l0.1-0.2l0-0.4l-0.1-0.1l-0.2-0.2l0.1,0h0.1l0.4-0.1l0,0l0.5-0.5l0.3-0.4l-0.1-1.1l0.1-0.1
				l0.5-0.5l0.1-0.1l0.3,0.1l0.5,0.4l-0.1,0.2l-0.1,0.2l-0.1,0.3l0,0.1l0,0.1l0,0.1l0.5,0.1l0.3,0.1L82,127l0.1,0l0.1,0.1l0.1,0.3
				l0,0.1l-0.1,0.5l0,0l-0.1,0.1l0,0.1l0,0.2l0,0.2l0.1,0.1l0.1,0.2l0.1,0.1l0.3,0.3l0.3,0.3l0.1,0.1l0,0.4l-0.1,0.3l0.6-0.2
				l0.3,0.1l0.2,0.1L84.3,130.8z"/>
			<path id="Nordrhein-Westfalen_2_" class="st59" d="M103.7,108.9l-0.3,0.5l-0.9,1l-0.7,1.2l-1,0.8l-1,0.8l-0.1,0.2l-0.1,0.2
				l-0.1,0l-0.6,0l-0.1,0l-0.1,0l0-0.1l-0.1-0.4l0.2-0.4l-0.3-0.4l-0.7-0.3l-0.3,0l-0.5,0.1l-0.4,0.1l-0.6,0.3l-0.2,0.2v0.1l0,0.1
				l0.6,0.9l0.1,0l0.1,0l0,0.1l0,0.3l-0.2,0.6l0,0l-0.8-0.1l-0.9,0l-0.8,0.2l-1.1,0.3l-0.7,0.4l-0.2,0.2l-0.2,0.3l-0.6,0.8l-0.1,0.2
				l0.5,0.7l0,0l0.1,0l0.2,0l0,0l0.2-0.1l1-0.5l0.2,0l0.2,0l0.2,0.3l0,0.1l0.2,1.4l0,0.5l0,0.1l-0.1,0.1l-0.6,1.4l-0.7,0.3l-0.1,0
				l-0.3-0.1l-0.2-0.1l-0.4-0.1l-0.6,0l0,0l-0.3,0.1l0,0l-0.2,0.1l-0.1,0.1l-0.1,0.1v0l0,0.1l0.2,0.7l0.2,0.3l0.1,0.2l-0.1,0.2
				l-0.1,0.1l-0.2,0.2l-0.3,0.3l-0.2,0.2l0,0l0,0.1l0.1,0.1l0,0l-0.1,0l0,0l-0.1,0.1l0,0l-0.1,0.6l-1,1.5l-0.3,0.3l0,0l-0.1,0l0,0
				l-0.9-0.5l0,0l-0.2,0l0,0l0,0l-2.1,2.1l0.1,0.2l0.1,0.2l0.2,0.3l0.2,0.3l0,0.2l0,0.1l-0.5,0.8l-0.2,0.2l-0.2-0.3l-0.2-0.1
				l-0.3-0.1l-0.6,0.2l0.1-0.3l0-0.4l-0.1-0.1l-0.3-0.3l-0.3-0.3l-0.1-0.1l-0.1-0.2l-0.1-0.1l0-0.2l0-0.2l0-0.1l0.1-0.1l0,0l0.1-0.5
				l0-0.1l-0.1-0.3L82,127l-0.1,0l-1.1-0.6l-0.3-0.1l-0.5-0.1l0-0.1l0-0.1l0-0.1l0.1-0.3l0.1-0.2l0.1-0.2l-0.5-0.4l-0.3-0.1
				l-0.1,0.1l-0.5,0.5l-0.1,0.1l0.1,1.1l-0.3,0.4l-0.5,0.5l0,0l-0.4,0.1h-0.1l-0.1,0l0.2,0.2l0.1,0.1l0,0.4l-0.1,0.2l-0.2,0.3
				l-0.1,0.1l-2.9,1l-0.2,0.1l-0.1,0.1l-0.5-0.2l-0.4,0l-0.1,0.1l-0.1,0.2l0,0.3l0,0.4l-0.1,0.5l0,0.1l-0.3,0.2l-0.6,0.2l-0.2,0.1
				l-0.4,0.1l-0.7,0l0-0.1l0-0.4v-0.1l0-0.1l-0.1,0l-0.1,0l-0.1,0.1l0,0.1l-0.1,0.3l0,0l-0.2,0.2l-0.4,0.1l-1.2,0.3l-0.6,0.1
				l-0.2,0.2l-0.2,0.3l0,0l-0.4,0.2l-0.2,0l-0.5-0.1l-0.1,0.3l-0.4,1.7l-0.5,0.2l-0.2,0l-0.5-0.4l-0.1-0.1l-0.7,0.5l0,1.3l0.2,0.4
				l0.2,0.3l-0.1,0l-0.2,0l-0.7,0.2l-0.7-0.2l-0.9-0.4l0,0l-0.3-0.3l-1.1,0.4l-1.1,0.2l-0.2-0.2l0,0l-0.5-0.4l-0.4,0.1l0.1,0.3
				l0.2,0.6l0,0.1l0.1,0.2l0.2,0.2l-0.3,0l0.1-0.3l0,0l-0.1-0.2l-0.5-0.6l0-0.5l0.1-0.2l0.1-0.2l0.1-0.6l0-0.2l0-0.2l0-0.1l-0.4-0.7
				l-0.1-0.2l-0.3-0.2l0-0.1l-0.1-0.1l-0.6-0.1l-0.3,0l0,0l-0.1,0.1l-0.2,0.1l0,0l0,0l-0.4-0.6l-0.1-0.1l-0.1-0.4l0-0.3l0-0.1
				l0.7-0.7l0.2-0.8l-0.8-0.2l-0.2-0.3l0,0l0.3-0.1l-0.2-0.2l-0.1-0.2l-0.2-0.4l-0.1-0.1l0-0.1l-0.3-0.8l-0.1-0.1l0,0l-1-0.6l-0.6-1
				l0.4-1.2l0.1-0.2l0.2-0.1l0.2-0.1l0.1,0l0,0.1l0.2,0.1l0.2-0.6l0-0.2l-0.1-0.1l-0.1-0.1l0-0.1l0.1-0.3l0,0l0.1-0.1l0-0.1l0-0.1
				l-0.2-0.1l-0.3-0.1l-0.5-0.2l0-0.3l0-0.3l0.1-0.3l0.1-0.2l0,0l-0.1,0l-0.9-0.1l-0.6,0.1l-0.2-0.2l-0.3-0.7l-0.1-0.7l0-0.1l0,0
				l0.7-0.3l1.4-0.5l1.8-1.2l0.2-0.6l0.5-0.2l0.1,0l-0.2-0.2l-0.2,0.1l-0.4,0.2l-0.1,0.1l0,0l0,0l-0.1,0l-0.1,0l-0.1,0l0,0l-0.1,0
				l-0.1-0.2l0-0.7l0.3-0.8l1.6-2l0.5-0.6l-0.2-0.8l0.1-0.7l0.1-0.4l0.1-0.5l0-0.1l-0.1-0.9l-0.1-0.3l-0.6-1l-0.2-0.1l-0.7-0.8
				l0.1-0.2l0-1l-0.7-0.3l-0.1-0.1l0,0l-0.4-1.4l-0.3-1.6l0.3-0.6l1-0.4l0.5,0l1.1-0.1l0.4-0.3l1.1,0l0.1,0l0.2,0.1l0.2,0.1l0.7,0.4
				l0.4,0.4l0.3,0.2l0.1,0l-0.2-0.8l0-0.1l0.1-0.2l0,0l0.5,0.2l1.1,0l0.2-0.1l0.3-0.2l0.7-0.3l1.3-0.4l0.1,0l0.1,0.1l0.1,0.1
				l0.3,0.3l0,0l0.2-0.1l0.3-0.2l0.3-0.2l0.3-0.3l0.6-0.8l0.1-0.1l0,0l0-0.3l0-0.2l-1-0.9L65,98.9l0.3-0.8l0.3-0.6l1.3-0.4l0.1,0
				l0.2-0.2l0.1-0.1l0.1-0.4l0-0.2l0.4-0.4l1.7-1.1l0.6-0.3l0.5,0l0.2-0.2l0.1-0.1L71,94l0.5-0.1l0.6,0.1l0.3,0l1.1,0.1l0.2-0.2
				l0.1-0.1l0.2,0l0.2,0l0.2-0.1l0.1-0.1l0.1-0.2l0.1-0.1l0.8-0.6l0.9-0.6l0.4-0.2l0.1,0l0.1,0l0.5-0.3l0.4-0.7l0-0.2l-0.3-0.2
				l-0.2-0.1l0.1-0.3l0.1-0.2l0.1-0.2l0.2-0.2l0.1,0l1,0.4l0,0l0,0.1l0.1,0.3l0.3,1l1.1,0.7l0.5,0.1l0.3-0.1l0.1,0l0.4-0.1l0.6,0.4
				l0.2,0.4L83,93l-0.5,0.5l0,0.1l0,0.1l0,0.1l0,0l0.3,0.3l-0.2,0.2L82,95.6l0,0l0,0.2l0.1,0.2l0.1,0.1l0.3,0.2l0,0l0.5,0.1l0.4,0.4
				l0,0.9L82.8,98l-0.8,0.3l-0.2,0.2l0,0h0.1l0.3,0.5l0.1,0.2l0.2,0.1l0.4,0.2l0.3,0.1l0.1-0.2l0.1-0.1l0.5-0.4l0,0l0.3,0l0.2,0
				l0.2,0.1l0.1,0.1l0.5-0.3l0.4-0.1l0.9-0.7l0.4-0.4l0.3-0.2l0.1,0l0.7,0.1l0.5,0.2l0.7,0.1l-0.1-0.2l0-0.1l0-0.1l0.1-0.1l0.1-0.1
				l0.5-0.3l0,0l0.1,0l0.1,0l0.1-0.1l0.1,0l0.2-0.2l0.1-0.1l0.1-0.2l-0.3-0.1l-0.3-0.1l-0.1,0l-0.1,0l-0.2-0.2l-0.1-0.2l0-0.1l0.3-1
				l0.1-0.2L90,93.7l0-0.4l-0.4-1l-0.5-0.4L88,91l-0.1-0.7L87.8,90l0.1-0.1l0.1,0l0.5,0.1l0.1,0.1l0,0l0.1,0.1l0.8-0.1l0.2,0L90,90
				l0-0.1l0-0.3l0-0.3l0.7-0.5l0.7,0.3l1.3-0.7l0.5,0.4l0.2,0.2l0.1,0.1l0,0.1l-0.1,0.3l0.1,1.7l0,0.3l0.1,0.1l0.4,0.2l1.5,0
				l1.2-0.3l0,0l0.7-0.8l0.5-0.6l0.2-0.3l0.4-0.5l0.5,0.1l0.6,0.3l0,0.2l0,0l-0.4,0.9l0.2,0.5l0,0.2l0,0.1L99,92.2l-0.2,0.3l0,0
				l-0.2,0.2l-0.2,0.1l-0.3,0L98,93l-0.2,0.2l-0.1,0.1l-0.5,1.1l0.1,0.3l0,0l0.1,0l0.4,0.1l0.5,0.2l0.6,0.4l0,0.1l-0.4,1.1l-0.3,0
				l-0.5-0.3l0.4,0.6l0.8,0.6l0.8,0.2l0.2,0.1l0.1,0l0.1,0.1l0.1,0.2l-0.1,0.5l0.3,0.3l0.2,0.4l0,0l-0.1,0.1l-0.1,0.1l0,0.1l0,0.4
				l0.1,1.4l0.1,0.3l1.3,0.9l0.2,0.1l0.2,0l0,0l0.1,0l0.2,0.1l0,0l0.1,0.2l0.1,0.3l0,0.1l0,0.2l-0.1,0.5l-0.1,0l0.2-0.1l0.1,0l0.1,0
				l0,0l0.1,0l0.3,0.1l0.1,0.1l0.4,0.4l0,0.8l-0.3,0.7l-0.4,1.3l-0.2,1.6l0.1,0.1l0.1,0h0l0.4,0l0,0l0.1-0.1l0,0L103.7,108.9
				L103.7,108.9L103.7,108.9z"/>
			<path id="Niedersachsen_2_" class="st59" d="M91.4,63.6l-0.2-0.5L91,62.4l0-0.5v-0.3l0-0.1l0.8-2.6l0.1-0.3l0.2-0.6l0.5-0.6
				l0.2-0.2l0.4-0.1l0.3-0.1l0.2,0l0,0.1l0,0.1l0,0.1l0.3,0.4l0.6,0.5l0.2,0.2l0.1,0.1l0.2,0l0.4,0l1.1,0.1l0.4-0.1l0.1,0l0,0l0,0
				l0.1,0l0.5-0.1l0.1,0l0.5,0.1l-0.1-0.1l-0.2-0.4L98,57.5l0.2-0.1l0.2-0.1l0.2,0l0.2,0l0.7,0l0.8,0l0.5,0l0.4,0.1l0.8,0.3l0.4,0.3
				l0.5,0.8l0.1,0.2l0.4,0.9l0.2,0.4l0.2,0.3l0.1,0.2l0.2,0.2l0.5,0.4l0.2,0.2l0.1,0.1l0.2,0.4l0.1,0.2l0,0.1l0,0.4l0.1,0.3l0.1,0.2
				l0.1,0.1l0.5,0.4l1.2,0.8l0.4,0.1l0.4,0l0.6,0.1v0.6l-0.1,0.5l0.2,0.2l0.2,0.5l0,0.1l0.8,0.8l0.1,0l0.2-0.1l0.3-0.3l0.1,0
				l0.1,0.1l0.2,0.2l0.5,0.5l0.4,0.3l0.1,0l0.6-0.5l0-0.2l0.1-0.3l0.1-0.2l0.4,0.2l0.1,0.1l0.1,0.1l0.4,0.5l0.6,0.5l0.1,0.1l0.1,0
				l0.7,0l0.1,0l0,0l0.1-0.1l0.1-0.3l0-0.1l0.1-0.1l0.1,0l0.5-0.3l0,0l0,0l0.4,0.2l1.3,0.6l0.5,0.3l0.2,0.1l0.2,0.1l0.1,0.1l0.9,0.3
				l0.1,0l0.1,0l0.1-0.1l0,0l0,0l0.1-0.1l0.2-0.1l0.2,0l0.9,0l0,0l0.1,0l0.2,0.2l0.1,0.1l0.3,0.3l0.1,0.1l0.1,0.1l0.2,0.2l0.1,0.1
				l0.6,0.2l0.2-0.1l0.2-0.2l0.3-0.2l0-0.1l0,0l0.1-0.2l0.3-0.2l0.6,0.1l0.4,0.1l0.5,1.3l0.5,1l0.3,0.3l0.2,0.2l0.6,0.5l0.3,0.1
				l0.2,0l0.1,0l0.2,0.1l0,0.1l0,0.1l-0.1,0.2l0,0l-0.1,0.1l-0.1,0l0.8,0.3l0.1,0.1l0.1,0.1l0.2,0.2l0,0.1l0,0.1l0,0.3l0,0.1l0,0
				l0.3,0.3l0.7,0.7l0.1,0l0.1,0l0.1,0l0.4-0.2l0.2-0.2l0.1,0l0.1,0l0.5-0.1l0.1,0l0.1,0l0.1,0l0.1,0.1l0.2,0.2l0.3,0.3l0.1,0.1
				l0.1,0l1,0.2l0.1,0l0,0l0,0l-0.6,0.8l0,0l-0.2,0l-0.1-0.1l-0.1-0.1l0,0l-0.2,0l-0.1,0.2l0,0.2l-0.1,0.7l0.2,0.4l-0.2,0l-0.3,0.1
				l-0.3,0.1l-0.4,0.4l-0.2,0.3l0,0l-1.3,0.6l-0.3,0.1l-0.7-0.1l-0.1,0l0,0l0,0v-0.1l0-0.1l-0.1-0.1l-0.2-0.2l-0.9-0.2l-2.1-0.1
				l-0.1,0l-0.1,0l-0.1,0.1l0,0.1l0,0.2l0,0.1l0,0l0,0.1l-0.6,0.7l-1.4,0l-0.6,0.1l-0.5,0.1l-0.1,0.5l0,0l0,0.5l0,0.1l0,0.1l0.6,1.6
				l0.6,0.4l0.8,1.2l0.6,1.2l0,0l0,0.5L125,88l0.1,0.2l0.2,0.3l0.3,0.4l0.4,0.5l-0.4,0l-0.5,0.3l-0.1,0.4l0.2,0.4l1,1.3l0.3,0.2
				l0.1,0l0.1,0l0.2,0.1l0.1,0.1l0,0.1l0,0.3l0,0l-0.2,0.1l-0.3,0.1l0,0l-0.1,0l-0.3,0.4l0.1,0.9l0,0l0.3,0.4l0.3,0.3l0.3,0.4
				l0.1,0.2l0,0l0,0l-0.1,0.2l-0.2,0.1l-0.2,0l-0.2,0.1l-0.1,0l-0.1,0.1l-0.1,0.2l0,0.2l0,0.1l0,0.1l0,0l0.1,0.1l0.1,0.1l0.1,0
				l0.2,0l0,0l0,0l0,0.1l0,0.3l0,0.1l-0.3,0.4l-0.4,0.3l-0.5,0.3l-0.1,0.4l-0.1,0.7l0,0l-0.4,0l-0.8,0l-0.1,0l-0.2,0.1l-0.1,0
				l-0.3,0.1l-0.4,0l-0.2-0.1h-0.1l-1.1,0l-0.2,0l-0.4,0.1l0,0.2l0,0.1l0,0.1l0,0l-0.4,0.4l-0.9,0.1l0.4,0.5l0.8,0.6l-0.3,0.1
				l-0.2,0.2l0,0l0,0.4l0.2,0.1l0.2,0.1l0.1,0.1l0,0.1l0,0.1v0.2l0,0.1l-0.2,0.4l0,0l-0.1,0l-0.1,0l-0.5,0.4l-0.1,0.1l0,0.1l0,0.8
				l0.1,0.6l0.2,0.3l0.2,0.1l0.7,1l0.2,0.5l0,0.1l0,0.2l0.1,0.3l0,0.1l0.3,0.5l0.1,0.1l0,0l0.1,0l0,0l-0.3,0l-0.1,0l-0.5,1.2
				l-0.2,0.4l-1,0.3l-0.5,0.1l-0.1-0.1l-0.3-0.4l-0.1-0.1l-0.2-0.1l-0.1,0l-0.3-0.1l-0.2-0.1l0,0l-0.5,0.1l-0.2,0.3l-0.2,0.4l0.1,0
				l0,0l-0.1,0.2l0,0.1l-0.3,0.5l0,0l-0.6,0.5l-1.8,1.2l-1.2,0.2l-1.5,0.9l-0.7,0.5l-0.1,0l0,0l0,0l0.1-0.1l0,0l0-0.3l-0.1-0.1
				l-0.3-0.5l-0.1,0l-0.7,0.1l-0.7,0.1l0,0l-0.1,0.1l-1,0.8l-0.2,0.3l0.4,0.6l0.4-0.2l0.1,0l0,0l0,0.3l0,0.1l-0.1,0.3l-0.5,0.3
				l0-0.1l-0.8-0.4l-1.2-0.5l-0.4-0.1l-0.1-0.3l-0.1-0.2l0-0.1l0.1-0.4l0-0.1l0.2-0.4l0.1,0l0.4-0.1l0.3,0l0.2-0.3l0,0l-0.2-1
				l-0.1-0.4l-0.1-0.1l-0.5-0.8l0,0l0,0l0-0.1l0.5-0.6l0.3-0.1l0-0.1l0.1-0.2l0.2-0.1l0.1,0h0l0,0l0.1-0.2l0-0.1l0,0l-0.2-0.1
				l-0.2-0.1l-0.3-0.3l0,0l-0.8-0.4l-0.2,0l-0.7,0l-0.2,0l-0.2-0.1l-0.1-0.1l0-0.1l0-0.2l0.1-0.1l0-0.1l0-0.1l-0.1,0l-0.7,0.2l0,0
				l-0.1,0l-0.1,0l0,0l-0.1,0.1l0,0l-0.4,0h0l-0.1,0l-0.1-0.1l0.2-1.6l0.4-1.3l0.3-0.7l0-0.8l-0.4-0.4l-0.1-0.1l-0.3-0.1l-0.1,0l0,0
				l-0.1,0.1l-0.1,0l-0.2,0.1l0.1,0l0.1-0.5l0-0.2l0-0.1l-0.1-0.3l-0.1-0.2l0,0l-0.2-0.1l-0.1,0l0,0l-0.2,0l-0.2-0.1l-1.3-0.9
				l-0.1-0.3l-0.1-1.4l0-0.4l0-0.1l0.1-0.1l0.1-0.1l0,0l-0.2-0.4l-0.3-0.3l0.1-0.5l-0.1-0.2l-0.1-0.1l-0.1,0l-0.2-0.1l-0.8-0.2
				l-0.8-0.6l-0.4-0.6l0.5,0.3l0.3,0l0.4-1.1l0-0.1L98.1,95l-0.5-0.2l-0.4-0.1l-0.1,0l0,0l-0.1-0.4l0.5-1.1l0.1-0.1L98,93l0.2-0.1
				l0.3,0l0.2-0.1l0.2-0.2l0,0l0.2-0.3l0.3-0.7l0-0.1l0-0.2l-0.2-0.5l0.4-0.9l0,0l0-0.2L99,89.4l-0.5-0.1l-0.4,0.5L97.9,90l-0.5,0.6
				l-0.7,0.8l0,0l-1.2,0.3l-1.5,0l-0.4-0.2l-0.1-0.1l0-0.3l-0.1-1.7l0.1-0.3l0-0.1L93.5,89l-0.2-0.2l-0.5-0.4l-1.3,0.7l-0.7-0.3
				l-0.7,0.5l0,0.3l0,0.3l0,0.1l-0.3,0.3l-0.2,0l-0.8,0.1l-0.1-0.1l0,0l-0.1-0.1L88,90l-0.1,0l-0.1,0.1l0.1,0.2L88,91l1.2,0.9
				l0.5,0.4l0.4,1l0,0.4l0.1,0.7L90,94.7l-0.3,1l0,0.1l0.1,0.2l0.2,0.2l0.1,0l0.1,0l0.3,0.1l0.3,0.1l-0.1,0.2l-0.1,0.1L90.2,97
				l-0.1,0l-0.1,0.1l-0.1,0l-0.1,0l0,0l-0.5,0.3l-0.1,0.1l-0.1,0.1l0,0.1l0,0.1l0.1,0.2l-0.7-0.1L88,97.7l-0.7-0.1l-0.1,0l-0.3,0.2
				l-0.4,0.4l-0.9,0.7l-0.4,0.1l-0.5,0.3l-0.1-0.1L84.4,99l-0.2,0l-0.3,0l0,0l-0.5,0.4l-0.1,0.1L83,99.7l-0.3-0.1l-0.4-0.2l-0.2-0.1
				L82.1,99l-0.3-0.5h-0.1l0,0l0.2-0.2l0.8-0.3l0.7-0.2l0-0.9L83,96.5l-0.5-0.1l0,0l-0.3-0.2l-0.1-0.1L82,95.8l0-0.2l0,0l0.6-1.3
				l0.2-0.2l-0.3-0.3l0,0l0-0.1l0-0.1l0-0.1L83,93l-0.2-0.6L82.6,92L82,91.7l-0.4,0.1l-0.1,0l-0.3,0.1l-0.5-0.1l-1.1-0.7l-0.3-1
				l-0.1-0.3l0-0.1l0,0l-1-0.4l-0.1,0l-0.2,0.2l-0.1,0.2L77.6,90l-0.1,0.3l0.2,0.1l0.3,0.2l0,0.2l-0.4,0.7L77,91.7l-0.1,0l-0.1,0
				L76.5,92l-0.9,0.6l-0.8,0.6l-0.1,0.1l-0.1,0.2l-0.1,0.1l-0.2,0.1l-0.2,0l-0.2,0l-0.1,0.1l-0.2,0.2L72.4,94l-0.3,0l-0.6-0.1L71,94
				l-0.1,0.1l0,0.1l-0.2,0.2l-0.5,0l-0.3-0.4l-0.1-0.4l0-0.2l0-0.2l0-0.1l0.3-0.7l0.1-0.3l0.2-0.3l0-0.5L70.3,91l-0.9-1.8l0,0
				l-0.1,0l-0.1,0.1l-0.1,0.2L69,89.7l-0.2,0.2l-0.1,0l-2.3-0.7L66,89.1l-0.8-0.6l0-0.1l0.1-0.4l0.1-0.3l0.2-0.6l0.1-0.9l-0.1-0.9
				l0.5-0.4l0.2-0.1l0.4-0.1l0.1,0l1.5,0.1l1.2,0.2l0.3,0.1l0,0.1l0,0l0.1,0l0.4,0.1l0,0l0.1-0.1l0.1-0.2l0.2-1.6l0.1-0.9l0.1-1.3
				l0.2-0.9l0.5-0.6l0.9-1.4l0.3-0.9l0.1-0.4l0-0.3l-0.1-1.6l0.1-0.8l-0.3-0.2l0-0.2l0-0.2l0.2-0.5L73,73l0.2-0.5l0.1-1.2l0.3-1.1
				l0.2-0.5l0-0.1l0,0l0.1,0h0.6l-0.1,0l-0.5-0.1l-0.3-0.1l-0.2,0l-0.7-0.1l-1.6,0l-0.5-0.1l-0.1-0.1L70.5,69l-0.2-0.3l0-0.1l0-0.1
				l0.2-0.4l0-0.6l0.4-2.9l0.8,0.3l0.2,0.3l0.4-0.4l0.2-0.3l-0.2-0.4l-0.2-0.1l-0.4-0.2l-0.1-0.1l0.1-0.2l1-1.1l0.3-0.3l0.6-0.4
				l0.2-0.2l0.6-0.2l0.3-0.1l0.3,0l0.4,0l1.7,0.1l0.1,0l0.1,0.1l0,0l0.1,0.1l0.2,0.1l0.1,0l0.4-0.1l0.9-0.3l0.9-0.3l0.1,0l0.1,0
				l0.1,0l0,0l0.1,0l0.3,0l0.3,0l0.7-0.2l1.4-0.1l0.7,0.1l0.6,0.1l0.2,0.1l0.1,0.1l0,0.1l0,0.1l-0.1,0.1l0,0.2l0.1,0.5l0,0.2
				l0.1,0.3l0.6,0.1l0.1,0.1l0.1,0.2l0.1,0.3l0.8,1.8v0l0,0.1l0,0.1l-0.1,0.2l-0.1,0.1l-0.2,0.1l-0.2,0.1l-0.5,0.2l-0.1,0l-0.2,0
				l-0.2-0.2l0,0.5l0,0.2l0,0.1l0.1,0.1l0.1,0.2l0.1,0.2l0.2,0.2l0.1,0l0.2-0.1l0,0l0.2,0l0.2,0l0.2,0.3l0.3,0.4l0.1,0.2l0,0l0,0.1
				l0,0.1l0,0l0.1,0.1l0.2,0.1l0.2,0l0.1,0l0.1-0.1l0.1-0.1l0,0l0.2-0.2l0.1-0.2l0.1-0.2l0.2-0.4l0.1-0.2l0-0.2l0.1-0.8l0-0.3l0-0.1
				l-0.1-0.1l0,0l-0.1-0.1l-0.4,0.1l-0.1,0l-0.5-0.1l0.1-0.9l0.1-0.4l0-0.1l0.1-0.2l0.1-0.1l0.2-0.2l0.2-0.2l0.3-0.1l0.3,0l0.3,0.2
				l0.1,0.1l0.2,0.3l0.2,0.3l0.3,0.1l0.8,0.4l0,0l0.1,0l0.1,0l0.3,0.1l0.2,0l0.4,0.3l0,0l0,0.1l0,0.2l0,0l0,0l-0.1,0.1l0.1,0.1
				l0.3,0.4v0l0,0l-0.1,0.1l0,0.1l0.1,0l0.4,0l0,0l0.6-0.6l0-0.1L93,64.8l0.2-1.1l0,0l-0.4-0.1l-1.2-0.1L91.4,63.6z M97.7,74.8
				l-0.1-0.1l-0.3-0.4l-0.2-0.1l-0.1,0l-0.3,0.2l-1.1,0l-0.8-0.4l-1-0.5l-1.5-0.2l-1.7-0.9l-0.1-0.2l0-0.2l0,0.2l0.1,0.3l0.1,0.2
				l0.1,0.1l0.2,0.2l0.3,0.3l0.5,0.3l0.2,0.1l0.2,0l0.2,0l0.1,0.1l0.1,0.1l0.4,0.9l0,0.3l0.2,0.1l0.4,0.5l0.1,0.2l0,0.1l0,0.6
				l0.1,0.1l0.1,0.1l0.1,0l0.2-0.1l0.1,0l0.3,0l1.2,0.4l0.7,0.3l0.7-0.6l0-0.4l-0.1-1.1L97.2,75l0,0l0,0l0.2-0.1L97.7,74.8z
				 M82.6,59.5l-0.2-0.3l0,0v0l0.1-0.1l0.1,0l0.3,0l0.2,0l0.2,0l0.4,0.1l0.1,0l0,0l0.3,0.2l0,0.1l0,0l-0.4-0.1l-0.9-0.2l0,0l0,0
				l-0.1,0.1L82.6,59.5z M84.7,60.2L84.7,60.2L84.7,60.2l-0.2-0.1l0-0.1l0-0.1l-0.1-0.4l0-0.1l0.2-0.2l0.1,0.1l0.1,0.5L84.7,60.2
				L84.7,60.2z M80,59.9l-0.1,0l0,0l0-0.1l0-0.1l0.1-0.1l0.1-0.2l0.1-0.1l0.1,0l0.1,0l0.2,0l0.3,0l0.5,0l0.1,0l0.3,0.1l0.1,0.1l0,0
				l0,0l-0.8,0.2l-0.8-0.1L80,59.9z M77.2,60.5L77.2,60.5l-0.1-0.1l0-0.2l0-0.2l0-0.1l0.2-0.2l0,0l0.1-0.1l0.1,0l0.8,0l0.6,0l0.2,0
				l0.1,0l0.1,0l0.1,0l0,0l0,0.1l0,0l0,0l-0.2,0l0,0l0,0l0,0l0,0l-0.5,0h-0.1l-0.4,0L77.7,60l-0.1,0L77.2,60.5z M76.7,60.6l-0.3,0
				l-0.4,0l-0.3-0.1l-0.1-0.1l0,0l0,0l0.3-0.1l0.1,0h0.1l0.5,0.1l0,0L76.7,60.6L76.7,60.6L76.7,60.6z M72.8,60.9l-0.1-0.1l-0.1-0.1
				l0,0l0-0.1l0.1-0.1l0.1,0l0.3-0.1l0.2-0.1l0.1,0l1.6,0l0.2,0l0.1,0l0.1,0l0,0.1l0,0l-0.2,0.1l-0.1,0l-1.7,0.2l-0.4,0L72.8,60.9z
				 M69.3,61.5l-0.1,0l0,0l-0.1,0l-0.1-0.1l0,0l0,0l0.1,0l0.5,0l1.6-0.2h0.7l0.2,0l0,0l0,0l0,0.1l0,0.1l0,0l0,0l-0.3,0l-0.1,0
				l-0.2,0l-0.8,0l-1.1,0.2L69.3,61.5L69.3,61.5z M67.1,63.9L67,63.7l-0.1,0l-0.1,0l-0.1,0l0,0v0.1l0,0.1l0,0l0,0l0,0l-0.1,0
				L66,63.4l-0.1-0.2l0-0.2l0-0.1l0-0.1l0,0l0.1,0l1.2-0.4l0.1,0l0.1,0l0.1,0.1l0.4,0.3L68,63l0,0l-1.2,0.3l0.3,0.3l0.2,0.2l0,0
				L67.1,63.9L67.1,63.9z"/>
			<path id="Mecklenburg-Vorpommern_2_" class="st59" d="M124.1,55.6l1-0.7l0.7-0.4l0.2-0.1l0.1,0l0.5-0.1l0.1,0l1.1-0.1l0.1,0
				l0.1,0.1l0.8,0.9l0,0.4l0,0.1l0.1,0.2l0.1,0.1l0.1,0.1l0.1,0l0.1,0l0,0l0.3-0.2l0.1-0.1l0-0.1l0.4-0.1l0.5,0.2l0.3,0.1l0,0.2
				l0,0.1l0.1,0.1l0.3,0.2l0.2,0.1l0.3-0.6l0.1-0.2l0.1-1.3l0.2-0.4l0,0l0.1-0.1l0.4-0.2l0.2-0.1l0.1,0l0.1-0.1l0-0.1l0.6-1l0-0.3
				l0-0.1l-0.1-0.2l0-0.1h-0.1l-0.1,0.1l-0.3,0.3l-0.1,0.2l-0.2,0.2l-0.2,0.2l-0.4,0.5l0,0l0,0l0-0.2l0-0.1l0-0.1l0.1-0.3l0.4-0.5
				l1.7-1.4l0,0l0.1,0l0.1,0l0.8,0l0,0l0.1,0.1l0.2,0l0.2,0.1l0.3,0l0.2,0l0.2,0l0.1,0l0.3-0.1l1.6-0.6l0.9,0.1l0.7,0.1l0.3-0.8
				l0.4-0.9l0.1-0.1l0.2-0.2l0.4-0.3l0.8-0.5l0.3-0.2l0.1-0.1l0.1-0.1l0.1-0.1l0.1-0.1l0.1-0.2l0.9-1.8l0.6-1.2l0.5-0.9l0.4,0.3
				l0.2,0.1l0.1,0l0.9,0.1l0.8,0.1l1.6,0l1-0.1l0.3,0l0.4,0l0.3,0l0,0l0,0l0,0l0,0l-0.6,0.4l-0.1,0.1l-0.4,0.1l-1,0.1l-0.7,0l-0.2,0
				l0,0l-0.1,0l-0.1-0.2l-0.1-0.2l-0.1,0h0l-0.3,0l-0.7,0.2l-0.7,0.4l-2,0.7l-0.2,0.2l-0.6,1.5l-0.1,0.4l0,0.6l0,0l0.5,0.3l0.2,0.1
				l0.3,0l0.2,0l0.1,0l0,0l-0.1-0.1l-0.1,0l-0.3-0.1h-0.1l0,0l-0.1-0.3l0-0.2l0.1-0.2l0.7-0.8l1.1-0.8l1.3-0.7l1.1,0.2l1.1,0.5
				l0.4-0.1l0.1-0.1l0.3-0.3l0,0l0-0.1l0-0.1l0-0.2l0.1-0.3l0,0l0.3-0.3l0.1,0l0.8-0.3l0.5,0.1l0.9,1.4l-0.2,0.4l0,0.2l0.4,1.3
				l0.6,0.6l0.4-0.2l0.2-0.1h0l1.4,0.7l0,0l0.1,0.2l0.4,0.7l0.1,0.1l0.1,0.1l0,0l0,0l0.1,0.1l0.5,0l0.5,0.2l0,0l-0.4,0.3l0,0.2l0,0
				l0.1,0l0.1-0.1l0.1-0.1l0.1,0l0.3,0.2l0,0l0,0.1l0.1,0.3l0,0.2l0,0.1l0.3,0.4l0.1,0.1l0.1,0l0.3,0.1l0,0l0.1,0l0,0l0-0.1
				l-0.1-0.1l-0.1-0.1l-0.1-0.4l0,0l0.2-0.2l0.1,0l2-0.7l0.8-0.2l0.9,0.9l0.1,0.2l0.1,0.2l0,0.1l0,0.1l0,0.9l0.7,1.5l0.9,0.9
				l0.2,0.2l0.1,0.2l0,0.1l0,0.1l-0.1,0.1l-0.1,0.1l0,0l0,0l-0.1,0l-0.1,0l-0.1,0.1l-0.2,0.2l-0.4,0.5l-0.3,0.5l0,0.1l0.1,0.3l0,0
				l1.3,0.8l0.5,0.3l0.4,0.3l0.1,0l1.5,0.5l0.3,0.1l0.2,0l0.8,0l0.1,0l0,0l0.2-0.2l0.2-0.2l0.1-0.1l0,0l0.1,0l0.2,0l0.1,0l0.2,0.2
				l0.1,0.3l0.2,1.3l0.4,1.4l0.1,0.9l-0.1,0.6l0,0l0.1,0.2l0.2,0.4l0.2,0.5l0,0l0.4,0.5l0.1,0.5l0.3,1.1l0.6,1.7l0.1,0.2l-0.1,0
				l-0.1,0l-1.1,0.5l0,0.2l-0.1,0.4l-0.5,0.6l-0.2,0.1l-0.6,0.1l-1.3,0l-0.2,0l0-0.3l0-0.1l0.1-0.2l0.4-0.4l0.2-0.1l0.2-0.2l0.2-0.3
				l0.2-0.2l0.2-0.4l0.1-0.2l0-0.1l0.1-0.4l0-0.1l-0.1-0.6l-0.1-0.2l-0.2-0.1l-1.4-0.1l-0.2,0.3l-0.9,0l-0.6-0.1l-0.8,0.1l-0.1,0.1
				l-0.4-0.1l-0.3-0.7l-0.2-0.7l-1.1-1.3l-0.1,0l-0.1,0.1l0,0.1l-0.1,0.4l0,0.1l0,0.3l0.3,0.3l-0.6,0.5l-0.6,0l-0.4,0.3l-0.2,0.2
				l-1.5,1.4l0,0.1l-0.3,0.6l-0.1,0.4l0.1,0.3l0.1,0.4l0,0l0,0l-0.5,0.6l-1.1,1.1l-0.2,0.1l-0.1,0l-0.2-0.4l0-0.2l0,0l-0.1-0.1l0,0
				l-0.8,0l-0.2,0.1l-0.4,0.4l-0.1,0.1l0,0.2l0,0.3l0,0.1l0,0.2l-0.1,0.2l-0.3-0.1l0,0l-0.2-0.4l-0.1-0.1l-0.1-0.1l-0.4,0.1l0,0
				l-0.5,0.2l-0.1,0.1l-1.6,1.7l-0.1,0l0,0l-0.5-0.2l0,0l0,0l0.1-0.1l0.2-0.2l0.2-0.1l0,0l0-0.1l0,0l-0.2,0l-1.6,0l-0.4,0.1l0,0l0,0
				l-0.3,0.1l-0.2,0.1l-0.3,0l-0.1-0.2l-0.6-0.6l-0.8-0.7l-0.2,0l-1.7-0.2l-0.4,0.1l0,0.1l0,0l-0.7,0.1l-0.6-0.6l-0.1-0.3l-0.2-0.2
				l-0.4-0.2l-0.2-0.1l-0.1,0l-0.1-0.1l-0.4-0.1l-0.9-0.7l-0.1,0l-1.2,0.3l-0.3,0.1l-0.4-0.1l-0.3-0.1l-0.5,0.7l0,0.4l-0.1,0.1
				l-0.8,0.6l-0.1,0.1l-1.1,0.4l-0.7,0.1l0.2,0.4l0,0.1l0,0l0,0.1l-1.2,0.3l-0.1,0l-0.2-0.3l-0.4-0.2l-0.2,0l-0.6,0l-0.1,0.1
				l-0.9,0.8l0.2,0.9l-0.1,0.6l-0.1,0.2l-0.2,0.1l-0.3,0l-0.4-0.1l-0.1-0.1l0-0.1l-0.2-0.1l-0.8,0.1l-0.6,0.5l-1.3-0.1l0-0.1l0-0.1
				l-0.2-0.2l-0.1-0.1l-0.1-0.1l-0.8-0.3l0.1,0l0.1-0.1l0,0l0.1-0.2l0-0.1l0-0.1l-0.2-0.1l-0.1,0l-0.2,0l-0.3-0.1l-0.6-0.5l-0.2-0.2
				l-0.3-0.3l-0.5-1l-0.5-1.3l-0.4-0.1l-0.6-0.1l-0.3,0.2l-0.1,0.2l0,0l0,0.1l-0.3,0.2l-0.2,0.2l-0.2,0.1l-0.6-0.2l-0.1-0.1
				l-0.2-0.2l-0.1-0.1l-0.1-0.1l-0.3-0.3l-0.1-0.1l-0.2-0.2l-0.1,0l0,0l-0.9,0l-0.2,0l-0.2,0.1l-0.1,0.1l0.4-1.8l0.1-0.3l0.2-0.1
				l0.1,0l0.1,0.1l0.3,0.1l0.9-0.7l0.1-0.1l0.2-0.2l0.5-0.6l1.5-2l0.1-0.5l0.3-0.4l-0.2-0.9l-0.3-0.3l-0.2-0.1l-0.3-0.1l0,0l0,0l0,0
				l-0.1,0l-0.3,0l0,0l-0.3-0.2l-0.9-0.8l0.1-0.7l0-0.3l0-0.1l-0.1-0.2l0-0.1l-0.2-0.6l0-0.4l0.3-0.5l1.2-0.8l0.6,0l0.2-0.5
				L124.1,55.6z M155.8,38.1l-0.1,0.1l-0.4,0.3l-0.3,0.3l0,0.1l-0.7,1.7l0,0l0,0.2l0,0l0.1,0l0.1,0l0.7-0.6l0.1-0.4l0-0.1l-0.1-0.2
				l0,0l0,0l0.4-0.5l0.2-0.1l0,0l0,0.1l0,0.3l0,0.1l0,0.1l-0.1,0.2l-0.2,0.3l-0.1,0.1l-0.1,0.1l-0.1,0.5l0,0.2l0.6-0.3l0.5-0.3
				l1.5,0.6l0,0l0,0l0.4-0.1l0.4-0.2l0,1.2l0,0.6l0,0l-0.1,0l-0.4,0l-0.6-0.2l-0.2-0.1l-0.9-0.5l-0.1-0.1l0-0.1l0.1-0.7l-0.7,0
				l-0.7,0l-0.3,0.1l-0.7,0.2l-0.2,0.1l0.1,0.6l0.1,0.2l0.5,0l0.4,0l0.6,0.5l-0.2,0.4l-0.1,0l-0.5,0.2l-0.3,0l-0.3,0.1l-0.3,0.6
				l0,0.1l0,0l0.1,0l1.2,0.3l0.2,0l-0.3,0.2l-1.3,0.6l0,0.1l0,0.1l-0.1,0.6l0,0.2l0.4,1.1l0,0.1l3.5,1.2l0.3-0.2l0.1-0.1l0-0.1l0,0
				l0-0.1l-0.1-0.2l-0.2-0.2l0,0h-0.1l0,0l0,0l0,0.1l0,0l-0.1,0.1l-0.2,0.1l-0.1,0l-0.1-0.1l0-0.3l0.9-1l0.7-0.7l0.2-0.2l0.1,0
				l2.3-0.3l0.1,0l0.3,0.5l0,0l0,0.1l0,0.1l0,0l-0.2,0.1l0,0l-0.2,0.1l0,0.3l0.5-0.1l0.2-0.4l0.3-0.6l-0.2-0.4l-0.4-0.6l-0.3-0.2
				l-0.3-0.2l0,0l0,0l-0.1,0l-0.3,0l0,0l-0.1,0l-0.1-0.1l-0.2-0.3l-0.2-0.5l-0.1-0.1l-0.1-0.3l0-0.3l0-0.1l0-0.1l0-0.1l0,0l0.4-0.4
				l0.5-0.4l0.1-0.1l0,0l0.1-0.1l0.1-0.3l0-0.2l-0.1-0.5l-0.1-0.1l-0.2-0.1l-0.3-0.2l-0.1,0h-0.1l-0.4,0l-0.1,0l-0.5,0.1l-0.1,0
				l-0.5,0.1l-0.6,0.1l-0.1,0l-0.2-0.1l-0.1,0l-0.1-0.1l-0.1,0l-0.2-0.2l-0.2-0.2l-0.1-0.2l-0.1-0.3l0-0.2l0-0.1l0.1-0.2l0.1-0.1
				l0,0l0.1-0.1l0.1,0l0.1,0l0.1,0l0.1-0.1l0.1-0.1l0.1-0.3l0,0l-0.1-0.1l-0.1-0.1l-0.7,0.1l-1,0.3L155.8,38.1z M153,43.1L153,43.1
				L153,43.1L153,43.1l0.1-0.1l0.2-1.4l0.2-0.9l0.5-0.3l-0.7-0.2l-0.4,2.3l0,0.2l0,0.1l0,0.1L153,43.1z M154.1,43.4l1-0.5l0.1-0.1
				l0,0l-0.1-0.2l-0.1-0.1l-0.3-0.1l-0.1,0l-0.2,0l-0.2,0l-0.1,0.1l-0.2,0.3l0,0.1l-0.2,0.6l0,0.2l0,0l0,0L154.1,43.4z M152,43.7
				L152,43.7L152,43.7l-0.1,0l-0.1,0l0,0l0,0l0.1,0.1l0.1,0.1l0.1,0l0.7-0.3l0.2-0.1l0.1-0.1l-0.1-0.1l-0.1,0l-0.6,0.2l-0.1,0.1
				L152,43.7L152,43.7z M163.5,49.5l-0.1-0.1l-0.1,0l-0.1,0l-0.1,0l-0.1,0l-0.2,0.1l-0.1,0.1l0,0l0,0.1l0,0.3l0.1,0.2l0,0.1l0.4,0.5
				l0,0l0.1,1.1l0.8,1.3l0,0l0,0l0,0l0.9-0.4l0,0l0.1-0.2l0,0l-0.3-0.4l-0.1-0.4l0,0l0,0l0.8,0.1l0.3,0.3l0.6,0.7l0.1,0.1l0,0.1
				l0.1,0.2l0,1.2l-0.8-0.1l-0.2-0.3l-0.1-0.4l0,0l-0.1,0l-0.2,0l-0.4,0.1l0,0l0,0l-0.1,0.2l0,0.3l0,0.1l0,0.1l0.1,0.1l0.3,0.3
				l0.1,0.2l0.2,0.5l0,0.1l-0.1,0.3l-0.1,0.2l-0.1,0L165,56l-0.3,0.2l-0.3,0.1l-0.1,0l-0.1,0l-0.1,0l-0.2,0.3l0.2,0.2l0.3,0.1
				l0.3,0.1l0.2,0l0.6-0.1l0.6-0.2l0.1,0l0.9-0.5l1.7-0.2l0.1,0l0,0l0.3-1.4l-0.9-0.7l-1-0.9l-1.2-1.1l-0.2-0.1l-0.3-0.2l-0.1,0
				l-0.1,0l-0.2,0l-0.2-0.1l-0.4-0.2l-0.1-0.1l-0.2-0.2l-0.2-0.3l-0.2-0.2l-0.1-0.1L163.5,49.5z M132,54.9l0.2-0.5l0-0.3l0-0.1l0,0
				l-0.1,0l-0.2-0.1l-0.2,0l-0.1,0l-0.1,0l-0.5,0.3l-0.3,0.3l-0.1,0.1l0,0.2l0,0.1l0.1,0.1l0.1,0.1l0.1,0.1l0.1,0l0.8,0.1L132,54.9z
				"/>
			<path id="Hessen_2_" class="st59" d="M110.7,115.2l0,0.2l0,0.2l0.1,0.5l0.3,0.8l0.3,0.3l0.8,0.3l0.4,0.2l0.2,0.7l1,0.5l0.4,0.1
				l0.2,0.1l0.1,0.1l0.3,0.3l0.3,0.1l0.1,0.1l-0.1,0.2L115,120l-0.1,0l-0.1,0.1l-0.1,0.3l0,0.1l0.1,0.1l0,0l0,0.4l0,0.2l0,0h-0.1
				l-0.1-0.2l0,0l-0.1-0.1l-0.1-0.3l-0.2-0.2l-0.6,0.1l-0.1,0.1l0,0.1l0.3,0.6l0.1,0.3l0,1l0.4,0.1l0.2,0.1l0,0l0.1,0.1l0.1,0.2
				l0,0.1l-0.1,0.3l0,0l-0.1,0.1l-0.1,0l-0.1,0l0,0l-0.1,0L114,124l-0.1,0l-0.1,0l-0.1-0.1l-0.1-0.1l-0.3-0.2l-0.5-0.1l-0.3,0
				l-0.2,0l-0.1,0l0,0l0,0.1l-0.1,0.3l0.3,1.1l0.2,1.3l0,0.2l-0.4,0.9l-0.2,0.3l-0.3,0l-0.4,0l-0.1,0.1l-0.2,0.2l0,0.1l-0.1,0.4
				l0,0.1l0.1,0.2l0,0.2l0,0.1l0,0l-0.1,0l-0.3,0.1l0.2,0.3l0,0.3v0.1l-0.1,0.3l-0.3,0.6l-0.3,0.4l-0.2,0.2l-0.1,0.1l0,0.6l0,0.2
				l0.7,0.1l0.2,0l0.2,0l0.1-0.3l-0.3-0.3l0-0.1l0.1-0.1l0.5-0.2l0.1,0l0.5,0l0.3,0l0.1,0.1l0.2,0.3l0.2,0.5l-0.4,0.3l0,0.1
				l-0.1,0.1l0,0.1l0,2.2l0,0.2l-0.1,0.4l-0.1,0.3l-0.2,0.3l-0.8,0.9l-0.4,0.2l-0.3,0.2l-0.3,0.2l-0.3,0.1l-0.3,0l-0.5-0.2l-0.2-0.1
				l-0.8,0.2l-0.1,0.4l-0.1,0.5l0,0.1l-0.2,0.1l0.2,0.2l0.1,0.1l0,0.4l0,0.2l0,0.1l-0.1,0.2l-0.2,0.2l-0.4,0.3l-0.2,0.1l0,0h-0.2
				l-0.4,0.1l0,0l-0.1,0.1l-0.2,0.3l-0.2,0.5l0,0.1l0,0l-0.4,0l-0.2,0l-0.7-0.2l-0.2-0.1l-0.3,0.6l-0.1,0.8l0.2,0.9l0.1,0.3l0.1,0.2
				v0.2l-0.1,0.3l-1.1,0.2l-0.3,0h0l-0.1-0.1l-0.4-1l0,0l-0.1,0l-2.2-0.4l-3,0.8l0,0l-0.1,0.1l-0.2,0.3l-0.1,0.6l-0.1,0.3l0.3,0.3
				l0.1,0l0.1,0l0.1,0l0,0l0.1,0.1l0,0.1l0.1,0.9l-0.4,0.2l0.1,0.1l0,0l0.1,0.7l0,0.6l0,0.5l0.1,0.7l0,0l0.2,0.2l-0.2,0l0,0l0,0.1
				l0,0.3l0,0.1l0.1,0.1l1,1l0.1,0l0.2,0l0.1,0l0,0l0.3,1.2l-0.4,1l-0.1,0.1l-0.3,0.8l-0.2,1.6l0.2,0.4l0,0.4l0,0l-0.1,0.2l0,0
				l-0.1,0.1l0.4,0.2l0.1,0.1l0.1,0.3l0,0.1l-0.1,0.1l-0.2,0.1l-0.3-0.4l-0.3-0.1l-1.3,0.4l-0.1,0l-0.2,0.2l-0.4,0.4l-0.1,0.2l0,0.1
				l0.2,0.2l0.1,0.2l-1.5,1.3l-0.1,0l0,0l-0.4,0l-0.1,0l-0.1-0.1l-0.1-0.2l0.1-0.2l0.4-0.8l0.5-0.2l0.5-0.5l0-0.3l0-0.1h-0.5
				l-1.5-0.3l-0.1,0l-0.5-0.2l-0.3-0.2l-0.4-1.7l0.1,0l0,0l0.1,0l0,0l0.1-0.2l0-0.1l-0.2-0.1l-0.9,0.2l-0.4,0.1l-0.1,0.1l0,0.2
				l0,0.1l0.1,0l0.2,0.9v0.1l0,0.1l-0.2,0.2l-0.4,0.3l-0.2,0l-0.1,0l-0.1,0l-0.2-0.2l-0.1-0.2l-0.1-0.3l-0.5-0.6l-0.3-0.3l-0.1-0.1
				l-0.2,0l-0.1,0l-0.1,0l-0.2,0.1l0,0l-0.1-0.3l-0.4-0.5l-0.1-0.2l-0.4-1.2l0-0.1l0-0.2l0-0.1l0-0.1l0,0l0.1-0.1l0.1-0.1l0.1-0.1
				l0.2-0.1l0.3-0.1l0.1,0l0.1-0.1l0.1-0.1l0.1-0.1l0,0l0-0.1l0.1-0.2l-0.1-0.5l-0.6-0.7l-0.1-0.2l-0.2-0.3l-0.1-0.1l-0.5-1.3l0-0.2
				v-0.1l0-0.1l0-0.1l0.1-0.1l0.1-0.1l0-0.1l0-0.1l0-0.1l-0.1-0.4l0-0.2l-0.1-0.3l-0.1-0.2l-0.1-0.1l-0.2-0.2l-0.3-0.3l-0.2-0.3
				l-0.1-0.1l-0.2-0.2l-0.3-0.2l-0.1-0.1l-0.4-0.1l-0.2,0l-0.2,0l-0.6,0.2l-0.9,0.4l-1.6,0.6l-0.1,0l-0.4,0.1l-0.8,0l-0.1,0l-0.1,0
				l-0.1-0.1l-1.2-1.7l-0.2-0.4l0.2,0l0.4-0.3l0.9-0.8l0.1,0l0.5,0.1L81,144l0.1-0.7l0-0.1l-0.2-0.2l-0.2-0.1l-0.1-0.1l-0.1-0.1
				l0-0.3l0,0l0.3-0.5l0.1-0.1l0.1,0l1-0.4l0.4,0.2l0.2,0.1l0.1,0l0.4-0.4l0,0l-0.1-0.1l-0.4-0.4l-0.1-0.1l0.2-0.3l0.2-0.1l0.2,0
				l0.5,0.2l0.4-0.3l0-0.4l0-0.1l-0.2-0.5l0,0l0-0.1l-0.6-1.1l-1.2-0.8l-0.1,0l0.1-0.2l0.4-1.1l-0.2-0.2l-0.1-0.3l0-0.1l0.1-0.5
				l0.1-0.2l0.5-0.6l0.1,0l0.1,0l0.1,0l0.3,0.1l0.1,0.2l0.2,0.1l0.2,0l0.2,0l0-0.1l0.2-0.4l0.1-0.1l0.2-0.4l0.1-0.3l0-0.1l-0.3-0.2
				l-0.1,0l0-0.1l-0.2-1.1l0-0.2l0-0.1l0-0.1l0.2-0.2l0.2-0.2l0.5-0.8l0-0.1l0-0.2l-0.2-0.3l-0.2-0.3l-0.1-0.2l-0.1-0.2l2.1-2.1l0,0
				l0,0l0.2,0l0,0l0.9,0.5l0,0l0.1,0l0,0l0.3-0.3l1-1.5l0.1-0.6l0,0l0.1-0.1l0,0l0.1,0l0,0l-0.1-0.1l0-0.1l0,0l0.2-0.2l0.3-0.3
				l0.2-0.2l0.1-0.1l0.1-0.2l-0.1-0.2l-0.2-0.3L90,122l0-0.1v0l0.1-0.1l0.1-0.1l0.2-0.1l0,0l0.3-0.1l0,0l0.6,0l0.4,0.1l0.2,0.1
				l0.3,0.1l0.1,0l0.7-0.3l0.6-1.4l0.1-0.1l0-0.1l0-0.5l-0.2-1.4l0-0.1l-0.2-0.3l-0.2,0l-0.2,0l-1,0.5l-0.2,0.1l0,0l-0.2,0l-0.1,0
				l0,0l-0.5-0.6l0.1-0.2l0.6-0.8l0.2-0.3l0.2-0.2l0.7-0.4l1.1-0.3l0.8-0.2l0.9,0l0.8,0l0,0l0.2-0.6l0-0.3l0,0l-0.1,0l-0.1,0
				l-0.6-0.9l0-0.1v-0.1l0.2-0.2l0.6-0.3l0.4-0.1l0.5-0.1l0.3,0l0.7,0.3l0.3,0.4l-0.2,0.4l0.1,0.4l0,0.1l0.1,0l0.1,0l0.6,0l0.1,0
				l0.1-0.2l0.1-0.2l1-0.8l1-0.8l0.7-1.2l0.9-1l0.3-0.5l0.7-0.2l0.1,0l0,0l0,0.1l-0.1,0.1l0,0.2l0,0.1l0.1,0.1l0.2,0.1l0.2,0l0.7,0
				l0.2,0l0.8,0.4l0,0l0.3,0.4l0.2,0.1l0.2,0.1l0,0l0,0.1l-0.1,0.2l0,0h0l-0.1,0l-0.2,0.1l-0.1,0.2l0,0.1l-0.3,0.1l-0.5,0.6l0,0.1
				l0,0l0,0l0.5,0.8l0.1,0.1l0.1,0.4l0.2,1l0,0l-0.2,0.3l-0.3,0l-0.4,0.1l-0.1,0l-0.2,0.4l0,0.1l-0.1,0.4l0,0.1l0.1,0.2l0.1,0.3
				l0.4,0.1l1.2,0.5l0.8,0.4l0,0.1l0.5-0.3l0.1-0.3l0-0.1l0-0.3l0,0l-0.1,0l-0.4,0.2l-0.4-0.6l0.2-0.3l1-0.8l0.1-0.1l0,0l0.7-0.1
				l0.7-0.1l0.1,0l0.3,0.5l0.1,0.1l0,0.3L110.7,115.2L110.7,115.2z"/>
			<path id="Hamburg_2_" class="st59" d="M108.1,64.9l0.1-0.5l0.1-0.3l0.1-0.2l0.2-0.5l0.1-0.1l0.1,0l0,0.1l0,0.1L109,64l0.2,0.2
				l0.1,0.1l0.2-0.1l0.8-1l0.1-0.1l0.1-0.1l0-0.1l0-0.2l0.3,0l0.3,0l0.1,0l0.2,0l0.1,0h0.2l1.1-0.8l0.2-0.4l-0.1-0.1l0.3-0.2l1-0.5
				l0.1,0l0,0l0.3,0.2l0,0.2l-0.1,0.3l0,1.1l0.2,0.2l0.4,0.5l-0.1,0.1l0,0l-0.3,0.6l-0.5,0.4l-0.1,0.1l-0.1,0.3l0,0.5l0.2,0.5l0,0
				l0.8,0.5l0.1,0l0.1,0l0,0.1l0.1,0.2l0.8,0.9l0.1,0.2l0,0l0,0l-0.5,0.3l-0.1,0l-0.1,0.1l0,0.1l-0.1,0.3l-0.1,0.1l0,0l-0.1,0
				l-0.7,0l-0.1,0l-0.1-0.1l-0.6-0.5l-0.4-0.5l-0.1-0.1l-0.1-0.1l-0.4-0.2l-0.1,0.2l-0.1,0.3l0,0.2l-0.6,0.5l-0.1,0l-0.4-0.3
				l-0.5-0.5l-0.2-0.2l-0.1-0.1l-0.1,0l-0.3,0.3l-0.2,0.1l-0.1,0l-0.8-0.8l0-0.1l-0.2-0.5l-0.2-0.2l0.1-0.5V65L108.1,64.9z"/>
			<path id="Bremen_2_" class="st59" d="M91.8,65.5l0.1-0.1l0-0.1l0-0.1l0-0.2l0-0.1l0-0.1l-0.5-0.8l-0.2-0.3l0.2-0.3l0.2,0l1.2,0.1
				l0.4,0.1l0,0L93,64.8l0.2,0.9l0,0.1l-0.6,0.6l0,0l-0.4,0l-0.1,0l0-0.1l0.1-0.1l0,0v0l-0.3-0.4L91.8,65.5z M97.6,74.6l-0.3-0.4
				l-0.2-0.1l-0.1,0l-0.3,0.2l-1.1,0l-0.8-0.4l-1-0.5l-1.5-0.2l-1.7-0.9l-0.1-0.2l0-0.2l0,0.2l0.1,0.3l0.1,0.2l0.1,0.1l0.2,0.2
				l0.3,0.3l0.5,0.3l0.2,0.1l0.2,0l0.2,0l0.1,0.1l0.1,0.1l0.4,0.9l0,0.3l0.2,0.1l0.4,0.5l0.1,0.2l0,0.1l0,0.6l0.1,0.1l0.1,0.1l0.1,0
				l0.2-0.1l0.1,0l0.3,0l1.2,0.4l0.7,0.3l0.7-0.6l0-0.4l-0.1-1.1L97.2,75l0,0l0,0l0.2-0.1l0.2-0.1L97.6,74.6z"/>
			<path id="Brandenburg_2_" class="st59" d="M172.7,68.4l0,0.5l0.2,0.7l0.2,0l0.1,0l0.1,0.2l0,0.1l-0.2,0.5l-0.5,0.8l-0.1,0.1l0,0
				l-0.1,0.5l0,0.2l0,0.1l0.1,0.2l0,0.1l0.2,0.3l-0.1,0.6l0,0.1l-0.1,0.7l-0.2,0.5l-0.1,0.2l-0.1,0.1l-0.7,0.8l-0.3,0.3l-0.4,0.3
				l-0.2,0.1l-0.2,0.1l-0.5,0.3l-0.3,0.3l-0.1,0.2l0,0l0.1,0.4l0.2,0.9l0.1,0.2l0,0.3l-0.2,0.3l-0.2,0.2l-0.1,0.2l0,0.1l0,0l0.1,0.1
				l0,0l0.2,0.1l0.4,0l0.8,0.3l1.8,1.1l0.3,0.3l0.4,0.4l0.4,0.5l0,0l0.1,0.1l0,0.2l0.5,0.4l0.2,0.1l0.4,0.3l0.2,0.1l0.3,0.2l0.2,0.1
				l0.1,0l0.1,0l0.1,0l0.4,0.3l0.1,0.1l0.5,0.7l0,0.1l0,1.8l0,0.1l0,0.1l-0.4,0.7l-0.2,0.2l-0.4,0.2l-0.1,0l-0.1,0.1l0,0.1l0,0.1
				l-0.1,0.5l0,0.2l0.2,0.4l0.1,0.1l0.1,0.6l0.3,1.3l0,0.1l0,0.1l0.2,0.2l0,0l0.1,0l0.2,0l0.1,0l1.1,0.3l0,0l0.1,0.1l0,0.1l0.2,0.3
				l0,0l0,0.1l0,1.4l0,0.1l-0.1,0.2l-0.2,0.2l0,0.1l0,0.1l0.1,0.6l0.1,0.2l0.1,0.1l0.1,0.1l0.1,0l0.2,0l0.1,0l0.1,0.1l0.1,0.1
				l0.1,0.1l0.2,0.3l0,0.1l-0.1,0.7l0,0l-0.1,0.2l-0.3,0.5l0,0l0.1,0.1l0,1.3l-0.2,0.8l-0.7,0.9l-0.3,0.2l-0.4,0.4l-0.1,0.1v0l0,0.3
				l0,0.1l0.2,0.3l0,0.1l0,0l0.2,0.1l0.6,1.4l0.1,0.2l0.3,0.4l0.5,0.4l0.1,0l0.2,0.1l0.1,0.1l0.2,0.3l0.1,0.9l-0.2,0.6l-0.2,0.3
				l-0.2-0.2l-0.2,0.2l-0.1,0.5l0,0.1l0,0.1l-0.1,0.1l0,0l-0.7,0.1l-0.1,0l-0.1,0l0,0l-0.1-0.2l0-0.1l-0.5-0.2l-1.6,0.6l-0.1,0.1
				l0,0.1l0,0.1l0,0.1l-0.1,0l-0.8,0.1l-1,0.6l-0.7-0.2l-0.9-0.1l-0.7,0l-0.3,0l-0.1,0l-0.5,0.7l-0.3,1l-0.3,1.2l-0.6,0.8l-1.7,0.3
				l-0.1,0l-0.6,0l-0.4,0.1l-0.5,0.2l-0.2,0.1l-0.7-0.1l-0.1,0l-0.2-0.1l-0.1-0.1l-0.1,0.2l-0.7,0l-0.4,0l-0.1,0l-0.7-0.2l-1.1-0.7
				l-0.5-0.4l-0.5-0.5l-0.1-0.1l-1,0.5l-0.6,0.5l0,0l0,0.2l-0.4,0.1l-0.1,0l-0.5,0l0-0.1l-0.1-0.1l-0.3-0.4l0.2-0.8l0.1-1.2l0-0.2
				l-0.1-0.2l-0.3-0.6l-0.4-0.9l-0.1-0.2l-0.6-0.3l0,0.1l-0.1,0.1l-0.2,0.1l-0.1-0.1l-0.5-0.9l1.5-1l0.1-0.1l0.3-0.6v0l0-0.1
				l-0.1-0.2l-0.1-0.1l-0.1-0.1l-0.7-2.6l0-0.1l0,0l0.4-0.1l0-0.1l0-0.1l-0.2-0.2l-0.1-0.1l-0.2,0l0,0.1l-0.1,0l-0.5,0.2l-0.5,0l0,0
				l-0.1,0l-0.7-0.7l-1.1-0.6l-0.2,0.1l-0.1,0l-0.5-0.1l-1.1-0.6l-0.1-0.3l-0.1,0l-0.4-0.2l-0.4-0.2l-0.2-0.1l-0.4-0.2l-0.2,0
				l-0.1,0.1l0,0.3l-0.4,0.3l-0.2,0l-0.9-0.1l-1.6-0.6l-1-0.6l-0.4-0.4l-0.6-0.8l-0.5-0.7l-0.7-0.8l0.4-0.9l-0.1-0.9l0.1-0.6l0-0.1
				l0.1-0.4l0.3-0.6l0,0l0.1,0l0.3-0.5l-0.1-0.8l-0.1-0.6l0-0.4l0.2-0.5l0.1-0.2l0.1-0.2l-0.1-0.7l-1.2-0.4l0,0.2l0,0l-0.1,0.1
				l-0.3,0.1l-0.3,0l-0.2-0.2l-0.4-0.5l0,0l0-0.2l0.4-1.6l0.2-0.4l0.1,0l0.1,0l0.4-0.3l0.1-0.8l0-0.1l-0.1-0.2l-0.3-0.4l-0.3-0.5
				l0,0l0.1-1l0.1-0.3l0.2-0.3l0.3-0.2l0-0.4l-0.3-1.1l0-0.1l-0.1-0.1l-0.3-0.1l-0.3,0.2l-0.2,0.1l-0.4,0.1l-0.2-0.4l0-0.2l0.1-0.1
				l0,0l-0.2,0.2l-1.8,0.2l-0.1,0l-1.2-0.4l-0.8-0.3l-0.1,0l0,0l-0.1-0.1l0-0.1l0,0l0-0.1l0.1-0.1l0.1-0.1l0,0l0-0.1l0-0.1l0-0.1
				l0-0.1l-0.1-0.1l-1.2-0.7l0,0l-0.1,0l-0.1,0l-0.1,0l0,0l-0.2,0.1l-0.2,0.1l-0.1,0l-0.1,0l0,0l-0.8-0.6l-0.1-0.1l0-0.1l0-0.1
				l0-0.1l0.2-0.3l0,0l0,0l0-0.1l0,0l-0.1,0l0,0l-0.1,0l-0.1,0l-0.3,0.1l-0.1,0l-1-0.2l-0.1,0l-0.1-0.1l-0.3-0.3l-0.2-0.2l-0.1-0.1
				l-0.1,0l-0.1,0l-0.1,0l-0.5,0.1l-0.1,0l-0.1,0l-0.2,0.2l-0.4,0.2l-0.1,0l-0.1,0l-0.1,0l-0.7-0.7l-0.3-0.3l0,0l0-0.1l0-0.3
				l1.3,0.1l0.6-0.5l0.8-0.1l0.2,0.1l0,0.1l0.1,0.1l0.4,0.1l0.3,0l0.2-0.1l0.1-0.2l0.1-0.6l-0.2-0.9l0.9-0.8l0.1-0.1l0.6,0l0.2,0
				l0.4,0.2l0.2,0.3l0.1,0l1.2-0.3l0-0.1l0,0l0-0.1l-0.2-0.4l0.7-0.1l1.1-0.4l0.1-0.1l0.8-0.6l0.1-0.1l0-0.4l0.5-0.7l0.3,0.1
				l0.4,0.1l0.3-0.1l1.2-0.3l0.1,0l0.9,0.7l0.4,0.1l0.1,0.1l0.1,0l0.2,0.1l0.4,0.2l0.2,0.2l0.1,0.3l0.6,0.6l0.7-0.1l0,0l0-0.1
				l0.4-0.1l1.7,0.2l0.2,0l0.8,0.7l0.6,0.6l0.1,0.2l0.3,0l0.2-0.1l0.3-0.1l0,0l0,0l0.4-0.1l1.6,0l0.2,0l0,0l0,0.1l0,0l-0.2,0.1
				l-0.2,0.2l-0.1,0.1l0,0l0,0l0.5,0.2l0,0l0.1,0l1.6-1.7l0.1-0.1l0.5-0.2l0,0l0.4-0.1l0.1,0.1l0.1,0.1l0.2,0.4l0,0l0.3,0.1l0.1-0.2
				l0-0.2l0-0.1l0-0.3l0-0.2l0.1-0.1l0.4-0.4l0.2-0.1l0.8,0l0,0l0.1,0.1l0,0l0,0.2l0.2,0.4l0.1,0l0.2-0.1l1.1-1.1l0.5-0.6l0,0l0,0
				l-0.1-0.4l-0.1-0.3l0.1-0.4l0.3-0.6l0-0.1l1.5-1.4l0.2-0.2l0.4-0.3l0.6,0l0.6-0.5l-0.3-0.3l0-0.3l0-0.1l0.1-0.4l0-0.1l0.1-0.1
				l0.1,0l1.1,1.3l0.2,0.7l0.3,0.7l0.4,0.1l0.1-0.1l0.8-0.1l0.6,0.1l0.9,0l0.2-0.3l1.4,0.1l0.2,0.1l0.1,0.2l0.1,0.6l0,0.1l-0.1,0.4
				l0,0.1l-0.1,0.2l-0.2,0.4l-0.2,0.2l-0.2,0.3l-0.2,0.2l-0.2,0.1l-0.4,0.4l-0.1,0.2l0,0.1l0,0.3l0.2,0l1.3,0l0.6-0.1l0.2-0.1
				l0.5-0.6l0.1-0.4l0-0.2l1.1-0.5L172.7,68.4L172.7,68.4z M159.5,84.8l-0.1,0.2l-0.1,0.2l-0.1,0.1l-0.1,0l-0.1,0l-0.2,0l-0.2,0
				l-0.3-0.1l-1.3,0l-0.3,0.5l0,0l0,0.1l0.1,0.1l0.1,0.1l0,0l0,0l0,0.1l-0.2,0l-0.1,0l-0.3-0.1l-0.1-0.1l-0.1,0l-0.4,0.3l0,0.1
				l-0.1,1.4l0,0.1l0.4-0.1l0.4,0.3l-0.5,0.7l-0.1,0.1l-0.1,0.2l-0.1,0.1v0.3l0.1,0.1l0.1,0.2l-0.1,0.2l-0.1,0.1l-0.2,0.1l0,0.2
				l0.1,0l0.5,0.3l0.4,0l0.1,0l-0.1,0l0-0.1l0.5-0.3l0.4-0.1l0,0l0.3,0l0.8,0.2l0.2,0.3l0.4-0.2l0.7,0.6l0.5,0l-0.1-0.7l0,0l0,0
				l0.4-0.2l0.2-0.1l0.1,0l0.2,0.4l0.9,0.3l1.6,0.4l0.3,0.1l0.4-0.1l0.1-0.2l0-0.1l0-0.1l-0.1,0l-0.1,0l0-0.1l0.4-0.3l0.2-0.4
				l0.2-0.6l-0.3-0.4l-0.2,0l-0.6-0.4l-0.4-0.1l-0.2-0.7l-0.4-0.8l-0.8-0.8l-1-2l-0.2-0.1l-0.2,0.1l-0.1,0.2l-0.1,0.3L160,85l-0.1,0
				l-0.2-0.1L159.5,84.8z"/>
			<path id="Berlin_2_" class="st59" d="M159.5,84.8l0.1,0.1l0.2,0.1l0.1,0l0.1-0.3l0.1-0.3l0.1-0.2l0.2-0.1l0.2,0.1l1,2l0.8,0.8
				l0.4,0.8l0.2,0.7l0.4,0.1L164,89l0.2,0l0.3,0.4l-0.2,0.6l-0.2,0.4l-0.4,0.3l0,0.1l0.1,0l0.1,0l0,0.1l0,0.1l-0.1,0.2l-0.4,0.1
				l-0.3-0.1l-1.6-0.4l-0.9-0.3l-0.2-0.4l-0.1,0l-0.2,0.1l-0.4,0.2l0,0l0,0l0.1,0.7l-0.5,0l-0.7-0.6l-0.4,0.2l-0.2-0.3l-0.8-0.2
				l-0.3,0l0,0l-0.4,0.1l-0.5,0.3l0,0.1l0.1,0l-0.1,0l-0.4,0l-0.5-0.3l-0.1,0l0-0.2l0.2-0.1l0.1-0.1l0.1-0.2l-0.1-0.2l-0.1-0.1v-0.3
				l0.1-0.1l0.1-0.2l0.1-0.1l0.5-0.7l-0.4-0.3l-0.4,0.1l0-0.1l0.1-1.4l0-0.1l0.4-0.3l0.1,0l0.1,0.1l0.3,0.1l0.1,0l0.2,0l0-0.1l0,0
				l0,0l-0.1-0.1l-0.1-0.1l0-0.1l0,0l0.3-0.5l1.3,0l0.3,0.1l0.2,0l0.2,0l0.1,0l0.1,0l0.1-0.1l0.1-0.2L159.5,84.8z"/>
			<path id="Bayern_2_" class="st59" d="M140.1,136.8l0.2,0l0.2,0.1l0.6,0.6l0,0.1l-0.1,0.4l-0.1,0.4l0.1,0.1l0.3,0l1,0.3l0.4,0.2
				l0.1,0.1l0.3,0.3l0.3,0.6l0,0l0,0l-0.2,0.1l-0.2,0.1l-0.1,0.1l-0.2,0.3l0,0.1l0.3,0.3l0.7,0.4l0.1,0l0.3,0.3l0.3,0.4l0.2,0.5
				l0,0.1l0,0.1l-0.2,0.1l-0.1,0.2l0,0.1l0,0.3l0.1,0.3l0,0l0.1,0.1l0,0l0.2,0l0.1,0l0.2,0.2l0.3,0.4l-0.1,0.5l0.9,0.1l0.7,0.8
				l0.9,0.5l0.4,0l0.2,0l0.3,0.2l0.1,0.2l0.6,1.1l0,0.8l-0.1,0.1l-0.1,0.2l-0.5,0.9l-0.1,0.4l-0.1,0.8l0,0.2l-1,0.7l0,0.1l0,0.1
				l0.1,0.3l0.1,0.2l0.4,0.6l0,0l0,0l0.1,0l1,0.3l0,0l0.1,0.4l0.2,1.2l0.6,1.3l0.2,0.3l0.1,0.1l-0.1,0.1l0.2,0.1l0.3,0.1l0.1,0
				l0-0.1l0,0l0.1,0l0.1,0.1l0,0l0,0.3l0,0.5v0.1l0,0l-0.1,0.2l0.4,0.6l1.5,1.2l0.1,0.3l0,0.2l0.3,0.6l0.1,0.1l0.3,0.1l1.1,0.2
				l0.2,0l0,0l0-0.1l-0.1-0.1l0-0.2l0.1,0l0.2,0l0.7,0.1l0.1,0l0.3,0.2l0.5,0.4l0.5,0.6l1.3,1.8l0.2,0.3l0.4,0.3l0.2,0.2l0.1,0
				l0.1,0l0,0.7l0.2,0.2l0.2,0.2l0.2,0.1l0.4,0.2l0.1,0l0.2-0.1l0.3-0.1l0.1,0l0.1,0l0.6,0.4l0.3,0.2l0.7,0.8l0.1,0.2l0.1,0.5l0.2,1
				l0.2,0.2l1,0.7l0,0l0.1,0l0-0.2l0-0.1l0-0.1l0-0.2l0.3-0.1l0.8,0l0.1,0l0,0l0.6,0.6l0.2,0.3l0.2,0.4l0.1,0.3l0.3,0.3l0.1,0l0.2,0
				l0.4,0l0.1,0l0.1-0.1l0.1,0l1.3,1.9l0.3,0.6l-0.1,0.5l-0.2,0.5l-0.2,0.4l0.3,0.5l0.3,1.3l0,0.4l-0.3,1l-1,1.5l0,0l-0.3-0.1
				l-0.7-0.3l-0.1,0l-1.1-0.7l-1.2-0.5l-0.1,0.4l0,0.1l-0.2,0.2L165,179l-0.1,0.1l-0.4,0.1l0.2,0.2l0,0l0.2,0.6l0,0l-0.3,0.9
				l-0.1,0.1l-0.1,0.2l0,0.1l0,0l0.2,0.3l0,0.1l0,0.1l0,0.1l-0.3,1.1l0,0.1l0,0.1l-0.1,0.1l-1.1,1.2l-0.1,0.1l-0.9,0.6l-0.1,0
				l-0.1,0l-1.1,0l-0.6,0.4l-0.1,0l-0.2,0l-0.3,0l-0.1,0l-0.1,0l-0.9,0.5l-0.1,0.1l-0.1,0.1l0,0.1l-0.1,0.2l0,0.1l-0.5,0.6l-0.1,0.1
				l-0.1,0.1l-0.1,0l-0.1,0l-0.4,0l-0.6,0.1l0,0l-0.1,0l0,0.1l0,0l0,0.2l0,0.1l-0.2,0.5l-0.2,0.2l0,0l-0.5,0.4l-0.6,0.5l-0.1,0.1
				l0,0l0,0.1l0.1,0.4l0,0.2l0.1,0.2l0.1,0.2l0.6,0.5l0.5,0.4l0.2,0.2l0.1,0.1l0.1,0.1l0,0.1l0.2,0.8l0.1,0.1l0.1,0.1l0.5,0.1l0.1,0
				l0,0l0.2,0.3l0.5,0.8l0.6,1.1l0,0.1l0,0.1l0,0.1l-0.6,1l-0.8,1.7l0,0l0,0l0.1,0.1l0.2,0.1l0.8,0.1l0.2,0l0.1,0l0.2-0.1l0,0l0,0
				l0,0l0.1-0.1l0,0l0.1,0l0.4,0.2l0.1,0l0.3,0.4l0.5,1.2l0,0.1l0,0.2l-0.1,0.1l-0.3,0.3l-0.4,0.6l0,0.2l-0.1,1l0,0l0,0l0.1,0.1
				l0.1,0l0.1,0.1l0,0.1l0,0.5l0,0.2l-0.6,0.7l0,0l0,0l-0.6-0.2l-0.2-0.1l-0.7-0.4l-1.7-1.2l-0.2-0.2l-0.2-0.3l-0.1-0.2l0-0.1
				l0.2-0.4l0.2-0.2l-0.6-1.3l-0.3-0.1l-0.9-0.2h-0.2l-0.1,0l-0.2,0l-0.9,0.2l-0.1,0l-0.1,0.2l-0.2,0.4l-1.1,0.6l-0.2,0l-0.5-0.6
				l-0.4-0.5l0-0.1l-1.2-0.1l-0.4-0.1l0,0l0-0.1l-1.1,0.4l-0.3-0.8l0.1-0.1l0.1-0.2l0-0.1l-0.1-0.1l-0.1,0l-1,0.9l0,0.8l0.3,0.6
				l0.1,0.2l0.1,0.4l0,0l0,0.1l0,0l0,0l-0.3,0.1l-0.8,0l-0.7-0.1l-0.3-0.2l-0.6,0.2l-0.8-0.1l-0.9,0.1l-0.7,0.3l-0.3,0.5l0,0l-0.2,0
				l-0.6-0.1l-2.2,0l-0.3,0l-0.4,0.3l0,0l-0.3,0.6l0,0.3l0,0.1l0,0l0,0.1l0,0.3l-0.2,0.3l-0.1,0l-1,0.2l-0.8-0.1l-0.1,0l-0.1-0.1
				l-0.1,0l-0.1,0l-0.3,0.4l0,0.1l-0.4,0.4l-1.2,1.1l-0.1,0.2l0,0.1l-0.1,0.2l-0.1,0.1l-0.2,0.1l0,0L131,207l-0.1,0l0,0l0-0.1
				l0.2-0.4l0.2-0.2l0-0.1l0,0l-0.7,0l-0.8,0.3l-0.1,0l-0.3,0.2l-0.8,0.4l-1.2,0.1l-0.2,0l-0.3-0.1l-0.1-0.1l0-0.3l0-0.1l0,0l0.1,0
				l0.1-0.1l0-0.2l-0.4-0.4l-0.5-0.5l-0.7-0.2l0,0l-0.1-0.1l0-0.1l0-0.3l0.1-0.1l0.4-0.3l-0.3-0.4l-0.5,0.1l-0.9,0.3l-0.5-0.1
				l-1.1-0.4l0-0.1l0-0.1l0,0l0-0.1l-1.1-0.2l-0.3,0l-0.2,0.2l-0.1,0.2l0,0l-0.1,0.3l-0.1,0l-0.7,0l-0.6-0.1l-0.4-0.3l-0.1-0.1
				l0.1-0.1l0.1-0.2l0-0.2l0-0.2h-0.1l-0.5,0.1l0,0l-0.1,0.1l0,1.7l0.1,0.4l0,0l0,0l0.1,0l0.1,0.1l0.1,0.1l0,0.2l0.1,0.9l-0.9,1.2
				l-1.1,1.4l-0.3,0.3l-0.7,0.4l-0.6,0.2l-1,0.2l-0.1,0l0-0.1l0-0.1l0.1-0.2l0.1-0.2l0.6-1.4l0.1-0.2l0.2-0.2l0,0l0-0.2l-0.1-0.1
				l0,0l-0.7-0.1l-0.2,0.2l0,0.2l0,0.1l-0.1,0.1l-1,0.3l-0.4-1.1l0.1-0.2l0.1-0.1l0,0l0.2-0.2l-0.2-0.4l-0.2-0.3l-0.4-0.5l-0.5-0.2
				l-0.2,0.1l-0.1,0l0,0l-0.1-0.1l-0.5-0.8l0-0.2l0-0.1l0-0.2l-0.1,0l-0.5,0.3l-0.2,0.1l-0.8,0l-0.9-0.4l0,0l0-0.1l0,0l0,0l0-0.1
				l0-0.1l0-0.4l-0.1-0.2l-0.3-0.2l0,0l-0.4,0l-0.2,0.1l-0.1,0.2l-0.6,0.8l-0.9-0.3l-0.7-0.3l-0.2-0.1l-0.1-0.2l0.6-0.5l0.3-0.2
				l0.5,0l0,0.1l0,0l0.1,0l0.1,0l0.7,0l1.2-1.3l0,0l1.1-0.1l1.2,0l0.1-0.1l0.2-0.3l0.1-0.1l0,0l0.3-0.1l0.6,0.1l0,0l0.1,0.1l0,0
				l0.2,0.8l0-0.1l0.1-0.3l0.1-0.1l0.1-0.2l0.1-0.1l0.2,0h0l0.2-0.2l0.2-0.5l0-0.1l-0.6-1.4l0-0.8l0.2,0l0.3-0.3l-0.1-0.2l-0.1-0.1
				l-0.1-0.1l-0.1-0.2l-0.1-0.6l0-0.8l0-0.1l0-0.1l0-0.4l0.1-0.3l-0.2-0.1l-0.1-0.1l-0.1-0.1l0-0.1l0-0.1l0-0.1l0-0.1l0-0.1l0,0
				l0.1,0l0.2,0l0.1,0l0-0.2l0.1-0.4l0.1-0.2l0.1-0.1l0-0.2l0.1-0.5l0-0.7l0-0.8l-0.2-0.2l-0.2-0.2l0,0l-0.1-0.1l-0.2-0.6v-0.1
				l-0.1-0.2l-0.1-0.4l0-0.2l-0.3-2l-0.2-0.2l-0.6-1l-0.2-0.3l-0.1-0.4l0.3-0.8l0,0l0.3-0.5l0.1-0.4l0-0.2l-0.1-0.1l0.4,0l0.7-0.4
				l0.2,0.2l0.3,0.3l0.5-0.1l1.1-0.9l0-0.1l-0.1-0.1l0.3-0.2l0.1,0l0.1,0l0.2,0.1h0.1l0.1,0l0.2-0.1l0-0.9l0-0.1l-0.2-1.3l-0.3-0.4
				l-0.3-0.4l-0.1-0.2l0-0.3l0-0.1l0.2-0.5l0.9,0.3l0.1,0l1.1-0.2l0.4,0l0.1,0.1l0,0l0,0.1l-0.2,0.5l-0.1,0.1l0,0l0,0.1l0,0l0.2,0
				l0.5-0.2l0.3-0.4l0.1-0.1l-0.1-0.1l-0.1,0l-0.1-0.1l-0.2-0.6l0-0.2l-0.6-0.2l0,0l-0.1-0.7l0.2-0.1l0.3-0.7l0,0l0.1-1.2l0-1.4
				l-0.1-0.4l-0.1-0.1l0,0l-0.3-0.3l-0.2-0.4l0-0.1l-1.4-1l-0.9-0.4l0-0.2l0-0.2h0l0.1,0l-0.3-1.5l-0.5-0.8l-0.4-0.2l-0.3-0.2
				l-0.6-0.4l-0.1-0.1l0,0l0-1.4l0.2-0.6l-0.1-0.2l-0.4-1l0-0.1l0-0.1l0.1-0.8l0.1-0.1l0.5,0l0.2-0.1l0.1-0.1l0,0l-0.1-0.4l-0.3-0.5
				l-0.3-0.9l0,0l-0.2-0.3l0-0.1l0,0l0.1-0.1l0.1-0.1l-0.1-0.3l-0.2-0.4l-0.1-0.2l-0.3,0l-0.1,0l-0.3,0.3l0,0l0.1,0.1l0.1,0.1l0.1,0
				l-0.1,0.2l0,0l-0.5,0.5l-0.1,0l-0.9,0.1l-0.3-0.1l0,0l-0.2-0.2l0-0.2l0.1-0.1l0-0.1l0,0l0-0.9l0-0.2l0,0l-0.2-0.5l0-0.1l-0.1,0
				l-0.1,0l-0.1,0l-0.4-0.6l-0.1-0.2l-0.5-1.9l-0.2-0.2l-0.4-0.4l-0.2,0.1l-0.9,0.3l-0.6,0.3l-0.2,0.1l-0.1,0l-0.3-0.2l-0.1-0.2
				l0.1-0.3l0,0l0.1-0.1l0-0.1l0.1-1.3l0-0.2l-0.3,0.1l-1,0.9l0,0l-0.1,0l-0.1,0l-0.6-0.4l-0.1-0.1l-0.1-0.1l0,0l0-0.1l0-0.1l0-0.1
				l0,0l-0.1-0.1l-0.1,0l-0.1,0l-0.3,0l0,0l-0.1,0.1l-0.1,0.2l-0.3-0.1l-1.3,0.1l-0.5,0.1l-0.1,0l-0.1,0l0,0.1v0.1l0.1,0.4l0.3,0.6
				l0.2,0.3l0.1,0l0.2,0l0.1,0l0-0.4l0-0.1l0.1-0.1l0.2,0.1l0.2,0.4l0.1,0.4l-0.2,0.7l0.1,0.1l0,0.1l-0.2,0.2l-0.3,0.1L102,155
				l-0.7-0.1l-0.3,0.4l-0.2,0.3l0.1,0.2l0,0.1l-0.5,0.7l-0.1,0.1l-0.3,0.1l-0.1,0l-0.3,0.1l-1.1,0l0,0l-0.2-0.1l-0.2-0.4l0.2-1.6
				l0.3-0.8l0.1-0.1l0.4-1l-0.3-1.2l0,0l-0.1,0l-0.2,0l-0.1,0l-1-1l-0.1-0.1l0-0.1l0-0.3l0-0.1l0,0l0.2,0l-0.2-0.2l0-0.1l-0.1-0.7
				l0-0.5l0-0.6l-0.1-0.7l0,0l-0.1-0.1l0.4-0.2l-0.1-0.9l0-0.1l-0.1-0.1l0,0l-0.1,0l-0.1,0l-0.1,0l-0.3-0.3l0.1-0.3l0.1-0.6l0.2-0.3
				l0.1-0.1l0,0l3-0.8l2.2,0.4l0.1,0l0,0l0.4,1l0.1,0.1h0l0.3,0l1.1-0.2l0.1-0.3v-0.2l-0.1-0.2l-0.1-0.3l-0.2-0.9l0.1-0.8l0.3-0.6
				l0.2,0.1l0.7,0.2l0.2,0l0.4,0l0,0l0-0.1l0.2-0.5l0.2-0.3l0.1-0.1l0,0l0.4-0.1h0.2l0,0l0.2-0.1l0.4-0.3l0.2-0.2l0.1-0.2l0-0.1
				l0-0.2l0-0.4L108,139l-0.2-0.2l0.2-0.1l0-0.1l0.1-0.5l0.1-0.4l0.8-0.2l0.2,0.1l0.5,0.2l0.3,0l0.3-0.1l0.3-0.2l0.3-0.2l0.4-0.2
				l0.8-0.9l0.2-0.3l0.1-0.3l0.1-0.4l0-0.2l0.1,0l0.1,0l0.2-0.2l0.4-0.5l1.5-0.2l0.1,0l0.4,0.5l0.3,0.4l1.1,0.4l0.1,0.1l0.1,0.1
				l0.5,1.2l0.1,0.5l0,0.1l0.1,0.2l0,0l0.4,0l0.2-0.1l0.2-0.1l0.1,0.2l0.1,0.3l0.5,0.6l0.9,0.3l0.7,0.2l-0.1,0.6l-0.1,0.8l0.1,0.6
				l0.1,0.3l0,0.1l0.4,0.1l1.2,0.4l0.1,0l0,0l0.1-0.2l0-0.4l0,0l0-0.4l0,0l0.1,0l0.1,0l0.5,0.1l0.6,0.1l0.1,0l0.2,0l0.2-0.1l0,0
				l0-0.1l0-0.3l-0.1-0.1l-0.1-0.1l-0.3-0.1l-0.1,0l0,0l-1.2-0.9l-0.1-0.1l0-0.1l0-0.7l0-0.2l1.7-0.7l1.5,0h0l0,0l0.1,0.1l0.3,0.5
				l0.3,0.3l0.8,0.1l0.1,0l0.3-0.1l0.3-0.1l0.1-0.3l0,0l0.2,0l0.2,0l0.4,0.3l0.3,0.5l0,0.1l-0.1,0l-0.1,0.1l-0.1,0.1l-0.1,0.1l0,0.1
				l0,0.1l0,0l0.2,0.2l0.5,0.5l0.2,0l0,0l0.2-0.4l0.7-0.1l0.5-1.5v0l-0.3-1.7l-0.1-0.2l-0.1,0l-0.2-0.1l0-0.5v0l0-0.1l0-0.1l0.1,0
				l0.1,0l0,0l0.3-0.2l0.5-0.4l0-0.2l0.2-0.3l0,0l0.4,0l0.8,0.2l0.1,0l0.1,0.1l0.1,0.2v0l-0.1,0.2l0,0l-0.1,0l-0.1,0.1l0,0.4l0,0.5
				l0,0.1l0,0l0.4,0.3l0.4,0l0.1,0.5l0.1,0.3l0.4,0.4l0.1,0.1l0.4-0.1l0.1-0.1l0,0l0-0.2l0-0.1l0,0l0.3-0.1l0.1,0l0.1,0l0.1,0.1
				l0.1,0.1l0.1,0h0l2.8-0.4l0.9-0.3L140.1,136.8z"/>
			<path id="Baden__x26__Württemberg_2_" class="st59" d="M98.3,156.6l0.2,0.1l0,0l1.1,0l0.3-0.1l0.1,0l0.3-0.1l0.1-0.1l0.5-0.7
				l0-0.1l-0.1-0.2l0.2-0.3l0.3-0.4l0.7,0.1l0.5,0.2l0.3-0.1l0.2-0.2l0-0.1l-0.1-0.1l0.2-0.7l-0.1-0.4l-0.2-0.4l-0.2-0.1l-0.1,0.1
				l0,0.1l0,0.4l-0.1,0l-0.2,0l-0.1,0l-0.2-0.3l-0.3-0.6l-0.1-0.4v-0.1l0-0.1l0.1,0l0.1,0l0.5-0.1l1.3-0.1l0.3,0.1l0.1-0.2l0.1-0.1
				l0,0l0.3,0l0.1,0l0.1,0l0.1,0.1l0,0l0,0.1l0,0.1l0,0.1l0,0l0.1,0.1l0.1,0.1l0.6,0.4l0.1,0l0.1,0l0,0l1-0.9l0.3-0.1l0,0.2
				l-0.1,1.3l0,0.1l-0.1,0.1l0,0l-0.1,0.3l0.1,0.2l0.3,0.2l0.1,0l0.2-0.1l0.6-0.3l0.9-0.3l0.2-0.1l0.4,0.4l0.2,0.2l0.5,1.9l0.1,0.2
				l0.4,0.6l0.1,0l0.1,0l0.1,0l0,0.1l0.2,0.5l0,0l0,0.2l0,0.9l0,0l0,0.1l-0.1,0.1l0,0.2l0.2,0.2l0,0l0.3,0.1l0.9-0.1l0.1,0l0.5-0.5
				l0,0l0.1-0.2l-0.1,0l-0.1-0.1l-0.1-0.1l0,0l0.3-0.3l0.1,0l0.3,0l0.1,0.2l0.2,0.4l0.1,0.3l-0.1,0.1l-0.1,0.1l0,0l0,0.1l0.2,0.3
				l0,0l0.3,0.9l0.3,0.5l0.1,0.4l0,0l-0.1,0.1l-0.2,0.1l-0.5,0l-0.1,0.1l-0.1,0.8l0,0.1l0,0.1l0.4,1l0.1,0.2l-0.2,0.6l0,1.4l0,0
				l0.1,0.1l0.6,0.4l0.3,0.2l0.4,0.2l0.5,0.8l0.3,1.5l-0.1,0h0l0,0.2l0,0.2l0.9,0.4l1.4,1l0,0.1l0.2,0.4l0.3,0.3l0,0l0.1,0.1
				l0.1,0.4l0,1.4l-0.1,1.2l0,0l-0.3,0.7l-0.2,0.1l0.1,0.7l0,0l0.6,0.2l0,0.2l0.2,0.6l0.1,0.1l0,0l0.1,0.1l-0.1,0.1l-0.3,0.4
				l-0.5,0.2l-0.2,0l0,0l0-0.1l0,0l0.1-0.1l0.2-0.5l0-0.1l0,0l-0.1-0.1l-0.4,0l-1.1,0.2l-0.1,0l-0.9-0.3l-0.2,0.5l0,0.1l0,0.3
				l0.1,0.2l0.3,0.4l0.3,0.4l0.2,1.3l0,0.1l0,0.9l-0.2,0.1l-0.1,0h-0.1l-0.2-0.1l-0.1,0l-0.1,0l-0.3,0.2l0.1,0.1l0,0.1l-1.1,0.9
				l-0.5,0.1l-0.3-0.3l-0.2-0.2l-0.7,0.4l-0.4,0l0.1,0.1l0,0.2l-0.1,0.4l-0.3,0.5l0,0l-0.3,0.8l0.1,0.4l0.2,0.3l0.6,1l0.2,0.2l0.3,2
				l0,0.2l0.1,0.4l0.1,0.2v0.1l0.2,0.6l0.1,0.1l0,0l0.2,0.2l0.2,0.2l0,0.8l0,0.7l-0.1,0.5l0,0.2l-0.1,0.1l-0.1,0.2l-0.1,0.4l0,0.2
				l-0.1,0l-0.2,0l-0.1,0l0,0l0,0.1l0,0.1l0,0.1l0,0.1l0,0.1l0.1,0.1l0.1,0.1l0.2,0.1l-0.1,0.3l0,0.4l0,0.1l0,0.1l0,0.8l0.1,0.6
				l0.1,0.2l0.1,0.1l0.1,0.1l0.1,0.2l-0.3,0.3l-0.2,0l0,0.8l0.6,1.4l0,0.1l-0.2,0.5l-0.2,0.2h0l-0.2,0l-0.1,0.1l-0.1,0.2l0,0.1
				l-0.1,0.3l0,0.1l-0.2-0.8l0,0l-0.1-0.1l0,0l-0.6-0.1l-0.3,0.1l0,0l-0.1,0.1l-0.2,0.3l-0.1,0.1l-1.2,0l-1.1,0.1l0,0l-1.2,1.3
				l-0.7,0l-0.1,0l-0.1,0l0-0.1l0-0.1l-0.5,0l-0.3,0.2l-0.6,0.5h-0.5l-0.2,0l-0.1,0l-0.1,0l-0.3-0.4l-0.2-0.4l0-0.2l-0.1-0.2
				l-0.1-0.2l-0.1-0.1l-1.1-0.4l-0.2-0.1l-0.1,0l-0.1,0l-0.3,0l-0.1,0l-0.1,0.1l-0.1,0l-0.1,0l-0.1,0l-0.2-0.1l-0.5-0.2l-0.6-0.4
				l-0.2-0.2l-0.2-0.2l-0.1-0.2l0-0.1l0-0.2l0,0l0-0.1l0,0l-0.1-0.1l-1.7-1.1l-0.5-0.3l-0.1,0l-0.1-0.1l-0.1-0.1l-0.3-0.1l-0.1,0.1
				l-0.1,0.1l0,0l0,0.1l0.6,0.6l0.2,0.1l0.1,0.1l0.7,0.5l0,0l0.1,0l0.1,0l0.4,0.3l0.6,1.2l0.1,0.4l-0.4,0.2l-0.3,0l-0.6-0.2
				l-0.5-0.3l-0.1-0.1l-0.1,0l-0.6-0.1l-0.1,0l-0.4,0l-0.1,0l-0.1,0l-0.3,0.1l-0.3,0.1l-0.1,0.1l-0.1,0.1l-0.2,0.1l-0.3,0.1
				l-0.7,0.2h0l-0.3-0.2l-1-0.9l-0.2,0.4l-0.1,0l-0.1-0.1l-0.9-0.4l0-0.1l-0.2-0.8l0.1-0.2l0.1-0.2l-0.3-0.4l-0.4-0.3l-0.5-0.2
				l0.1,0.3l-0.1,0.1l0,0.1l-0.2,0.1l-0.1,0l-0.1-0.2l-0.1-0.8l-0.6-0.1l-0.2,0.2l-0.1,0.3l-0.7,0.2l-0.3,0.1l-0.2,0.2l-0.3,0.3
				l-0.7,1.3l-0.1,0.5l0,0l0.1,0.2l0.9,0.6l0,0l0.9-0.4l0-0.1l0.1-0.1l0.3-0.1l0.1,0l0.6,0l0.1,0l0.1,0l0.3,0.5l0,0.1l-0.1,0.2
				l-0.3,0.7l-0.2,0.2l-0.1,0.1l-0.2,0l-0.1-0.1l0-0.2l0.1,0l0,0l0-0.1l0,0l-0.2-0.2l-0.3-0.1l0,0l-0.3-0.1l-0.8,0.7l0.3,0.4
				l0.1,0.1l0,0l-0.1,0.1l-0.3,0.1l-0.4,0.1l-0.1,0l-1.5-0.1l-0.1,0l0,0l-0.1,0l-0.4-0.3l0-0.1l0-0.1v-0.1l0-0.2l0,0l0,0l-0.1-0.1
				l-0.4-0.1l-0.7-0.1l-0.1,0l-0.1,0l0,0l-1.4,0.8l-0.1,0.1l0,0.1l0,0.1l0,0.2l0,0.1l-0.1,0.1l-0.1,0l-1,0.1h0l-0.9-0.2l-0.8-0.3
				l-0.2-0.4l0,0l-0.1,0l-0.1,0l-0.8,0l-0.3,0.3l0,0.1l-0.2,0.2l-0.1,0.1l-0.6,0.2l-0.9,0.2l-0.1,0l-0.2,0l-0.2-0.1l0,0L75,203
				l-0.2-0.2l0.1,0l0.1,0l0.6-0.2l0-0.1l0-0.2l-0.1-0.2l-1.3-0.3l-1-1.3l0-0.1l0-0.1l0-0.1l-0.1-0.6l0-0.1l0,0l0.4-0.3l0.1-0.1
				l0.1-0.1l0.1-0.1l0-0.2l0-0.1l0-0.1l-0.2-0.6l0-0.1l0-0.2l0-0.1l0.2-0.5l0.3-0.6l0.1-0.2l0-0.1l0-0.1l-0.1-0.2l0-0.1v-0.2l0-0.1
				l0.4-1.1l0.4-0.6l0.1-0.2l0.1-0.2l0-0.1l0-0.1l-0.1-0.3l-0.1-0.1l-0.1-0.2l-0.5-0.6l0-0.1l0-0.1l0-0.1l0-1l0-0.1l0.1-0.7l0-0.1
				l0-0.1l0.4-0.8l0-0.1l0.5-0.6l0.5-0.7l0-0.1l0.1-0.2l0.2-0.5l0.2-0.8l0-0.1l0.1-0.1l0.1-0.1l0.1-0.1l0.4-0.1l0.1-0.1l0,0l0,0
				l0-0.1l0-0.1l0-0.1l-0.2-0.9l0-0.2v-0.1l0-0.2l0-0.1l0-0.1l0.5-1.2L78,181l0.1-0.1l0.1-0.2l0-0.1l0-0.1l0-0.8l0-0.2l0-0.2l0-0.1
				l0-0.1l0-0.1l0.6-1.2l0-0.1l0.1-0.1l0.3-0.1l0.3-0.2l0.1-0.1l1.1-1.2l0.2-0.8l0-0.1l0,0l0.1,0l0.1,0l0.6-0.1l0.8-0.6l0.2-0.2
				l0.2-0.2l0.1-0.1l0.1-0.1l0-0.2l0.1-0.3l0.1-0.3l0.1-0.4l0.1-0.2l0.1-0.2l0.2-0.4l0.8-1.2l0.1-0.1l0.1,0l0.5-0.1l0.1-0.1l0.4-0.3
				l0.2-0.2l0.1-0.1l0.1-0.1l0.1-0.1l0.1-0.2l0-0.1l0-0.1l0-0.3l0-0.2l0.1-0.3l0.1-0.1l0.2-0.2l0.2-0.2l0,0l0.2-0.2l0.1-0.2l0-0.1
				l0.5-2.3l0-0.4l0,0h0l0,0l0-0.2l0-0.1l0.1-0.1l0.1-0.1l0.1-0.1l0.1-0.1l0.3-0.2l0.1-0.1l0.4-0.4l0.3-0.2l0,0l0-0.1l0-0.1
				l-0.1-0.1l-0.1-0.1l-0.1,0l-0.2-0.1l0,0l0,0l0-0.1l0-0.1l0,0l0-0.1l0.1-0.1l0.1-0.1l0.1-0.1l0.1-0.1l0.1-0.1l0.1-0.2l0.1-0.2
				l0.1-0.2l0-0.1l0-0.2l0-0.5l0.2-0.5l0-0.1l0-0.1l-0.1-0.1l-0.1,0l-0.1,0l-0.2,0l-0.1,0l-0.1,0l-0.1,0l-0.1,0l0,0l0-0.1l0-0.1
				l0-0.1l0.1-0.1l0.1,0l-0.1-0.7l0-0.1l-0.2-1l-0.1-0.2l0-0.1l0-0.1l0-0.1l0-0.1l0.1-0.2l0-0.3l0,0l0.2-0.1l0.1,0l0.1,0l0.2,0
				l0.1,0.1l0.3,0.3l0.5,0.6l0.1,0.3l0.1,0.2l0.2,0.2l0.1,0l0.1,0l0.2,0l0.4-0.3l0.1-0.2l0-0.1v-0.1l-0.2-0.9l-0.1,0l0-0.1l0-0.2
				l0.1-0.1l0.4-0.1l0.9-0.2l0.2,0.1l0,0.1l-0.1,0.2l0,0l-0.1,0l0,0l-0.1,0l0.4,1.7l0.3,0.2l0.5,0.2l0.1,0l1.5,0.3h0.5l0,0.1l0,0.3
				l-0.5,0.5l-0.5,0.2l-0.4,0.8l-0.1,0.2l0.1,0.2l0.1,0.1l0.1,0l0.4,0l0,0l0.1,0l1.5-1.3l-0.1-0.2l-0.2-0.2l0-0.1l0.1-0.2l0.4-0.4
				l0.2-0.2l0.1,0l1.3-0.4l0.3,0.1l0.3,0.4l0.2-0.1l0.1-0.1l0-0.1l-0.1-0.3l-0.1-0.1l-0.4-0.2l0.1-0.1l0-0.1l0.1-0.2l0,0L98.3,156.6
				z M91.8,200l-0.2-0.4l-0.1,0l-0.6,0l0.1,0.5l0.1,0.1l0.5,0l0.2,0L91.8,200z"/>
		</g>
		<path class="st5" d="M109.9,75.3c0,5.4-4.4,9.8-9.8,9.8c-5.4,0-9.8-4.4-9.8-9.8c0-5.4,4.4-9.8,9.8-9.8
			C105.5,65.6,109.9,69.9,109.9,75.3"/>
		<path class="st5" d="M119.9,105.5c0,8.7-7,15.7-15.7,15.7c-8.7,0-15.7-7-15.7-15.7c0-8.7,7-15.7,15.7-15.7
			C112.9,89.8,119.9,96.8,119.9,105.5"/>
		<path class="st5" d="M86.8,103.6c0,5.6-4.5,10.1-10.1,10.1c-5.6,0-10.1-4.5-10.1-10.1c0-5.6,4.5-10.1,10.1-10.1
			C82.3,93.5,86.8,98,86.8,103.6"/>
		<path class="st5" d="M130.6,167.9c0,8.2-6.6,14.8-14.8,14.8c-8.2,0-14.8-6.6-14.8-14.8c0-8.2,6.6-14.8,14.8-14.8
			C124,153.1,130.6,159.7,130.6,167.9"/>
		<path class="st5" d="M152.7,136.8c0,10-8.1,18.1-18.1,18.1c-10,0-18.1-8.1-18.1-18.1c0-10,8.1-18.1,18.1-18.1
			C144.6,118.6,152.7,126.8,152.7,136.8"/>
		<path class="st5" d="M159.5,164c0,2.2-1.8,3.9-3.9,3.9s-3.9-1.8-3.9-3.9c0-2.2,1.8-3.9,3.9-3.9S159.5,161.8,159.5,164"/>
		<path class="st5" d="M147,173.3c0,3.2-2.6,5.7-5.7,5.7c-3.2,0-5.7-2.6-5.7-5.7c0-3.2,2.6-5.7,5.7-5.7
			C144.4,167.6,147,170.1,147,173.3"/>
		<path class="st5" d="M184.3,89.8c0,16.5-13.4,29.9-29.9,29.9c-16.5,0-29.9-13.4-29.9-29.9c0-16.5,13.4-29.9,29.9-29.9
			C170.9,59.9,184.3,73.3,184.3,89.8"/>
		<path class="st5" d="M94.5,137.1c0,8.8-7.1,15.9-15.9,15.9c-8.8,0-15.9-7.1-15.9-15.9c0-8.8,7.1-15.9,15.9-15.9
			C87.4,121.2,94.5,128.3,94.5,137.1"/>
		<path class="st5" d="M112.1,139.6c0,3.5-2.8,6.3-6.3,6.3c-3.5,0-6.3-2.8-6.3-6.3c0-3.5,2.8-6.3,6.3-6.3
			C109.3,133.3,112.1,136.1,112.1,139.6"/>
	</g>
	<g id="Layer_1">
	</g>
</g>
</svg>
