<?xml version="1.0" encoding="utf-8"?>
<!-- Generator: Adobe Illustrator 21.0.2, SVG Export Plug-In . SVG Version: 6.00 Build 0)  -->
<svg version="1.1" xmlns="http://www.w3.org/2000/svg" xmlns:xlink="http://www.w3.org/1999/xlink" x="0px" y="0px"
	 viewBox="0 0 240 240" style="enable-background:new 0 0 240 240;" xml:space="preserve">
<style type="text/css">
	.st0{fill:#F1F3F5;}
	.st1{fill:none;}
	.st2{fill:none;stroke:#B2BCC5;stroke-width:1.556;stroke-linecap:round;stroke-linejoin:round;stroke-miterlimit:10;}
	.st3{fill:none;stroke:#A1ABB4;stroke-width:2;stroke-linecap:square;stroke-linejoin:round;}
	.st4{fill:#002D5A;}
	.st5{fill:#00A5FF;}
	.st6{fill:none;stroke:#B2BCC5;stroke-width:1.25;stroke-linejoin:round;stroke-miterlimit:10;}
	.st7{fill:#F0AA00;}
	.st8{fill:#BE232D;}
	.st9{fill:none;stroke:#B2BCC5;stroke-width:1.67;stroke-linejoin:round;stroke-miterlimit:10;}
	.st10{fill:none;stroke:#002D5A;stroke-width:5;stroke-miterlimit:10;}
	.st11{fill:none;stroke:#9099A3;stroke-width:1.25;stroke-linecap:square;stroke-linejoin:round;stroke-miterlimit:10;}
	.st12{fill:none;stroke:#9099A3;stroke-width:1.25;stroke-linecap:square;stroke-linejoin:round;}
	.st13{fill:#9099A3;}
	.st14{fill:#CBD2D8;stroke:#E4E8EB;stroke-width:0.5;stroke-miterlimit:10;}
	.st15{fill:#B2BCC5;stroke:#E4E8EB;stroke-width:0.5;stroke-miterlimit:10;}
	.st16{fill:#00A5FF;stroke:#E4E8EB;stroke-width:0.5;stroke-miterlimit:10;}
	.st17{fill:#0064B4;stroke:#E4E8EB;stroke-width:0.5;stroke-miterlimit:10;}
	.st18{fill:#002D5A;stroke:#E4E8EB;stroke-width:0.5;stroke-miterlimit:10;}
	.st19{fill:#0096FA;stroke:#E4E8EB;stroke-width:0.5;stroke-miterlimit:10;}
	.st20{fill:none;stroke:#00A5FF;stroke-width:5;stroke-miterlimit:10;}
	.st21{fill:none;stroke:#9099A3;stroke-width:5;stroke-miterlimit:10;}
	.st22{fill:none;stroke:#5C666E;stroke-width:2;stroke-linejoin:round;}
	.st23{fill:#B2BCC5;}
	.st24{fill:none;stroke:#00A5FF;stroke-width:2;stroke-linecap:round;stroke-linejoin:round;stroke-miterlimit:10;}
	.st25{fill:none;stroke:#002D5A;stroke-width:2;stroke-linecap:round;stroke-linejoin:round;stroke-miterlimit:10;}
	.st26{fill:none;stroke:#002D5A;stroke-width:6;stroke-linejoin:round;stroke-miterlimit:10;}
	.st27{fill:none;stroke:#00A5FF;stroke-width:6;stroke-linejoin:round;stroke-miterlimit:10;}
	.st28{fill:#E4E8EB;}
	.st29{fill:none;stroke:#002D5A;stroke-width:5;stroke-linejoin:round;stroke-miterlimit:10;}
	
		.st30{fill:none;stroke:#B2BCC5;stroke-width:1.556;stroke-linecap:round;stroke-linejoin:round;stroke-miterlimit:10;stroke-dasharray:4,4;}
	.st31{fill:#CBD2D8;stroke:#F1F3F5;stroke-width:0.5;stroke-linejoin:round;}
	.st32{fill:#00A5FF;stroke:#D8DDE2;stroke-miterlimit:10;}
	.st33{fill:#002D5A;stroke:#D8DDE2;stroke-miterlimit:10;}
	.st34{fill:none;stroke:#D8DDE2;stroke-width:4;stroke-miterlimit:10;}
	.st35{fill:none;stroke:#6D7780;stroke-width:1.25;stroke-miterlimit:10;}
	.st36{fill:none;stroke:#D8DDE2;stroke-width:1.556;stroke-linecap:round;stroke-linejoin:round;stroke-miterlimit:10;}
	.st37{fill:#5C666E;}
	.st38{fill:#D8DDE2;}
	.st39{fill:#9099A3;stroke:#D8DDE2;stroke-miterlimit:10;}
	.st40{fill:#002D5A;stroke:#F1F3F5;stroke-width:2;stroke-miterlimit:10;}
	.st41{fill:#00A5FF;stroke:#F1F3F5;stroke-width:2;stroke-miterlimit:10;}
	.st42{fill:#A1ABB4;stroke:#F1F3F5;stroke-width:2;stroke-miterlimit:10;}
	.st43{fill:#00A5FF;stroke:#F1F3F5;stroke-miterlimit:10;}
	.st44{fill:#002D5A;stroke:#F1F3F5;stroke-miterlimit:10;}
	.st45{fill:#BFC7CE;stroke:#F1F3F5;stroke-miterlimit:10;}
	.st46{fill:#E4E8EB;stroke:#F1F3F5;stroke-miterlimit:10;}
	.st47{fill:#6D7780;stroke:#F1F3F5;stroke-miterlimit:10;}
	.st48{fill:#3B444D;stroke:#F1F3F5;stroke-miterlimit:10;}
	.st49{fill:#BFC7CE;}
	.st50{fill:#A1ABB4;}
	.st51{opacity:0.64;fill:#00A5FF;}
	.st52{opacity:0.64;fill:none;}
	.st53{opacity:0.64;fill:#0064B4;}
	.st54{opacity:0.64;fill:#002D5A;}
	.st55{opacity:0.64;fill:#0096FA;}
	.st56{fill:#1E1E1C;}
	.st57{fill:#B2BCC5;stroke:#F1F3F5;stroke-width:0.5;stroke-linejoin:round;}
	.st58{fill:#00A5FF;stroke:#F1F3F5;stroke-width:0.5;stroke-linejoin:round;}
	.st59{fill:#BFC7CE;stroke:#F1F3F5;stroke-width:0.5;stroke-linejoin:round;}
	.st60{fill:#002D5A;stroke:#F1F3F5;stroke-width:0.5;stroke-linejoin:round;}
	.st61{fill:#0064B4;stroke:#F1F3F5;stroke-width:0.5;stroke-linejoin:round;}
	.st62{fill:none;stroke:#00A5FF;stroke-width:3;stroke-miterlimit:10;}
	.st63{fill:none;stroke:#00A5FF;stroke-width:2;stroke-miterlimit:10;}
	.st64{fill:none;stroke:#00A5FF;stroke-miterlimit:10;}
</style>
<g id="Hintergrund">
	<rect x="0" class="st0" width="240" height="240"/>
</g>
<g id="Diagramme_1_">
	<g id="Diagramme">
	</g>
	<g id="Ebene_1">
	</g>
	<g id="Picto2">
	</g>
	<g id="Landkarten">
		<g id="g1923_8_">
			<path id="Thüringen_8_" class="st31" d="M123.7,109.1l0.4-0.1l0.8,0.1l0.4,0l0.7,0.2l0.1,0.1l0.4,0.4l0.3-0.1l-0.4,0.5l-0.1,0.4
				l0.3,0.6l0.5,0.7l0.4,0.6l0.2,0.3l0,0.5l0,0.6l0.2,0.1l0.2,0.2l0.2,0l0.2,0l0.3-0.1l0.1-0.1l1.5,0.5l0.1,0l1.4,0l0.3,0l0.2,0
				l0.6,0l0.9,0.4l0.1,0.1l0,0.1l-0.1,0.4l0.1,0.2l0,0.1l0.4,0.1l-0.1,0.1l0,0l0,0l0.1,0.1l0.2,0.1l0.1,0l0.1,0l0.3,0.3l0.1,0.1
				l0,0.1l0,0l-0.1,0.2l-0.2,0.2l-0.3,0.5l-0.2,0.3l-0.1,0.1l-0.1,0l-0.1,0l0,0l-0.2-0.2l0,0l-0.1,0l-0.1,0.1l-0.1,0.2l0,0.2
				l0.3,0.3l0.4,0l0.2-0.1l0.1,0l0.2,0.1l0.4,0.4l0.2,0.6v0.1l-0.1,0.3l-0.1,0.1l-0.3,0.1l0.2,0.8l0.1,0.1l0.2,0.1l0,0.1l0.9,0
				l0.2-0.2l0.1-0.1l0.1-0.2l0,0l1.4,0.2l0.4,0.2l0.1,0.3l0,0.3l0,0.1l1.1,0.3l0.4,0.1l0.6-0.1l0.5-0.1l0.2,0.1l0.8,0.5l0.5,0.4
				l0.1,0.1l0.5,0.7l0,0.1l0,0.1l0,0.2l0.2-0.1l0.1,0l0.7-0.1l0.1,0l0.8,0.3l0.2,0.1l0-0.2l0.1-0.1l0.1-0.1l0.2-0.1l0,0l0.3,0.4
				l0.1,0.2l0.1,0.2l0,0l0.1-0.1l0.1,0l0.2-0.2l0.7-1.5l0-0.1l0-0.2l-0.1-0.1l-0.1-0.1l-0.3-0.2l-0.1-0.4l0.4-0.6l0.7-0.3l0,0
				l1.7,0.5l0.7,0.2l0.1,0.1l0,0.1l0.1,0.2l0,0.1l0,0.3l0.1,0.4l0.6,0.4l0.5,0.2l0.5,0.1l0.1,0.4l0.1,0.5l0,0.1l0.1,0.2l0.1,0.1
				l0.1,0.1l-0.2,0.3l-0.6,0.2l-0.3,0.1l-0.1,0l-0.4,0.1l-0.7,0.2l-0.1,0l-0.3,0.3l0,0.3l-0.2,0.6l0,0l-0.3,0.1l0,0l-0.1-0.2l-0.1,0
				h-0.4l-0.1,0l-0.4,0.3l0,0l0,0.3l-1,0.4l-0.3,0l-0.1-0.2l-0.1,0.2l-0.2,1.2l0,0.2l0,0.1l0,0.1l0.6,1l0.2,0.2l0.7,0.2l-0.1,0.3
				l-0.2,0.3l0,0l-0.5,0.5l-0.4,0.1l0,0l-0.8,0.4l-0.7,0.3l-0.1,0l0,0l-0.1,0.2l0.4,0.1l0.1-0.1l0.2,0l0,0l0.1,0.1l0,0.1l0,0l0,0
				l-0.2,0l-0.1,0l-0.3,0.2l-0.6-0.1l-0.9,0l0.1-0.6l-0.1-0.7l-0.2-0.2l-0.1,0l0,0l-0.3,0.3l0,0.2l-0.5,0.5l0,0l-0.2,0.1l-0.1,0.1
				l-0.7,1l0,0.1l0,0l0.2,0.4l0.1,0.1l0.2,0l0.3,0l0.2,0.2l0.4,0.4l0.1,0.1l0,0.1l-0.1,0.1l-0.4,0.4l-0.4,0.2l-0.1,0.1l-0.1,0.2l0,0
				l0.1,0.1l0.4,0.2l-0.6,0.3l-0.9,0.3l-2.8,0.4h0l-0.1,0l-0.1-0.1l-0.1-0.1l-0.1,0l-0.1,0l-0.3,0.1l0,0l0,0.1l0,0.2l0,0l-0.1,0.1
				l-0.4,0.1L136,138l-0.4-0.4l-0.1-0.3l-0.1-0.5l-0.4,0l-0.4-0.3l0,0l0-0.1l0-0.5l0-0.4l0.1-0.1l0.1,0l0,0l0.1-0.2v0l-0.1-0.2
				l-0.1-0.1l-0.1,0l-0.8-0.2l-0.4,0l0,0l-0.2,0.3l0,0.2l-0.5,0.4l-0.3,0.2l0,0l-0.1,0l-0.1,0l0,0.1l0,0.1v0l0,0.5l0.2,0.1l0.1,0
				l0.1,0.2l0.3,1.7v0l-0.5,1.5l-0.7,0.1l-0.2,0.4l0,0l-0.2,0l-0.5-0.5l-0.2-0.2l0,0l0-0.1l0-0.1l0.1-0.1l0.1-0.1l0.1-0.1l0.1,0
				l0-0.1l-0.3-0.5l-0.4-0.3l-0.2,0l-0.2,0l0,0l-0.1,0.3l-0.3,0.1l-0.3,0.1l-0.1,0l-0.8-0.1l-0.3-0.3l-0.3-0.5l-0.1-0.1l0,0h0
				l-1.5,0l-1.7,0.7l0,0.2l0,0.7l0,0.1l0.1,0.1l1.2,0.9l0,0l0.1,0l0.3,0.1l0.1,0.1l0.1,0.1l0,0.3l-0.1,0.1l0,0l-0.2,0.1l-0.2,0
				l-0.1,0l-0.6-0.1l-0.5-0.1l-0.1,0l-0.1,0.1l0,0l0,0.4l0,0l0,0.4l-0.1,0.2l0,0l-0.1,0l-1.2-0.4l-0.4-0.1l0-0.1l-0.1-0.3l-0.2-0.6
				l0.1-0.8l0.1-0.6l-0.7-0.2l-0.9-0.3l-0.5-0.6l-0.1-0.3l-0.1-0.2l-0.2,0.1l-0.2,0.1l-0.4,0l0,0l-0.1-0.2l0-0.1l-0.1-0.5l-0.5-1.2
				l-0.1-0.1l-0.1-0.1l-1.1-0.4l-0.3-0.4l-0.4-0.5l-0.1,0l-1.5,0.2l-0.4,0.5l-0.2,0.2l-0.1,0l-0.1,0l0-2.2l0-0.1l0.1-0.1l0-0.1
				l0.4-0.3l-0.2-0.5l-0.2-0.3l-0.1-0.1l-0.3,0l-0.5,0l-0.1,0l-0.5,0.2l-0.1,0.1l0,0.1l0.3,0.3l-0.1,0.3l-0.2,0l-0.2,0l-0.7-0.1
				l0-0.2l0-0.6l0.1-0.1l0.2-0.2l0.3-0.4l0.3-0.6l0.1-0.3v-0.1l0-0.3l-0.2-0.3l0.3-0.1l0.1,0l0,0l0-0.1l0-0.2l-0.1-0.2l0-0.1
				l0.1-0.4l0-0.1l0.2-0.2l0.1-0.1l0.4,0l0.3,0l0.2-0.3l0.4-0.9l0-0.2l-0.2-1.3l-0.3-1.1l0.1-0.3l0-0.1l0,0l0.1,0l0.2,0l0.3,0
				l0.5,0.1l0.3,0.2l0.1,0.1l0.1,0.1l0.1,0l0.1,0l0.4-0.1l0.1,0l0,0l0.1,0l0.1,0l0.1-0.1l0,0l0.1-0.3l0-0.1l-0.1-0.2l-0.1-0.1l0,0
				l-0.2-0.1l-0.4-0.1l0-1l-0.1-0.3l-0.3-0.6l0-0.1l0.1-0.1l0.6-0.1l0.2,0.2l0.1,0.3l0.1,0.1l0,0l0.1,0.2h0.1l0,0l0-0.2l0-0.4l0,0
				l-0.1-0.1l0-0.1l0.1-0.3l0.1-0.1l0.1,0l0.1-0.1l0.1-0.2l-0.1-0.1l-0.3-0.1l-0.3-0.3l-0.1-0.1L116,119l-0.4-0.1l-1-0.5l-0.2-0.7
				l-0.4-0.2l-0.8-0.3l-0.3-0.3l-0.3-0.8l-0.1-0.5l0-0.2l0-0.2l0,0l0,0l0.1,0l0.7-0.5l1.5-0.9l1.2-0.2l1.8-1.2l0.6-0.5l0,0l0.3-0.5
				l0-0.1l0.1-0.2l0,0l-0.1,0l0.2-0.4l0.2-0.3l0.5-0.1l0,0l0.2,0.1l0.3,0.1l0.1,0l0.2,0.1l0.1,0.1l0.3,0.4l0.1,0.1l0.5-0.1l1-0.3
				l0.2-0.4l0.5-1.2l0.1,0L123.7,109.1L123.7,109.1z"/>
			<path id="Schleswig-Holstein_8_" class="st31" d="M125.9,55.6l0.2,0.7l-0.2,0.5l-0.6,0l-1.2,0.8l-0.3,0.5l0,0.4L124,59l0,0.1
				l0.1,0.2l0,0.1l0,0.3l-0.1,0.7l0.9,0.8l0.3,0.2l0.1,0l0.3,0l0.1,0l0,0l0,0l0,0l0.3,0.1l0.2,0.1l0.3,0.3l0.2,0.9l-0.3,0.4
				l-0.1,0.5l-1.5,2l-0.5,0.6l-0.2,0.2l-0.1,0.1l-0.9,0.7l-0.3-0.1l-0.1-0.1l-0.1,0l-0.2,0.1l-0.1,0.3l-0.4,1.8l0,0l0,0l-0.1,0.1
				l-0.1,0l-0.1,0l-0.9-0.3l-0.1-0.1l-0.2-0.1l-0.2-0.1l-0.5-0.3l-1.3-0.6l-0.4-0.2l-0.1-0.2l-0.8-0.9l-0.1-0.2l0-0.1l-0.1,0l-0.1,0
				l-0.8-0.5l0,0l-0.2-0.5l0-0.5l0.1-0.3l0.1-0.1l0.5-0.4l0.3-0.6l0,0l0.1-0.1l-0.4-0.5l-0.2-0.2l0-1.1l0.1-0.3l0-0.2l-0.3-0.2l0,0
				l-0.1,0l-1,0.5l-0.3,0.2l0.1,0.1l-0.2,0.4l-1.1,0.8h-0.2l-0.1,0l-0.2,0l-0.1,0l-0.3,0l-0.3,0l0,0.2l0,0.1l-0.1,0.1l-0.1,0.1
				l-0.8,1l-0.2,0.1l-0.1-0.1l-0.2-0.2l-0.4-0.5l0-0.2l0-0.1l-0.1,0l-0.1,0.1l-0.2,0.5l-0.1,0.2l-0.1,0.3l-0.1,0.5l-0.4,0l-0.4-0.1
				l-1.2-0.8l-0.5-0.4l-0.1-0.1l-0.1-0.2l-0.1-0.3l0-0.4l0-0.1l-0.1-0.2l-0.2-0.4l-0.1-0.1l-0.2-0.2L106,61l-0.2-0.2l-0.1-0.2
				l-0.2-0.3l-0.2-0.4l-0.4-0.9l-0.1-0.2l-0.5-0.8l-0.4-0.3l-0.8-0.3l-0.4-0.1l-0.5,0l-0.8,0l-0.7,0l-0.2,0l-0.2,0l-0.1-0.6l0,0
				L99.8,57l-0.1,0l-0.1,0l-0.1,0l-0.2-0.2l-0.4-0.3l-0.2-0.3l-0.1-0.4l-0.1-0.2l-0.3-0.7L97.7,54l-0.1,0l-0.1,0l0,0l0.3-0.3
				l0.3-0.1l0.2,0l0.6,0.1l0.1,0.1l0.1,0.1l0.1,0l0.2-0.1l0.1,0l0.1,0l0.1-0.1l0-0.1l0-0.1l0-0.2l0-0.1l0-0.1l0-0.1L99,51.6L99,51.5
				l-0.2,0l-0.1,0l-0.2,0l-0.1,0.1l-0.3,0.2l-0.1-0.1l-0.2-0.2l0,0l-0.1-0.2l-0.2-0.6l0-0.1l0,0l0.1-0.1l0.2-0.5l0.1-0.3l0-0.1
				l0.1-0.8l0-0.2v0l-0.1,0l0,0v-0.1l0-0.1l0-0.1l-0.1-0.1l-0.1-0.1l0,0l-0.1,0l-0.9,0l-0.2,0l-0.5,0l-0.2,0.2l-0.1,0.2l0,0l0.1,0
				l0,0l0,0l0,0l0,0l0,0l0,0l-0.1,0l-0.1,0l-1-0.5l-0.1-0.1l-0.1-0.2l0-0.1l0-0.2l0.1-0.3l0.1-0.2l0.1-0.2l0-0.1l0,0l0.2-0.1l0,0.2
				l0.3,0.2l0.1,0l0,0l0.6-0.4l0,0l0,0V46l0,0l0-0.1l0.1-0.5l1.5-0.3l0.3,0l0.3,0.1l0.2-0.1l0.3-0.1l0.2-0.1l1.2-1l0,0l0.1-0.2
				l0-0.2l0-0.1l0-0.2l-0.3-0.6l-1.4-2.1l-0.7-1l-0.3-0.2l-0.4-0.2L97,38.9l-0.1-0.1l-0.5-1.3l-0.2-0.9L96,36.2l0,0l-0.5-0.6L95,35
				l0,0l0.1-0.8l0.3-0.8l0.4,0l0.2,0l0.1,0l0.3,0.2l1.2-0.1l0.2,0l0.2,0l0.1,0l0.9,0.1l0.6,0.1l0.1,0l0.1,0l0.7,0.3l0.2,0.1l0,0
				l0.1,0.1l0.2,0.1l0.2,0l0.4,0l0.3-0.1l0.3,0l0.1,0l0.2,0.1l0.7,0.3l0.5,0.2l0.1,0.1l-0.1,0.1l0,0.1l0,0.1l0,0.1l0.2,0.4l1.1,0.1
				l0.2,0l0.3-0.3l0,0l0-0.1l0.6-0.1l0.2,0.1l0.3-0.1l0.3-0.1l0.2-0.1l1.2-1l0.1,0l0.5,0.2l-0.1,0.1l-0.2,0.4l1,0.4l0.7,0.3l1.3,1.5
				l0.2,0.1l0.2,0.1l0.1,0h0l0,0l0.4-0.8l0,0l0-0.1l0-0.1l0,0l0.2,0.1l0.4,0.3l0.2,0.4l0.8,2.4l0,0.5l0,0.7l0,1.2l0,0.1l-0.4,0.6
				l0,0.1l-0.1,0.2l-0.2,0.2l-0.4,0.2l-0.6,0.3l-0.4,0.2l-0.1,0l-0.1,0l0-0.1l-0.1,0l-0.1,0l-0.1,0l0,0l0.2,0.3l0.1,0.1l0.1,0.1
				l0.1,0.1l0.1,0l0.4-0.1l0.2,0l0.1,0l0.4-0.2v0l0.2-0.1l1.1-0.3l0.9-0.2l0.1,0l0.1,0l0.1,0l0.3,0.2l0.2,0.1l0.3,0.3l-0.1,0.2
				l-0.2,0.4l0,0.1l0.2,0.8l-0.3,0.2l-0.1,0.3l0,0.1l0.3,0.4l0.1-0.3l0.5-1.1l0.1-0.1l1-0.5l0.2,0l0.1,0l0.1,0l0.3,0.1l0.4,0.1
				l2.8,1.4l0.2,0.1l0.3,0.2l0.1,0.1l0.1,0.2l0.1,0.1l0,0l0,0.1l0.5,0.5l0.1,0.1l0.1,0l0.1,0l0.1,0l0.6,0l0.1,0l0.1,0l0.2-0.1
				l0.1-0.1l0.4-0.3l0.2-0.2l0.3-0.3l0.4-0.3l0.6-0.4l0.3-0.1l1.8-0.1l-0.1,0.8l-0.1,0.2l0,0.1l0,0.5l0.1,1.5l0.2,1.3l0,0l0,0
				l-0.6,0.5l-0.1,0.1l-0.7,0.5l-0.7,0.6l-0.6,0.7l-0.1,0.1l-0.1,0.1l-0.1,0l-0.5-0.1l-0.1,0l-0.1-0.1l-0.7,0.8l-0.1,0.1l0,0.1
				l0,0.1l0,0.1l0,0.1l0,0.1l0.2,0.4l0.1,0.2l0.1,0.1l0.1,0.1l0.1,0.1l0.1,0.1l0.1,0h0.4l0.1,0l0.2-0.1l0.1,0l0.1,0.1l0.1,0.1
				l0.1,0.1l0,0.1l0,0l0,0.2l0,0.2l0.1,0.1L125.9,55.6L125.9,55.6z M91.3,32.3l-0.3,0.6l-0.2,0.6l-0.1,0.3l-0.1,0.5l0,0.5l-0.1,2.1
				l0,0.2l0.1,0.3l0.1,0.1l0,0l0,0l0-0.1l0.1-1.8l0-0.1l0-0.1v0l0-0.3l0.1-0.3l0.1-0.1l0.5-0.3l0.1,0.1l0,0l0.3,0.2l0.3,0.2l0.1,0h0
				l0.6-0.3l0.4-0.3l0,0l-0.1,0l-0.1,0l-0.5,0l-0.1,0l-0.1,0l-0.4-0.4l0,0l-0.4-0.4l-0.1-1.3l0.3-0.5l0.1-0.1l0.2-0.2l0,0l0.3-0.1
				l0.3-0.2l0.4-0.7l0,0l0,0L92.7,30l-0.1,0l-0.1,0l0,0l-0.1,0.1l0,0l-0.1,0.2l-0.4,1l-0.1,0.2L91.3,32.3z M93.2,37.1l-0.1,0
				l-0.4,0.1l-0.1,0l-0.1,0.1l-0.1,0.1l-0.1,0.2l-0.1,0.3l0,0.2l0,0.1l0,0.1l0,0l0.9,0.4l0.2,0.1l0.2,0l0.7,0l0.1,0l0,0l0.4-0.9
				l-0.1-0.5l0-0.1l-0.2-0.1l-0.2-0.1l-0.1,0L94,37l-0.2,0l-0.2,0.1l-0.1,0L93.2,37.1z M90.7,39.1L90.7,39.1l0.1,0.2l0.3,0.4
				l0.1,0.2l0.2,0.3l0,0l0.1,0l0.3,0l0,0l0.3-0.1l0,0l0.1-0.2l0,0l0,0l-0.3-0.1l-0.2-0.4l-0.3-0.8l0-0.2l0-0.1l0.1-0.1l0.2-0.2l0,0
				l0,0l-0.1,0l-0.6,0.5l-0.1,0.1l-0.1,0.2l0,0.2L90.7,39.1z M94.6,39.9l0.8-0.2l0.1-0.1l0.1-0.1l0-0.1l0-0.2l0,0l-1.4,0.6l-0.4,0.2
				l0,0.1l0,0l0.2,0.2L94.6,39.9z M93.7,41.1L93.7,41.1l-0.1,0L93.7,41.1l0,0.2l0,0l0.4,0.3l0.1,0l0.2,0l0.1,0l0,0l0-0.1l-0.2-0.3
				l0,0l0,0l-0.1,0l-0.1,0L93.7,41.1z M94.9,43.1l0.1,0.1l0.1,0l0.2,0l0.2,0l0.2-0.1l0.1,0l0.1-0.1l0.2-0.5l0.1-0.3l0-0.3l-0.1,0
				l-0.1,0l-0.1,0l-0.5,0.2l-0.1,0l-0.6,0.2l-0.1,0l0,0.1l0,0.1l0,0.3l0,0.1l0,0.1l0.1,0.1l0,0L94.9,43.1z M98.3,42.5l-0.7,0.5
				L97.5,43v0.1l0,0.6l0.2,0.1l0.1,0.1l0.2,0l0.5,0l0.2,0l0.3-0.2l0.1-0.2l0,0l0.3-0.5l0,0l-0.1-0.3l-0.1-0.1l-0.2,0l-0.5,0
				L98.3,42.5z M128.1,42.3l-0.1,0l0,0l0,0l0,0l-0.1,0.1l-0.2,0.2l-0.1,0.2l-0.1,0.1l-0.2,0.3l-0.1,0.2l0,0.1l-0.1,0.8l0,0.1l0,0
				l0.4,0.2l0.1,0l0.1,0l0,0l0,0l0,0h0l-0.1,0l-0.2-0.1l0-0.1l0,0l0.5-0.2l0.2,0.1l0.1,0l0.1,0l0,0.1l0.1,0.2l0,0.2l0,0.3l1.1,0.2
				l1.8,0l0,0l0,0l0-0.1l-0.3-0.6l-0.2-0.5l-0.7-1.1l-0.7-0.4L128.1,42.3z M95.8,53.5L95.8,53.5l-0.1-0.1l-0.1-0.1l0-0.1l0-0.1
				l0-0.1l0-0.1l0,0l0,0l0.1,0l0.1,0l0.1,0.1l0,0l0,0.6L95.8,53.5L95.8,53.5z M85.1,49.9l0.3,0l0,0.1l-0.2,0.3l-0.2,0l-0.1,0
				L84.8,50l0-0.1l0.1-0.1l0.1,0L85.1,49.9z"/>
			<path id="Sachsen-Anhalt_8_" class="st31" d="M135.8,76.7l0.3-0.1l0.1,0l0.1,0l0,0l0.1,0l0,0l0,0.1l0,0l0,0l-0.2,0.3l0,0.1l0,0.1
				l0,0.1l0.1,0.1l0.8,0.6l0,0l0.1,0l0.1,0l0.2-0.1l0.2-0.1l0,0l0.1,0l0.1,0l0.1,0l0.1,0l1.2,0.7l0.1,0.1l0,0.1l0,0.1l0,0.1l0,0.1
				l0,0l-0.1,0.1l-0.1,0.1l0,0.1l0,0l0,0.1l0.1,0.1l0.1,0l0.1,0l0.8,0.3l1.2,0.4l0.1,0l1.9-0.2l0.2-0.2l0,0l-0.1,0.1l0,0.2l0.2,0.4
				l0.4-0.1l0.2-0.1l0.3-0.2l0.3,0.1l0.1,0.1l0,0.1l0.3,1.1l0,0.4l-0.3,0.2l-0.2,0.3l-0.1,0.3l-0.1,1l0,0l0.3,0.5l0.3,0.4l0.1,0.2
				l0,0.1l-0.1,0.8l-0.4,0.3l-0.1,0l-0.1,0l-0.2,0.4l-0.4,1.6l0,0.2l0,0l0.4,0.5l0.2,0.2l0.3,0l0.3-0.1l0.1-0.1l0,0l0-0.2l1.2,0.4
				l0.1,0.7l-0.1,0.2l-0.1,0.2l-0.2,0.5l0,0.4l0.1,0.6l0.1,0.8l-0.3,0.5l-0.1,0l0,0l-0.3,0.6l-0.1,0.4l0,0.1l-0.1,0.6l0.1,0.9
				l-0.4,0.9l0.7,0.8l0.5,0.7l0.6,0.8l0.4,0.4l1,0.6l1.6,0.6l0.9,0.1l0.2,0l0.4-0.3l0-0.3l0.1-0.1l0.2,0l0.4,0.2l0.2,0.1l0.4,0.2
				l0.4,0.2l0.1,0l0.1,0.3l1.1,0.6l0.5,0.1l0.1,0l0.2-0.1l1.1,0.6l0.7,0.7l0.1,0l0,0l0.5,0l0.5-0.2l0.1,0l0-0.1l0.2,0l0.1,0.1
				l0.2,0.2l0,0.1l0,0.1l-0.4,0.1l0,0l0,0.1l0.7,2.6l0.1,0.1l0.1,0.1l0.1,0.2l0,0.1v0l-0.3,0.6l-0.1,0.1l-1.5,1l-0.5,0.1l-1.5,0.1h0
				l-2.1,0l-0.2-0.1l0,0l-0.2-0.1l-0.2-0.1l-0.1,0l-0.1,0h-0.2l-0.1,0l-0.1,0.1l0,0.1l0,0.1l-0.2,0.4l-0.1,0l-0.2,0.1l-0.2,0.1
				l-0.4,0.2l-0.5-0.3l-0.1,0.3l-0.4,0.2l-1.7,0.5l-0.5,0.1l-0.6,0l-0.1,0l-1.2,0.6l-0.8,0.7l0,0.5l-0.5,1.2l0.1,0.3l0.2,0.8l0,0
				l0,0l0.1,0.2l0.2,1.2l0,0.4l-0.3,0.1l-0.4,0.2l0.4,1l0.3,0.4l0.1,0.4l0,0.1l0.1,0.5l0,1.6l0.5,0.1l0.1,0l0.1,0.1l0,0.1l-0.1,0.1
				l0.5,0.5l0.3,0.2l-0.4,0.6l0.1,0.4l0.3,0.2l0.1,0.1l0.1,0.1l0,0.2l0,0.1l-0.7,1.5l-0.2,0.2l-0.1,0l-0.1,0.1l0,0l-0.1-0.2
				l-0.1-0.2l-0.3-0.4l0,0l-0.2,0.1l-0.1,0.1l-0.1,0.1l0,0.2l-0.2-0.1L144,124l-0.1,0l-0.7,0.1l-0.1,0l-0.2,0.1l0-0.2l0-0.1l0-0.1
				l-0.5-0.7l-0.1-0.1l-0.5-0.3l-0.8-0.5l-0.2-0.1l-0.5,0.1l-0.6,0.1l-0.4-0.1l-1.1-0.3l0-0.1l0-0.3l-0.1-0.3l-0.4-0.2l-1.4-0.2l0,0
				l-0.1,0.2l-0.1,0.1l-0.2,0.2l-0.9,0l0-0.1l-0.2-0.1l-0.1-0.1l-0.2-0.8l0.3-0.1l0.1-0.1l0.1-0.3v-0.1l-0.2-0.6l-0.4-0.4l-0.2-0.1
				l-0.1,0l-0.2,0.1l-0.4,0l-0.3-0.3l0-0.2l0.1-0.2l0.1-0.1l0.1,0l0,0l0.2,0.2l0,0l0.1,0l0.1,0l0.1-0.1l0.2-0.3l0.3-0.5l0.2-0.2
				l0.1-0.2l0,0l0-0.1l-0.1-0.1l-0.3-0.3l-0.1,0l-0.1,0l-0.2-0.1l-0.1-0.1l0,0l0,0l0.1-0.1l-0.4-0.1l0-0.1l-0.1-0.2l0.1-0.4l0-0.1
				l-0.1-0.1l-0.9-0.4l-0.6,0l-0.2,0l-0.3,0l-1.4,0l-0.1,0l-1.5-0.5l-0.1,0.1l-0.3,0.1l-0.2,0l-0.2,0l-0.2-0.2l-0.2-0.1l0-0.6l0-0.5
				l-0.2-0.3l-0.4-0.6l-0.5-0.7l-0.3-0.6l0.1-0.4l0.4-0.5l-0.3,0.1l-0.4-0.4l-0.1-0.1l-0.7-0.2l-0.4,0l-0.8-0.1l-0.4,0.1l-0.1,0l0,0
				l-0.1-0.1l-0.3-0.5l0-0.1l0-0.3l0-0.2l0-0.1l-0.2-0.5l-0.7-1l-0.2-0.1l-0.2-0.3l-0.1-0.6l0-0.8l0-0.1l0.1-0.1l0.5-0.4l0.1,0
				l0.1,0l0,0l0.2-0.4l0-0.1v-0.2l0-0.1l0-0.1l-0.1-0.1l-0.2-0.1l-0.2-0.1l0-0.4l0,0l0.2-0.2l0.3-0.1l-0.8-0.6l-0.4-0.5l0.9-0.1
				l0.4-0.4l0,0l0-0.1l0-0.1l0-0.2l0.4-0.1l0.2,0l1.1,0h0.1l0.2,0.1l0.4,0l0.3-0.1l0.1,0l0.2-0.2l0.1,0l0.8,0l0.4,0l0,0l0.1-0.7
				l0.1-0.4l0.5-0.3l0.4-0.3l0.3-0.4l0-0.1l0-0.3l0-0.1l0,0l0,0l-0.2,0l-0.1,0l-0.1-0.1l-0.1-0.1l0,0l0-0.1l0-0.1l0-0.2l0.1-0.2
				l0.1-0.1l0.1,0l0.2-0.1l0.2,0l0.2-0.1l0.1-0.2l0,0l0,0l-0.1-0.2l-0.3-0.4l-0.3-0.3l-0.3-0.4l0,0l-0.1-0.9l0.3-0.4l0.1,0l0,0
				l0.3-0.1l0.2-0.1l0,0l0-0.3l0-0.1l-0.1-0.1l-0.2-0.1l-0.1,0l-0.1,0l-0.3-0.2l-1-1.3l-0.2-0.4l0.1-0.3l0.5-0.3l0.4,0l-0.4-0.5
				l-0.3-0.4l-0.2-0.3l-0.1-0.2l-0.1-0.3l0-0.5l0,0l-0.6-1.2l-0.8-1.2l-0.6-0.4l-0.6-1.6l0-0.1l0-0.1l-0.1-0.5l0,0l0.1-0.5l0.5-0.1
				l0.6-0.1l1.4,0l0.6-0.7l0-0.1l0,0l0-0.1l0-0.2l0-0.1l0.1-0.1l0.1,0l0.1,0l2.1,0.1l0.9,0.2l0.2,0.2l0.1,0.1l0,0.1v0.1l0,0l0,0
				l0.1,0l0.7,0.1l0.3-0.1l1.3-0.6l0,0l0.2-0.3l0.4-0.4l0.3-0.1l0.3-0.1l0.2,0l-0.2-0.4l0.1-0.7l0-0.2l0.1-0.2l0.2,0l0,0l0.1,0.1
				l0.1,0.1l0.2,0l0,0L135.8,76.7L135.8,76.7L135.8,76.7z"/>
			<path id="Sachsen_8_" class="st31" d="M157.4,108.1l0.5,0.9l0.1,0.1l0.2-0.1l0.1-0.1l0-0.1l0.6,0.3l0.1,0.2l0.4,0.9l0.3,0.6
				l0,0.2l0,0.2l0,1.2l-0.2,0.8l0.3,0.4l0.1,0.1l0,0.1l0.5,0l0.1,0l0.4-0.1l0-0.2l0,0l0.6-0.5l1-0.5l0.1,0.1l0.5,0.5l0.5,0.4
				l1.1,0.7l0.7,0.2l0.1,0l0.4,0l0.7,0l0.1-0.2l0.1,0.1l0.2,0.1l0.1,0l0.7,0.1l0.2-0.1l0.5-0.2l0.4-0.1l0.6,0l0.1,0l1.7-0.3l0.6-0.8
				l0.3-1.2l0.3-1l0.5-0.7l0.1,0l0.3,0l0.7,0l0.9,0.1l0.7,0.2l1-0.6l0.8-0.1l0.1,0l0-0.1l0-0.1l0-0.1l0.1-0.1l1.6-0.6l0.5,0.2l0,0.1
				l0.1,0.2l0,0l0.1,0l0.1,0l0.7-0.1l0,0l0.1-0.1l0-0.1l0-0.1l0.1-0.5l0.2-0.2l0.2,0.2l-0.2,0.4l0,0l0.3,0.7l0.1,0.1l0.2,0.1
				l0.2,0.1l0.2,0l0.2,0l0.1,0l1.8,0.7l0.1,0l0.4,0.2l0,0l0.1,0.2l0.3,0.5l0,0.1l0,0.9l1.1,2.4l0.1,0.5l0,0.7l-0.3,0.6l-0.1,0.3
				l-0.4,3.2l0,0.4l-0.2,0.3l-0.2,0.6l0.1,0.1l0,0l0,0.2l-0.2,0.7l-0.3,0.8l-0.1,0.1l-0.3,0.4l-0.3,0.4l-0.3,0.6l-0.1,0.5l-0.1,0.5
				l0,0.2l-0.1,0l-0.3,0l-0.1,0l-0.5-0.1l-1.2-0.5l-0.5-0.2l0-0.2l0.2-0.5l-0.2-0.8l-0.5-1.4l-0.3-0.3l-1.2-1l-0.1,0.1l0,0.2l0,0.3
				l-1.1,0.2l-0.1,0l0,0l-1-0.4l0,0l0,0l-0.2-0.3l0,0l0,0l-0.2,0l-0.1,0.1L176,121l-0.4,1.3l0,0l0.8,0.7l0.1,0l0.1,0l0.8,0.2l0.2,0
				l0.1,0l0.1,0l0.1,0.1l0,0.2l-0.2,0.6l-1.2,0.4l-2.5,1.3l-0.4,0.2l-0.3,0.3l-0.1,0l-1.9,0.6l-0.2,0l-0.4,0l0.1,0.1l0.1,0.7l0,0.1
				l-0.1,0.2l-0.6,0.4l-0.1,0l-0.3,0l0,0l-0.1,0l-0.1-0.1l-0.1,0l-0.4-0.1l0,0l-1.6,0.2l-0.2,0l-1.6,1l0,0.1l0.1,0.2l0,0l-0.4,0.9
				l-0.2,0.1l-0.4,0.5l-0.9-0.4l-0.5,0l-1.3,1l-0.8,0.8l0,0.2l-0.4,1l-0.3,0.1l-0.7-0.2l-1.2,0.1l-0.1,0.1l0,0l0,0l-0.1,0.5l0,0.5
				l0,0.2l0,0.1l0,0.1l0,0l0,0.1l-0.1,0.1l-0.5,0.6l-0.1,0.1l-0.5,0.3l-0.2-0.1l-0.7-0.4l-0.9-0.6l-0.1-0.1l0,0l-1.2,0.7l-0.8,0.5
				l-0.2,0l-1.1,0.1l-1,0.3l-1.7,2.1l-0.5,0.7l-0.4,0.9l0,0.2l-0.1,0.6l0,0.1l0,0l0.1,0l0,0l0.1,0.2l0,0.4l-0.1,0H148l-0.2,0l-0.2,0
				l0,0l0,0l-0.2-0.3l-0.1-0.1l0-0.1l0.1-0.1l0,0l0-0.2l-0.1-0.4l-1.3-1.9l-0.3-0.3l-0.1,0l-0.4,0l-0.6,0l-0.1,0.1l-0.1-0.1
				l-0.4-0.2l-1-0.3l-0.3,0l-0.1-0.1l0.1-0.4l0.1-0.4l0-0.1l-0.6-0.6l-0.2-0.1l-0.2,0l-0.4-0.2l-0.1-0.1l0,0l0.1-0.2l0.1-0.1
				l0.4-0.2l0.4-0.4l0.1-0.1l0-0.1l-0.1-0.1l-0.4-0.4l-0.2-0.2l-0.3,0l-0.2,0l-0.1-0.1l-0.2-0.4l0,0l0-0.1l0.7-1l0.1-0.1l0.2-0.1
				l0,0l0.5-0.5l0-0.2l0.3-0.3l0,0l0.1,0l0.2,0.2l0.1,0.7l-0.1,0.6l0.9,0l0.6,0.1l0.3-0.2l0.1,0l0.2,0l0,0l0,0l0-0.1l-0.1-0.1l0,0
				l-0.2,0l-0.1,0.1l-0.4-0.1l0.1-0.2l0,0l0.1-0.1l0.7-0.3l0.8-0.4l0,0l0.4-0.1l0.5-0.5l0,0l0.2-0.3l0.1-0.3l-0.7-0.2l-0.2-0.2
				l-0.6-1l0-0.1l0-0.1l0-0.2l0.2-1.2l0.1-0.2l0.1,0.2l0.3,0l1-0.4l0-0.3l0,0l0.4-0.3l0.1,0h0.4l0.1,0l0.1,0.2l0,0l0.3-0.1l0,0
				l0.2-0.6l0-0.3l0.3-0.3l0.1,0l0.7-0.2l0.4-0.1l0.1,0l0.3-0.1l0.6-0.2l0.2-0.3l-0.1-0.1l-0.1-0.1l-0.1-0.2l0-0.1l-0.1-0.5
				l-0.1-0.4l-0.5-0.1l-0.5-0.2l-0.6-0.4l-0.1-0.4l0-0.3l0-0.1l-0.1-0.2l0-0.1l-0.1-0.1l-0.7-0.2l-1.7-0.5l0,0l-0.7,0.3l-0.3-0.2
				l-0.5-0.5l0.2-0.1l0-0.1l-0.1-0.1l-0.1,0l-0.5-0.1l0-1.6l-0.1-0.5l0-0.1l-0.1-0.4l-0.3-0.4l-0.4-1l0.4-0.2l0.3-0.1l0-0.4
				l-0.2-1.2l0-0.2l0,0l0,0l-0.2-0.8l-0.1-0.3l0.5-1.2l0-0.5l0.8-0.7l1.2-0.6l0.1,0l0.6,0l0.5,0l1.7-0.5l0.4-0.2l0.1-0.3l0.5,0.3
				l0.4-0.2l0.2-0.1l0.2-0.1l0.1,0l0.2-0.4l0-0.1l0-0.1l0.1-0.1l0.1,0h0.2l0.1,0l0.1,0l0.2,0.1l0.2,0.1l0,0l0.2,0.1l2.1,0h0l1.5-0.1
				L157.4,108.1z"/>
			<path id="Saarland_8_" class="st31" d="M59.3,156l0.1,0.1l1.6,0.5l0.3,0l1,0.1l1.6-0.3l1-0.3l0.1-0.1l0.3-0.2l0,0l0.1-0.1l0-0.1
				l0.1-0.1l0.1,0l0.2-0.1l0.7-0.3l0.4-0.2H67l0,0l0,0l0,0l0.7-0.4l0.1,0l0.4,0.1l0.2,0l0,0.1l0,0.2l0,0l0,0l0.4-0.1l0.1-0.1
				l0.1-0.1l0.6,0.4l0.7,0.7l1.4,0.7l0.2,0l0.2-0.1l0.2-0.1l0.1-0.1l0,0.1l0.1,0.2l0.1,0.2l0,0l0,0.2l0,1l-0.1,1.2l-0.4,0.1
				l-0.1,0.1l0,0l0,0.2l0,0.1l0.6,0.4l0,0.2l-0.1,0.3l0,0.1l1.1,0.6l0.2,0l0.3-0.1l0.1,0.1l-0.1,0.1l-0.2,1l0,0l0.1,0.1l-0.1,0.5
				l-0.1,0.2l-0.1,0.1l-0.1,0.1l-0.3,0.2l-0.6,0.4l-0.2,0.3l0,0l0,0.1l0.2,0.7l0.2,0.3l0.4,0.6l0,0l0.1,0l0.2,0l-0.1,0.2l-1,0.8
				l-0.1,0l-0.2-0.1l-0.2-0.2l-0.3-0.1l-0.9-0.1l-0.1,0l-0.1,0.1l-0.1,0.2l-0.1,0l-0.2-0.1l-0.1-0.1L70,166l-0.2-0.4l-0.2,0.6
				l-0.4,0.4l-0.2,0.1l-0.1,0l-0.1-0.1l0-0.1l-0.2-0.8l-0.1-0.3l0-0.1l-0.3-0.4l-0.5-0.4l-0.5-0.2L67,164l-0.9-0.1l-0.3,0.2l0,0
				l0.1,0.1l0.1,0.2l0.1,0.4l0,0.1l0,0.1l-0.2,0.3l-0.4,0.1l-1.2-0.2l-0.3-0.3l-0.1-0.3l0.3-0.4l-0.1-0.3l-0.5-0.3l0-0.4l0,0
				l-0.3-0.7l-0.4-0.4l-0.4-0.2l-0.1-0.1l-0.2-0.3l-0.1-0.1l-0.3-0.6l0,0l-0.3-1.3l0-0.1l0-0.1l0.2-0.1l0.1,0l-0.1-0.1l-0.1-0.1
				l-0.1-0.1l-1-0.7l-0.5-0.2l-0.4,0.1l-0.1,0l-0.1,0l-0.3,0l-0.1-0.1l-0.1-1.4l0,0l0.1-0.1L59.3,156z"/>
			<path id="Rheinland-Pfalz_8_" class="st31" d="M86.1,130.8l-0.2,0.2l0,0.1l0,0.1l0,0.2l0.2,1.1l0,0.1l0.1,0l0.3,0.1l0,0.1
				l-0.1,0.3l-0.2,0.4l-0.1,0.1l-0.2,0.4l0,0.1l-0.2,0l-0.2,0l-0.2-0.1l-0.1-0.2l-0.3-0.1l-0.1,0l-0.1,0l-0.1,0l-0.5,0.6l-0.1,0.2
				l-0.1,0.5l0,0.1l0.1,0.3l0.2,0.2l-0.4,1.1l-0.1,0.2l0.1,0L85,138l0.6,1.1l0,0.1l0,0l0.2,0.5l0,0.1l0,0.4l-0.4,0.3l-0.5-0.2
				l-0.2,0l-0.2,0.1l-0.2,0.3l0.1,0.1l0.4,0.4l0.1,0.1l0,0l-0.4,0.4l-0.1,0l-0.2-0.1l-0.4-0.2l-1,0.4l-0.1,0l-0.1,0.1l-0.3,0.5l0,0
				l0,0.3l0.1,0.1l0.1,0.1l0.2,0.1l0.2,0.2l0,0.1l-0.1,0.7l-0.1,0.1l-0.5-0.1l-0.1,0l-0.9,0.8l-0.4,0.3l-0.2,0l0.2,0.4l1.2,1.7
				l0.1,0.1l0.1,0l0.1,0l0.8,0l0.4-0.1l0.1,0l1.6-0.6l0.9-0.4l0.6-0.2l0.2,0l0.2,0l0.4,0.1l0.1,0.1l0.3,0.2l0.2,0.2l0.1,0.1l0.2,0.3
				l0.3,0.3l0.2,0.2l0.1,0.1l0.1,0.2l0.1,0.3l0,0.2l0.1,0.4l0,0.1l0,0.1l0,0.1L89,149l-0.1,0.1l0,0.1l0,0.1v0.1l0,0.2l0.5,1.3
				l0.1,0.1l0.2,0.3l0.1,0.2l0.6,0.7l0.1,0.5l-0.1,0.2l0,0.1l0,0l-0.1,0.1l-0.1,0.1l-0.1,0.1l-0.1,0l-0.3,0.1l-0.2,0.1l-0.1,0.1
				l-0.1,0.1l-0.1,0.1l0,0l0,0.1l0,0.1l0,0.2l0,0.1l0.4,1.2l0.1,0.2l0.4,0.5l0.1,0.3l0,0.3l-0.1,0.2l0,0.1l0,0.1l0,0.1l0,0.1
				l0.1,0.2l0.2,1l0,0.1l0.1,0.7l-0.1,0l-0.1,0.1l0,0.1l0,0.1l0,0.1l0,0l0.1,0.1l0.1,0l0.1,0l0.1,0l0.2,0l0.1,0l0.1,0l0.1,0.1l0,0.1
				l0,0.1l-0.2,0.5l0,0.5l0,0.2l0,0.1l-0.1,0.2l-0.1,0.2l-0.1,0.2l-0.1,0.1l-0.1,0.1l-0.1,0.1l-0.1,0.1l-0.1,0.1l0,0.1l0,0l0,0.1
				l0,0.1l0,0.1l0,0l0.2,0.1l0.1,0l0.1,0.1l0.1,0.1l0,0.1l0,0.1l0,0.1l-0.3,0.2l-0.4,0.4l-0.1,0.1l-0.3,0.2l-0.1,0.1l-0.1,0.1
				l-0.1,0.1l-0.1,0.1l0,0.1l0,0.2l0,0h0l0,0l0,0.4l-0.5,2.3l0,0.1l-0.1,0.2l-0.2,0.2l0,0l-0.2,0.2l-0.2,0.2l-0.1,0.1l-0.1,0.3
				l0,0.2l0,0.3l0,0.1l0,0.1l-0.1,0.2l-0.1,0.1l-0.1,0.1l-0.1,0.1l-0.2,0.2l-0.4,0.3l-0.1,0.1l-0.1-0.1l0-0.1l0,0l-0.8-0.1l-0.1,0
				l-0.2,0l-0.2,0l-0.7-0.3l-0.4-0.2l0-0.1l-0.1-0.2l-0.2-0.2l-1.1-0.5l-0.7-0.2l-0.3,0l-0.2-0.1l-1.1-0.2l-0.8,0.2l-0.1,0l-0.4,0
				l-0.9,0l-0.7-0.2l-1-0.6l-0.2-0.1l-0.3-0.3l-0.5-0.9l0-0.2l0-0.3l0-0.3l-0.7-0.4l-0.5,0.1l-0.4,0.1l-0.2,0.1l0,0.1l0,0.1l0,0.1
				l-0.2,0l-0.1,0l0,0l-0.4-0.6l-0.2-0.3l-0.2-0.7l0-0.1l0,0l0.2-0.3l0.6-0.4l0.3-0.2l0.1-0.1l0.1-0.1l0.1-0.2l0.1-0.5l-0.1-0.1l0,0
				l0.2-1l0.1-0.1l-0.1-0.1l-0.3,0.1l-0.2,0l-1.1-0.6l0-0.1l0.1-0.3l0-0.2l-0.6-0.4l0-0.1l0-0.2l0,0l0.1-0.1l0.4-0.1l0.1-1.2l0-1
				l0-0.2l0,0l-0.1-0.2l-0.1-0.2l0-0.1l-0.1,0.1l-0.2,0.1l-0.2,0.1l-0.2,0l-1.4-0.7l-0.7-0.7l-0.6-0.4l-0.1,0.1l-0.1,0.1l-0.4,0.1
				l0,0l0,0l0-0.2l0-0.1l-0.2,0l-0.4-0.1l-0.1,0l-0.7,0.4l0,0l0,0l0,0h-0.1l-0.4,0.2l-0.7,0.3l-0.2,0.1l-0.1,0l-0.1,0.1l0,0.1
				l-0.1,0.1l0,0l-0.3,0.2l-0.1,0.1l-1,0.3l-1.6,0.3l-1-0.1l-0.3,0l-1.6-0.5l-0.1-0.1l-0.3-0.5v0l0,0l0.3-0.4l0.1-0.1l0.1,0l0.1,0
				l0.1,0l0.1-0.1l0.3-0.3l1.3-2.1l0.3-1.2l0-0.1l-0.1-0.9l-0.4-0.3l-0.3,0.2l-0.3,0l0,0l-0.4-0.2l-0.1-0.1l-0.7-0.7l-1.3-0.8
				l-0.4-0.5l-0.8-1.3l-0.1-0.2l-0.1-0.2l-0.3-0.7l-0.3-1.4l0.1-0.7l0.5-1.6l0.6-0.5l-0.1-1l0-0.3l0,0l0,0l1.7-1.1l0.1-0.2l0.3-0.6
				l0.1,0l0.2-0.1l0.5,0.3l0.6-0.2l0.3,0l-0.2-0.2l-0.1-0.2l0-0.1l-0.2-0.6l-0.1-0.3l0.4-0.1l0.5,0.4l0,0l0.2,0.2l1.1-0.2l1.1-0.4
				l0.3,0.3l0,0l0.9,0.4l0.7,0.2l0.7-0.2l0.2,0l0.1,0l-0.2-0.3l-0.2-0.4l0-1.3l0.7-0.5l0.1,0.1l0.5,0.4l0.2,0l0.5-0.2l0.4-1.7
				l0.1-0.3l0.5,0.1l0.2,0l0.4-0.2l0,0l0.2-0.3l0.2-0.2l0.6-0.1l1.2-0.3l0.4-0.1l0.2-0.2l0,0l0.1-0.3l0-0.1l0.1-0.1l0.1,0l0.1,0
				l0,0.1v0.1l0,0.4l0,0.1l0.7,0l0.4-0.1l0.2-0.1l0.6-0.2l0.3-0.2l0-0.1l0.1-0.5l0-0.4l0-0.3l0.1-0.2l0.1-0.1l0.4,0l0.5,0.2l0.1-0.1
				l0.2-0.1l2.9-1l0.1-0.1l0.2-0.3l0.1-0.2l0-0.4l-0.1-0.1l-0.2-0.2l0.1,0h0.1l0.4-0.1l0,0l0.5-0.5l0.3-0.4l-0.1-1.1l0.1-0.1
				l0.5-0.5l0.1-0.1l0.3,0.1l0.5,0.4l-0.1,0.2l-0.1,0.2l-0.1,0.3l0,0.1l0,0.1l0,0.1l0.5,0.1l0.3,0.1l1.1,0.6l0.1,0l0.1,0.1l0.1,0.3
				l0,0.1L84,128l0,0l-0.1,0.1l0,0.1l0,0.2l0,0.2l0.1,0.1l0.1,0.2l0.1,0.1l0.3,0.3l0.3,0.3l0.1,0.1l0,0.4l-0.1,0.3l0.6-0.2l0.3,0.1
				l0.2,0.1L86.1,130.8z"/>
			<path id="Nordrhein-Westfalen_8_" class="st31" d="M105.6,108.9l-0.3,0.5l-0.9,1l-0.7,1.2l-1,0.8l-1,0.8l-0.1,0.2l-0.1,0.2
				l-0.1,0l-0.6,0l-0.1,0l-0.1,0l0-0.1l-0.1-0.4l0.2-0.4l-0.3-0.4l-0.7-0.3l-0.3,0l-0.5,0.1l-0.4,0.1l-0.6,0.3l-0.2,0.2v0.1l0,0.1
				l0.6,0.9l0.1,0l0.1,0l0,0.1l0,0.3l-0.2,0.6l0,0l-0.8-0.1l-0.9,0l-0.8,0.2l-1.1,0.3l-0.7,0.4l-0.2,0.2l-0.2,0.3l-0.6,0.8l-0.1,0.2
				l0.5,0.7l0,0l0.1,0l0.2,0l0,0l0.2-0.1l1-0.5l0.2,0l0.2,0l0.2,0.3l0,0.1l0.2,1.4l0,0.5l0,0.1l-0.1,0.1l-0.6,1.4l-0.7,0.3l-0.1,0
				l-0.3-0.1l-0.2-0.1l-0.4-0.1l-0.6,0l0,0l-0.3,0.1l0,0l-0.2,0.1l-0.1,0.1l-0.1,0.1v0l0,0.1l0.2,0.7l0.2,0.3l0.1,0.2l-0.1,0.2
				l-0.1,0.1l-0.2,0.2l-0.3,0.3l-0.2,0.2l0,0l0,0.1l0.1,0.1l0,0l-0.1,0l0,0l-0.1,0.1l0,0l-0.1,0.6l-1,1.5l-0.3,0.3l0,0l-0.1,0l0,0
				l-0.9-0.5l0,0l-0.2,0l0,0l0,0l-2.1,2.1l0.1,0.2l0.1,0.2l0.2,0.3l0.2,0.3l0,0.2l0,0.1l-0.5,0.8l-0.2,0.2l-0.2-0.3l-0.2-0.1
				l-0.3-0.1l-0.6,0.2l0.1-0.3l0-0.4l-0.1-0.1l-0.3-0.3l-0.3-0.3l-0.1-0.1l-0.1-0.2l-0.1-0.1l0-0.2l0-0.2l0-0.1l0.1-0.1l0,0l0.1-0.5
				l0-0.1l-0.1-0.3l-0.1-0.1l-0.1,0l-1.1-0.6l-0.3-0.1l-0.5-0.1l0-0.1l0-0.1l0-0.1l0.1-0.3l0.1-0.2l0.1-0.2l-0.5-0.4l-0.3-0.1
				l-0.1,0.1l-0.5,0.5l-0.1,0.1l0.1,1.1l-0.3,0.4l-0.5,0.5l0,0l-0.4,0.1h-0.1l-0.1,0l0.2,0.2l0.1,0.1l0,0.4l-0.1,0.2l-0.2,0.3
				l-0.1,0.1l-2.9,1l-0.2,0.1l-0.1,0.1l-0.5-0.2l-0.4,0l-0.1,0.1l-0.1,0.2l0,0.3l0,0.4l-0.1,0.5l0,0.1l-0.3,0.2l-0.6,0.2l-0.2,0.1
				l-0.4,0.1l-0.7,0l0-0.1l0-0.4v-0.1l0-0.1l-0.1,0l-0.1,0l-0.1,0.1l0,0.1l-0.1,0.3l0,0l-0.2,0.2l-0.4,0.1l-1.2,0.3l-0.6,0.1
				l-0.2,0.2l-0.2,0.3l0,0l-0.4,0.2l-0.2,0l-0.5-0.1l-0.1,0.3l-0.4,1.7l-0.5,0.2l-0.2,0l-0.5-0.4l-0.1-0.1l-0.7,0.5l0,1.3l0.2,0.4
				l0.2,0.3l-0.1,0l-0.2,0l-0.7,0.2l-0.7-0.2l-0.9-0.4l0,0l-0.3-0.3l-1.1,0.4l-1.1,0.2l-0.2-0.2l0,0l-0.5-0.4l-0.4,0.1l0.1,0.3
				l0.2,0.6l0,0.1l0.1,0.2l0.2,0.2l-0.3,0l0.1-0.3l0,0l-0.1-0.2l-0.5-0.6l0-0.5l0.1-0.2l0.1-0.2l0.1-0.6l0-0.2l0-0.2l0-0.1l-0.4-0.7
				l-0.1-0.2l-0.3-0.2l0-0.1l-0.1-0.1l-0.6-0.1l-0.3,0l0,0l-0.1,0.1l-0.2,0.1l0,0l0,0l-0.4-0.6l-0.1-0.1l-0.1-0.4l0-0.3l0-0.1
				l0.7-0.7l0.2-0.8l-0.8-0.2l-0.2-0.3l0,0l0.3-0.1l-0.2-0.2l-0.1-0.2l-0.2-0.4l-0.1-0.1l0-0.1l-0.3-0.8l-0.1-0.1l0,0l-1-0.6l-0.6-1
				l0.4-1.2l0.1-0.2l0.2-0.1l0.2-0.1l0.1,0l0,0.1l0.2,0.1l0.2-0.6l0-0.2l-0.1-0.1l-0.1-0.1l0-0.1l0.1-0.3l0,0l0.1-0.1l0-0.1l0-0.1
				l-0.2-0.1l-0.3-0.1l-0.5-0.2l0-0.3l0-0.3l0.1-0.3l0.1-0.2l0,0l-0.1,0l-0.9-0.1l-0.6,0.1l-0.2-0.2l-0.3-0.7l-0.1-0.7l0-0.1l0,0
				l0.7-0.3l1.4-0.5l1.8-1.2l0.2-0.6l0.5-0.2l0.1,0L58,118l-0.2,0.1l-0.4,0.2l-0.1,0.1l0,0l0,0l-0.1,0l-0.1,0l-0.1,0l0,0l-0.1,0
				l-0.1-0.2l0-0.7l0.3-0.8l1.6-2l0.5-0.6l-0.2-0.8l0.1-0.7l0.1-0.4l0.1-0.5l0-0.1l-0.1-0.9l-0.1-0.3l-0.6-1l-0.2-0.1l-0.7-0.8
				l0.1-0.2l0-1l-0.7-0.3l-0.1-0.1l0,0l-0.4-1.4l-0.3-1.6l0.3-0.6l1-0.4l0.5,0l1.1-0.1l0.4-0.3l1.1,0l0.1,0l0.2,0.1l0.2,0.1l0.7,0.4
				l0.4,0.4l0.3,0.2l0.1,0l-0.2-0.8l0-0.1l0.1-0.2l0,0l0.5,0.2l1.1,0l0.2-0.1l0.3-0.2l0.7-0.3l1.3-0.4l0.1,0l0.1,0.1l0.1,0.1
				l0.3,0.3l0,0l0.2-0.1l0.3-0.2l0.3-0.2l0.3-0.3l0.6-0.8l0.1-0.1l0,0l0-0.3l0-0.2l-1-0.9l-0.5-0.3l0.3-0.8l0.3-0.6l1.3-0.4l0.1,0
				l0.2-0.2l0.1-0.1l0.1-0.4l0-0.2l0.4-0.4l1.7-1.1l0.6-0.3l0.5,0l0.2-0.2l0.1-0.1l0.1-0.1l0.5-0.1l0.6,0.1l0.3,0l1.1,0.1l0.2-0.2
				l0.1-0.1l0.2,0l0.2,0l0.2-0.1l0.1-0.1l0.1-0.2l0.1-0.1l0.8-0.6l0.9-0.6l0.4-0.2l0.1,0l0.1,0l0.5-0.3l0.4-0.7l0-0.2l-0.3-0.2
				l-0.2-0.1l0.1-0.3l0.1-0.2l0.1-0.2l0.2-0.2l0.1,0l1,0.4l0,0l0,0.1l0.1,0.3l0.3,1l1.1,0.7l0.5,0.1l0.3-0.1l0.1,0l0.4-0.1l0.6,0.4
				l0.2,0.4l0.2,0.6l-0.5,0.5l0,0.1l0,0.1l0,0.1l0,0l0.3,0.3l-0.2,0.2l-0.6,1.3l0,0l0,0.2l0.1,0.2l0.1,0.1l0.3,0.2l0,0l0.5,0.1
				l0.4,0.4l0,0.9L84.6,98l-0.8,0.3l-0.2,0.2l0,0h0.1l0.3,0.5l0.1,0.2l0.2,0.1l0.4,0.2l0.3,0.1l0.1-0.2l0.1-0.1l0.5-0.4l0,0l0.3,0
				l0.2,0l0.2,0.1l0.1,0.1l0.5-0.3l0.4-0.1l0.9-0.7l0.4-0.4l0.3-0.2l0.1,0l0.7,0.1l0.5,0.2l0.7,0.1L91,97.8l0-0.1l0-0.1l0.1-0.1
				l0.1-0.1l0.5-0.3l0,0l0.1,0l0.1,0L92,97l0.1,0l0.2-0.2l0.1-0.1l0.1-0.2l-0.3-0.1L92,96.1l-0.1,0l-0.1,0l-0.2-0.2l-0.1-0.2l0-0.1
				l0.3-1l0.1-0.2l-0.1-0.7l0-0.4l-0.4-1L91,91.9L89.8,91l-0.1-0.7L89.6,90l0.1-0.1l0.1,0l0.5,0.1l0.1,0.1l0,0l0.1,0.1l0.8-0.1
				l0.2,0l0.3-0.3l0-0.1l0-0.3l0-0.3l0.7-0.5l0.7,0.3l1.3-0.7l0.5,0.4l0.2,0.2l0.1,0.1l0,0.1l-0.1,0.3l0.1,1.7l0,0.3l0.1,0.1
				l0.4,0.2l1.5,0l1.2-0.3l0,0l0.7-0.8l0.5-0.6l0.2-0.3l0.4-0.5l0.5,0.1l0.6,0.3l0,0.2l0,0l-0.4,0.9l0.2,0.5l0,0.2l0,0.1l-0.3,0.7
				l-0.2,0.3l0,0l-0.2,0.2l-0.2,0.1l-0.3,0L99.8,93l-0.2,0.2l-0.1,0.1l-0.5,1.1l0.1,0.3l0,0l0.1,0l0.4,0.1l0.5,0.2l0.6,0.4l0,0.1
				l-0.4,1.1l-0.3,0l-0.5-0.3l0.4,0.6l0.8,0.6l0.8,0.2l0.2,0.1l0.1,0l0.1,0.1l0.1,0.2l-0.1,0.5l0.3,0.3l0.2,0.4l0,0l-0.1,0.1
				l-0.1,0.1l0,0.1l0,0.4l0.1,1.4l0.1,0.3l1.3,0.9l0.2,0.1l0.2,0l0,0l0.1,0l0.2,0.1l0,0l0.1,0.2l0.1,0.3l0,0.1l0,0.2l-0.1,0.5
				l-0.1,0l0.2-0.1l0.1,0l0.1,0l0,0l0.1,0l0.3,0.1l0.1,0.1l0.4,0.4l0,0.8l-0.3,0.7l-0.4,1.3l-0.2,1.6l0.1,0.1l0.1,0h0l0.4,0l0,0
				l0.1-0.1l0,0L105.6,108.9L105.6,108.9L105.6,108.9z"/>
			<path id="Niedersachsen_8_" class="st31" d="M93.3,63.6l-0.2-0.5l-0.3-0.7l0-0.5v-0.3l0-0.1l0.8-2.6l0.1-0.3L94,58l0.5-0.6
				l0.2-0.2l0.4-0.1l0.3-0.1l0.2,0l0,0.1l0,0.1l0,0.1l0.3,0.4l0.6,0.5l0.2,0.2l0.1,0.1l0.2,0l0.4,0l1.1,0.1l0.4-0.1l0.1,0l0,0l0,0
				l0.1,0l0.5-0.1l0.1,0l0.5,0.1l-0.1-0.1l-0.2-0.4l-0.1-0.3l0.2-0.1l0.2-0.1l0.2,0l0.2,0l0.7,0l0.8,0l0.5,0l0.4,0.1l0.8,0.3
				l0.4,0.3l0.5,0.8l0.1,0.2l0.4,0.9l0.2,0.4l0.2,0.3l0.1,0.2L106,61l0.5,0.4l0.2,0.2l0.1,0.1l0.2,0.4l0.1,0.2l0,0.1l0,0.4l0.1,0.3
				l0.1,0.2l0.1,0.1l0.5,0.4l1.2,0.8l0.4,0.1l0.4,0l0.6,0.1v0.6l-0.1,0.5l0.2,0.2l0.2,0.5l0,0.1l0.8,0.8l0.1,0l0.2-0.1l0.3-0.3
				l0.1,0l0.1,0.1l0.2,0.2l0.5,0.5l0.4,0.3l0.1,0l0.6-0.5l0-0.2l0.1-0.3l0.1-0.2l0.4,0.2l0.1,0.1l0.1,0.1l0.4,0.5l0.6,0.5l0.1,0.1
				l0.1,0l0.7,0l0.1,0l0,0l0.1-0.1l0.1-0.3l0-0.1l0.1-0.1l0.1,0l0.5-0.3l0,0l0,0l0.4,0.2l1.3,0.6l0.5,0.3l0.2,0.1l0.2,0.1l0.1,0.1
				l0.9,0.3l0.1,0l0.1,0l0.1-0.1l0,0l0,0l0.1-0.1l0.2-0.1l0.2,0l0.9,0l0,0l0.1,0l0.2,0.2l0.1,0.1l0.3,0.3l0.1,0.1l0.1,0.1l0.2,0.2
				l0.1,0.1l0.6,0.2l0.2-0.1l0.2-0.2l0.3-0.2l0-0.1l0,0L126,70l0.3-0.2l0.6,0.1l0.4,0.1l0.5,1.3l0.5,1l0.3,0.3l0.2,0.2l0.6,0.5
				l0.3,0.1l0.2,0l0.1,0l0.2,0.1l0,0.1l0,0.1l-0.1,0.2l0,0l-0.1,0.1l-0.1,0l0.8,0.3l0.1,0.1l0.1,0.1l0.2,0.2l0,0.1l0,0.1l0,0.3
				l0,0.1l0,0l0.3,0.3l0.7,0.7l0.1,0l0.1,0l0.1,0l0.4-0.2L133,76l0.1,0l0.1,0l0.5-0.1l0.1,0l0.1,0l0.1,0l0.1,0.1l0.2,0.2l0.3,0.3
				l0.1,0.1l0.1,0l1,0.2l0.1,0l0,0l0,0l-0.6,0.8l0,0l-0.2,0l-0.1-0.1l-0.1-0.1l0,0l-0.2,0l-0.1,0.2l0,0.2l-0.1,0.7l0.2,0.4l-0.2,0
				l-0.3,0.1l-0.3,0.1l-0.4,0.4l-0.2,0.3l0,0l-1.3,0.6l-0.3,0.1l-0.7-0.1l-0.1,0l0,0l0,0v-0.1l0-0.1l-0.1-0.1l-0.2-0.2l-0.9-0.2
				l-2.1-0.1l-0.1,0l-0.1,0l-0.1,0.1l0,0.1l0,0.2l0,0.1l0,0l0,0.1l-0.6,0.7l-1.4,0l-0.6,0.1l-0.5,0.1l-0.1,0.5l0,0l0,0.5l0,0.1
				l0,0.1l0.6,1.6l0.6,0.4l0.8,1.2l0.6,1.2l0,0l0,0.5l0.1,0.3l0.1,0.2l0.2,0.3l0.3,0.4l0.4,0.5l-0.4,0l-0.5,0.3l-0.1,0.4l0.2,0.4
				l1,1.3l0.3,0.2l0.1,0l0.1,0l0.2,0.1l0.1,0.1l0,0.1l0,0.3l0,0l-0.2,0.1l-0.3,0.1l0,0l-0.1,0l-0.3,0.4l0.1,0.9l0,0l0.3,0.4l0.3,0.3
				l0.3,0.4l0.1,0.2l0,0l0,0l-0.1,0.2l-0.2,0.1l-0.2,0l-0.2,0.1l-0.1,0l-0.1,0.1l-0.1,0.2l0,0.2l0,0.1l0,0.1l0,0l0.1,0.1l0.1,0.1
				l0.1,0l0.2,0l0,0l0,0l0,0.1l0,0.3l0,0.1l-0.3,0.4l-0.4,0.3l-0.5,0.3l-0.1,0.4l-0.1,0.7l0,0l-0.4,0l-0.8,0l-0.1,0l-0.2,0.1l-0.1,0
				l-0.3,0.1l-0.4,0l-0.2-0.1h-0.1l-1.1,0l-0.2,0l-0.4,0.1l0,0.2l0,0.1l0,0.1l0,0l-0.4,0.4l-0.9,0.1l0.4,0.5l0.8,0.6l-0.3,0.1
				l-0.2,0.2l0,0l0,0.4l0.2,0.1l0.2,0.1l0.1,0.1l0,0.1l0,0.1v0.2l0,0.1l-0.2,0.4l0,0l-0.1,0l-0.1,0l-0.5,0.4l-0.1,0.1l0,0.1l0,0.8
				l0.1,0.6l0.2,0.3l0.2,0.1l0.7,1l0.2,0.5l0,0.1l0,0.2l0.1,0.3l0,0.1l0.3,0.5l0.1,0.1l0,0l0.1,0l0,0l-0.3,0l-0.1,0l-0.5,1.2
				l-0.2,0.4l-1,0.3l-0.5,0.1l-0.1-0.1l-0.3-0.4l-0.1-0.1l-0.2-0.1l-0.1,0l-0.3-0.1l-0.2-0.1l0,0l-0.5,0.1l-0.2,0.3l-0.2,0.4l0.1,0
				l0,0l-0.1,0.2l0,0.1l-0.3,0.5l0,0l-0.6,0.5l-1.8,1.2l-1.2,0.2l-1.5,0.9l-0.7,0.5l-0.1,0l0,0l0,0l0.1-0.1l0,0l0-0.3l-0.1-0.1
				l-0.3-0.5l-0.1,0l-0.7,0.1l-0.7,0.1l0,0l-0.1,0.1l-1,0.8l-0.2,0.3l0.4,0.6l0.4-0.2l0.1,0l0,0l0,0.3l0,0.1l-0.1,0.3l-0.5,0.3
				l0-0.1l-0.8-0.4l-1.2-0.5l-0.4-0.1l-0.1-0.3l-0.1-0.2l0-0.1l0.1-0.4l0-0.1l0.2-0.4l0.1,0l0.4-0.1l0.3,0l0.2-0.3l0,0l-0.2-1
				l-0.1-0.4l-0.1-0.1l-0.5-0.8l0,0l0,0l0-0.1l0.5-0.6l0.3-0.1l0-0.1l0.1-0.2l0.2-0.1l0.1,0h0l0,0l0.1-0.2l0-0.1l0,0l-0.2-0.1
				l-0.2-0.1l-0.3-0.3l0,0l-0.8-0.4l-0.2,0l-0.7,0l-0.2,0l-0.2-0.1l-0.1-0.1l0-0.1l0-0.2l0.1-0.1l0-0.1l0-0.1l-0.1,0l-0.7,0.2l0,0
				l-0.1,0l-0.1,0l0,0l-0.1,0.1l0,0l-0.4,0h0l-0.1,0l-0.1-0.1l0.2-1.6l0.4-1.3l0.3-0.7l0-0.8l-0.4-0.4l-0.1-0.1l-0.3-0.1l-0.1,0l0,0
				l-0.1,0.1l-0.1,0l-0.2,0.1l0.1,0l0.1-0.5l0-0.2l0-0.1l-0.1-0.3l-0.1-0.2l0,0l-0.2-0.1l-0.1,0l0,0l-0.2,0l-0.2-0.1l-1.3-0.9
				l-0.1-0.3l-0.1-1.4l0-0.4l0-0.1l0.1-0.1l0.1-0.1l0,0l-0.2-0.4l-0.3-0.3l0.1-0.5l-0.1-0.2l-0.1-0.1l-0.1,0l-0.2-0.1l-0.8-0.2
				l-0.8-0.6l-0.4-0.6l0.5,0.3l0.3,0l0.4-1.1l0-0.1L99.9,95l-0.5-0.2l-0.4-0.1l-0.1,0l0,0l-0.1-0.4l0.5-1.1l0.1-0.1l0.2-0.2l0.2-0.1
				l0.3,0l0.2-0.1l0.2-0.2l0,0l0.2-0.3l0.3-0.7l0-0.1l0-0.2l-0.2-0.5l0.4-0.9l0,0l0-0.2l-0.6-0.3l-0.5-0.1l-0.4,0.5L99.7,90
				l-0.5,0.6l-0.7,0.8l0,0l-1.2,0.3l-1.5,0l-0.4-0.2l-0.1-0.1l0-0.3l-0.1-1.7l0.1-0.3l0-0.1L95.3,89l-0.2-0.2l-0.5-0.4l-1.3,0.7
				l-0.7-0.3l-0.7,0.5l0,0.3l0,0.3l0,0.1l-0.3,0.3l-0.2,0l-0.8,0.1l-0.1-0.1l0,0l-0.1-0.1L89.8,90l-0.1,0l-0.1,0.1l0.1,0.2l0.1,0.7
				l1.2,0.9l0.5,0.4l0.4,1l0,0.4l0.1,0.7l-0.1,0.2l-0.3,1l0,0.1l0.1,0.2l0.2,0.2l0.1,0l0.1,0l0.3,0.1l0.3,0.1l-0.1,0.2l-0.1,0.1
				L92,97L92,97l-0.1,0.1l-0.1,0l-0.1,0l0,0l-0.5,0.3L91,97.5l-0.1,0.1l0,0.1l0,0.1L91,98l-0.7-0.1l-0.5-0.2l-0.7-0.1l-0.1,0
				l-0.3,0.2l-0.4,0.4l-0.9,0.7L87,98.9l-0.5,0.3l-0.1-0.1L86.2,99L86,99l-0.3,0l0,0l-0.5,0.4L85,99.4l-0.1,0.2l-0.3-0.1l-0.4-0.2
				L84,99.3L83.9,99l-0.3-0.5h-0.1l0,0l0.2-0.2l0.8-0.3l0.7-0.2l0-0.9l-0.4-0.4l-0.5-0.1l0,0L84,96.2l-0.1-0.1l-0.1-0.2l0-0.2l0,0
				l0.6-1.3l0.2-0.2l-0.3-0.3l0,0l0-0.1l0-0.1l0-0.1l0.5-0.5l-0.2-0.6L84.4,92l-0.6-0.4l-0.4,0.1l-0.1,0l-0.3,0.1l-0.5-0.1l-1.1-0.7
				l-0.3-1L81,89.9l0-0.1l0,0l-1-0.4l-0.1,0l-0.2,0.2l-0.1,0.2L79.4,90l-0.1,0.3l0.2,0.1l0.3,0.2l0,0.2l-0.4,0.7l-0.5,0.3l-0.1,0
				l-0.1,0L78.3,92l-0.9,0.6l-0.8,0.6l-0.1,0.1l-0.1,0.2l-0.1,0.1L76,93.7l-0.2,0l-0.2,0l-0.1,0.1l-0.2,0.2L74.2,94l-0.3,0l-0.6-0.1
				L72.8,94l-0.1,0.1l0,0.1l-0.2,0.2l-0.5,0l-0.3-0.4l-0.1-0.4l0-0.2l0-0.2l0-0.1l0.3-0.7l0.1-0.3l0.2-0.3l0-0.5L72.1,91l-0.9-1.8
				l0,0l-0.1,0L71,89.2l-0.1,0.2l-0.1,0.2l-0.2,0.2l-0.1,0l-2.3-0.7l-0.3-0.1l-0.8-0.6l0-0.1l0.1-0.4l0.1-0.3l0.2-0.6l0.1-0.9
				l-0.1-0.9l0.5-0.4l0.2-0.1l0.4-0.1l0.1,0l1.5,0.1l1.2,0.2l0.3,0.1l0,0.1l0,0l0.1,0l0.4,0.1l0,0l0.1-0.1l0.1-0.2l0.2-1.6l0.1-0.9
				l0.1-1.3l0.2-0.9l0.5-0.6l0.9-1.4l0.3-0.9l0.1-0.4l0-0.3l-0.1-1.6l0.1-0.8l-0.3-0.2l0-0.2l0-0.2l0.2-0.5l0.2-0.3l0.2-0.5l0.1-1.2
				l0.3-1.1l0.2-0.5l0-0.1l0,0l0.1,0h0.6l-0.1,0l-0.5-0.1l-0.3-0.1l-0.2,0l-0.7-0.1l-1.6,0l-0.5-0.1l-0.1-0.1L72.4,69l-0.2-0.3
				l0-0.1l0-0.1l0.2-0.4l0-0.6l0.4-2.9l0.8,0.3l0.2,0.3l0.4-0.4l0.2-0.3l-0.2-0.4L74,64.2l-0.4-0.2l-0.1-0.1l0.1-0.2l1-1.1l0.3-0.3
				l0.6-0.4l0.2-0.2l0.6-0.2l0.3-0.1l0.3,0l0.4,0l1.7,0.1l0.1,0l0.1,0.1l0,0l0.1,0.1l0.2,0.1l0.1,0l0.4-0.1l0.9-0.3l0.9-0.3l0.1,0
				l0.1,0l0.1,0l0,0l0.1,0l0.3,0l0.3,0l0.7-0.2l1.4-0.1l0.7,0.1l0.6,0.1l0.2,0.1l0.1,0.1l0,0.1l0,0.1l-0.1,0.1l0,0.2l0.1,0.5l0,0.2
				l0.1,0.3l0.6,0.1l0.1,0.1l0.1,0.2l0.1,0.3l0.8,1.8v0l0,0.1l0,0.1l-0.1,0.2l-0.1,0.1l-0.2,0.1l-0.2,0.1l-0.5,0.2l-0.1,0l-0.2,0
				l-0.2-0.2l0,0.5l0,0.2l0,0.1l0.1,0.1l0.1,0.2l0.1,0.2l0.2,0.2l0.1,0l0.2-0.1l0,0l0.2,0l0.2,0l0.2,0.3l0.3,0.4l0.1,0.2l0,0l0,0.1
				l0,0.1l0,0l0.1,0.1l0.2,0.1l0.2,0l0.1,0l0.1-0.1l0.1-0.1l0,0l0.2-0.2l0.1-0.2l0.1-0.2l0.2-0.4l0.1-0.2l0-0.2l0.1-0.8l0-0.3l0-0.1
				l-0.1-0.1l0,0l-0.1-0.1l-0.4,0.1l-0.1,0l-0.5-0.1l0.1-0.9l0.1-0.4l0-0.1l0.1-0.2l0.1-0.1l0.2-0.2l0.2-0.2l0.3-0.1l0.3,0l0.3,0.2
				l0.1,0.1l0.2,0.3l0.2,0.3l0.3,0.1l0.8,0.4l0,0l0.1,0l0.1,0l0.3,0.1l0.2,0l0.4,0.3l0,0l0,0.1l0,0.2l0,0l0,0l-0.1,0.1l0.1,0.1
				l0.3,0.4v0l0,0l-0.1,0.1l0,0.1l0.1,0l0.4,0l0,0l0.6-0.6l0-0.1l-0.2-0.9l0.2-1.1l0,0l-0.4-0.1l-1.2-0.1L93.3,63.6z M99.5,74.8
				l-0.1-0.1l-0.3-0.4l-0.2-0.1l-0.1,0l-0.3,0.2l-1.1,0l-0.8-0.4l-1-0.5l-1.5-0.2l-1.7-0.9l-0.1-0.2l0-0.2l0,0.2l0.1,0.3l0.1,0.2
				l0.1,0.1l0.2,0.2l0.3,0.3l0.5,0.3l0.2,0.1l0.2,0l0.2,0l0.1,0.1l0.1,0.1l0.4,0.9l0,0.3l0.2,0.1l0.4,0.5l0.1,0.2l0,0.1l0,0.6
				l0.1,0.1l0.1,0.1l0.1,0l0.2-0.1l0.1,0l0.3,0l1.2,0.4l0.7,0.3l0.7-0.6l0-0.4l-0.1-1.1L99,75l0,0l0,0l0.2-0.1L99.5,74.8z
				 M84.4,59.5l-0.2-0.3l0,0v0l0.1-0.1l0.1,0l0.3,0l0.2,0l0.2,0l0.4,0.1l0.1,0l0,0l0.3,0.2l0,0.1l0,0l-0.4-0.1l-0.9-0.2l0,0l0,0
				l-0.1,0.1L84.4,59.5z M86.5,60.2L86.5,60.2L86.5,60.2l-0.2-0.1l0-0.1l0-0.1l-0.1-0.4l0-0.1l0.2-0.2l0.1,0.1l0.1,0.5L86.5,60.2
				L86.5,60.2z M81.9,59.9l-0.1,0l0,0l0-0.1l0-0.1l0.1-0.1l0.1-0.2l0.1-0.1l0.1,0l0.1,0l0.2,0l0.3,0l0.5,0l0.1,0l0.3,0.1l0.1,0.1
				l0,0l0,0l-0.8,0.2l-0.8-0.1L81.9,59.9z M79,60.5L79,60.5l-0.1-0.1l0-0.2l0-0.2l0-0.1l0.2-0.2l0,0l0.1-0.1l0.1,0l0.8,0l0.6,0
				l0.2,0l0.1,0l0.1,0l0.1,0l0,0l0,0.1l0,0l0,0L81,60l0,0l0,0l0,0l0,0l-0.5,0h-0.1l-0.4,0L79.6,60l-0.1,0L79,60.5z M78.5,60.6
				l-0.3,0l-0.4,0l-0.3-0.1l-0.1-0.1l0,0l0,0l0.3-0.1l0.1,0h0.1l0.5,0.1l0,0L78.5,60.6L78.5,60.6L78.5,60.6z M74.6,60.9l-0.1-0.1
				l-0.1-0.1l0,0l0-0.1l0.1-0.1l0.1,0l0.3-0.1l0.2-0.1l0.1,0l1.6,0l0.2,0l0.1,0l0.1,0l0,0.1l0,0L77,60.6l-0.1,0l-1.7,0.2l-0.4,0
				L74.6,60.9z M71.1,61.5l-0.1,0l0,0l-0.1,0l-0.1-0.1l0,0l0,0l0.1,0l0.5,0l1.6-0.2h0.7l0.2,0l0,0l0,0l0,0.1l0,0.1l0,0l0,0l-0.3,0
				l-0.1,0l-0.2,0l-0.8,0l-1.1,0.2L71.1,61.5L71.1,61.5z M68.9,63.9l-0.1-0.2l-0.1,0l-0.1,0l-0.1,0l0,0v0.1l0,0.1l0,0l0,0l0,0
				l-0.1,0l-0.6-0.5l-0.1-0.2l0-0.2l0-0.1l0-0.1l0,0l0.1,0l1.2-0.4l0.1,0l0.1,0l0.1,0.1l0.4,0.3l0.1,0.1l0,0l-1.2,0.3l0.3,0.3
				l0.2,0.2l0,0L68.9,63.9L68.9,63.9z"/>
			<path id="Mecklenburg-Vorpommern_8_" class="st31" d="M125.9,55.6l1-0.7l0.7-0.4l0.2-0.1l0.1,0l0.5-0.1l0.1,0l1.1-0.1l0.1,0
				l0.1,0.1l0.8,0.9l0,0.4l0,0.1l0.1,0.2l0.1,0.1l0.1,0.1l0.1,0l0.1,0l0,0l0.3-0.2l0.1-0.1l0-0.1l0.4-0.1l0.5,0.2l0.3,0.1l0,0.2
				l0,0.1l0.1,0.1l0.3,0.2l0.2,0.1l0.3-0.6l0.1-0.2l0.1-1.3l0.2-0.4l0,0l0.1-0.1l0.4-0.2l0.2-0.1l0.1,0l0.1-0.1l0-0.1l0.6-1l0-0.3
				l0-0.1l-0.1-0.2l0-0.1h-0.1l-0.1,0.1l-0.3,0.3l-0.1,0.2l-0.2,0.2l-0.2,0.2l-0.4,0.5l0,0l0,0l0-0.2l0-0.1l0-0.1l0.1-0.3l0.4-0.5
				l1.7-1.4l0,0l0.1,0l0.1,0l0.8,0l0,0l0.1,0.1l0.2,0L138,51l0.3,0l0.2,0l0.2,0l0.1,0l0.3-0.1l1.6-0.6l0.9,0.1l0.7,0.1l0.3-0.8
				l0.4-0.9l0.1-0.1l0.2-0.2l0.4-0.3l0.8-0.5l0.3-0.2l0.1-0.1l0.1-0.1l0.1-0.1l0.1-0.1l0.1-0.2l0.9-1.8l0.6-1.2l0.5-0.9l0.4,0.3
				l0.2,0.1l0.1,0l0.9,0.1l0.8,0.1l1.6,0l1-0.1l0.3,0l0.4,0l0.3,0l0,0l0,0l0,0l0,0l-0.6,0.4l-0.1,0.1l-0.4,0.1l-1,0.1l-0.7,0l-0.2,0
				l0,0l-0.1,0l-0.1-0.2l-0.1-0.2l-0.1,0h0l-0.3,0l-0.7,0.2l-0.7,0.4l-2,0.7l-0.2,0.2l-0.6,1.5l-0.1,0.4l0,0.6l0,0l0.5,0.3l0.2,0.1
				l0.3,0l0.2,0l0.1,0l0,0l-0.1-0.1l-0.1,0l-0.3-0.1h-0.1l0,0l-0.1-0.3l0-0.2l0.1-0.2l0.7-0.8l1.1-0.8l1.3-0.7l1.1,0.2l1.1,0.5
				l0.4-0.1l0.1-0.1l0.3-0.3l0,0l0-0.1l0-0.1l0-0.2l0.1-0.3l0,0l0.3-0.3l0.1,0l0.8-0.3l0.5,0.1l0.9,1.4l-0.2,0.4l0,0.2l0.4,1.3
				l0.6,0.6l0.4-0.2l0.2-0.1h0l1.4,0.7l0,0l0.1,0.2l0.4,0.7l0.1,0.1l0.1,0.1l0,0l0,0l0.1,0.1l0.5,0l0.5,0.2l0,0l-0.4,0.3l0,0.2l0,0
				l0.1,0l0.1-0.1l0.1-0.1l0.1,0l0.3,0.2l0,0l0,0.1l0.1,0.3l0,0.2l0,0.1l0.3,0.4l0.1,0.1l0.1,0l0.3,0.1l0,0l0.1,0l0,0l0-0.1
				l-0.1-0.1l-0.1-0.1l-0.1-0.4l0,0l0.2-0.2l0.1,0l2-0.7l0.8-0.2l0.9,0.9l0.1,0.2L165,51l0,0.1l0,0.1l0,0.9l0.7,1.5l0.9,0.9l0.2,0.2
				l0.1,0.2l0,0.1l0,0.1l-0.1,0.1l-0.1,0.1l0,0l0,0l-0.1,0l-0.1,0l-0.1,0.1l-0.2,0.2l-0.4,0.5l-0.3,0.5l0,0.1l0.1,0.3l0,0l1.3,0.8
				l0.5,0.3l0.4,0.3l0.1,0l1.5,0.5l0.3,0.1l0.2,0l0.8,0l0.1,0l0,0l0.2-0.2l0.2-0.2l0.1-0.1l0,0l0.1,0l0.2,0l0.1,0l0.2,0.2l0.1,0.3
				l0.2,1.3l0.4,1.4l0.1,0.9l-0.1,0.6l0,0l0.1,0.2l0.2,0.4l0.2,0.5l0,0l0.4,0.5l0.1,0.5l0.3,1.1l0.6,1.7l0.1,0.2l-0.1,0l-0.1,0
				l-1.1,0.5l0,0.2l-0.1,0.4l-0.5,0.6l-0.2,0.1l-0.6,0.1l-1.3,0l-0.2,0l0-0.3l0-0.1l0.1-0.2l0.4-0.4L171,69l0.2-0.2l0.2-0.3l0.2-0.2
				l0.2-0.4l0.1-0.2l0-0.1l0.1-0.4l0-0.1l-0.1-0.6l-0.1-0.2l-0.2-0.1l-1.4-0.1l-0.2,0.3l-0.9,0l-0.6-0.1l-0.8,0.1l-0.1,0.1l-0.4-0.1
				l-0.3-0.7l-0.2-0.7l-1.1-1.3l-0.1,0l-0.1,0.1l0,0.1l-0.1,0.4l0,0.1l0,0.3l0.3,0.3l-0.6,0.5l-0.6,0l-0.4,0.3l-0.2,0.2l-1.5,1.4
				l0,0.1l-0.3,0.6l-0.1,0.4l0.1,0.3l0.1,0.4l0,0l0,0l-0.5,0.6l-1.1,1.1l-0.2,0.1l-0.1,0l-0.2-0.4l0-0.2l0,0l-0.1-0.1l0,0l-0.8,0
				l-0.2,0.1l-0.4,0.4l-0.1,0.1l0,0.2l0,0.3l0,0.1l0,0.2l-0.1,0.2l-0.3-0.1l0,0l-0.2-0.4l-0.1-0.1l-0.1-0.1l-0.4,0.1l0,0l-0.5,0.2
				l-0.1,0.1l-1.6,1.7l-0.1,0l0,0l-0.5-0.2l0,0l0,0l0.1-0.1l0.2-0.2l0.2-0.1l0,0l0-0.1l0,0l-0.2,0l-1.6,0l-0.4,0.1l0,0l0,0l-0.3,0.1
				l-0.2,0.1l-0.3,0l-0.1-0.2l-0.6-0.6l-0.8-0.7l-0.2,0l-1.7-0.2l-0.4,0.1l0,0.1l0,0l-0.7,0.1l-0.6-0.6l-0.1-0.3l-0.2-0.2l-0.4-0.2
				L146,70l-0.1,0l-0.1-0.1l-0.4-0.1l-0.9-0.7l-0.1,0l-1.2,0.3l-0.3,0.1l-0.4-0.1l-0.3-0.1l-0.5,0.7l0,0.4l-0.1,0.1l-0.8,0.6
				l-0.1,0.1l-1.1,0.4l-0.7,0.1L139,72l0,0.1l0,0l0,0.1l-1.2,0.3l-0.1,0l-0.2-0.3l-0.4-0.2l-0.2,0l-0.6,0l-0.1,0.1l-0.9,0.8l0.2,0.9
				l-0.1,0.6l-0.1,0.2l-0.2,0.1l-0.3,0l-0.4-0.1l-0.1-0.1l0-0.1l-0.2-0.1l-0.8,0.1l-0.6,0.5l-1.3-0.1l0-0.1l0-0.1l-0.2-0.2l-0.1-0.1
				l-0.1-0.1l-0.8-0.3l0.1,0l0.1-0.1l0,0l0.1-0.2l0-0.1l0-0.1l-0.2-0.1l-0.1,0l-0.2,0l-0.3-0.1l-0.6-0.5l-0.2-0.2l-0.3-0.3l-0.5-1
				l-0.5-1.3l-0.4-0.1l-0.6-0.1L126,70l-0.1,0.2l0,0l0,0.1l-0.3,0.2l-0.2,0.2l-0.2,0.1l-0.6-0.2l-0.1-0.1l-0.2-0.2l-0.1-0.1
				l-0.1-0.1l-0.3-0.3l-0.1-0.1l-0.2-0.2l-0.1,0l0,0l-0.9,0l-0.2,0l-0.2,0.1l-0.1,0.1l0.4-1.8l0.1-0.3l0.2-0.1l0.1,0l0.1,0.1
				l0.3,0.1l0.9-0.7l0.1-0.1l0.2-0.2l0.5-0.6l1.5-2l0.1-0.5l0.3-0.4l-0.2-0.9l-0.3-0.3l-0.2-0.1l-0.3-0.1l0,0l0,0l0,0l-0.1,0l-0.3,0
				l0,0l-0.3-0.2l-0.9-0.8l0.1-0.7l0-0.3l0-0.1l-0.1-0.2l0-0.1l-0.2-0.6l0-0.4l0.3-0.5l1.2-0.8l0.6,0l0.2-0.5L125.9,55.6z
				 M157.6,38.1l-0.1,0.1l-0.4,0.3l-0.3,0.3l0,0.1l-0.7,1.7l0,0l0,0.2l0,0l0.1,0l0.1,0l0.7-0.6l0.1-0.4l0-0.1l-0.1-0.2l0,0l0,0
				l0.4-0.5l0.2-0.1l0,0l0,0.1l0,0.3l0,0.1l0,0.1l-0.1,0.2l-0.2,0.3l-0.1,0.1l-0.1,0.1l-0.1,0.5l0,0.2l0.6-0.3l0.5-0.3l1.5,0.6l0,0
				l0,0l0.4-0.1l0.4-0.2l0,1.2l0,0.6l0,0l-0.1,0l-0.4,0l-0.6-0.2l-0.2-0.1l-0.9-0.5l-0.1-0.1l0-0.1l0.1-0.7l-0.7,0l-0.7,0l-0.3,0.1
				l-0.7,0.2l-0.2,0.1l0.1,0.6l0.1,0.2l0.5,0l0.4,0l0.6,0.5l-0.2,0.4l-0.1,0l-0.5,0.2l-0.3,0l-0.3,0.1l-0.3,0.6l0,0.1l0,0l0.1,0
				l1.2,0.3l0.2,0l-0.3,0.2l-1.3,0.6l0,0.1l0,0.1l-0.1,0.6l0,0.2l0.4,1.1l0,0.1l3.5,1.2l0.3-0.2l0.1-0.1l0-0.1l0,0l0-0.1l-0.1-0.2
				l-0.2-0.2l0,0h-0.1l0,0l0,0l0,0.1l0,0l-0.1,0.1l-0.2,0.1l-0.1,0l-0.1-0.1l0-0.3l0.9-1l0.7-0.7l0.2-0.2l0.1,0l2.3-0.3l0.1,0
				l0.3,0.5l0,0l0,0.1l0,0.1l0,0l-0.2,0.1l0,0l-0.2,0.1l0,0.3l0.5-0.1l0.2-0.4l0.3-0.6l-0.2-0.4l-0.4-0.6l-0.3-0.2l-0.3-0.2l0,0l0,0
				l-0.1,0l-0.3,0l0,0l-0.1,0l-0.1-0.1l-0.2-0.3l-0.2-0.5l-0.1-0.1l-0.1-0.3l0-0.3l0-0.1l0-0.1l0-0.1l0,0l0.4-0.4l0.5-0.4l0.1-0.1
				l0,0l0.1-0.1l0.1-0.3l0-0.2l-0.1-0.5l-0.1-0.1l-0.2-0.1l-0.3-0.2l-0.1,0h-0.1l-0.4,0l-0.1,0l-0.5,0.1l-0.1,0l-0.5,0.1l-0.6,0.1
				l-0.1,0l-0.2-0.1l-0.1,0l-0.1-0.1l-0.1,0l-0.2-0.2l-0.2-0.2l-0.1-0.2l-0.1-0.3l0-0.2l0-0.1l0.1-0.2l0.1-0.1l0,0l0.1-0.1l0.1,0
				l0.1,0l0.1,0l0.1-0.1l0.1-0.1l0.1-0.3l0,0l-0.1-0.1l-0.1-0.1l-0.7,0.1l-1,0.3L157.6,38.1z M154.8,43.1L154.8,43.1L154.8,43.1
				L154.8,43.1L155,43l0.2-1.4l0.2-0.9l0.5-0.3l-0.7-0.2l-0.4,2.3l0,0.2l0,0.1l0,0.1L154.8,43.1z M155.9,43.4l1-0.5l0.1-0.1l0,0
				l-0.1-0.2l-0.1-0.1l-0.3-0.1l-0.1,0l-0.2,0l-0.2,0l-0.1,0.1l-0.2,0.3l0,0.1l-0.2,0.6l0,0.2l0,0l0,0L155.9,43.4z M153.8,43.7
				L153.8,43.7L153.8,43.7l-0.1,0l-0.1,0l0,0l0,0l0.1,0.1l0.1,0.1l0.1,0l0.7-0.3l0.2-0.1l0.1-0.1l-0.1-0.1l-0.1,0l-0.6,0.2l-0.1,0.1
				L153.8,43.7L153.8,43.7z M165.3,49.5l-0.1-0.1l-0.1,0l-0.1,0l-0.1,0l-0.1,0l-0.2,0.1l-0.1,0.1l0,0l0,0.1l0,0.3l0.1,0.2l0,0.1
				l0.4,0.5l0,0l0.1,1.1l0.8,1.3l0,0l0,0l0,0l0.9-0.4l0,0l0.1-0.2l0,0l-0.3-0.4l-0.1-0.4l0,0l0,0l0.8,0.1l0.3,0.3l0.6,0.7l0.1,0.1
				l0,0.1l0.1,0.2l0,1.2l-0.8-0.1l-0.2-0.3l-0.1-0.4l0,0l-0.1,0l-0.2,0l-0.4,0.1l0,0l0,0l-0.1,0.2l0,0.3l0,0.1l0,0.1l0.1,0.1
				l0.3,0.3l0.1,0.2l0.2,0.5l0,0.1l-0.1,0.3l-0.1,0.2l-0.1,0l-0.2,0.1l-0.3,0.2l-0.3,0.1l-0.1,0l-0.1,0l-0.1,0l-0.2,0.3l0.2,0.2
				l0.3,0.1l0.3,0.1l0.2,0l0.6-0.1l0.6-0.2l0.1,0l0.9-0.5l1.7-0.2l0.1,0l0,0l0.3-1.4l-0.9-0.7l-1-0.9l-1.2-1.1l-0.2-0.1l-0.3-0.2
				l-0.1,0l-0.1,0l-0.2,0l-0.2-0.1l-0.4-0.2l-0.1-0.1l-0.2-0.2l-0.2-0.3l-0.2-0.2l-0.1-0.1L165.3,49.5z M133.8,54.9l0.2-0.5l0-0.3
				l0-0.1l0,0l-0.1,0l-0.2-0.1l-0.2,0l-0.1,0l-0.1,0l-0.5,0.3l-0.3,0.3l-0.1,0.1l0,0.2l0,0.1l0.1,0.1l0.1,0.1l0.1,0.1l0.1,0l0.8,0.1
				L133.8,54.9z"/>
			<path id="Hessen_8_" class="st31" d="M112.5,115.2l0,0.2l0,0.2l0.1,0.5l0.3,0.8l0.3,0.3l0.8,0.3l0.4,0.2l0.2,0.7l1,0.5l0.4,0.1
				l0.2,0.1l0.1,0.1l0.3,0.3l0.3,0.1l0.1,0.1l-0.1,0.2l-0.1,0.1l-0.1,0l-0.1,0.1l-0.1,0.3l0,0.1l0.1,0.1l0,0l0,0.4l0,0.2l0,0h-0.1
				l-0.1-0.2l0,0l-0.1-0.1l-0.1-0.3l-0.2-0.2l-0.6,0.1l-0.1,0.1l0,0.1l0.3,0.6l0.1,0.3l0,1l0.4,0.1l0.2,0.1l0,0l0.1,0.1l0.1,0.2
				l0,0.1l-0.1,0.3l0,0l-0.1,0.1l-0.1,0l-0.1,0l0,0l-0.1,0l-0.4,0.1l-0.1,0l-0.1,0l-0.1-0.1l-0.1-0.1l-0.3-0.2l-0.5-0.1l-0.3,0
				l-0.2,0l-0.1,0l0,0l0,0.1l-0.1,0.3l0.3,1.1l0.2,1.3l0,0.2l-0.4,0.9l-0.2,0.3l-0.3,0l-0.4,0l-0.1,0.1l-0.2,0.2l0,0.1l-0.1,0.4
				l0,0.1l0.1,0.2l0,0.2l0,0.1l0,0l-0.1,0l-0.3,0.1l0.2,0.3l0,0.3v0.1l-0.1,0.3l-0.3,0.6l-0.3,0.4l-0.2,0.2l-0.1,0.1l0,0.6l0,0.2
				l0.7,0.1l0.2,0l0.2,0l0.1-0.3l-0.3-0.3l0-0.1l0.1-0.1l0.5-0.2l0.1,0l0.5,0l0.3,0l0.1,0.1l0.2,0.3l0.2,0.5l-0.4,0.3l0,0.1
				l-0.1,0.1l0,0.1l0,2.2l0,0.2l-0.1,0.4l-0.1,0.3l-0.2,0.3l-0.8,0.9l-0.4,0.2l-0.3,0.2l-0.3,0.2l-0.3,0.1l-0.3,0l-0.5-0.2l-0.2-0.1
				l-0.8,0.2l-0.1,0.4l-0.1,0.5l0,0.1l-0.2,0.1l0.2,0.2l0.1,0.1l0,0.4l0,0.2l0,0.1l-0.1,0.2l-0.2,0.2l-0.4,0.3l-0.2,0.1l0,0h-0.2
				l-0.4,0.1l0,0l-0.1,0.1l-0.2,0.3l-0.2,0.5l0,0.1l0,0l-0.4,0l-0.2,0l-0.7-0.2l-0.2-0.1l-0.3,0.6l-0.1,0.8l0.2,0.9l0.1,0.3l0.1,0.2
				v0.2l-0.1,0.3l-1.1,0.2l-0.3,0h0l-0.1-0.1l-0.4-1l0,0l-0.1,0l-2.2-0.4l-3,0.8l0,0l-0.1,0.1l-0.2,0.3l-0.1,0.6l-0.1,0.3l0.3,0.3
				l0.1,0l0.1,0l0.1,0l0,0l0.1,0.1l0,0.1l0.1,0.9l-0.4,0.2l0.1,0.1l0,0l0.1,0.7l0,0.6l0,0.5l0.1,0.7l0,0l0.2,0.2l-0.2,0l0,0l0,0.1
				l0,0.3l0,0.1l0.1,0.1l1,1l0.1,0l0.2,0l0.1,0l0,0l0.3,1.2l-0.4,1l-0.1,0.1l-0.3,0.8l-0.2,1.6l0.2,0.4l0,0.4l0,0l-0.1,0.2l0,0
				l-0.1,0.1l0.4,0.2l0.1,0.1l0.1,0.3l0,0.1l-0.1,0.1l-0.2,0.1l-0.3-0.4l-0.3-0.1l-1.3,0.4l-0.1,0l-0.2,0.2l-0.4,0.4l-0.1,0.2l0,0.1
				l0.2,0.2l0.1,0.2l-1.5,1.3l-0.1,0l0,0l-0.4,0l-0.1,0l-0.1-0.1l-0.1-0.2l0.1-0.2l0.4-0.8l0.5-0.2l0.5-0.5l0-0.3l0-0.1h-0.5
				l-1.5-0.3l-0.1,0l-0.5-0.2l-0.3-0.2l-0.4-1.7l0.1,0l0,0l0.1,0l0,0l0.1-0.2l0-0.1l-0.2-0.1l-0.9,0.2l-0.4,0.1l-0.1,0.1l0,0.2
				l0,0.1l0.1,0l0.2,0.9v0.1l0,0.1l-0.2,0.2l-0.4,0.3l-0.2,0l-0.1,0l-0.1,0l-0.2-0.2l-0.1-0.2l-0.1-0.3l-0.5-0.6l-0.3-0.3l-0.1-0.1
				l-0.2,0l-0.1,0l-0.1,0l-0.2,0.1l0,0l-0.1-0.3l-0.4-0.5l-0.1-0.2l-0.4-1.2l0-0.1l0-0.2l0-0.1l0-0.1l0,0l0.1-0.1l0.1-0.1l0.1-0.1
				l0.2-0.1l0.3-0.1l0.1,0l0.1-0.1l0.1-0.1l0.1-0.1l0,0l0-0.1l0.1-0.2l-0.1-0.5l-0.6-0.7l-0.1-0.2l-0.2-0.3l-0.1-0.1l-0.5-1.3l0-0.2
				v-0.1l0-0.1l0-0.1L89,149l0.1-0.1l0-0.1l0-0.1l0-0.1l-0.1-0.4l0-0.2l-0.1-0.3l-0.1-0.2l-0.1-0.1l-0.2-0.2l-0.3-0.3l-0.2-0.3
				l-0.1-0.1l-0.2-0.2l-0.3-0.2l-0.1-0.1l-0.4-0.1l-0.2,0l-0.2,0l-0.6,0.2l-0.9,0.4l-1.6,0.6l-0.1,0l-0.4,0.1l-0.8,0l-0.1,0l-0.1,0
				l-0.1-0.1l-1.2-1.7l-0.2-0.4l0.2,0l0.4-0.3l0.9-0.8l0.1,0l0.5,0.1l0.1-0.1l0.1-0.7l0-0.1l-0.2-0.2l-0.2-0.1l-0.1-0.1l-0.1-0.1
				l0-0.3l0,0l0.3-0.5l0.1-0.1l0.1,0l1-0.4l0.4,0.2l0.2,0.1l0.1,0l0.4-0.4l0,0l-0.1-0.1l-0.4-0.4l-0.1-0.1l0.2-0.3l0.2-0.1l0.2,0
				l0.5,0.2l0.4-0.3l0-0.4l0-0.1l-0.2-0.5l0,0l0-0.1L85,138l-1.2-0.8l-0.1,0l0.1-0.2l0.4-1.1l-0.2-0.2l-0.1-0.3l0-0.1l0.1-0.5
				l0.1-0.2l0.5-0.6l0.1,0l0.1,0l0.1,0l0.3,0.1l0.1,0.2l0.2,0.1l0.2,0l0.2,0l0-0.1l0.2-0.4l0.1-0.1l0.2-0.4l0.1-0.3l0-0.1l-0.3-0.2
				l-0.1,0l0-0.1l-0.2-1.1l0-0.2l0-0.1l0-0.1l0.2-0.2l0.2-0.2l0.5-0.8l0-0.1l0-0.2l-0.2-0.3l-0.2-0.3l-0.1-0.2l-0.1-0.2l2.1-2.1l0,0
				l0,0l0.2,0l0,0l0.9,0.5l0,0l0.1,0l0,0l0.3-0.3l1-1.5l0.1-0.6l0,0l0.1-0.1l0,0l0.1,0l0,0l-0.1-0.1l0-0.1l0,0l0.2-0.2l0.3-0.3
				l0.2-0.2l0.1-0.1l0.1-0.2l-0.1-0.2l-0.2-0.3l-0.2-0.7l0-0.1v0l0.1-0.1l0.1-0.1l0.2-0.1l0,0l0.3-0.1l0,0l0.6,0l0.4,0.1l0.2,0.1
				l0.3,0.1l0.1,0l0.7-0.3l0.6-1.4l0.1-0.1l0-0.1l0-0.5l-0.2-1.4l0-0.1l-0.2-0.3l-0.2,0l-0.2,0l-1,0.5l-0.2,0.1l0,0l-0.2,0l-0.1,0
				l0,0l-0.5-0.6l0.1-0.2l0.6-0.8l0.2-0.3l0.2-0.2l0.7-0.4l1.1-0.3l0.8-0.2l0.9,0l0.8,0l0,0l0.2-0.6l0-0.3l0,0l-0.1,0l-0.1,0
				l-0.6-0.9l0-0.1v-0.1l0.2-0.2l0.6-0.3l0.4-0.1l0.5-0.1l0.3,0l0.7,0.3l0.3,0.4l-0.2,0.4l0.1,0.4l0,0.1l0.1,0l0.1,0l0.6,0l0.1,0
				l0.1-0.2l0.1-0.2l1-0.8l1-0.8l0.7-1.2l0.9-1l0.3-0.5l0.7-0.2l0.1,0l0,0l0,0.1l-0.1,0.1l0,0.2l0,0.1l0.1,0.1l0.2,0.1l0.2,0l0.7,0
				l0.2,0l0.8,0.4l0,0l0.3,0.4l0.2,0.1l0.2,0.1l0,0l0,0.1l-0.1,0.2l0,0h0l-0.1,0l-0.2,0.1l-0.1,0.2l0,0.1l-0.3,0.1l-0.5,0.6l0,0.1
				l0,0l0,0l0.5,0.8l0.1,0.1l0.1,0.4l0.2,1l0,0l-0.2,0.3l-0.3,0l-0.4,0.1l-0.1,0l-0.2,0.4l0,0.1l-0.1,0.4l0,0.1l0.1,0.2l0.1,0.3
				l0.4,0.1l1.2,0.5l0.8,0.4l0,0.1l0.5-0.3l0.1-0.3l0-0.1l0-0.3l0,0l-0.1,0l-0.4,0.2l-0.4-0.6l0.2-0.3l1-0.8l0.1-0.1l0,0l0.7-0.1
				l0.7-0.1l0.1,0l0.3,0.5l0.1,0.1l0,0.3L112.5,115.2L112.5,115.2z"/>
			<path id="Hamburg_8_" class="st31" d="M109.9,64.9l0.1-0.5l0.1-0.3l0.1-0.2l0.2-0.5l0.1-0.1l0.1,0l0,0.1l0,0.1l0.4,0.5l0.2,0.2
				l0.1,0.1l0.2-0.1l0.8-1l0.1-0.1l0.1-0.1l0-0.1l0-0.2l0.3,0l0.3,0l0.1,0l0.2,0l0.1,0h0.2l1.1-0.8l0.2-0.4l-0.1-0.1l0.3-0.2l1-0.5
				l0.1,0l0,0l0.3,0.2l0,0.2l-0.1,0.3l0,1.1l0.2,0.2l0.4,0.5l-0.1,0.1l0,0l-0.3,0.6l-0.5,0.4l-0.1,0.1l-0.1,0.3l0,0.5l0.2,0.5l0,0
				l0.8,0.5l0.1,0l0.1,0l0,0.1l0.1,0.2l0.8,0.9l0.1,0.2l0,0l0,0l-0.5,0.3l-0.1,0l-0.1,0.1l0,0.1l-0.1,0.3l-0.1,0.1l0,0l-0.1,0
				l-0.7,0l-0.1,0l-0.1-0.1l-0.6-0.5l-0.4-0.5l-0.1-0.1l-0.1-0.1l-0.4-0.2l-0.1,0.2l-0.1,0.3l0,0.2l-0.6,0.5l-0.1,0l-0.4-0.3
				l-0.5-0.5l-0.2-0.2l-0.1-0.1l-0.1,0l-0.3,0.3l-0.2,0.1l-0.1,0l-0.8-0.8l0-0.1l-0.2-0.5l-0.2-0.2l0.1-0.5V65L109.9,64.9z"/>
			<path id="Bremen_8_" class="st31" d="M93.6,65.5l0.1-0.1l0-0.1l0-0.1l0-0.2l0-0.1l0-0.1l-0.5-0.8L93,63.8l0.2-0.3l0.2,0l1.2,0.1
				l0.4,0.1l0,0l-0.2,1.1l0.2,0.9l0,0.1l-0.6,0.6l0,0l-0.4,0l-0.1,0l0-0.1l0.1-0.1l0,0v0l-0.3-0.4L93.6,65.5z M99.4,74.6l-0.3-0.4
				l-0.2-0.1l-0.1,0l-0.3,0.2l-1.1,0l-0.8-0.4l-1-0.5l-1.5-0.2l-1.7-0.9l-0.1-0.2l0-0.2l0,0.2l0.1,0.3l0.1,0.2l0.1,0.1l0.2,0.2
				l0.3,0.3l0.5,0.3l0.2,0.1l0.2,0l0.2,0l0.1,0.1l0.1,0.1l0.4,0.9l0,0.3l0.2,0.1l0.4,0.5l0.1,0.2l0,0.1l0,0.6l0.1,0.1l0.1,0.1l0.1,0
				l0.2-0.1l0.1,0l0.3,0l1.2,0.4l0.7,0.3l0.7-0.6l0-0.4l-0.1-1.1L99,75l0,0l0,0l0.2-0.1l0.2-0.1L99.4,74.6z"/>
			<path id="Brandenburg_8_" class="st31" d="M174.6,68.4l0,0.5l0.2,0.7l0.2,0l0.1,0l0.1,0.2l0,0.1l-0.2,0.5l-0.5,0.8l-0.1,0.1l0,0
				l-0.1,0.5l0,0.2l0,0.1l0.1,0.2l0,0.1l0.2,0.3l-0.1,0.6l0,0.1l-0.1,0.7l-0.2,0.5l-0.1,0.2l-0.1,0.1l-0.7,0.8l-0.3,0.3l-0.4,0.3
				l-0.2,0.1l-0.2,0.1l-0.5,0.3l-0.3,0.3l-0.1,0.2l0,0l0.1,0.4l0.2,0.9l0.1,0.2l0,0.3l-0.2,0.3l-0.2,0.2l-0.1,0.2l0,0.1l0,0l0.1,0.1
				l0,0l0.2,0.1l0.4,0l0.8,0.3l1.8,1.1l0.3,0.3l0.4,0.4l0.4,0.5l0,0l0.1,0.1l0,0.2l0.5,0.4l0.2,0.1l0.4,0.3l0.2,0.1l0.3,0.2l0.2,0.1
				l0.1,0l0.1,0l0.1,0l0.4,0.3l0.1,0.1l0.5,0.7l0,0.1l0,1.8l0,0.1l0,0.1l-0.4,0.7l-0.2,0.2l-0.4,0.2l-0.1,0l-0.1,0.1l0,0.1l0,0.1
				l-0.1,0.5l0,0.2l0.2,0.4l0.1,0.1l0.1,0.6l0.3,1.3l0,0.1l0,0.1l0.2,0.2l0,0l0.1,0l0.2,0l0.1,0l1.1,0.3l0,0l0.1,0.1l0,0.1l0.2,0.3
				l0,0l0,0.1l0,1.4l0,0.1l-0.1,0.2l-0.2,0.2l0,0.1l0,0.1l0.1,0.6l0.1,0.2l0.1,0.1l0.1,0.1l0.1,0l0.2,0l0.1,0l0.1,0.1l0.1,0.1
				l0.1,0.1l0.2,0.3l0,0.1l-0.1,0.7l0,0l-0.1,0.2l-0.3,0.5l0,0l0.1,0.1l0,1.3l-0.2,0.8l-0.7,0.9l-0.3,0.2l-0.4,0.4l-0.1,0.1v0l0,0.3
				l0,0.1l0.2,0.3l0,0.1l0,0l0.2,0.1l0.6,1.4l0.1,0.2l0.3,0.4l0.5,0.4l0.1,0l0.2,0.1l0.1,0.1l0.2,0.3l0.1,0.9l-0.2,0.6l-0.2,0.3
				l-0.2-0.2l-0.2,0.2l-0.1,0.5l0,0.1l0,0.1l-0.1,0.1l0,0l-0.7,0.1l-0.1,0l-0.1,0l0,0l-0.1-0.2l0-0.1l-0.5-0.2l-1.6,0.6l-0.1,0.1
				l0,0.1l0,0.1l0,0.1l-0.1,0l-0.8,0.1l-1,0.6l-0.7-0.2l-0.9-0.1l-0.7,0l-0.3,0l-0.1,0l-0.5,0.7l-0.3,1l-0.3,1.2l-0.6,0.8l-1.7,0.3
				l-0.1,0l-0.6,0l-0.4,0.1l-0.5,0.2l-0.2,0.1l-0.7-0.1l-0.1,0l-0.2-0.1l-0.1-0.1l-0.1,0.2l-0.7,0l-0.4,0l-0.1,0l-0.7-0.2l-1.1-0.7
				l-0.5-0.4l-0.5-0.5l-0.1-0.1l-1,0.5l-0.6,0.5l0,0l0,0.2l-0.4,0.1l-0.1,0l-0.5,0l0-0.1l-0.1-0.1l-0.3-0.4l0.2-0.8l0.1-1.2l0-0.2
				l-0.1-0.2l-0.3-0.6l-0.4-0.9l-0.1-0.2l-0.6-0.3l0,0.1l-0.1,0.1L158,109l-0.1-0.1l-0.5-0.9l1.5-1l0.1-0.1l0.3-0.6v0l0-0.1
				l-0.1-0.2l-0.1-0.1l-0.1-0.1l-0.7-2.6l0-0.1l0,0l0.4-0.1l0-0.1l0-0.1l-0.2-0.2l-0.1-0.1l-0.2,0l0,0.1l-0.1,0l-0.5,0.2l-0.5,0l0,0
				l-0.1,0l-0.7-0.7l-1.1-0.6l-0.2,0.1l-0.1,0l-0.5-0.1l-1.1-0.6l-0.1-0.3l-0.1,0l-0.4-0.2l-0.4-0.2l-0.2-0.1l-0.4-0.2l-0.2,0
				l-0.1,0.1l0,0.3l-0.4,0.3l-0.2,0l-0.9-0.1l-1.6-0.6l-1-0.6l-0.4-0.4l-0.6-0.8l-0.5-0.7l-0.7-0.8l0.4-0.9l-0.1-0.9l0.1-0.6l0-0.1
				l0.1-0.4l0.3-0.6l0,0l0.1,0l0.3-0.5l-0.1-0.8L146,91l0-0.4l0.2-0.5l0.1-0.2l0.1-0.2l-0.1-0.7l-1.2-0.4l0,0.2l0,0l-0.1,0.1
				l-0.3,0.1l-0.3,0l-0.2-0.2l-0.4-0.5l0,0l0-0.2l0.4-1.6l0.2-0.4l0.1,0l0.1,0l0.4-0.3L145,85l0-0.1l-0.1-0.2l-0.3-0.4l-0.3-0.5l0,0
				l0.1-1l0.1-0.3l0.2-0.3l0.3-0.2l0-0.4l-0.3-1.1l0-0.1l-0.1-0.1l-0.3-0.1l-0.3,0.2l-0.2,0.1l-0.4,0.1l-0.2-0.4l0-0.2l0.1-0.1l0,0
				l-0.2,0.2l-1.8,0.2l-0.1,0l-1.2-0.4l-0.8-0.3l-0.1,0l0,0l-0.1-0.1l0-0.1l0,0l0-0.1l0.1-0.1l0.1-0.1l0,0l0-0.1l0-0.1l0-0.1l0-0.1
				l-0.1-0.1l-1.2-0.7l0,0l-0.1,0l-0.1,0l-0.1,0l0,0l-0.2,0.1l-0.2,0.1l-0.1,0l-0.1,0l0,0l-0.8-0.6l-0.1-0.1l0-0.1l0-0.1l0-0.1
				l0.2-0.3l0,0l0,0l0-0.1l0,0l-0.1,0l0,0l-0.1,0l-0.1,0l-0.3,0.1l-0.1,0l-1-0.2l-0.1,0l-0.1-0.1l-0.3-0.3l-0.2-0.2l-0.1-0.1l-0.1,0
				l-0.1,0l-0.1,0l-0.5,0.1l-0.1,0l-0.1,0l-0.2,0.2l-0.4,0.2l-0.1,0l-0.1,0l-0.1,0l-0.7-0.7l-0.3-0.3l0,0l0-0.1l0-0.3l1.3,0.1
				l0.6-0.5l0.8-0.1l0.2,0.1l0,0.1l0.1,0.1l0.4,0.1l0.3,0l0.2-0.1l0.1-0.2l0.1-0.6l-0.2-0.9L136,72l0.1-0.1l0.6,0l0.2,0l0.4,0.2
				l0.2,0.3l0.1,0l1.2-0.3l0-0.1l0,0l0-0.1l-0.2-0.4l0.7-0.1l1.1-0.4l0.1-0.1l0.8-0.6l0.1-0.1l0-0.4l0.5-0.7l0.3,0.1l0.4,0.1
				l0.3-0.1l1.2-0.3l0.1,0l0.9,0.7l0.4,0.1l0.1,0.1l0.1,0l0.2,0.1l0.4,0.2l0.2,0.2l0.1,0.3l0.6,0.6l0.7-0.1l0,0l0-0.1l0.4-0.1
				l1.7,0.2l0.2,0l0.8,0.7l0.6,0.6l0.1,0.2l0.3,0l0.2-0.1l0.3-0.1l0,0l0,0l0.4-0.1l1.6,0l0.2,0l0,0l0,0.1l0,0l-0.2,0.1l-0.2,0.2
				l-0.1,0.1l0,0l0,0l0.5,0.2l0,0l0.1,0l1.6-1.7l0.1-0.1l0.5-0.2l0,0l0.4-0.1l0.1,0.1l0.1,0.1l0.2,0.4l0,0l0.3,0.1l0.1-0.2l0-0.2
				l0-0.1l0-0.3l0-0.2l0.1-0.1l0.4-0.4l0.2-0.1l0.8,0l0,0l0.1,0.1l0,0l0,0.2l0.2,0.4l0.1,0l0.2-0.1l1.1-1.1l0.5-0.6l0,0l0,0
				l-0.1-0.4l-0.1-0.3l0.1-0.4l0.3-0.6l0-0.1l1.5-1.4l0.2-0.2l0.4-0.3l0.6,0l0.6-0.5l-0.3-0.3l0-0.3l0-0.1l0.1-0.4l0-0.1l0.1-0.1
				l0.1,0l1.1,1.3l0.2,0.7l0.3,0.7l0.4,0.1l0.1-0.1l0.8-0.1l0.6,0.1l0.9,0l0.2-0.3l1.4,0.1l0.2,0.1l0.1,0.2l0.1,0.6l0,0.1l-0.1,0.4
				l0,0.1l-0.1,0.2l-0.2,0.4l-0.2,0.2l-0.2,0.3L171,69l-0.2,0.1l-0.4,0.4l-0.1,0.2l0,0.1l0,0.3l0.2,0l1.3,0l0.6-0.1l0.2-0.1l0.5-0.6
				l0.1-0.4l0-0.2l1.1-0.5L174.6,68.4L174.6,68.4z M161.3,84.8l-0.1,0.2l-0.1,0.2l-0.1,0.1l-0.1,0l-0.1,0l-0.2,0l-0.2,0l-0.3-0.1
				l-1.3,0l-0.3,0.5l0,0l0,0.1l0.1,0.1l0.1,0.1l0,0l0,0l0,0.1l-0.2,0l-0.1,0l-0.3-0.1l-0.1-0.1l-0.1,0l-0.4,0.3l0,0.1l-0.1,1.4
				l0,0.1l0.4-0.1l0.4,0.3l-0.5,0.7l-0.1,0.1l-0.1,0.2l-0.1,0.1v0.3l0.1,0.1l0.1,0.2l-0.1,0.2l-0.1,0.1l-0.2,0.1l0,0.2l0.1,0
				l0.5,0.3l0.4,0l0.1,0l-0.1,0l0-0.1l0.5-0.3l0.4-0.1l0,0l0.3,0l0.8,0.2l0.2,0.3l0.4-0.2l0.7,0.6l0.5,0l-0.1-0.7l0,0l0,0l0.4-0.2
				l0.2-0.1l0.1,0l0.2,0.4l0.9,0.3l1.6,0.4l0.3,0.1l0.4-0.1l0.1-0.2l0-0.1l0-0.1l-0.1,0l-0.1,0l0-0.1l0.4-0.3l0.2-0.4l0.2-0.6
				L166,89l-0.2,0l-0.6-0.4l-0.4-0.1l-0.2-0.7l-0.4-0.8l-0.8-0.8l-1-2l-0.2-0.1l-0.2,0.1l-0.1,0.2l-0.1,0.3l-0.1,0.3l-0.1,0
				l-0.2-0.1L161.3,84.8z"/>
			<path id="Berlin_8_" class="st31" d="M161.3,84.8l0.1,0.1l0.2,0.1l0.1,0l0.1-0.3l0.1-0.3l0.1-0.2l0.2-0.1l0.2,0.1l1,2l0.8,0.8
				l0.4,0.8l0.2,0.7l0.4,0.1l0.6,0.4l0.2,0l0.3,0.4l-0.2,0.6l-0.2,0.4l-0.4,0.3l0,0.1l0.1,0l0.1,0l0,0.1l0,0.1l-0.1,0.2l-0.4,0.1
				l-0.3-0.1l-1.6-0.4l-0.9-0.3l-0.2-0.4l-0.1,0l-0.2,0.1l-0.4,0.2l0,0l0,0l0.1,0.7l-0.5,0l-0.7-0.6l-0.4,0.2l-0.2-0.3l-0.8-0.2
				l-0.3,0l0,0l-0.4,0.1l-0.5,0.3l0,0.1l0.1,0l-0.1,0l-0.4,0l-0.5-0.3l-0.1,0l0-0.2l0.2-0.1l0.1-0.1l0.1-0.2l-0.1-0.2l-0.1-0.1v-0.3
				l0.1-0.1l0.1-0.2l0.1-0.1l0.5-0.7l-0.4-0.3l-0.4,0.1l0-0.1l0.1-1.4l0-0.1l0.4-0.3l0.1,0l0.1,0.1l0.3,0.1l0.1,0l0.2,0l0-0.1l0,0
				l0,0l-0.1-0.1l-0.1-0.1l0-0.1l0,0l0.3-0.5l1.3,0l0.3,0.1l0.2,0l0.2,0l0.1,0l0.1,0l0.1-0.1l0.1-0.2L161.3,84.8z"/>
			<path id="Bayern_8_" class="st31" d="M141.9,136.8l0.2,0l0.2,0.1l0.6,0.6l0,0.1l-0.1,0.4l-0.1,0.4l0.1,0.1l0.3,0l1,0.3l0.4,0.2
				l0.1,0.1l0.3,0.3l0.3,0.6l0,0l0,0l-0.2,0.1l-0.2,0.1l-0.1,0.1l-0.2,0.3l0,0.1l0.3,0.3l0.7,0.4l0.1,0l0.3,0.3l0.3,0.4l0.2,0.5
				l0,0.1l0,0.1l-0.2,0.1l-0.1,0.2l0,0.1l0,0.3l0.1,0.3l0,0l0.1,0.1l0,0l0.2,0l0.1,0l0.2,0.2l0.3,0.4l-0.1,0.5l0.9,0.1l0.7,0.8
				l0.9,0.5l0.4,0l0.2,0l0.3,0.2l0.1,0.2l0.6,1.1l0,0.8l-0.1,0.1l-0.1,0.2l-0.5,0.9l-0.1,0.4l-0.1,0.8l0,0.2l-1,0.7l0,0.1l0,0.1
				l0.1,0.3l0.1,0.2l0.4,0.6l0,0l0,0l0.1,0l1,0.3l0,0l0.1,0.4l0.2,1.2l0.6,1.3l0.2,0.3l0.1,0.1l-0.1,0.1l0.2,0.1l0.3,0.1l0.1,0
				l0-0.1l0,0l0.1,0l0.1,0.1l0,0l0,0.3l0,0.5v0.1l0,0l-0.1,0.2l0.4,0.6l1.5,1.2l0.1,0.3l0,0.2l0.3,0.6l0.1,0.1l0.3,0.1l1.1,0.2
				l0.2,0l0,0l0-0.1l-0.1-0.1l0-0.2l0.1,0l0.2,0l0.7,0.1l0.1,0l0.3,0.2l0.5,0.4l0.5,0.6l1.3,1.8l0.2,0.3l0.4,0.3l0.2,0.2l0.1,0
				l0.1,0l0,0.7l0.2,0.2l0.2,0.2l0.2,0.1l0.4,0.2l0.1,0l0.2-0.1l0.3-0.1l0.1,0l0.1,0l0.6,0.4l0.3,0.2l0.7,0.8l0.1,0.2l0.1,0.5l0.2,1
				l0.2,0.2l1,0.7l0,0l0.1,0l0-0.2l0-0.1l0-0.1l0-0.2l0.3-0.1l0.8,0l0.1,0l0,0l0.6,0.6l0.2,0.3l0.2,0.4l0.1,0.3l0.3,0.3l0.1,0l0.2,0
				l0.4,0l0.1,0l0.1-0.1l0.1,0l1.3,1.9l0.3,0.6l-0.1,0.5l-0.2,0.5l-0.2,0.4l0.3,0.5l0.3,1.3l0,0.4l-0.3,1l-1,1.5l0,0l-0.3-0.1
				l-0.7-0.3l-0.1,0l-1.1-0.7l-1.2-0.5l-0.1,0.4l0,0.1l-0.2,0.2l-0.2,0.2l-0.1,0.1l-0.4,0.1l0.2,0.2l0,0l0.2,0.6l0,0l-0.3,0.9
				l-0.1,0.1l-0.1,0.2l0,0.1l0,0l0.2,0.3l0,0.1l0,0.1l0,0.1l-0.3,1.1l0,0.1l0,0.1l-0.1,0.1l-1.1,1.2l-0.1,0.1l-0.9,0.6l-0.1,0
				l-0.1,0l-1.1,0l-0.6,0.4l-0.1,0l-0.2,0l-0.3,0l-0.1,0l-0.1,0l-0.9,0.5l-0.1,0.1l-0.1,0.1l0,0.1l-0.1,0.2l0,0.1l-0.5,0.6l-0.1,0.1
				l-0.1,0.1l-0.1,0l-0.1,0l-0.4,0l-0.6,0.1l0,0l-0.1,0l0,0.1l0,0l0,0.2l0,0.1l-0.2,0.5l-0.2,0.2l0,0l-0.5,0.4l-0.6,0.5l-0.1,0.1
				l0,0l0,0.1l0.1,0.4l0,0.2l0.1,0.2l0.1,0.2l0.6,0.5l0.5,0.4l0.2,0.2l0.1,0.1l0.1,0.1l0,0.1l0.2,0.8l0.1,0.1l0.1,0.1l0.5,0.1l0.1,0
				l0,0l0.2,0.3l0.5,0.8l0.6,1.1l0,0.1l0,0.1l0,0.1l-0.6,1l-0.8,1.7l0,0l0,0l0.1,0.1l0.2,0.1l0.8,0.1l0.2,0l0.1,0l0.2-0.1l0,0l0,0
				l0,0l0.1-0.1l0,0l0.1,0l0.4,0.2l0.1,0l0.3,0.4l0.5,1.2l0,0.1l0,0.2l-0.1,0.1l-0.3,0.3l-0.4,0.6l0,0.2l-0.1,1l0,0l0,0l0.1,0.1
				l0.1,0l0.1,0.1l0,0.1l0,0.5l0,0.2l-0.6,0.7l0,0l0,0l-0.6-0.2l-0.2-0.1l-0.7-0.4l-1.7-1.2l-0.2-0.2l-0.2-0.3L157,202l0-0.1
				l0.2-0.4l0.2-0.2l-0.6-1.3l-0.3-0.1l-0.9-0.2h-0.2l-0.1,0l-0.2,0l-0.9,0.2l-0.1,0l-0.1,0.2l-0.2,0.4l-1.1,0.6l-0.2,0l-0.5-0.6
				l-0.4-0.5l0-0.1l-1.2-0.1l-0.4-0.1l0,0l0-0.1l-1.1,0.4l-0.3-0.8l0.1-0.1l0.1-0.2l0-0.1l-0.1-0.1l-0.1,0l-1,0.9l0,0.8l0.3,0.6
				l0.1,0.2l0.1,0.4l0,0l0,0.1l0,0l0,0l-0.3,0.1l-0.8,0l-0.7-0.1l-0.3-0.2l-0.6,0.2l-0.8-0.1l-0.9,0.1l-0.7,0.3l-0.3,0.5l0,0l-0.2,0
				l-0.6-0.1l-2.2,0l-0.3,0l-0.4,0.3l0,0l-0.3,0.6l0,0.3l0,0.1l0,0l0,0.1l0,0.3l-0.2,0.3l-0.1,0l-1,0.2l-0.8-0.1l-0.1,0l-0.1-0.1
				l-0.1,0l-0.1,0l-0.3,0.4l0,0.1l-0.4,0.4l-1.2,1.1l-0.1,0.2l0,0.1l-0.1,0.2l-0.1,0.1l-0.2,0.1l0,0l-0.7,0.1l-0.1,0l0,0l0-0.1
				l0.2-0.4l0.2-0.2l0-0.1l0,0l-0.7,0l-0.8,0.3l-0.1,0l-0.3,0.2l-0.8,0.4l-1.2,0.1l-0.2,0l-0.3-0.1l-0.1-0.1l0-0.3l0-0.1l0,0l0.1,0
				l0.1-0.1l0-0.2l-0.4-0.4l-0.5-0.5l-0.7-0.2l0,0l-0.1-0.1l0-0.1l0-0.3l0.1-0.1l0.4-0.3l-0.3-0.4l-0.5,0.1l-0.9,0.3l-0.5-0.1
				l-1.1-0.4l0-0.1l0-0.1l0,0l0-0.1l-1.1-0.2l-0.3,0l-0.2,0.2l-0.1,0.2l0,0l-0.1,0.3l-0.1,0l-0.7,0l-0.6-0.1l-0.4-0.3l-0.1-0.1
				l0.1-0.1l0.1-0.2l0-0.2l0-0.2h-0.1l-0.5,0.1l0,0l-0.1,0.1l0,1.7l0.1,0.4l0,0l0,0l0.1,0l0.1,0.1l0.1,0.1l0,0.2l0.1,0.9l-0.9,1.2
				l-1.1,1.4l-0.3,0.3l-0.7,0.4l-0.6,0.2l-1,0.2l-0.1,0l0-0.1l0-0.1l0.1-0.2l0.1-0.2l0.6-1.4l0.1-0.2l0.2-0.2l0,0l0-0.2l-0.1-0.1
				l0,0l-0.7-0.1l-0.2,0.2l0,0.2l0,0.1l-0.1,0.1l-1,0.3l-0.4-1.1l0.1-0.2l0.1-0.1l0,0l0.2-0.2L115,206l-0.2-0.3l-0.4-0.5l-0.5-0.2
				l-0.2,0.1l-0.1,0l0,0l-0.1-0.1l-0.5-0.8l0-0.2l0-0.1l0-0.2l-0.1,0l-0.5,0.3l-0.2,0.1l-0.8,0l-0.9-0.4l0,0l0-0.1l0,0l0,0l0-0.1
				l0-0.1l0-0.4l-0.1-0.2l-0.3-0.2l0,0l-0.4,0l-0.2,0.1l-0.1,0.2l-0.6,0.8l-0.9-0.3l-0.7-0.3l-0.2-0.1l-0.1-0.2l0.6-0.5l0.3-0.2
				l0.5,0l0,0.1l0,0l0.1,0l0.1,0l0.7,0l1.2-1.3l0,0l1.1-0.1l1.2,0l0.1-0.1l0.2-0.3l0.1-0.1l0,0l0.3-0.1l0.6,0.1l0,0l0.1,0.1l0,0
				l0.2,0.8l0-0.1l0.1-0.3l0.1-0.1l0.1-0.2l0.1-0.1l0.2,0h0l0.2-0.2l0.2-0.5l0-0.1l-0.6-1.4l0-0.8l0.2,0l0.3-0.3l-0.1-0.2l-0.1-0.1
				l-0.1-0.1l-0.1-0.2l-0.1-0.6l0-0.8l0-0.1l0-0.1l0-0.4l0.1-0.3l-0.2-0.1l-0.1-0.1l-0.1-0.1l0-0.1l0-0.1l0-0.1l0-0.1l0-0.1l0,0
				l0.1,0l0.2,0l0.1,0l0-0.2l0.1-0.4l0.1-0.2l0.1-0.1l0-0.2l0.1-0.5l0-0.7l0-0.8l-0.2-0.2l-0.2-0.2l0,0l-0.1-0.1l-0.2-0.6v-0.1
				l-0.1-0.2l-0.1-0.4l0-0.2l-0.3-2l-0.2-0.2l-0.6-1l-0.2-0.3l-0.1-0.4l0.3-0.8l0,0l0.3-0.5l0.1-0.4l0-0.2l-0.1-0.1l0.4,0l0.7-0.4
				l0.2,0.2l0.3,0.3l0.5-0.1l1.1-0.9l0-0.1l-0.1-0.1l0.3-0.2l0.1,0l0.1,0l0.2,0.1h0.1l0.1,0l0.2-0.1l0-0.9l0-0.1l-0.2-1.3l-0.3-0.4
				l-0.3-0.4l-0.1-0.2l0-0.3l0-0.1l0.2-0.5l0.9,0.3l0.1,0l1.1-0.2l0.4,0l0.1,0.1l0,0l0,0.1l-0.2,0.5l-0.1,0.1l0,0l0,0.1l0,0l0.2,0
				l0.5-0.2l0.3-0.4l0.1-0.1L121,177l-0.1,0l-0.1-0.1l-0.2-0.6l0-0.2l-0.6-0.2l0,0l-0.1-0.7l0.2-0.1l0.3-0.7l0,0l0.1-1.2l0-1.4
				l-0.1-0.4l-0.1-0.1l0,0L120,171l-0.2-0.4l0-0.1l-1.4-1l-0.9-0.4l0-0.2l0-0.2h0l0.1,0l-0.3-1.5l-0.5-0.8l-0.4-0.2l-0.3-0.2
				l-0.6-0.4l-0.1-0.1l0,0l0-1.4l0.2-0.6l-0.1-0.2l-0.4-1l0-0.1l0-0.1l0.1-0.8l0.1-0.1l0.5,0l0.2-0.1l0.1-0.1l0,0l-0.1-0.4l-0.3-0.5
				l-0.3-0.9l0,0l-0.2-0.3l0-0.1l0,0l0.1-0.1l0.1-0.1l-0.1-0.3l-0.2-0.4l-0.1-0.2l-0.3,0l-0.1,0l-0.3,0.3l0,0l0.1,0.1l0.1,0.1l0.1,0
				l-0.1,0.2l0,0l-0.5,0.5l-0.1,0l-0.9,0.1l-0.3-0.1l0,0l-0.2-0.2l0-0.2l0.1-0.1l0-0.1l0,0l0-0.9l0-0.2l0,0l-0.2-0.5l0-0.1l-0.1,0
				l-0.1,0l-0.1,0l-0.4-0.6l-0.1-0.2l-0.5-1.9l-0.2-0.2l-0.4-0.4l-0.2,0.1l-0.9,0.3l-0.6,0.3l-0.2,0.1l-0.1,0l-0.3-0.2l-0.1-0.2
				l0.1-0.3l0,0l0.1-0.1l0-0.1l0.1-1.3l0-0.2l-0.3,0.1l-1,0.9l0,0l-0.1,0l-0.1,0l-0.6-0.4l-0.1-0.1l-0.1-0.1l0,0l0-0.1l0-0.1l0-0.1
				l0,0l-0.1-0.1l-0.1,0l-0.1,0l-0.3,0l0,0l-0.1,0.1l-0.1,0.2l-0.3-0.1l-1.3,0.1l-0.5,0.1l-0.1,0l-0.1,0l0,0.1v0.1l0.1,0.4l0.3,0.6
				l0.2,0.3l0.1,0l0.2,0l0.1,0l0-0.4l0-0.1l0.1-0.1l0.2,0.1l0.2,0.4l0.1,0.4l-0.2,0.7l0.1,0.1l0,0.1l-0.2,0.2l-0.3,0.1l-0.5-0.2
				l-0.7-0.1l-0.3,0.4l-0.2,0.3l0.1,0.2l0,0.1l-0.5,0.7l-0.1,0.1l-0.3,0.1l-0.1,0l-0.3,0.1l-1.1,0l0,0l-0.2-0.1l-0.2-0.4l0.2-1.6
				l0.3-0.8l0.1-0.1l0.4-1l-0.3-1.2l0,0l-0.1,0l-0.2,0l-0.1,0l-1-1l-0.1-0.1l0-0.1l0-0.3l0-0.1l0,0l0.2,0l-0.2-0.2l0-0.1l-0.1-0.7
				l0-0.5l0-0.6l-0.1-0.7l0,0l-0.1-0.1l0.4-0.2l-0.1-0.9l0-0.1l-0.1-0.1l0,0l-0.1,0l-0.1,0l-0.1,0l-0.3-0.3l0.1-0.3l0.1-0.6l0.2-0.3
				l0.1-0.1l0,0l3-0.8l2.2,0.4l0.1,0l0,0l0.4,1l0.1,0.1h0l0.3,0l1.1-0.2l0.1-0.3v-0.2l-0.1-0.2l-0.1-0.3l-0.2-0.9l0.1-0.8l0.3-0.6
				l0.2,0.1l0.7,0.2l0.2,0l0.4,0l0,0l0-0.1l0.2-0.5l0.2-0.3l0.1-0.1l0,0l0.4-0.1h0.2l0,0l0.2-0.1l0.4-0.3l0.2-0.2l0.1-0.2l0-0.1
				l0-0.2l0-0.4l-0.1-0.1l-0.2-0.2l0.2-0.1l0-0.1l0.1-0.5l0.1-0.4l0.8-0.2l0.2,0.1l0.5,0.2l0.3,0l0.3-0.1l0.3-0.2l0.3-0.2l0.4-0.2
				l0.8-0.9l0.2-0.3l0.1-0.3l0.1-0.4l0-0.2l0.1,0l0.1,0l0.2-0.2l0.4-0.5l1.5-0.2l0.1,0l0.4,0.5l0.3,0.4l1.1,0.4l0.1,0.1l0.1,0.1
				l0.5,1.2l0.1,0.5l0,0.1l0.1,0.2l0,0l0.4,0l0.2-0.1l0.2-0.1l0.1,0.2l0.1,0.3l0.5,0.6l0.9,0.3l0.7,0.2l-0.1,0.6l-0.1,0.8l0.1,0.6
				l0.1,0.3l0,0.1l0.4,0.1l1.2,0.4l0.1,0l0,0l0.1-0.2l0-0.4l0,0l0-0.4l0,0l0.1,0l0.1,0l0.5,0.1l0.6,0.1l0.1,0l0.2,0l0.2-0.1l0,0
				l0-0.1l0-0.3l-0.1-0.1l-0.1-0.1l-0.3-0.1l-0.1,0l0,0l-1.2-0.9l-0.1-0.1l0-0.1l0-0.7l0-0.2l1.7-0.7l1.5,0h0l0,0l0.1,0.1l0.3,0.5
				l0.3,0.3l0.8,0.1l0.1,0l0.3-0.1l0.3-0.1l0.1-0.3l0,0l0.2,0l0.2,0l0.4,0.3l0.3,0.5l0,0.1l-0.1,0l-0.1,0.1l-0.1,0.1l-0.1,0.1l0,0.1
				l0,0.1l0,0l0.2,0.2l0.5,0.5l0.2,0l0,0l0.2-0.4l0.7-0.1l0.5-1.5v0l-0.3-1.7l-0.1-0.2l-0.1,0l-0.2-0.1l0-0.5v0l0-0.1l0-0.1l0.1,0
				l0.1,0l0,0l0.3-0.2l0.5-0.4l0-0.2l0.2-0.3l0,0l0.4,0l0.8,0.2l0.1,0l0.1,0.1l0.1,0.2v0l-0.1,0.2l0,0l-0.1,0l-0.1,0.1l0,0.4l0,0.5
				l0,0.1l0,0l0.4,0.3l0.4,0l0.1,0.5l0.1,0.3l0.4,0.4l0.1,0.1l0.4-0.1l0.1-0.1l0,0l0-0.2l0-0.1l0,0l0.3-0.1l0.1,0l0.1,0l0.1,0.1
				l0.1,0.1l0.1,0h0l2.8-0.4l0.9-0.3L141.9,136.8z"/>
			<path id="Baden__x26__Württemberg_8_" class="st31" d="M100.1,156.6l0.2,0.1l0,0l1.1,0l0.3-0.1l0.1,0l0.3-0.1l0.1-0.1l0.5-0.7
				l0-0.1l-0.1-0.2l0.2-0.3l0.3-0.4l0.7,0.1l0.5,0.2l0.3-0.1l0.2-0.2l0-0.1l-0.1-0.1l0.2-0.7l-0.1-0.4l-0.2-0.4l-0.2-0.1l-0.1,0.1
				l0,0.1l0,0.4l-0.1,0l-0.2,0l-0.1,0l-0.2-0.3l-0.3-0.6l-0.1-0.4v-0.1l0-0.1l0.1,0l0.1,0l0.5-0.1l1.3-0.1l0.3,0.1l0.1-0.2l0.1-0.1
				l0,0l0.3,0l0.1,0l0.1,0l0.1,0.1l0,0l0,0.1l0,0.1l0,0.1l0,0l0.1,0.1l0.1,0.1l0.6,0.4l0.1,0l0.1,0l0,0l1-0.9l0.3-0.1l0,0.2
				l-0.1,1.3l0,0.1l-0.1,0.1l0,0l-0.1,0.3l0.1,0.2l0.3,0.2l0.1,0l0.2-0.1l0.6-0.3l0.9-0.3l0.2-0.1l0.4,0.4l0.2,0.2l0.5,1.9l0.1,0.2
				l0.4,0.6l0.1,0l0.1,0l0.1,0l0,0.1l0.2,0.5l0,0l0,0.2l0,0.9l0,0l0,0.1l-0.1,0.1l0,0.2l0.2,0.2l0,0l0.3,0.1l0.9-0.1l0.1,0l0.5-0.5
				l0,0l0.1-0.2l-0.1,0l-0.1-0.1l-0.1-0.1l0,0l0.3-0.3l0.1,0l0.3,0l0.1,0.2l0.2,0.4l0.1,0.3l-0.1,0.1l-0.1,0.1l0,0l0,0.1l0.2,0.3
				l0,0l0.3,0.9l0.3,0.5l0.1,0.4l0,0l-0.1,0.1l-0.2,0.1l-0.5,0l-0.1,0.1l-0.1,0.8l0,0.1l0,0.1l0.4,1l0.1,0.2l-0.2,0.6l0,1.4l0,0
				l0.1,0.1l0.6,0.4l0.3,0.2l0.4,0.2l0.5,0.8l0.3,1.5l-0.1,0h0l0,0.2l0,0.2l0.9,0.4l1.4,1l0,0.1l0.2,0.4l0.3,0.3l0,0l0.1,0.1
				l0.1,0.4l0,1.4l-0.1,1.2l0,0l-0.3,0.7l-0.2,0.1l0.1,0.7l0,0l0.6,0.2l0,0.2l0.2,0.6l0.1,0.1l0,0l0.1,0.1l-0.1,0.1l-0.3,0.4
				l-0.5,0.2l-0.2,0l0,0l0-0.1l0,0l0.1-0.1l0.2-0.5l0-0.1l0,0l-0.1-0.1l-0.4,0l-1.1,0.2l-0.1,0l-0.9-0.3l-0.2,0.5l0,0.1l0,0.3
				l0.1,0.2l0.3,0.4l0.3,0.4l0.2,1.3l0,0.1l0,0.9l-0.2,0.1l-0.1,0h-0.1l-0.2-0.1l-0.1,0l-0.1,0l-0.3,0.2l0.1,0.1l0,0.1l-1.1,0.9
				l-0.5,0.1l-0.3-0.3l-0.2-0.2l-0.7,0.4l-0.4,0l0.1,0.1l0,0.2l-0.1,0.4l-0.3,0.5l0,0l-0.3,0.8l0.1,0.4l0.2,0.3l0.6,1l0.2,0.2l0.3,2
				l0,0.2l0.1,0.4l0.1,0.2v0.1l0.2,0.6l0.1,0.1l0,0l0.2,0.2l0.2,0.2l0,0.8l0,0.7l-0.1,0.5l0,0.2l-0.1,0.1l-0.1,0.2l-0.1,0.4l0,0.2
				l-0.1,0l-0.2,0l-0.1,0l0,0l0,0.1l0,0.1l0,0.1l0,0.1l0,0.1l0.1,0.1l0.1,0.1l0.2,0.1l-0.1,0.3l0,0.4l0,0.1l0,0.1l0,0.8l0.1,0.6
				l0.1,0.2l0.1,0.1l0.1,0.1l0.1,0.2l-0.3,0.3l-0.2,0l0,0.8l0.6,1.4l0,0.1l-0.2,0.5l-0.2,0.2h0l-0.2,0l-0.1,0.1l-0.1,0.2l0,0.1
				l-0.1,0.3l0,0.1l-0.2-0.8l0,0l-0.1-0.1l0,0l-0.6-0.1l-0.3,0.1l0,0l-0.1,0.1l-0.2,0.3l-0.1,0.1l-1.2,0l-1.1,0.1l0,0l-1.2,1.3
				l-0.7,0l-0.1,0l-0.1,0l0-0.1l0-0.1l-0.5,0l-0.3,0.2l-0.6,0.5h-0.5l-0.2,0l-0.1,0l-0.1,0l-0.3-0.4l-0.2-0.4l0-0.2l-0.1-0.2
				l-0.1-0.2l-0.1-0.1l-1.1-0.4l-0.2-0.1l-0.1,0l-0.1,0l-0.3,0l-0.1,0l-0.1,0.1l-0.1,0l-0.1,0l-0.1,0l-0.2-0.1l-0.5-0.2l-0.6-0.4
				l-0.2-0.2l-0.2-0.2l-0.1-0.2l0-0.1l0-0.2l0,0l0-0.1l0,0l-0.1-0.1l-1.7-1.1l-0.5-0.3l-0.1,0l-0.1-0.1l-0.1-0.1l-0.3-0.1l-0.1,0.1
				l-0.1,0.1l0,0l0,0.1l0.6,0.6l0.2,0.1l0.1,0.1l0.7,0.5l0,0l0.1,0l0.1,0l0.4,0.3l0.6,1.2l0.1,0.4L101,201l-0.3,0l-0.6-0.2l-0.5-0.3
				l-0.1-0.1l-0.1,0l-0.6-0.1l-0.1,0l-0.4,0l-0.1,0l-0.1,0l-0.3,0.1l-0.3,0.1l-0.1,0.1l-0.1,0.1l-0.2,0.1l-0.3,0.1l-0.7,0.2h0
				l-0.3-0.2l-1-0.9l-0.2,0.4l-0.1,0l-0.1-0.1l-0.9-0.4l0-0.1l-0.2-0.8l0.1-0.2l0.1-0.2l-0.3-0.4l-0.4-0.3l-0.5-0.2l0.1,0.3
				l-0.1,0.1l0,0.1l-0.2,0.1l-0.1,0l-0.1-0.2l-0.1-0.8l-0.6-0.1l-0.2,0.2l-0.1,0.3l-0.7,0.2l-0.3,0.1l-0.2,0.2l-0.3,0.3l-0.7,1.3
				l-0.1,0.5l0,0l0.1,0.2l0.9,0.6l0,0l0.9-0.4l0-0.1l0.1-0.1l0.3-0.1l0.1,0l0.6,0l0.1,0l0.1,0l0.3,0.5l0,0.1l-0.1,0.2l-0.3,0.7
				l-0.2,0.2l-0.1,0.1l-0.2,0l-0.1-0.1l0-0.2l0.1,0l0,0l0-0.1l0,0l-0.2-0.2l-0.3-0.1l0,0l-0.3-0.1l-0.8,0.7l0.3,0.4l0.1,0.1l0,0
				l-0.1,0.1l-0.3,0.1l-0.4,0.1l-0.1,0l-1.5-0.1l-0.1,0l0,0l-0.1,0l-0.4-0.3l0-0.1l0-0.1v-0.1l0-0.2l0,0l0,0l-0.1-0.1l-0.4-0.1
				l-0.7-0.1l-0.1,0l-0.1,0l0,0l-1.4,0.8l-0.1,0.1l0,0.1l0,0.1l0,0.2l0,0.1l-0.1,0.1l-0.1,0l-1,0.1h0l-0.9-0.2l-0.8-0.3l-0.2-0.4
				l0,0l-0.1,0l-0.1,0l-0.8,0l-0.3,0.3l0,0.1l-0.2,0.2l-0.1,0.1l-0.6,0.2l-0.9,0.2l-0.1,0l-0.2,0l-0.2-0.1l0,0l-0.3-0.3l-0.2-0.2
				l0.1,0l0.1,0l0.6-0.2l0-0.1l0-0.2l-0.1-0.2l-1.3-0.3l-1-1.3l0-0.1l0-0.1l0-0.1l-0.1-0.6l0-0.1l0,0l0.4-0.3l0.1-0.1l0.1-0.1
				l0.1-0.1l0-0.2l0-0.1l0-0.1l-0.2-0.6l0-0.1l0-0.2l0-0.1l0.2-0.5l0.3-0.6l0.1-0.2l0-0.1l0-0.1l-0.1-0.2l0-0.1v-0.2l0-0.1l0.4-1.1
				l0.4-0.6l0.1-0.2l0.1-0.2l0-0.1l0-0.1l-0.1-0.3l-0.1-0.1l-0.1-0.2l-0.5-0.6l0-0.1l0-0.1l0-0.1l0-1l0-0.1l0.1-0.7l0-0.1l0-0.1
				l0.4-0.8l0-0.1l0.5-0.6l0.5-0.7l0-0.1l0.1-0.2l0.2-0.5l0.2-0.8l0-0.1l0.1-0.1l0.1-0.1l0.1-0.1l0.4-0.1l0.1-0.1l0,0l0,0l0-0.1
				l0-0.1l0-0.1l-0.2-0.9l0-0.2v-0.1l0-0.2l0-0.1l0-0.1l0.5-1.2l0.5-1.1l0.1-0.1l0.1-0.2l0-0.1l0-0.1l0-0.8l0-0.2l0-0.2l0-0.1l0-0.1
				l0-0.1l0.6-1.2l0-0.1l0.1-0.1l0.3-0.1l0.3-0.2l0.1-0.1l1.1-1.2l0.2-0.8l0-0.1l0,0l0.1,0l0.1,0l0.6-0.1l0.8-0.6l0.2-0.2l0.2-0.2
				l0.1-0.1l0.1-0.1l0-0.2l0.1-0.3l0.1-0.3l0.1-0.4l0.1-0.2l0.1-0.2l0.2-0.4l0.8-1.2l0.1-0.1l0.1,0l0.5-0.1l0.1-0.1l0.4-0.3l0.2-0.2
				l0.1-0.1l0.1-0.1l0.1-0.1l0.1-0.2l0-0.1l0-0.1l0-0.3l0-0.2l0.1-0.3l0.1-0.1l0.2-0.2l0.2-0.2l0,0l0.2-0.2l0.1-0.2l0-0.1l0.5-2.3
				l0-0.4l0,0h0l0,0l0-0.2l0-0.1l0.1-0.1l0.1-0.1l0.1-0.1l0.1-0.1l0.3-0.2l0.1-0.1l0.4-0.4l0.3-0.2l0,0l0-0.1l0-0.1l-0.1-0.1
				l-0.1-0.1l-0.1,0l-0.2-0.1l0,0l0,0l0-0.1l0-0.1l0,0l0-0.1l0.1-0.1l0.1-0.1l0.1-0.1l0.1-0.1l0.1-0.1l0.1-0.2l0.1-0.2l0.1-0.2
				l0-0.1l0-0.2l0-0.5l0.2-0.5l0-0.1l0-0.1l-0.1-0.1l-0.1,0l-0.1,0l-0.2,0l-0.1,0l-0.1,0l-0.1,0l-0.1,0l0,0l0-0.1l0-0.1l0-0.1
				l0.1-0.1l0.1,0l-0.1-0.7l0-0.1l-0.2-1l-0.1-0.2l0-0.1l0-0.1l0-0.1l0-0.1l0.1-0.2l0-0.3l0,0l0.2-0.1l0.1,0l0.1,0l0.2,0l0.1,0.1
				l0.3,0.3l0.5,0.6l0.1,0.3l0.1,0.2l0.2,0.2l0.1,0l0.1,0l0.2,0l0.4-0.3l0.1-0.2l0-0.1v-0.1l-0.2-0.9l-0.1,0l0-0.1l0-0.2l0.1-0.1
				l0.4-0.1l0.9-0.2l0.2,0.1l0,0.1l-0.1,0.2l0,0l-0.1,0l0,0l-0.1,0l0.4,1.7l0.3,0.2L95,158l0.1,0l1.5,0.3h0.5l0,0.1l0,0.3l-0.5,0.5
				l-0.5,0.2l-0.4,0.8l-0.1,0.2l0.1,0.2l0.1,0.1l0.1,0l0.4,0l0,0l0.1,0l1.5-1.3l-0.1-0.2l-0.2-0.2l0-0.1l0.1-0.2l0.4-0.4l0.2-0.2
				l0.1,0l1.3-0.4l0.3,0.1l0.3,0.4l0.2-0.1l0.1-0.1l0-0.1l-0.1-0.3l-0.1-0.1l-0.4-0.2l0.1-0.1l0-0.1l0.1-0.2l0,0L100.1,156.6z
				 M93.6,200l-0.2-0.4l-0.1,0l-0.6,0l0.1,0.5l0.1,0.1l0.5,0l0.2,0L93.6,200z"/>
		</g>
		<g>
			<path class="st5" d="M137,108.8c0,1.5-1.2,2.7-2.7,2.7c-1.5,0-2.7-1.2-2.7-2.7c0-1.5,1.2-2.7,2.7-2.7
				C135.8,106,137,107.2,137,108.8"/>
			<path class="st5" d="M134.3,115.5c0,1.5-1.2,2.7-2.7,2.7c-1.5,0-2.7-1.2-2.7-2.7c0-1.5,1.2-2.7,2.7-2.7
				C133.1,112.8,134.3,114,134.3,115.5"/>
			<path class="st5" d="M134.3,101.8c0,1.5-1.2,2.7-2.7,2.7c-1.5,0-2.7-1.2-2.7-2.7c0-1.5,1.2-2.7,2.7-2.7
				C133.1,99.1,134.3,100.3,134.3,101.8"/>
			<path class="st4" d="M127.7,115.3c0,1.5-1.2,2.7-2.7,2.7c-1.5,0-2.7-1.2-2.7-2.7c0-1.5,1.2-2.7,2.7-2.7
				C126.5,112.6,127.7,113.8,127.7,115.3"/>
			<path class="st4" d="M128.8,108.8c0,1.5-1.2,2.7-2.7,2.7c-1.5,0-2.7-1.2-2.7-2.7c0-1.5,1.2-2.7,2.7-2.7
				C127.6,106,128.8,107.2,128.8,108.8"/>
			<path class="st5" d="M148.1,108.8c0,1.5-1.2,2.7-2.7,2.7c-1.5,0-2.7-1.2-2.7-2.7c0-1.5,1.2-2.7,2.7-2.7
				C146.9,106,148.1,107.2,148.1,108.8"/>
			<path class="st4" d="M141.2,112.8c0,1.5-1.2,2.7-2.7,2.7c-1.5,0-2.7-1.2-2.7-2.7c0-1.5,1.2-2.7,2.7-2.7
				C140,110,141.2,111.3,141.2,112.8"/>
			<path class="st5" d="M100.9,109.4c0,1.5-1.2,2.7-2.7,2.7c-1.5,0-2.7-1.2-2.7-2.7c0-1.5,1.2-2.7,2.7-2.7
				C99.7,106.6,100.9,107.9,100.9,109.4"/>
			<path class="st5" d="M142.5,103.4c0,1.5-1.2,2.7-2.7,2.7c-1.5,0-2.7-1.2-2.7-2.7c0-1.5,1.2-2.7,2.7-2.7
				C141.3,100.7,142.5,101.9,142.5,103.4"/>
			<path class="st5" d="M118.8,84.4c0,1.5-1.2,2.7-2.7,2.7c-1.5,0-2.7-1.2-2.7-2.7c0-1.5,1.2-2.7,2.7-2.7
				C117.6,81.7,118.8,82.9,118.8,84.4"/>
			<path class="st4" d="M103.7,95.2c0,1.5-1.2,2.7-2.7,2.7c-1.5,0-2.7-1.2-2.7-2.7c0-1.5,1.2-2.7,2.7-2.7
				C102.4,92.5,103.7,93.7,103.7,95.2"/>
			<path class="st4" d="M103.7,81.7c0,1.5-1.2,2.7-2.7,2.7c-1.5,0-2.7-1.2-2.7-2.7c0-1.5,1.2-2.7,2.7-2.7
				C102.4,78.9,103.7,80.2,103.7,81.7"/>
			<path class="st5" d="M137.2,82.5c0,1.5-1.2,2.7-2.7,2.7c-1.5,0-2.7-1.2-2.7-2.7c0-1.5,1.2-2.7,2.7-2.7
				C135.9,79.7,137.2,81,137.2,82.5"/>
			<path class="st5" d="M146.8,66.8c0,1.5-1.2,2.7-2.7,2.7c-1.5,0-2.7-1.2-2.7-2.7c0-1.5,1.2-2.7,2.7-2.7
				C145.6,64.1,146.8,65.3,146.8,66.8"/>
			<path class="st4" d="M137.5,181.1c0,1.5-1.2,2.7-2.7,2.7c-1.5,0-2.7-1.2-2.7-2.7c0-1.5,1.2-2.7,2.7-2.7
				C136.3,178.3,137.5,179.6,137.5,181.1"/>
			<path class="st5" d="M134.7,187.8c0,1.5-1.2,2.7-2.7,2.7c-1.5,0-2.7-1.2-2.7-2.7c0-1.5,1.2-2.7,2.7-2.7
				C133.5,185.1,134.7,186.3,134.7,187.8"/>
			<path class="st4" d="M134.7,174.2c0,1.5-1.2,2.7-2.7,2.7c-1.5,0-2.7-1.2-2.7-2.7c0-1.5,1.2-2.7,2.7-2.7
				C133.5,171.4,134.7,172.6,134.7,174.2"/>
			<path class="st5" d="M128.2,187.6c0,1.5-1.2,2.7-2.7,2.7c-1.5,0-2.7-1.2-2.7-2.7c0-1.5,1.2-2.7,2.7-2.7
				C126.9,184.9,128.2,186.1,128.2,187.6"/>
			<path class="st5" d="M129.3,181.1c0,1.5-1.2,2.7-2.7,2.7c-1.5,0-2.7-1.2-2.7-2.7c0-1.5,1.2-2.7,2.7-2.7
				C128,178.3,129.3,179.6,129.3,181.1"/>
			<path class="st4" d="M148.6,181.1c0,1.5-1.2,2.7-2.7,2.7c-1.5,0-2.7-1.2-2.7-2.7c0-1.5,1.2-2.7,2.7-2.7
				C147.4,178.3,148.6,179.6,148.6,181.1"/>
			<path class="st5" d="M141.7,185.1c0,1.5-1.2,2.7-2.7,2.7c-1.5,0-2.7-1.2-2.7-2.7c0-1.5,1.2-2.7,2.7-2.7
				C140.4,182.4,141.7,183.6,141.7,185.1"/>
			<path class="st5" d="M101.4,181.7c0,1.5-1.2,2.7-2.7,2.7c-1.5,0-2.7-1.2-2.7-2.7c0-1.5,1.2-2.7,2.7-2.7
				C100.1,178.9,101.4,180.2,101.4,181.7"/>
			<path class="st4" d="M143,175.8c0,1.5-1.2,2.7-2.7,2.7c-1.5,0-2.7-1.2-2.7-2.7c0-1.5,1.2-2.7,2.7-2.7
				C141.7,173,143,174.2,143,175.8"/>
			<path class="st5" d="M119.3,156.7c0,1.5-1.2,2.7-2.7,2.7c-1.5,0-2.7-1.2-2.7-2.7c0-1.5,1.2-2.7,2.7-2.7
				C118,154,119.3,155.2,119.3,156.7"/>
			<path class="st4" d="M104.1,167.5c0,1.5-1.2,2.7-2.7,2.7c-1.5,0-2.7-1.2-2.7-2.7c0-1.5,1.2-2.7,2.7-2.7
				C102.9,164.8,104.1,166,104.1,167.5"/>
			<path class="st4" d="M104.1,154c0,1.5-1.2,2.7-2.7,2.7c-1.5,0-2.7-1.2-2.7-2.7c0-1.5,1.2-2.7,2.7-2.7
				C102.9,151.3,104.1,152.5,104.1,154"/>
			<path class="st5" d="M137.6,154.8c0,1.5-1.2,2.7-2.7,2.7c-1.5,0-2.7-1.2-2.7-2.7c0-1.5,1.2-2.7,2.7-2.7
				C136.4,152.1,137.6,153.3,137.6,154.8"/>
			<path class="st5" d="M147.2,139.1c0,1.5-1.2,2.7-2.7,2.7c-1.5,0-2.7-1.2-2.7-2.7c0-1.5,1.2-2.7,2.7-2.7
				C146,136.4,147.2,137.6,147.2,139.1"/>
		</g>
	</g>
	<g id="Layer_1">
	</g>
</g>
</svg>
