<?xml version="1.0" encoding="utf-8"?>
<!-- Generator: Adobe Illustrator 21.0.2, SVG Export Plug-In . SVG Version: 6.00 Build 0)  -->
<svg version="1.1" xmlns="http://www.w3.org/2000/svg" xmlns:xlink="http://www.w3.org/1999/xlink" x="0px" y="0px"
	 viewBox="0 0 240 240" style="enable-background:new 0 0 240 240;" xml:space="preserve">
<style type="text/css">
	.st0{fill:#F1F3F5;}
	.st1{fill:none;}
	.st2{fill:none;stroke:#B2BCC5;stroke-width:1.556;stroke-linecap:round;stroke-linejoin:round;stroke-miterlimit:10;}
	.st3{fill:none;stroke:#A1ABB4;stroke-width:2;stroke-linecap:square;stroke-linejoin:round;}
	.st4{fill:#002D5A;}
	.st5{fill:#00A5FF;}
	.st6{fill:none;stroke:#B2BCC5;stroke-width:1.25;stroke-linejoin:round;stroke-miterlimit:10;}
	.st7{fill:#F0AA00;}
	.st8{fill:#BE232D;}
	.st9{fill:none;stroke:#B2BCC5;stroke-width:1.67;stroke-linejoin:round;stroke-miterlimit:10;}
	.st10{fill:none;stroke:#002D5A;stroke-width:5;stroke-miterlimit:10;}
	.st11{fill:none;stroke:#9099A3;stroke-width:1.25;stroke-linecap:square;stroke-linejoin:round;stroke-miterlimit:10;}
	.st12{fill:none;stroke:#9099A3;stroke-width:1.25;stroke-linecap:square;stroke-linejoin:round;}
	.st13{fill:#9099A3;}
	.st14{fill:#CBD2D8;stroke:#E4E8EB;stroke-width:0.5;stroke-miterlimit:10;}
	.st15{fill:#B2BCC5;stroke:#E4E8EB;stroke-width:0.5;stroke-miterlimit:10;}
	.st16{fill:#00A5FF;stroke:#E4E8EB;stroke-width:0.5;stroke-miterlimit:10;}
	.st17{fill:#0064B4;stroke:#E4E8EB;stroke-width:0.5;stroke-miterlimit:10;}
	.st18{fill:#002D5A;stroke:#E4E8EB;stroke-width:0.5;stroke-miterlimit:10;}
	.st19{fill:#0096FA;stroke:#E4E8EB;stroke-width:0.5;stroke-miterlimit:10;}
	.st20{fill:none;stroke:#00A5FF;stroke-width:5;stroke-miterlimit:10;}
	.st21{fill:none;stroke:#9099A3;stroke-width:5;stroke-miterlimit:10;}
	.st22{fill:none;stroke:#5C666E;stroke-width:2;stroke-linejoin:round;}
	.st23{fill:#B2BCC5;}
	.st24{fill:none;stroke:#00A5FF;stroke-width:2;stroke-linecap:round;stroke-linejoin:round;stroke-miterlimit:10;}
	.st25{fill:none;stroke:#002D5A;stroke-width:2;stroke-linecap:round;stroke-linejoin:round;stroke-miterlimit:10;}
	.st26{fill:none;stroke:#002D5A;stroke-width:6;stroke-linejoin:round;stroke-miterlimit:10;}
	.st27{fill:none;stroke:#00A5FF;stroke-width:6;stroke-linejoin:round;stroke-miterlimit:10;}
	.st28{fill:#E4E8EB;}
	.st29{fill:none;stroke:#002D5A;stroke-width:5;stroke-linejoin:round;stroke-miterlimit:10;}
	
		.st30{fill:none;stroke:#B2BCC5;stroke-width:1.556;stroke-linecap:round;stroke-linejoin:round;stroke-miterlimit:10;stroke-dasharray:4,4;}
	.st31{fill:#CBD2D8;stroke:#F1F3F5;stroke-width:0.5;stroke-linejoin:round;}
	.st32{fill:#00A5FF;stroke:#D8DDE2;stroke-miterlimit:10;}
	.st33{fill:#002D5A;stroke:#D8DDE2;stroke-miterlimit:10;}
	.st34{fill:none;stroke:#D8DDE2;stroke-width:4;stroke-miterlimit:10;}
	.st35{fill:none;stroke:#6D7780;stroke-width:1.25;stroke-miterlimit:10;}
	.st36{fill:none;stroke:#D8DDE2;stroke-width:1.556;stroke-linecap:round;stroke-linejoin:round;stroke-miterlimit:10;}
	.st37{fill:#5C666E;}
	.st38{fill:#D8DDE2;}
	.st39{fill:#9099A3;stroke:#D8DDE2;stroke-miterlimit:10;}
	.st40{fill:#002D5A;stroke:#F1F3F5;stroke-width:2;stroke-miterlimit:10;}
	.st41{fill:#00A5FF;stroke:#F1F3F5;stroke-width:2;stroke-miterlimit:10;}
	.st42{fill:#A1ABB4;stroke:#F1F3F5;stroke-width:2;stroke-miterlimit:10;}
	.st43{fill:#00A5FF;stroke:#F1F3F5;stroke-miterlimit:10;}
	.st44{fill:#002D5A;stroke:#F1F3F5;stroke-miterlimit:10;}
	.st45{fill:#BFC7CE;stroke:#F1F3F5;stroke-miterlimit:10;}
	.st46{fill:#E4E8EB;stroke:#F1F3F5;stroke-miterlimit:10;}
	.st47{fill:#6D7780;stroke:#F1F3F5;stroke-miterlimit:10;}
	.st48{fill:#3B444D;stroke:#F1F3F5;stroke-miterlimit:10;}
	.st49{fill:#BFC7CE;}
	.st50{fill:#A1ABB4;}
	.st51{opacity:0.64;fill:#00A5FF;}
	.st52{opacity:0.64;fill:none;}
	.st53{opacity:0.64;fill:#0064B4;}
	.st54{opacity:0.64;fill:#002D5A;}
	.st55{opacity:0.64;fill:#0096FA;}
	.st56{fill:#1E1E1C;}
	.st57{fill:#B2BCC5;stroke:#F1F3F5;stroke-width:0.5;stroke-linejoin:round;}
	.st58{fill:#00A5FF;stroke:#F1F3F5;stroke-width:0.5;stroke-linejoin:round;}
	.st59{fill:#BFC7CE;stroke:#F1F3F5;stroke-width:0.5;stroke-linejoin:round;}
	.st60{fill:#002D5A;stroke:#F1F3F5;stroke-width:0.5;stroke-linejoin:round;}
	.st61{fill:#0064B4;stroke:#F1F3F5;stroke-width:0.5;stroke-linejoin:round;}
	.st62{fill:none;stroke:#00A5FF;stroke-width:3;stroke-miterlimit:10;}
	.st63{fill:none;stroke:#00A5FF;stroke-width:2;stroke-miterlimit:10;}
	.st64{fill:none;stroke:#00A5FF;stroke-miterlimit:10;}
</style>
<g id="Hintergrund">
	<rect x="0" class="st0" width="240" height="240"/>
</g>
<g id="Diagramme_1_">
	<g id="Diagramme">
	</g>
	<g id="Ebene_1">
		<rect x="114.2" y="89.3" class="st5" width="12.3" height="3.9"/>
		<rect x="109.8" y="93.2" class="st5" width="21.1" height="3.9"/>
		<rect x="113.3" y="97.1" class="st5" width="14.1" height="3.9"/>
		<rect x="103.6" y="101" class="st5" width="33.5" height="3.9"/>
		<rect x="114.2" y="104.9" class="st5" width="12.3" height="3.9"/>
		<rect x="113.3" y="108.8" class="st5" width="14.1" height="3.9"/>
		<rect x="108" y="112.7" class="st5" width="24.7" height="3.9"/>
		<rect x="107.1" y="116.6" class="st5" width="26.4" height="3.9"/>
		<rect x="114.2" y="120.5" class="st5" width="12.3" height="3.9"/>
		<rect x="108" y="124.4" class="st5" width="24.7" height="3.9"/>
		<rect x="115.1" y="128.3" class="st5" width="10.6" height="3.9"/>
		<rect x="113.3" y="132.2" class="st5" width="14.1" height="3.9"/>
		<rect x="111.6" y="136.1" class="st5" width="17.6" height="3.9"/>
		<rect x="118.6" y="140" class="st5" width="3.5" height="3.9"/>
		<rect x="101" y="143.9" class="st5" width="38.8" height="3.9"/>
		<rect x="116" y="147.8" class="st5" width="8.8" height="3.9"/>
		<rect x="106.3" y="151.7" class="st5" width="28.2" height="3.9"/>
		<rect x="114.2" y="155.6" class="st5" width="12.3" height="3.9"/>
		<rect x="108" y="159.5" class="st5" width="24.7" height="3.9"/>
		<rect x="107.1" y="163.4" class="st5" width="26.4" height="3.9"/>
		<rect x="112.4" y="167.3" class="st5" width="15.9" height="3.9"/>
		<rect x="110.7" y="171.2" class="st5" width="19.4" height="3.9"/>
		<rect x="104.5" y="175.1" class="st5" width="31.7" height="3.9"/>
		<rect x="106.3" y="179" class="st5" width="28.2" height="3.9"/>
		<rect x="105.4" y="182.9" class="st5" width="29.9" height="3.9"/>
		<rect x="102.7" y="186.8" class="st5" width="35.3" height="3.9"/>
		<rect x="104.5" y="190.7" class="st5" width="31.7" height="3.9"/>
		<rect x="93" y="194.6" class="st5" width="54.6" height="3.9"/>
		<rect x="116" y="198.5" class="st5" width="8.8" height="3.9"/>
		<rect x="111.6" y="202.4" class="st5" width="17.6" height="3.9"/>
		<rect x="104.5" y="43" class="st5" width="31.7" height="3.9"/>
		<rect x="108" y="46.9" class="st5" width="24.7" height="3.9"/>
		<rect x="100.1" y="50.8" class="st5" width="40.5" height="3.9"/>
		<rect x="108.9" y="54.7" class="st5" width="22.9" height="3.9"/>
		<rect x="104.5" y="58.6" class="st5" width="31.7" height="3.9"/>
		<rect x="112.4" y="62.5" class="st5" width="15.9" height="3.9"/>
		<rect x="98.3" y="66.4" class="st5" width="44.1" height="3.9"/>
		<rect x="73.7" y="70.3" class="st5" width="93.4" height="3.9"/>
		<rect x="87.8" y="74.2" class="st5" width="65.2" height="3.9"/>
		<rect x="104.5" y="78.1" class="st5" width="31.7" height="3.9"/>
		<rect x="108" y="82" class="st5" width="24.7" height="3.9"/>
		<rect x="85.1" y="85.9" class="st5" width="70.5" height="3.9"/>
		<rect x="72.8" y="89.8" class="st5" width="95.2" height="3.9"/>
		<rect x="92.2" y="93.7" class="st5" width="56.4" height="3.9"/>
		<rect x="98.3" y="97.6" class="st5" width="44.1" height="3.9"/>
		<rect x="93.9" y="101.5" class="st5" width="52.9" height="3.9"/>
		<rect x="79.8" y="105.4" class="st5" width="81.1" height="3.9"/>
		<rect x="59.6" y="109.3" class="st5" width="121.6" height="3.9"/>
		<rect x="91.3" y="113.2" class="st5" width="58.1" height="3.9"/>
		<rect x="104.5" y="117.1" class="st5" width="31.7" height="3.9"/>
		<rect x="87.8" y="121" class="st5" width="65.2" height="3.9"/>
		<rect x="73.7" y="124.9" class="st5" width="93.4" height="3.9"/>
		<rect x="44.6" y="128.8" class="st5" width="151.5" height="3.9"/>
		<rect x="54.3" y="132.7" class="st5" width="132.2" height="3.9"/>
		<rect x="91.3" y="136.6" class="st5" width="58.1" height="3.9"/>
		<rect x="87.8" y="140.5" class="st5" width="65.2" height="3.9"/>
		<rect x="60.4" y="144.4" class="st5" width="119.9" height="3.9"/>
		<rect x="71" y="148.3" class="st5" width="98.7" height="3.9"/>
		<rect x="91.3" y="152.2" class="st5" width="58.1" height="3.9"/>
		<rect x="69.3" y="156.1" class="st5" width="102.2" height="3.9"/>
		<rect x="82.5" y="160" class="st5" width="75.8" height="3.9"/>
		<rect x="14.6" y="163.9" class="st5" width="211.5" height="3.9"/>
		<rect x="50.7" y="167.8" class="st5" width="139.2" height="3.9"/>
		<rect x="56.9" y="171.7" class="st5" width="126.9" height="3.9"/>
		<rect x="71.9" y="175.6" class="st5" width="96.9" height="3.9"/>
	</g>
	<g id="Picto2">
	</g>
	<g id="Landkarten">
	</g>
	<g id="Layer_1">
	</g>
</g>
</svg>
