<?xml version="1.0" encoding="utf-8"?>
<!-- Generator: Adobe Illustrator 21.0.2, SVG Export Plug-In . SVG Version: 6.00 Build 0)  -->
<svg version="1.1" xmlns="http://www.w3.org/2000/svg" xmlns:xlink="http://www.w3.org/1999/xlink" x="0px" y="0px"
	 viewBox="0 0 240 240" style="enable-background:new 0 0 240 240;" xml:space="preserve">
<style type="text/css">
	.st0{fill:#F1F3F5;}
	.st1{fill:none;}
	.st2{fill:none;stroke:#B2BCC5;stroke-width:1.556;stroke-linecap:round;stroke-linejoin:round;stroke-miterlimit:10;}
	.st3{fill:none;stroke:#A1ABB4;stroke-width:2;stroke-linecap:square;stroke-linejoin:round;}
	.st4{fill:#002D5A;}
	.st5{fill:#00A5FF;}
	.st6{fill:none;stroke:#B2BCC5;stroke-width:1.25;stroke-linejoin:round;stroke-miterlimit:10;}
	.st7{fill:#F0AA00;}
	.st8{fill:#BE232D;}
	.st9{fill:none;stroke:#B2BCC5;stroke-width:1.67;stroke-linejoin:round;stroke-miterlimit:10;}
	.st10{fill:none;stroke:#002D5A;stroke-width:5;stroke-miterlimit:10;}
	.st11{fill:none;stroke:#9099A3;stroke-width:1.25;stroke-linecap:square;stroke-linejoin:round;stroke-miterlimit:10;}
	.st12{fill:none;stroke:#9099A3;stroke-width:1.25;stroke-linecap:square;stroke-linejoin:round;}
	.st13{fill:#9099A3;}
	.st14{fill:#CBD2D8;stroke:#E4E8EB;stroke-width:0.5;stroke-miterlimit:10;}
	.st15{fill:#B2BCC5;stroke:#E4E8EB;stroke-width:0.5;stroke-miterlimit:10;}
	.st16{fill:#00A5FF;stroke:#E4E8EB;stroke-width:0.5;stroke-miterlimit:10;}
	.st17{fill:#0064B4;stroke:#E4E8EB;stroke-width:0.5;stroke-miterlimit:10;}
	.st18{fill:#002D5A;stroke:#E4E8EB;stroke-width:0.5;stroke-miterlimit:10;}
	.st19{fill:#0096FA;stroke:#E4E8EB;stroke-width:0.5;stroke-miterlimit:10;}
	.st20{fill:none;stroke:#00A5FF;stroke-width:5;stroke-miterlimit:10;}
	.st21{fill:none;stroke:#9099A3;stroke-width:5;stroke-miterlimit:10;}
	.st22{fill:none;stroke:#5C666E;stroke-width:2;stroke-linejoin:round;}
	.st23{fill:#B2BCC5;}
	.st24{fill:none;stroke:#00A5FF;stroke-width:2;stroke-linecap:round;stroke-linejoin:round;stroke-miterlimit:10;}
	.st25{fill:none;stroke:#002D5A;stroke-width:2;stroke-linecap:round;stroke-linejoin:round;stroke-miterlimit:10;}
	.st26{fill:none;stroke:#002D5A;stroke-width:6;stroke-linejoin:round;stroke-miterlimit:10;}
	.st27{fill:none;stroke:#00A5FF;stroke-width:6;stroke-linejoin:round;stroke-miterlimit:10;}
	.st28{fill:#E4E8EB;}
	.st29{fill:none;stroke:#002D5A;stroke-width:5;stroke-linejoin:round;stroke-miterlimit:10;}
	
		.st30{fill:none;stroke:#B2BCC5;stroke-width:1.556;stroke-linecap:round;stroke-linejoin:round;stroke-miterlimit:10;stroke-dasharray:4,4;}
	.st31{fill:#CBD2D8;stroke:#F1F3F5;stroke-width:0.5;stroke-linejoin:round;}
	.st32{fill:#00A5FF;stroke:#D8DDE2;stroke-miterlimit:10;}
	.st33{fill:#002D5A;stroke:#D8DDE2;stroke-miterlimit:10;}
	.st34{fill:none;stroke:#D8DDE2;stroke-width:4;stroke-miterlimit:10;}
	.st35{fill:none;stroke:#6D7780;stroke-width:1.25;stroke-miterlimit:10;}
	.st36{fill:none;stroke:#D8DDE2;stroke-width:1.556;stroke-linecap:round;stroke-linejoin:round;stroke-miterlimit:10;}
	.st37{fill:#5C666E;}
	.st38{fill:#D8DDE2;}
	.st39{fill:#9099A3;stroke:#D8DDE2;stroke-miterlimit:10;}
	.st40{fill:#002D5A;stroke:#F1F3F5;stroke-width:2;stroke-miterlimit:10;}
	.st41{fill:#00A5FF;stroke:#F1F3F5;stroke-width:2;stroke-miterlimit:10;}
	.st42{fill:#A1ABB4;stroke:#F1F3F5;stroke-width:2;stroke-miterlimit:10;}
	.st43{fill:#00A5FF;stroke:#F1F3F5;stroke-miterlimit:10;}
	.st44{fill:#002D5A;stroke:#F1F3F5;stroke-miterlimit:10;}
	.st45{fill:#BFC7CE;stroke:#F1F3F5;stroke-miterlimit:10;}
	.st46{fill:#E4E8EB;stroke:#F1F3F5;stroke-miterlimit:10;}
	.st47{fill:#6D7780;stroke:#F1F3F5;stroke-miterlimit:10;}
	.st48{fill:#3B444D;stroke:#F1F3F5;stroke-miterlimit:10;}
	.st49{fill:#BFC7CE;}
	.st50{fill:#A1ABB4;}
	.st51{opacity:0.64;fill:#00A5FF;}
	.st52{opacity:0.64;fill:none;}
	.st53{opacity:0.64;fill:#0064B4;}
	.st54{opacity:0.64;fill:#002D5A;}
	.st55{opacity:0.64;fill:#0096FA;}
	.st56{fill:#1E1E1C;}
	.st57{fill:#B2BCC5;stroke:#F1F3F5;stroke-width:0.5;stroke-linejoin:round;}
	.st58{fill:#00A5FF;stroke:#F1F3F5;stroke-width:0.5;stroke-linejoin:round;}
	.st59{fill:#BFC7CE;stroke:#F1F3F5;stroke-width:0.5;stroke-linejoin:round;}
	.st60{fill:#002D5A;stroke:#F1F3F5;stroke-width:0.5;stroke-linejoin:round;}
	.st61{fill:#0064B4;stroke:#F1F3F5;stroke-width:0.5;stroke-linejoin:round;}
	.st62{fill:none;stroke:#00A5FF;stroke-width:3;stroke-miterlimit:10;}
	.st63{fill:none;stroke:#00A5FF;stroke-width:2;stroke-miterlimit:10;}
	.st64{fill:none;stroke:#00A5FF;stroke-miterlimit:10;}
</style>
<g id="Hintergrund">
	<rect x="0" class="st0" width="240" height="240"/>
</g>
<g id="Diagramme_1_">
	<g id="Diagramme">
		<line class="st11" x1="182.6" y1="77" x2="200" y2="107.2"/>
		<polyline class="st12" points="155.6,62.7 160.4,38.5 181.6,75.3 		"/>
		<polyline class="st12" points="125.5,130.5 131.2,77 150,92.6 155.2,65.7 		"/>
		<polyline class="st12" points="99.5,160.5 117.9,201.5 125.3,132.9 		"/>
		<polyline class="st12" points="64.5,147.5 81.6,119.7 98.4,157.5 		"/>
		<line class="st12" x1="46.6" y1="177" x2="63.3" y2="149.6"/>
		<path class="st13" d="M64,159c-0.3,0-0.6-0.2-0.6-0.5l-0.2-8.5l-7.7,3.8c-0.3,0.1-0.6,0-0.7-0.3c-0.1-0.3,0-0.6,0.3-0.7l8.5-4.1
			c0.2-0.1,0.4-0.1,0.5,0c0.2,0.1,0.3,0.3,0.3,0.5l0.2,9.4c0,0.1,0,0.2-0.1,0.3C64.4,158.9,64.2,159,64,159"/>
		<path class="st13" d="M90.6,153c0.2-0.3,0.5-0.3,0.8-0.1l7.1,4.8l1.4-8.4c0-0.3,0.3-0.5,0.6-0.5c0.3,0.1,0.5,0.3,0.5,0.6l-1.5,9.3
			c0,0.2-0.2,0.3-0.3,0.4c-0.2,0.1-0.4,0.1-0.5-0.1l-7.8-5.3c-0.1-0.1-0.2-0.1-0.2-0.2C90.5,153.3,90.5,153.1,90.6,153"/>
		<path class="st13" d="M129.2,141.4c-0.3,0.1-0.6,0-0.7-0.3l-3.4-7.8l-5.6,6.4c-0.2,0.2-0.6,0.3-0.8,0.1c-0.2-0.2-0.3-0.6,0-0.8
			l6.2-7.1c0.1-0.1,0.3-0.2,0.5-0.2c0.2,0,0.3,0.2,0.4,0.3l3.8,8.6c0,0.1,0.1,0.2,0,0.3C129.5,141.1,129.4,141.3,129.2,141.4"/>
		<path class="st13" d="M159.2,74.4c-0.3,0.1-0.6,0-0.7-0.3l-3.4-7.8l-5.6,6.4c-0.2,0.2-0.6,0.3-0.8,0.1c-0.2-0.2-0.3-0.6,0-0.8
			l6.2-7.1c0.1-0.1,0.3-0.2,0.5-0.2c0.2,0,0.3,0.2,0.4,0.3l3.8,8.6c0,0.1,0.1,0.2,0,0.3C159.5,74.1,159.4,74.3,159.2,74.4"/>
		<path class="st13" d="M172.9,71.1c0.1-0.3,0.5-0.4,0.7-0.3l7.7,3.7l0.1-8.5c0-0.3,0.3-0.6,0.6-0.6c0.3,0,0.6,0.3,0.5,0.6l-0.2,9.4
			c0,0.2-0.1,0.4-0.3,0.5c-0.2,0.1-0.4,0.1-0.5,0l-8.5-4.1c-0.1,0-0.2-0.1-0.2-0.2C172.8,71.5,172.8,71.3,172.9,71.1"/>
		<path class="st4" d="M166.7,38.5c0,3.5-2.8,6.2-6.2,6.2c-3.5,0-6.3-2.8-6.3-6.2c0-3.5,2.8-6.2,6.3-6.2
			C163.9,32.2,166.7,35,166.7,38.5"/>
		<path class="st4" d="M155.8,90.3c1.1,4.7-3,8.7-7.6,7.6c-2.2-0.5-4-2.3-4.5-4.5c-1.1-4.7,3-8.7,7.6-7.6
			C153.5,86.3,155.2,88.1,155.8,90.3"/>
		<path class="st4" d="M137.5,77c0,3.5-2.8,6.2-6.3,6.2c-3.5,0-6.2-2.8-6.2-6.2c0-3.5,2.8-6.2,6.2-6.2
			C134.7,70.8,137.5,73.6,137.5,77"/>
		<path class="st4" d="M87.8,119.7c0,3.5-2.8,6.2-6.2,6.2c-3.5,0-6.3-2.8-6.3-6.2c0-3.5,2.8-6.2,6.3-6.2
			C85,113.5,87.8,116.3,87.8,119.7"/>
		<path class="st4" d="M206.2,107.2c0,3.5-2.8,6.2-6.2,6.2c-3.5,0-6.3-2.8-6.3-6.2c0-3.5,2.8-6.2,6.3-6.2
			C203.4,101,206.2,103.8,206.2,107.2"/>
		<path class="st4" d="M52.8,177c0,3.5-2.8,6.2-6.3,6.2c-3.5,0-6.2-2.8-6.2-6.2c0-3.5,2.8-6.2,6.2-6.2C50,170.8,52.8,173.6,52.8,177
			"/>
		<path class="st4" d="M123.7,201.5c0,3.5-2.8,6.2-6.2,6.2c-3.5,0-6.3-2.8-6.3-6.2c0-3.5,2.8-6.2,6.3-6.2
			C120.9,195.2,123.7,198,123.7,201.5"/>
	</g>
	<g id="Ebene_1">
	</g>
	<g id="Picto2">
	</g>
	<g id="Landkarten">
	</g>
	<g id="Layer_1">
	</g>
</g>
</svg>
