<?xml version="1.0" encoding="utf-8"?>
<!-- Generator: Adobe Illustrator 21.0.2, SVG Export Plug-In . SVG Version: 6.00 Build 0)  -->
<svg version="1.1" xmlns="http://www.w3.org/2000/svg" xmlns:xlink="http://www.w3.org/1999/xlink" x="0px" y="0px"
	 viewBox="0 0 240 240" style="enable-background:new 0 0 240 240;" xml:space="preserve">
<style type="text/css">
	.st0{fill:#F1F3F5;}
	.st1{fill:none;}
	.st2{fill:none;stroke:#B2BCC5;stroke-width:1.556;stroke-linecap:round;stroke-linejoin:round;stroke-miterlimit:10;}
	.st3{fill:none;stroke:#A1ABB4;stroke-width:2;stroke-linecap:square;stroke-linejoin:round;}
	.st4{fill:#002D5A;}
	.st5{fill:#00A5FF;}
	.st6{fill:none;stroke:#B2BCC5;stroke-width:1.25;stroke-linejoin:round;stroke-miterlimit:10;}
	.st7{fill:#F0AA00;}
	.st8{fill:#BE232D;}
	.st9{fill:none;stroke:#B2BCC5;stroke-width:1.67;stroke-linejoin:round;stroke-miterlimit:10;}
	.st10{fill:none;stroke:#002D5A;stroke-width:5;stroke-miterlimit:10;}
	.st11{fill:none;stroke:#9099A3;stroke-width:1.25;stroke-linecap:square;stroke-linejoin:round;stroke-miterlimit:10;}
	.st12{fill:none;stroke:#9099A3;stroke-width:1.25;stroke-linecap:square;stroke-linejoin:round;}
	.st13{fill:#9099A3;}
	.st14{fill:#CBD2D8;stroke:#E4E8EB;stroke-width:0.5;stroke-miterlimit:10;}
	.st15{fill:#B2BCC5;stroke:#E4E8EB;stroke-width:0.5;stroke-miterlimit:10;}
	.st16{fill:#00A5FF;stroke:#E4E8EB;stroke-width:0.5;stroke-miterlimit:10;}
	.st17{fill:#0064B4;stroke:#E4E8EB;stroke-width:0.5;stroke-miterlimit:10;}
	.st18{fill:#002D5A;stroke:#E4E8EB;stroke-width:0.5;stroke-miterlimit:10;}
	.st19{fill:#0096FA;stroke:#E4E8EB;stroke-width:0.5;stroke-miterlimit:10;}
	.st20{fill:none;stroke:#00A5FF;stroke-width:5;stroke-miterlimit:10;}
	.st21{fill:none;stroke:#9099A3;stroke-width:5;stroke-miterlimit:10;}
	.st22{fill:none;stroke:#5C666E;stroke-width:2;stroke-linejoin:round;}
	.st23{fill:#B2BCC5;}
	.st24{fill:none;stroke:#00A5FF;stroke-width:2;stroke-linecap:round;stroke-linejoin:round;stroke-miterlimit:10;}
	.st25{fill:none;stroke:#002D5A;stroke-width:2;stroke-linecap:round;stroke-linejoin:round;stroke-miterlimit:10;}
	.st26{fill:none;stroke:#002D5A;stroke-width:6;stroke-linejoin:round;stroke-miterlimit:10;}
	.st27{fill:none;stroke:#00A5FF;stroke-width:6;stroke-linejoin:round;stroke-miterlimit:10;}
	.st28{fill:#E4E8EB;}
	.st29{fill:none;stroke:#002D5A;stroke-width:5;stroke-linejoin:round;stroke-miterlimit:10;}
	
		.st30{fill:none;stroke:#B2BCC5;stroke-width:1.556;stroke-linecap:round;stroke-linejoin:round;stroke-miterlimit:10;stroke-dasharray:4,4;}
	.st31{fill:#CBD2D8;stroke:#F1F3F5;stroke-width:0.5;stroke-linejoin:round;}
	.st32{fill:#00A5FF;stroke:#D8DDE2;stroke-miterlimit:10;}
	.st33{fill:#002D5A;stroke:#D8DDE2;stroke-miterlimit:10;}
	.st34{fill:none;stroke:#D8DDE2;stroke-width:4;stroke-miterlimit:10;}
	.st35{fill:none;stroke:#6D7780;stroke-width:1.25;stroke-miterlimit:10;}
	.st36{fill:none;stroke:#D8DDE2;stroke-width:1.556;stroke-linecap:round;stroke-linejoin:round;stroke-miterlimit:10;}
	.st37{fill:#5C666E;}
	.st38{fill:#D8DDE2;}
	.st39{fill:#9099A3;stroke:#D8DDE2;stroke-miterlimit:10;}
	.st40{fill:#002D5A;stroke:#F1F3F5;stroke-width:2;stroke-miterlimit:10;}
	.st41{fill:#00A5FF;stroke:#F1F3F5;stroke-width:2;stroke-miterlimit:10;}
	.st42{fill:#A1ABB4;stroke:#F1F3F5;stroke-width:2;stroke-miterlimit:10;}
	.st43{fill:#00A5FF;stroke:#F1F3F5;stroke-miterlimit:10;}
	.st44{fill:#002D5A;stroke:#F1F3F5;stroke-miterlimit:10;}
	.st45{fill:#BFC7CE;stroke:#F1F3F5;stroke-miterlimit:10;}
	.st46{fill:#E4E8EB;stroke:#F1F3F5;stroke-miterlimit:10;}
	.st47{fill:#6D7780;stroke:#F1F3F5;stroke-miterlimit:10;}
	.st48{fill:#3B444D;stroke:#F1F3F5;stroke-miterlimit:10;}
	.st49{fill:#BFC7CE;}
	.st50{fill:#A1ABB4;}
	.st51{opacity:0.64;fill:#00A5FF;}
	.st52{opacity:0.64;fill:none;}
	.st53{opacity:0.64;fill:#0064B4;}
	.st54{opacity:0.64;fill:#002D5A;}
	.st55{opacity:0.64;fill:#0096FA;}
	.st56{fill:#1E1E1C;}
	.st57{fill:#B2BCC5;stroke:#F1F3F5;stroke-width:0.5;stroke-linejoin:round;}
	.st58{fill:#00A5FF;stroke:#F1F3F5;stroke-width:0.5;stroke-linejoin:round;}
	.st59{fill:#BFC7CE;stroke:#F1F3F5;stroke-width:0.5;stroke-linejoin:round;}
	.st60{fill:#002D5A;stroke:#F1F3F5;stroke-width:0.5;stroke-linejoin:round;}
	.st61{fill:#0064B4;stroke:#F1F3F5;stroke-width:0.5;stroke-linejoin:round;}
	.st62{fill:none;stroke:#00A5FF;stroke-width:3;stroke-miterlimit:10;}
	.st63{fill:none;stroke:#00A5FF;stroke-width:2;stroke-miterlimit:10;}
	.st64{fill:none;stroke:#00A5FF;stroke-miterlimit:10;}
</style>
<g id="Hintergrund">
	<rect x="0" class="st0" width="240" height="240"/>
</g>
<g id="Diagramme_1_">
	<g id="Diagramme">
		<path class="st5" d="M127.2,185.1c0.7,0,1.2,0.6,1.1,1.3l-1.1,18.2l16.9-6.6c0.6-0.2,1.3,0.1,1.5,0.7c0.2,0.6-0.1,1.3-0.7,1.5
			l-18.7,7.3c-0.4,0.1-0.8,0.1-1.1-0.1c-0.3-0.2-0.5-0.6-0.5-1l1.3-20c0-0.2,0.1-0.5,0.2-0.6C126.4,185.3,126.7,185.1,127.2,185.1"
			/>
	</g>
	<g id="Ebene_1">
		<line class="st36" x1="161.1" y1="38.2" x2="161.1" y2="212.9"/>
		<line class="st36" x1="161.1" y1="38.2" x2="161.1" y2="212.9"/>
		<line class="st36" x1="121.2" y1="38.2" x2="121.2" y2="212.9"/>
		<line class="st36" x1="121.2" y1="38.2" x2="121.2" y2="212.9"/>
		<line class="st36" x1="81.3" y1="38.2" x2="81.3" y2="212.9"/>
		<line class="st36" x1="81.3" y1="38.2" x2="81.3" y2="212.9"/>
		<line class="st36" x1="41.4" y1="38.2" x2="41.4" y2="212.9"/>
		<line class="st36" x1="41.4" y1="38.2" x2="41.4" y2="212.9"/>
		<line class="st36" x1="201" y1="38.2" x2="201" y2="212.9"/>
		<line class="st36" x1="201" y1="38.2" x2="201" y2="212.9"/>
		<polyline class="st20" points="53.6,38.2 53,39.5 53,40.8 52.3,42.2 51.6,43.5 50.9,44.8 50.3,46.1 50.3,47.4 49.6,48.7 50.3,50 
			50.3,51.4 50.3,52.7 50.3,54 49.6,55.3 48.9,56.6 48.3,57.9 47.6,59.3 48.3,60.6 48.9,61.9 50.3,63.2 50.3,64.5 50.9,65.8 
			52.3,67.1 53.6,68.5 55.7,69.8 57,71.1 58.3,72.4 61.7,73.7 64.4,75 67.1,76.3 69.1,77.7 71.8,79 75.1,80.3 81.2,81.6 87.2,82.9 
			94,84.2 101.4,85.5 107.4,86.9 111.5,88.2 113.5,89.5 114.8,90.8 114.8,92.1 115.5,93.4 116.8,94.8 118.2,96.1 119.5,97.4 
			120.2,98.7 122.2,100 122.2,101.3 123.6,102.6 125.6,104 127.6,105.3 128.9,106.6 128.9,107.9 128.3,109.2 129.6,110.5 
			130.3,111.8 130.3,113.2 130.3,114.5 130.9,115.8 131.6,117.1 132.3,118.4 133,119.7 132.3,121 133.6,122.4 135.7,123.7 
			138.3,125 140.4,126.3 143,127.6 145.1,128.9 146.4,130.2 148.4,131.6 150.4,132.9 153.1,134.2 155.2,135.5 157.2,136.8 
			159.9,138.1 161.2,139.5 163.2,140.8 164.6,142.1 165.9,143.4 167.3,144.7 168.6,146 169.3,147.3 170.6,148.7 171.3,150 
			171.3,151.3 171.3,152.6 170.6,153.9 170.6,155.2 170.6,156.5 169.9,157.9 169.9,159.2 169.3,160.5 167.9,161.8 165.9,163.1 
			165.9,164.4 164.6,165.7 163.2,167.1 161.2,168.4 160.5,169.7 158.5,171 157.8,172.3 156.5,173.6 155.8,174.9 155.2,176.3 
			153.8,177.6 153.1,178.9 151.8,180.2 150.4,181.5 149.1,182.8 147.1,184.2 145.7,185.5 144.4,186.8 141.7,188.1 139.7,189.4 
			138.3,190.7 137,192 135,193.4 133.6,194.7 133,196 132.3,197.3 130.9,198.6 130.9,199.9 129.6,201.2 128.3,202.6 126.1,203.6 		
			"/>
	</g>
	<g id="Picto2">
	</g>
	<g id="Landkarten">
	</g>
	<g id="Layer_1">
	</g>
</g>
</svg>
