<?xml version="1.0" encoding="utf-8"?>
<!-- Generator: Adobe Illustrator 21.0.2, SVG Export Plug-In . SVG Version: 6.00 Build 0)  -->
<svg version="1.1" xmlns="http://www.w3.org/2000/svg" xmlns:xlink="http://www.w3.org/1999/xlink" x="0px" y="0px"
	 viewBox="0 0 240 240" style="enable-background:new 0 0 240 240;" xml:space="preserve">
<style type="text/css">
	.st0{fill:#F1F3F5;}
	.st1{fill:none;}
	.st2{fill:none;stroke:#B2BCC5;stroke-width:1.556;stroke-linecap:round;stroke-linejoin:round;stroke-miterlimit:10;}
	.st3{fill:none;stroke:#A1ABB4;stroke-width:2;stroke-linecap:square;stroke-linejoin:round;}
	.st4{fill:#002D5A;}
	.st5{fill:#00A5FF;}
	.st6{fill:none;stroke:#B2BCC5;stroke-width:1.25;stroke-linejoin:round;stroke-miterlimit:10;}
	.st7{fill:#F0AA00;}
	.st8{fill:#BE232D;}
	.st9{fill:none;stroke:#B2BCC5;stroke-width:1.67;stroke-linejoin:round;stroke-miterlimit:10;}
	.st10{fill:none;stroke:#002D5A;stroke-width:5;stroke-miterlimit:10;}
	.st11{fill:none;stroke:#9099A3;stroke-width:1.25;stroke-linecap:square;stroke-linejoin:round;stroke-miterlimit:10;}
	.st12{fill:none;stroke:#9099A3;stroke-width:1.25;stroke-linecap:square;stroke-linejoin:round;}
	.st13{fill:#9099A3;}
	.st14{fill:#CBD2D8;stroke:#E4E8EB;stroke-width:0.5;stroke-miterlimit:10;}
	.st15{fill:#B2BCC5;stroke:#E4E8EB;stroke-width:0.5;stroke-miterlimit:10;}
	.st16{fill:#00A5FF;stroke:#E4E8EB;stroke-width:0.5;stroke-miterlimit:10;}
	.st17{fill:#0064B4;stroke:#E4E8EB;stroke-width:0.5;stroke-miterlimit:10;}
	.st18{fill:#002D5A;stroke:#E4E8EB;stroke-width:0.5;stroke-miterlimit:10;}
	.st19{fill:#0096FA;stroke:#E4E8EB;stroke-width:0.5;stroke-miterlimit:10;}
	.st20{fill:none;stroke:#00A5FF;stroke-width:5;stroke-miterlimit:10;}
	.st21{fill:none;stroke:#9099A3;stroke-width:5;stroke-miterlimit:10;}
	.st22{fill:none;stroke:#5C666E;stroke-width:2;stroke-linejoin:round;}
	.st23{fill:#B2BCC5;}
	.st24{fill:none;stroke:#00A5FF;stroke-width:2;stroke-linecap:round;stroke-linejoin:round;stroke-miterlimit:10;}
	.st25{fill:none;stroke:#002D5A;stroke-width:2;stroke-linecap:round;stroke-linejoin:round;stroke-miterlimit:10;}
	.st26{fill:none;stroke:#002D5A;stroke-width:6;stroke-linejoin:round;stroke-miterlimit:10;}
	.st27{fill:none;stroke:#00A5FF;stroke-width:6;stroke-linejoin:round;stroke-miterlimit:10;}
	.st28{fill:#E4E8EB;}
	.st29{fill:none;stroke:#002D5A;stroke-width:5;stroke-linejoin:round;stroke-miterlimit:10;}
	
		.st30{fill:none;stroke:#B2BCC5;stroke-width:1.556;stroke-linecap:round;stroke-linejoin:round;stroke-miterlimit:10;stroke-dasharray:4,4;}
	.st31{fill:#CBD2D8;stroke:#F1F3F5;stroke-width:0.5;stroke-linejoin:round;}
	.st32{fill:#00A5FF;stroke:#D8DDE2;stroke-miterlimit:10;}
	.st33{fill:#002D5A;stroke:#D8DDE2;stroke-miterlimit:10;}
	.st34{fill:none;stroke:#D8DDE2;stroke-width:4;stroke-miterlimit:10;}
	.st35{fill:none;stroke:#6D7780;stroke-width:1.25;stroke-miterlimit:10;}
	.st36{fill:none;stroke:#D8DDE2;stroke-width:1.556;stroke-linecap:round;stroke-linejoin:round;stroke-miterlimit:10;}
	.st37{fill:#5C666E;}
	.st38{fill:#D8DDE2;}
	.st39{fill:#9099A3;stroke:#D8DDE2;stroke-miterlimit:10;}
	.st40{fill:#002D5A;stroke:#F1F3F5;stroke-width:2;stroke-miterlimit:10;}
	.st41{fill:#00A5FF;stroke:#F1F3F5;stroke-width:2;stroke-miterlimit:10;}
	.st42{fill:#A1ABB4;stroke:#F1F3F5;stroke-width:2;stroke-miterlimit:10;}
	.st43{fill:#00A5FF;stroke:#F1F3F5;stroke-miterlimit:10;}
	.st44{fill:#002D5A;stroke:#F1F3F5;stroke-miterlimit:10;}
	.st45{fill:#BFC7CE;stroke:#F1F3F5;stroke-miterlimit:10;}
	.st46{fill:#E4E8EB;stroke:#F1F3F5;stroke-miterlimit:10;}
	.st47{fill:#6D7780;stroke:#F1F3F5;stroke-miterlimit:10;}
	.st48{fill:#3B444D;stroke:#F1F3F5;stroke-miterlimit:10;}
	.st49{fill:#BFC7CE;}
	.st50{fill:#A1ABB4;}
	.st51{opacity:0.64;fill:#00A5FF;}
	.st52{opacity:0.64;fill:none;}
	.st53{opacity:0.64;fill:#0064B4;}
	.st54{opacity:0.64;fill:#002D5A;}
	.st55{opacity:0.64;fill:#0096FA;}
	.st56{fill:#1E1E1C;}
	.st57{fill:#B2BCC5;stroke:#F1F3F5;stroke-width:0.5;stroke-linejoin:round;}
	.st58{fill:#00A5FF;stroke:#F1F3F5;stroke-width:0.5;stroke-linejoin:round;}
	.st59{fill:#BFC7CE;stroke:#F1F3F5;stroke-width:0.5;stroke-linejoin:round;}
	.st60{fill:#002D5A;stroke:#F1F3F5;stroke-width:0.5;stroke-linejoin:round;}
	.st61{fill:#0064B4;stroke:#F1F3F5;stroke-width:0.5;stroke-linejoin:round;}
	.st62{fill:none;stroke:#00A5FF;stroke-width:3;stroke-miterlimit:10;}
	.st63{fill:none;stroke:#00A5FF;stroke-width:2;stroke-miterlimit:10;}
	.st64{fill:none;stroke:#00A5FF;stroke-miterlimit:10;}
</style>
<g id="Hintergrund">
	<rect x="0" class="st0" width="240" height="240"/>
</g>
<g id="Diagramme_1_">
	<g id="Diagramme">
		<polygon class="st5" points="99.6,193.7 99.6,193.4 99.7,193.1 99.7,192.8 99.7,192.5 99.8,192.2 99.9,191.9 100,191.6 
			100.1,191.2 100.2,190.9 100.3,190.6 100.4,190.3 100.6,190 100.8,189.7 100.9,189.4 101.1,189.1 101.3,188.8 101.6,188.5 
			101.8,188.2 102,187.9 102.3,187.5 102.5,187.2 102.8,186.9 103.1,186.6 103.3,186.3 103.6,186 103.9,185.7 104.2,185.4 
			104.5,185.1 104.8,184.8 105.2,184.5 105.5,184.2 105.8,183.8 106.2,183.5 106.5,183.2 106.8,182.9 107.2,182.6 107.5,182.3 
			107.9,182 108.2,181.7 108.6,181.4 108.9,181.1 109.3,180.8 109.6,180.5 110,180.1 110.3,179.8 110.7,179.5 111,179.2 
			111.4,178.9 111.7,178.6 112.1,178.3 112.4,178 112.7,177.7 113,177.4 113.4,177.1 113.7,176.7 114,176.4 114.3,176.1 
			114.6,175.8 114.9,175.5 115.2,175.2 115.5,174.9 115.7,174.6 116,174.3 116.2,174 116.5,173.7 116.7,173.4 117,173 117.2,172.7 
			117.4,172.4 117.6,172.1 117.8,171.8 118,171.5 118.2,171.2 118.4,170.9 118.6,170.6 118.7,170.3 118.9,170 119,169.6 
			119.1,169.3 119.2,169 119.4,168.7 119.5,168.4 119.6,168.1 119.6,167.8 119.7,167.5 119.8,167.2 119.9,166.9 119.9,166.6 
			119.9,166.2 120,165.9 120,165.6 120,165.3 120,165 120,164.7 120,164.4 120,164.1 119.9,163.8 119.9,163.5 119.9,163.2 
			119.8,162.9 119.8,162.5 119.7,162.2 119.6,161.9 119.5,161.6 119.4,161.3 119.3,161 119.2,160.7 119.1,160.4 119,160.1 
			118.9,159.8 118.7,159.5 118.6,159.2 118.4,158.8 118.3,158.5 118.1,158.2 117.9,157.9 117.8,157.6 117.6,157.3 117.4,157 
			117.2,156.7 117,156.4 116.8,156.1 116.6,155.8 116.4,155.4 116.2,155.1 116,154.8 115.7,154.5 115.5,154.2 115.3,153.9 
			115,153.6 114.8,153.3 114.5,153 114.3,152.7 114,152.4 113.8,152.1 113.5,151.7 113.2,151.4 113,151.1 112.7,150.8 112.4,150.5 
			112.2,150.2 111.9,149.9 111.6,149.6 111.3,149.3 111,149 110.7,148.7 110.4,148.4 110.1,148 109.8,147.7 109.5,147.4 
			109.2,147.1 108.9,146.8 108.6,146.5 108.2,146.2 107.9,145.9 107.6,145.6 107.3,145.3 106.9,145 106.6,144.6 106.3,144.3 
			105.9,144 105.6,143.7 105.2,143.4 104.9,143.1 104.5,142.8 104.2,142.5 103.8,142.2 103.5,141.9 103.1,141.6 102.7,141.2 
			102.3,140.9 102,140.6 101.6,140.3 101.2,140 100.8,139.7 100.4,139.4 100,139.1 99.6,138.8 99.1,138.5 98.7,138.2 98.3,137.9 
			97.8,137.5 97.4,137.2 97,136.9 96.5,136.6 96,136.3 95.6,136 95.1,135.7 94.6,135.4 94.1,135.1 93.6,134.8 93.1,134.5 
			92.6,134.2 92.1,133.8 91.5,133.5 91,133.2 90.4,132.9 89.9,132.6 89.3,132.3 88.7,132 88.2,131.7 87.6,131.4 87,131.1 
			86.4,130.8 85.7,130.4 85.1,130.1 84.5,129.8 83.9,129.5 83.2,129.2 82.6,128.9 81.9,128.6 81.2,128.3 80.6,128 79.9,127.7 
			79.2,127.4 78.5,127.1 77.8,126.7 77.1,126.4 76.4,126.1 75.7,125.8 75,125.5 74.3,125.2 73.6,124.9 72.8,124.6 72.1,124.3 
			71.4,124 70.7,123.7 69.9,123.3 69.2,123 68.5,122.7 67.8,122.4 67,122.1 66.3,121.8 65.6,121.5 64.9,121.2 64.2,120.9 
			63.5,120.6 62.8,120.3 62.1,119.9 61.4,119.6 60.7,119.3 60.1,119 59.4,118.7 58.7,118.4 58.1,118.1 57.5,117.8 56.8,117.5 
			56.2,117.2 55.6,116.9 55.1,116.6 54.5,116.2 53.9,115.9 53.4,115.6 52.9,115.3 52.4,115 51.9,114.7 51.4,114.4 51,114.1 
			50.5,113.8 50.1,113.5 49.7,113.2 49.4,112.9 49,112.5 48.7,112.2 48.3,111.9 48.1,111.6 47.8,111.3 47.5,111 47.3,110.7 
			47.1,110.4 46.9,110.1 46.7,109.8 46.6,109.5 46.5,109.2 46.4,108.8 46.4,108.5 46.3,108.2 46.3,107.9 46.3,107.6 46.3,107.3 
			46.4,107 46.4,106.7 46.5,106.4 46.7,106.1 46.8,105.8 47,105.5 47.2,105.1 47.4,104.8 47.6,104.5 47.9,104.2 48.1,103.9 
			48.4,103.6 48.7,103.3 49.1,103 49.4,102.7 49.8,102.4 50.2,102.1 50.6,101.7 51,101.4 51.5,101.1 51.9,100.8 52.4,100.5 
			52.9,100.2 53.4,99.9 53.9,99.6 54.4,99.3 55,99 55.5,98.7 56.1,98.3 56.7,98 57.3,97.7 57.9,97.4 58.5,97.1 59.1,96.8 59.7,96.5 
			60.4,96.2 61,95.9 61.6,95.6 62.3,95.3 62.9,94.9 63.6,94.6 64.2,94.3 64.9,94 65.6,93.7 66.2,93.4 66.9,93.1 67.6,92.8 
			68.3,92.5 68.9,92.2 69.6,91.9 70.3,91.6 70.9,91.3 71.6,90.9 72.2,90.6 72.9,90.3 73.6,90 74.2,89.7 74.9,89.4 75.5,89.1 
			76.1,88.8 76.8,88.5 77.4,88.2 78,87.9 78.6,87.5 79.2,87.2 79.8,86.9 80.4,86.6 81,86.3 81.6,86 82.2,85.7 82.7,85.4 83.3,85.1 
			83.8,84.8 84.4,84.5 84.9,84.2 85.4,83.8 86,83.5 86.5,83.2 87,82.9 87.4,82.6 87.9,82.3 88.4,82 88.9,81.7 89.3,81.4 89.8,81.1 
			90.2,80.8 90.7,80.5 91.1,80.1 91.5,79.8 91.9,79.5 92.3,79.2 92.7,78.9 93.1,78.6 93.5,78.3 93.8,78 94.2,77.7 94.6,77.4 
			94.9,77.1 95.3,76.7 95.6,76.4 95.9,76.1 96.3,75.8 96.6,75.5 96.9,75.2 97.2,74.9 97.5,74.6 97.8,74.3 98.1,74 98.3,73.7 
			98.6,73.3 98.9,73 99.1,72.7 99.4,72.4 99.6,72.1 99.8,71.8 100.1,71.5 100.3,71.2 100.5,70.9 100.8,70.6 101,70.3 101.2,70 
			101.4,69.6 101.6,69.3 101.7,69 101.9,68.7 102.1,68.4 102.3,68.1 102.4,67.8 102.6,67.5 102.7,67.2 102.9,66.9 103,66.6 
			103.2,66.3 103.3,65.9 103.4,65.6 103.5,65.3 103.6,65 103.7,64.7 103.8,64.4 103.9,64.1 104,63.8 104.1,63.5 104.1,63.2 
			104.2,62.9 104.2,62.5 104.3,62.2 104.3,61.9 104.4,61.6 104.4,61.3 104.4,61 104.4,60.7 104.5,60.4 104.5,60.1 104.4,59.8 
			104.4,59.5 104.4,59.2 104.4,58.8 104.4,58.5 104.3,58.2 104.3,57.9 104.2,57.6 104.2,57.3 104.1,57 104.1,56.7 104,56.4 
			103.9,56.1 103.8,55.8 103.7,55.4 103.7,55.1 103.6,54.8 103.5,54.5 103.4,54.2 103.2,53.9 103.2,53.6 103,53.3 102.9,53 
			102.8,52.7 102.7,52.4 102.6,52 102.4,51.7 102.3,51.4 102.2,51.1 102.1,50.8 101.9,50.5 101.8,50.2 101.7,49.9 101.6,49.6 
			101.5,49.3 101.3,49 101.2,48.7 101.1,48.3 101,48 100.9,47.7 100.8,47.4 100.7,47.1 100.6,46.8 100.5,46.5 100.4,46.2 
			100.3,45.9 100.2,45.6 100.2,45.3 100.1,45 100,44.6 100,44.3 99.9,44 99.9,43.7 99.9,43.4 99.8,43.1 99.8,42.8 99.8,42.5 
			99.8,42.2 99.8,41.9 99.9,41.6 99.9,41.2 99.9,40.9 100,40.6 100.1,40.3 100.1,40 100.2,39.7 100.3,39.4 100.4,39.1 100.5,38.8 
			100.6,38.5 100.7,38.2 100.8,37.9 101,37.5 101.1,37.2 101.3,36.9 101.5,36.6 101.6,36.3 101.8,36 148.5,36 148.7,36.3 
			148.9,36.6 149,36.9 149.2,37.2 149.3,37.5 149.5,37.9 149.6,38.2 149.7,38.5 149.8,38.8 149.9,39.1 150,39.4 150.1,39.7 
			150.2,40 150.3,40.3 150.3,40.6 150.4,40.9 150.4,41.2 150.4,41.6 150.5,41.9 150.5,42.2 150.5,42.5 150.5,42.8 150.5,43.1 
			150.4,43.4 150.4,43.7 150.4,44 150.3,44.3 150.3,44.6 150.2,45 150.2,45.3 150.1,45.6 150,45.9 149.9,46.2 149.8,46.5 
			149.7,46.8 149.6,47.1 149.5,47.4 149.4,47.7 149.3,48 149.2,48.3 149.1,48.7 149,49 148.9,49.3 148.7,49.6 148.6,49.9 
			148.5,50.2 148.4,50.5 148.2,50.8 148.1,51.1 148,51.4 147.9,51.7 147.8,52 147.6,52.4 147.5,52.7 147.4,53 147.3,53.3 
			147.2,53.6 147.1,53.9 147,54.2 146.8,54.5 146.8,54.8 146.7,55.1 146.6,55.4 146.5,55.8 146.4,56.1 146.3,56.4 146.3,56.7 
			146.2,57 146.1,57.3 146.1,57.6 146,57.9 146,58.2 146,58.5 145.9,58.8 145.9,59.2 145.9,59.5 145.9,59.8 145.9,60.1 145.9,60.4 
			145.9,60.7 145.9,61 145.9,61.3 145.9,61.6 146,61.9 146,62.2 146.1,62.5 146.1,62.9 146.2,63.2 146.3,63.5 146.3,63.8 
			146.4,64.1 146.5,64.4 146.6,64.7 146.7,65 146.8,65.3 146.9,65.6 147,65.9 147.2,66.3 147.3,66.6 147.4,66.9 147.6,67.2 
			147.7,67.5 147.9,67.8 148.1,68.1 148.2,68.4 148.4,68.7 148.6,69 148.8,69.3 148.9,69.6 149.1,70 149.4,70.3 149.6,70.6 
			149.8,70.9 150,71.2 150.2,71.5 150.5,71.8 150.7,72.1 150.9,72.4 151.2,72.7 151.5,73 151.7,73.3 152,73.7 152.3,74 152.5,74.3 
			152.8,74.6 153.1,74.9 153.4,75.2 153.7,75.5 154.1,75.8 154.4,76.1 154.7,76.4 155.1,76.7 155.4,77.1 155.7,77.4 156.1,77.7 
			156.5,78 156.8,78.3 157.2,78.6 157.6,78.9 158,79.2 158.4,79.5 158.8,79.8 159.2,80.1 159.7,80.5 160.1,80.8 160.5,81.1 
			161,81.4 161.4,81.7 161.9,82 162.4,82.3 162.9,82.6 163.4,82.9 163.9,83.2 164.4,83.5 164.9,83.8 165.4,84.2 165.9,84.5 
			166.5,84.8 167,85.1 167.6,85.4 168.2,85.7 168.7,86 169.3,86.3 169.9,86.6 170.5,86.9 171.1,87.2 171.7,87.5 172.3,87.9 
			172.9,88.2 173.5,88.5 174.2,88.8 174.8,89.1 175.4,89.4 176.1,89.7 176.7,90 177.4,90.3 178,90.6 178.7,90.9 179.4,91.3 
			180,91.6 180.7,91.9 181.4,92.2 182,92.5 182.7,92.8 183.4,93.1 184.1,93.4 184.7,93.7 185.4,94 186.1,94.3 186.7,94.6 
			187.4,94.9 188,95.3 188.7,95.6 189.3,95.9 190,96.2 190.6,96.5 191.2,96.8 191.8,97.1 192.4,97.4 193,97.7 193.6,98 194.2,98.3 
			194.8,98.7 195.3,99 195.9,99.3 196.4,99.6 196.9,99.9 197.4,100.2 197.9,100.5 198.4,100.8 198.8,101.1 199.3,101.4 199.7,101.7 
			200.1,102.1 200.5,102.4 200.9,102.7 201.2,103 201.6,103.3 201.9,103.6 202.2,103.9 202.5,104.2 202.7,104.5 202.9,104.8 
			203.2,105.1 203.3,105.5 203.5,105.8 203.6,106.1 203.8,106.4 203.9,106.7 203.9,107 204,107.3 204,107.6 204,107.9 204,108.2 
			204,108.5 203.9,108.8 203.8,109.2 203.7,109.5 203.5,109.8 203.4,110.1 203.2,110.4 203,110.7 202.8,111 202.5,111.3 
			202.3,111.6 202,111.9 201.7,112.2 201.3,112.5 201,112.9 200.6,113.2 200.2,113.5 199.8,113.8 199.4,114.1 198.9,114.4 
			198.4,114.7 197.9,115 197.4,115.3 196.9,115.6 196.4,115.9 195.8,116.2 195.2,116.6 194.7,116.9 194.1,117.2 193.5,117.5 
			192.8,117.8 192.2,118.1 191.6,118.4 190.9,118.7 190.3,119 189.6,119.3 188.9,119.6 188.2,119.9 187.5,120.3 186.8,120.6 
			186.1,120.9 185.4,121.2 184.7,121.5 184,121.8 183.3,122.1 182.5,122.4 181.8,122.7 181.1,123 180.4,123.3 179.7,123.7 
			178.9,124 178.2,124.3 177.5,124.6 176.7,124.9 176,125.2 175.3,125.5 174.6,125.8 173.9,126.1 173.2,126.4 172.5,126.7 
			171.8,127.1 171.1,127.4 170.4,127.7 169.7,128 169.1,128.3 168.4,128.6 167.7,128.9 167.1,129.2 166.4,129.5 165.8,129.8 
			165.2,130.1 164.6,130.4 163.9,130.8 163.3,131.1 162.7,131.4 162.2,131.7 161.6,132 161,132.3 160.4,132.6 159.9,132.9 
			159.3,133.2 158.8,133.5 158.2,133.8 157.7,134.2 157.2,134.5 156.7,134.8 156.2,135.1 155.7,135.4 155.2,135.7 154.8,136 
			154.3,136.3 153.8,136.6 153.4,136.9 152.9,137.2 152.5,137.5 152,137.9 151.6,138.2 151.2,138.5 150.8,138.8 150.3,139.1 
			149.9,139.4 149.5,139.7 149.1,140 148.7,140.3 148.4,140.6 148,140.9 147.6,141.2 147.2,141.6 146.8,141.9 146.5,142.2 
			146.1,142.5 145.8,142.8 145.4,143.1 145.1,143.4 144.7,143.7 144.4,144 144,144.3 143.7,144.6 143.4,145 143.1,145.3 
			142.7,145.6 142.4,145.9 142.1,146.2 141.8,146.5 141.4,146.8 141.1,147.1 140.8,147.4 140.5,147.7 140.2,148 139.9,148.4 
			139.6,148.7 139.3,149 139,149.3 138.7,149.6 138.4,149.9 138.2,150.2 137.9,150.5 137.6,150.8 137.3,151.1 137.1,151.4 
			136.8,151.7 136.5,152.1 136.3,152.4 136,152.7 135.8,153 135.5,153.3 135.3,153.6 135,153.9 134.8,154.2 134.6,154.5 
			134.4,154.8 134.1,155.1 133.9,155.4 133.7,155.8 133.5,156.1 133.3,156.4 133.1,156.7 132.9,157 132.7,157.3 132.5,157.6 
			132.4,157.9 132.2,158.2 132,158.5 131.9,158.8 131.7,159.2 131.6,159.5 131.4,159.8 131.3,160.1 131.2,160.4 131.1,160.7 
			131,161 130.9,161.3 130.8,161.6 130.7,161.9 130.6,162.2 130.6,162.5 130.5,162.9 130.4,163.2 130.4,163.5 130.4,163.8 
			130.3,164.1 130.3,164.4 130.3,164.7 130.3,165 130.3,165.3 130.3,165.6 130.3,165.9 130.4,166.2 130.4,166.6 130.5,166.9 
			130.5,167.2 130.6,167.5 130.7,167.8 130.7,168.1 130.8,168.4 131,168.7 131.1,169 131.2,169.3 131.3,169.6 131.5,170 
			131.6,170.3 131.8,170.6 131.9,170.9 132.1,171.2 132.3,171.5 132.5,171.8 132.7,172.1 132.9,172.4 133.1,172.7 133.4,173 
			133.6,173.4 133.8,173.7 134.1,174 134.3,174.3 134.6,174.6 134.9,174.9 135.1,175.2 135.4,175.5 135.7,175.8 136,176.1 
			136.3,176.4 136.6,176.7 137,177.1 137.3,177.4 137.6,177.7 137.9,178 138.3,178.3 138.6,178.6 138.9,178.9 139.3,179.2 
			139.6,179.5 140,179.8 140.3,180.1 140.7,180.5 141,180.8 141.4,181.1 141.7,181.4 142.1,181.7 142.4,182 142.8,182.3 
			143.1,182.6 143.5,182.9 143.8,183.2 144.1,183.5 144.5,183.8 144.8,184.2 145.1,184.5 145.5,184.8 145.8,185.1 146.1,185.4 
			146.4,185.7 146.7,186 147,186.3 147.3,186.6 147.5,186.9 147.8,187.2 148.1,187.5 148.3,187.9 148.5,188.2 148.8,188.5 
			149,188.8 149.2,189.1 149.4,189.4 149.5,189.7 149.7,190 149.9,190.3 150,190.6 150.1,190.9 150.3,191.2 150.4,191.6 
			150.5,191.9 150.5,192.2 150.6,192.5 150.6,192.8 150.7,193.1 150.7,193.4 150.7,193.7 		"/>
	</g>
	<g id="Ebene_1">
	</g>
	<g id="Picto2">
	</g>
	<g id="Landkarten">
	</g>
	<g id="Layer_1">
	</g>
</g>
</svg>
